<svg id="Calque_1" data-name="Calque 1" xmlns="http://www.w3.org/2000/svg" xmlns:xlink="http://www.w3.org/1999/xlink" viewBox="0 0 1366 768"><defs><style>.cls-1{fill:url(#Dégradé_sans_nom_37);}.cls-2{fill:url(#Dégradé_sans_nom_37-2);}.cls-3{fill:url(#Dégradé_sans_nom_37-3);}.cls-4{fill:url(#Dégradé_sans_nom_37-4);}.cls-5{fill:url(#Dégradé_sans_nom_37-5);}.cls-6{fill:url(#Dégradé_sans_nom_37-6);}.cls-7{fill:url(#Dégradé_sans_nom_37-7);}.cls-8{fill:url(#Dégradé_sans_nom_37-8);}.cls-9{fill:url(#Dégradé_sans_nom_37-9);}.cls-10{fill:url(#Dégradé_sans_nom_37-10);}.cls-11{fill:url(#Dégradé_sans_nom_37-11);}.cls-12{fill:url(#Dégradé_sans_nom_37-12);}.cls-13{fill:url(#Dégradé_sans_nom_37-13);}.cls-14{fill:url(#Dégradé_sans_nom_37-14);}.cls-15{fill:url(#Dégradé_sans_nom_37-15);}.cls-16{fill:url(#Dégradé_sans_nom_37-16);}.cls-17{fill:url(#Dégradé_sans_nom_37-17);}.cls-18{fill:url(#Dégradé_sans_nom_37-18);}.cls-19{fill:url(#Dégradé_sans_nom_37-19);}.cls-20{fill:url(#Dégradé_sans_nom_37-20);}.cls-21{fill:url(#Dégradé_sans_nom_37-21);}.cls-22{fill:url(#Dégradé_sans_nom_37-22);}.cls-23{fill:url(#Dégradé_sans_nom_37-23);}.cls-24{fill:url(#Dégradé_sans_nom_37-24);}.cls-25{fill:url(#Dégradé_sans_nom_37-25);}.cls-26{fill:url(#Dégradé_sans_nom_37-26);}.cls-27{fill:url(#Dégradé_sans_nom_37-27);}.cls-28{fill:url(#Dégradé_sans_nom_37-28);}.cls-29{fill:url(#Dégradé_sans_nom_37-29);}.cls-30{fill:url(#Dégradé_sans_nom_37-30);}.cls-31{fill:url(#Dégradé_sans_nom_37-31);}.cls-32{fill:url(#Dégradé_sans_nom_37-32);}.cls-33{fill:url(#Dégradé_sans_nom_37-33);}.cls-34{fill:url(#Dégradé_sans_nom_37-34);}.cls-35{fill:url(#Dégradé_sans_nom_37-35);}.cls-36{fill:url(#Dégradé_sans_nom_37-36);}.cls-37{fill:url(#Dégradé_sans_nom_37-37);}.cls-38{fill:url(#Dégradé_sans_nom_37-38);}.cls-39{fill:url(#Dégradé_sans_nom_37-39);}.cls-40{fill:url(#Dégradé_sans_nom_37-40);}.cls-41{fill:url(#Dégradé_sans_nom_37-41);}.cls-42{fill:url(#Dégradé_sans_nom_37-42);}.cls-43{fill:url(#Dégradé_sans_nom_37-43);}.cls-44{fill:url(#Dégradé_sans_nom_37-44);}</style><linearGradient id="Dégradé_sans_nom_37" x1="987.06" y1="1167.57" x2="-150.85" y2="-32.48" gradientUnits="userSpaceOnUse"><stop offset="0" stop-color="#78d3de"/><stop offset="0.31" stop-color="#50a6c5"/><stop offset="0.78" stop-color="#1765a2"/><stop offset="1" stop-color="#004c94"/></linearGradient><linearGradient id="Dégradé_sans_nom_37-2" x1="1218.54" y1="948.07" x2="80.63" y2="-251.98" xlink:href="#Dégradé_sans_nom_37"/><linearGradient id="Dégradé_sans_nom_37-3" x1="1179.95" y1="984.67" x2="42.04" y2="-215.38" xlink:href="#Dégradé_sans_nom_37"/><linearGradient id="Dégradé_sans_nom_37-4" x1="1382.13" y1="792.96" x2="244.22" y2="-407.09" xlink:href="#Dégradé_sans_nom_37"/><linearGradient id="Dégradé_sans_nom_37-5" x1="1256.21" y1="912.36" x2="118.3" y2="-287.69" xlink:href="#Dégradé_sans_nom_37"/><linearGradient id="Dégradé_sans_nom_37-6" x1="1368.53" y1="805.85" x2="230.62" y2="-394.2" xlink:href="#Dégradé_sans_nom_37"/><linearGradient id="Dégradé_sans_nom_37-7" x1="1296.5" y1="874.15" x2="158.59" y2="-325.9" xlink:href="#Dégradé_sans_nom_37"/><linearGradient id="Dégradé_sans_nom_37-8" x1="1251.2" y1="917.1" x2="113.29" y2="-282.95" xlink:href="#Dégradé_sans_nom_37"/><linearGradient id="Dégradé_sans_nom_37-9" x1="1112.81" y1="1048.33" x2="-25.1" y2="-151.72" xlink:href="#Dégradé_sans_nom_37"/><linearGradient id="Dégradé_sans_nom_37-10" x1="1504.28" y1="677.13" x2="366.37" y2="-522.92" xlink:href="#Dégradé_sans_nom_37"/><linearGradient id="Dégradé_sans_nom_37-11" x1="1041.31" y1="1116.13" x2="-96.6" y2="-83.92" xlink:href="#Dégradé_sans_nom_37"/><linearGradient id="Dégradé_sans_nom_37-12" x1="881.04" y1="1268.1" x2="-256.87" y2="68.05" xlink:href="#Dégradé_sans_nom_37"/><linearGradient id="Dégradé_sans_nom_37-13" x1="956.27" y1="1196.77" x2="-181.64" y2="-3.28" xlink:href="#Dégradé_sans_nom_37"/><linearGradient id="Dégradé_sans_nom_37-14" x1="981.79" y1="1172.57" x2="-156.12" y2="-27.48" xlink:href="#Dégradé_sans_nom_37"/><linearGradient id="Dégradé_sans_nom_37-15" x1="900.03" y1="1250.09" x2="-237.88" y2="50.04" xlink:href="#Dégradé_sans_nom_37"/><linearGradient id="Dégradé_sans_nom_37-16" x1="1119.63" y1="1041.86" x2="-18.28" y2="-158.19" xlink:href="#Dégradé_sans_nom_37"/><linearGradient id="Dégradé_sans_nom_37-17" x1="1050.47" y1="1107.44" x2="-87.44" y2="-92.61" xlink:href="#Dégradé_sans_nom_37"/><linearGradient id="Dégradé_sans_nom_37-18" x1="1390" y1="785.49" x2="252.09" y2="-414.56" xlink:href="#Dégradé_sans_nom_37"/><linearGradient id="Dégradé_sans_nom_37-19" x1="1175.65" y1="988.74" x2="37.74" y2="-211.31" xlink:href="#Dégradé_sans_nom_37"/><linearGradient id="Dégradé_sans_nom_37-20" x1="1573.57" y1="611.42" x2="435.66" y2="-588.63" xlink:href="#Dégradé_sans_nom_37"/><linearGradient id="Dégradé_sans_nom_37-21" x1="1132.54" y1="1029.62" x2="-5.37" y2="-170.43" xlink:href="#Dégradé_sans_nom_37"/><linearGradient id="Dégradé_sans_nom_37-22" x1="1160.03" y1="1003.56" x2="22.12" y2="-196.49" xlink:href="#Dégradé_sans_nom_37"/><linearGradient id="Dégradé_sans_nom_37-23" x1="1172.6" y1="991.63" x2="34.69" y2="-208.42" xlink:href="#Dégradé_sans_nom_37"/><linearGradient id="Dégradé_sans_nom_37-24" x1="1187.09" y1="977.89" x2="49.18" y2="-222.16" xlink:href="#Dégradé_sans_nom_37"/><linearGradient id="Dégradé_sans_nom_37-25" x1="1111.94" y1="1049.16" x2="-25.97" y2="-150.89" xlink:href="#Dégradé_sans_nom_37"/><linearGradient id="Dégradé_sans_nom_37-26" x1="1139.43" y1="1023.09" x2="1.52" y2="-176.96" xlink:href="#Dégradé_sans_nom_37"/><linearGradient id="Dégradé_sans_nom_37-27" x1="1152" y1="1011.17" x2="14.09" y2="-188.88" xlink:href="#Dégradé_sans_nom_37"/><linearGradient id="Dégradé_sans_nom_37-28" x1="1166.49" y1="997.43" x2="28.58" y2="-202.62" xlink:href="#Dégradé_sans_nom_37"/><linearGradient id="Dégradé_sans_nom_37-29" x1="1283.32" y1="886.65" x2="145.41" y2="-313.4" xlink:href="#Dégradé_sans_nom_37"/><linearGradient id="Dégradé_sans_nom_37-30" x1="1508.44" y1="673.18" x2="370.53" y2="-526.87" xlink:href="#Dégradé_sans_nom_37"/><linearGradient id="Dégradé_sans_nom_37-31" x1="1426.83" y1="750.57" x2="288.92" y2="-449.48" xlink:href="#Dégradé_sans_nom_37"/><linearGradient id="Dégradé_sans_nom_37-32" x1="1210.95" y1="955.27" x2="73.04" y2="-244.78" xlink:href="#Dégradé_sans_nom_37"/><linearGradient id="Dégradé_sans_nom_37-33" x1="1467.7" y1="711.81" x2="329.79" y2="-488.24" xlink:href="#Dégradé_sans_nom_37"/><linearGradient id="Dégradé_sans_nom_37-34" x1="1466.49" y1="712.97" x2="328.58" y2="-487.08" xlink:href="#Dégradé_sans_nom_37"/><linearGradient id="Dégradé_sans_nom_37-35" x1="1349.03" y1="824.35" x2="211.11" y2="-375.7" xlink:href="#Dégradé_sans_nom_37"/><linearGradient id="Dégradé_sans_nom_37-36" x1="1303.72" y1="867.31" x2="165.8" y2="-332.74" xlink:href="#Dégradé_sans_nom_37"/><linearGradient id="Dégradé_sans_nom_37-37" x1="1266.11" y1="902.97" x2="128.2" y2="-297.08" xlink:href="#Dégradé_sans_nom_37"/><linearGradient id="Dégradé_sans_nom_37-38" x1="1087.73" y1="1072.11" x2="-50.18" y2="-127.94" xlink:href="#Dégradé_sans_nom_37"/><linearGradient id="Dégradé_sans_nom_37-39" x1="1247.56" y1="920.56" x2="109.65" y2="-279.49" xlink:href="#Dégradé_sans_nom_37"/><linearGradient id="Dégradé_sans_nom_37-40" x1="1590.55" y1="595.33" x2="452.64" y2="-604.72" xlink:href="#Dégradé_sans_nom_37"/><linearGradient id="Dégradé_sans_nom_37-41" x1="1370.92" y1="803.59" x2="233.01" y2="-396.46" xlink:href="#Dégradé_sans_nom_37"/><linearGradient id="Dégradé_sans_nom_37-42" x1="1340.27" y1="832.65" x2="202.36" y2="-367.4" xlink:href="#Dégradé_sans_nom_37"/><linearGradient id="Dégradé_sans_nom_37-43" x1="1679.11" y1="511.35" x2="541.25" y2="-688.65" xlink:href="#Dégradé_sans_nom_37"/><linearGradient id="Dégradé_sans_nom_37-44" x1="1414.09" y1="762.65" x2="276.18" y2="-437.4" xlink:href="#Dégradé_sans_nom_37"/></defs><title>Plan de travail 1</title><path class="cls-1" d="M148.64,349c4,4.68,18.38,26.4,18.38,36.09s14,19.72,26.74-5,14-34.42,19.38-31.08-2,14.7,12,14,15-30.75,21.39-30.75,11.36,3.68,16,8.69,17.38-6,20.72-6-17.71,14.37-18.38,25.73,10,18.38,16,18.38,48.79-33.75,69.18-33.75,41.11.67,50.13-5.68S416,334.33,420.68,338s8.69,3.68,4.68,9.36-15.71,17.71-18,24.73-8.69,6,6.35,22.06S417,410.53,417,410.53s-25.4-7.69-41.11,1.67-36.43,18-57.48,19.72-33.09-10.69-50.46-4.68-52.8,8-66.51,15.37-19.38-3-22.39-6-14.7-14.7-24.06-12.37-4.68,17.71-6.35,20.05-18.38,9-20.72,16-4,18.72-7,21.72S91.49,464.67,99.51,450.3s17.71-15.37,17.38-28.41-11-85.56-2.67-90.9,26.74.67,26.74,4-2,7.54,6.35,11.7A2.76,2.76,0,0,1,148.64,349Z"/><path class="cls-2" d="M604.42,322.65s.47,7.09-39.24,25.05-9.45,30.73,25.05,26.95,30.73-31.2,50.11-31.2,7.56,19.85,25.05,23.16,45.85-18.91,57.67-17.49,18.44,2.36,11.82-16.07,4.25-27.89-11.82-27.89-50.58-.95-70.44,0S616.71,301.85,604.42,322.65Z"/><path class="cls-3" d="M501.39,284.2s.32,4.83-26.72,17.06-6.44,20.92,17.06,18.35S508.8,328,522,328s9-16.12,20.91-13.87,31.22-12.88,39.27-11.91,12.55,1.61,8-10.94,2.9-19-8-19-34.44-.64-48,0S509.76,270,501.39,284.2Z"/><path class="cls-4" d="M1165.42,586.65s.47,7.09-39.24,25.05-9.45,30.73,25.05,26.95,30.73-31.2,50.11-31.2,7.56,19.85,25.05,23.16,45.85-18.91,57.67-17.49,18.44,2.36,11.82-16.07,4.25-27.89-11.82-27.89-50.58-.95-70.44,0S1177.71,565.85,1165.42,586.65Z"/><path class="cls-5" d="M1023.38,683.29s.35,5.25-29.07,18.56-7,22.77,18.56,20,22.77-23.12,37.13-23.12,5.6,14.71,18.56,17.16,34-14,42.73-13,13.66,1.75,8.76-11.91,3.15-20.67-8.76-20.67-37.48-.7-52.19,0S1032.49,667.88,1023.38,683.29Z"/><path class="cls-6" d="M1234.42,686.65s.47,7.09-39.24,25.05-9.45,30.73,25.05,26.95,30.73-31.2,50.11-31.2,7.56,19.85,25.05,23.16,45.85-18.91,57.67-17.49,18.44,2.36,11.82-16.07,4.25-27.89-11.82-27.89-50.58-.95-70.44,0S1246.71,665.85,1234.42,686.65Z"/><path class="cls-7" d="M936.42,516.65s.47,7.09-39.24,25.05-9.45,30.73,25.05,26.95,30.73-31.2,50.11-31.2,7.56,19.85,25.05,23.16,45.85-18.91,57.67-17.49,18.44,2.36,11.82-16.07,4.25-27.89-11.82-27.89-50.58-.95-70.44,0S948.71,495.85,936.42,516.65Z"/><path class="cls-8" d="M765.42,417.65s.47,7.09-39.24,25.05-9.45,30.73,25.05,26.95S783.62,518,803,518s8.29-84.38,24-76c45,24,45.25.71,57.07,2.12s18.44,2.36,11.82-16.07S876.07,419,860,419s-26.51-19.78-46.37-18.84S794,368,765.42,417.65Z"/><path class="cls-9" d="M652.42,575.65s.47,7.09-39.24,25.05-9.45,30.73,25.05,26.95S670.62,676,690,676s8.29-84.38,24-76c45,24,45.25.71,57.07,2.12s18.44,2.36,11.82-16.07S763.07,577,747,577s-26.51-19.78-46.37-18.84S681,526,652.42,575.65Z"/><path class="cls-10" d="M1067.42,238.65s.47,7.09-39.24,25.05-9.45,30.73,25.05,26.95,30.73-31.2,50.11-31.2,7.56,19.85,25.05,23.16,45.85-18.91,57.67-17.49,18.44,2.36,11.82-16.07,4.25-27.89-11.82-27.89-50.58-.95-70.44,0S1079.71,217.85,1067.42,238.65Z"/><path class="cls-11" d="M165.42,214.65s.47,7.09-39.24,25.05-9.45,30.73,25.05,26.95,30.73-31.2,50.11-31.2,7.56,19.85,25.05,23.16,45.85-18.91,57.67-17.49,18.44,2.36,11.82-16.07,4.25-27.89-11.82-27.89-50.58-.95-70.44,0S177.71,193.85,165.42,214.65Z"/><path class="cls-12" d="M564.87,599.82s-27.6-21.75-80.2,13.31C471.36,622,429.91,593.41,416.42,593c-11.26-.34-42-18.43-79.17,16.38s-48.8,12.29-63.48,40.61-54.6,66.55-44.36,41.63,8.87-22.52-8.53-25.6-18.43,6.14-28.67,7.51-27.3,0-30.71-4.78-3.75,9.56-10.92,10.92-7.85-8.19-14-8.19,29.69-8.19,41.63-18.09,33.79-20.82,4.44-16.72-47.78,12.63-76.1,2-34.81-29.35-38.22,5.12-1.37,42.32,14,42.32,14.33,3.41,5.8,6.83-9.21,10.92,13.65,6.83,59.72-8.53,39.59,1-39.59,2.39-53.24,15S50.24,749.3,83.68,749.3s114-5.12,131.39-18.43,25.77-29.18,45.9-27.13,4.1,20.82,6.83,30,67.91.68,78.15-15.36,24.91-49.83,44.36-40.27-6.48,1-8.87,27-16,38.56.68,38.56,124.22-8.87,116.71-21.16-32.76-20.13-32.76-24.91,20.48,1,42,6.83,50.51-23.55,63.48-23.55,13.65-47.09,3.41-64.16S564.87,599.82,564.87,599.82Z"/><path class="cls-13" d="M263.59,527.34a47.69,47.69,0,0,0,16.55-14.18c6.62-9.45,16.55-28.84,28.84-30.73s40.18,1.42,43,13.24,21.27,11.35-7.09,31.67-18.44-8-26-7.56-22.22,16.07-42.07,15.13S263.59,527.34,263.59,527.34Z"/><path class="cls-14" d="M339.69,539.63a110.92,110.92,0,0,0,26.95-16.55c13.71-11.35,24.11-9.93,31.2-9.93s14.65-8.51,17.49-6.62,4.25,1.42-8.51,12.29-40.18,24.58-46.33,27.89-13.71,11.82-20.8,14.18-6.15-8.51-2.36-13.24S339.69,539.63,339.69,539.63Z"/><path class="cls-15" d="M211.11,594.94s40.18-35,63.82-41.13,46.33-11.82,50.58,0-9.93,18.91-17.49,27.42-20.33,18-21.75,22.69S278.71,605.34,274,594s-29.78.47-41.6,5.2-29.31,12.29-29.31,6.62S211.11,594.94,211.11,594.94Z"/><path class="cls-16" d="M505.15,404.9s-11.82-20.33,0-24.58,14.18,1.89,34.51,8,25.53,3.78,41.13,3.78,9.45,16.55-3.31,18.44-18.91.95-36.87,7.56-24.11,13.24-31.67,15.13-6.15-6.15-23.64,1.89-21.75,4.25-20.33,1.42S484.35,421,494.27,421,505.15,404.9,505.15,404.9Z"/><path class="cls-17" d="M464.44,502.41s-13.87-23.85,0-28.84,16.64,2.22,40.49,9.43,29.95,4.44,48.25,4.44,11.09,19.41-3.88,21.63-22.18,1.11-43.26,8.87-28.29,15.53-37.16,17.75-7.21-7.21-27.73,2.22-25.51,5-23.85,1.66,22.74-18.3,34.39-18.3S464.44,502.41,464.44,502.41Z"/><path class="cls-18" d="M1137.15,529.9s-11.82-20.33,0-24.58,14.18,1.89,34.51,8,25.53,3.78,41.13,3.78,9.45,16.55-3.31,18.44-18.91.95-36.87,7.56-24.11,13.24-31.67,15.13-6.15-6.15-23.64,1.89-21.75,4.25-20.33,1.42,19.38-15.6,29.31-15.6S1137.15,529.9,1137.15,529.9Z"/><path class="cls-19" d="M804.55,610.48s-14-24,0-29.08,16.78,2.24,40.83,9.51,30.2,4.47,48.66,4.47,11.19,19.57-3.91,21.81-22.37,1.12-43.62,8.95S818,641.8,809,644s-7.27-7.27-28,2.24-25.73,5-24,1.68,22.93-18.46,34.68-18.46S804.55,610.48,804.55,610.48Z"/><path class="cls-20" d="M1133.55,160.48s-14-24,0-29.08,16.78,2.24,40.83,9.51,30.2,4.47,48.66,4.47,11.19,19.57-3.91,21.81-22.37,1.12-43.62,8.95S1147,191.8,1138,194s-7.27-7.27-28,2.24-25.73,5-24,1.68,22.93-18.46,34.68-18.46S1133.55,160.48,1133.55,160.48Z"/><path class="cls-21" d="M606.78,439.89c3.78-9.45,10.87-2.84,12.76,3.78s7.56,9.45,9.45,18-4.73,18.44,2.84,24.11,7.56.95,7.56-3.78,5.67,18.91,2.36,21.75-17-12.29-17-18.91-1.89,22.69-13.24,23.64-35-11.82-35-20.8,13.24-6.62,20.8-8,7.09-16.07,3.78-22.69S606.78,439.89,606.78,439.89Z"/><path class="cls-22" d="M651.93,452.09c1.68-4.19,4.82-1.26,5.66,1.68s3.35,4.19,4.19,8-2.09,8.17,1.26,10.68,3.35.42,3.35-1.68,2.51,8.38,1,9.63-7.54-5.45-7.54-8.38S659.05,482,654,482.46s-15.5-5.24-15.5-9.22,5.86-2.93,9.22-3.56,3.14-7.12,1.68-10.05S651.93,452.09,651.93,452.09Z"/><path class="cls-23" d="M636.93,411.09c1.68-4.19,4.82-1.26,5.66,1.68s3.35,4.19,4.19,8-2.09,8.17,1.26,10.68,3.35.42,3.35-1.68,2.51,8.38,1,9.63-7.54-5.45-7.54-8.38S644.05,441,639,441.46s-15.5-5.24-15.5-9.22,5.86-2.93,9.22-3.56,3.14-7.12,1.68-10.05S636.93,411.09,636.93,411.09Z"/><path class="cls-24" d="M673.93,421.09c1.68-4.19,4.82-1.26,5.66,1.68s3.35,4.19,4.19,8-2.09,8.17,1.26,10.68,3.35.42,3.35-1.68,2.51,8.38,1,9.63-7.54-5.45-7.54-8.38S681.05,451,676,451.46s-15.5-5.24-15.5-9.22,5.86-2.93,9.22-3.56,3.14-7.12,1.68-10.05S673.93,421.09,673.93,421.09Z"/><path class="cls-25" d="M235.78,89.89c3.78-9.45,10.87-2.84,12.76,3.78s7.56,9.45,9.45,18-4.73,18.44,2.84,24.11,7.56.95,7.56-3.78,5.67,18.91,2.36,21.75-17-12.29-17-18.91-1.89,22.69-13.24,23.64-35-11.82-35-20.8,13.24-6.62,20.8-8,7.09-16.07,3.78-22.69S235.78,89.89,235.78,89.89Z"/><path class="cls-26" d="M280.93,102.09c1.68-4.19,4.82-1.26,5.66,1.68s3.35,4.19,4.19,8-2.09,8.17,1.26,10.68,3.35.42,3.35-1.68,2.51,8.38,1,9.63-7.54-5.45-7.54-8.38S288.05,132,283,132.46s-15.5-5.24-15.5-9.22,5.86-2.93,9.22-3.56,3.14-7.12,1.68-10.05S280.93,102.09,280.93,102.09Z"/><path class="cls-27" d="M265.93,61.09c1.68-4.19,4.82-1.26,5.66,1.68s3.35,4.19,4.19,8S273.68,78.89,277,81.4s3.35.42,3.35-1.68,2.51,8.38,1,9.63-7.54-5.45-7.54-8.38S273.05,91,268,91.46s-15.5-5.24-15.5-9.22,5.86-2.93,9.22-3.56,3.14-7.12,1.68-10.05S265.93,61.09,265.93,61.09Z"/><path class="cls-28" d="M302.93,71.09c1.68-4.19,4.82-1.26,5.66,1.68s3.35,4.19,4.19,8S310.68,88.89,314,91.4s3.35.42,3.35-1.68,2.51,8.38,1,9.63-7.54-5.45-7.54-8.38S310.05,101,305,101.46s-15.5-5.24-15.5-9.22,5.86-2.93,9.22-3.56,3.14-7.12,1.68-10.05S302.93,71.09,302.93,71.09Z"/><path class="cls-29" d="M380.28,114.31c7.77,4,38.29,24.59,43.52,37.26s29,18.2,32.25-21-.23-52.58,8.56-51.1,5.32,20.31,23.31,11.86S491,43,499.28,39.6s16.84-1.33,25.66,2.7S544.41,25,548.78,23.24s-15.4,28.35-10.14,43.57,23,18.62,30.9,15.37S615.11,11.71,641.76.7s54.1-21.32,62.47-34.49S721.88-49.26,730-47s13.34.12,11.17,9.71-11,31.64-10.24,42.08-8.11,12.56,20.21,25.41,13.21,19.61,13.21,19.61S727,53.48,711.49,74.2,673.61,117.46,647,131s-49,3.88-68.5,21.13-64.7,39-78.65,56-27,6.53-32.52,4.22-27.16-11.29-38.13-3.18,3.45,25.68,2.52,29.64S412.54,260.56,413.27,271s4.86,26.63,2.55,32.19-47.83-6.84-45.1-30,14.86-29.66,7.38-46.52S317.5,120.8,325.53,109.3s35.32-13.56,37.12-9.19S364.16,111,377.27,112A3.91,3.91,0,0,1,380.28,114.31Z"/><path class="cls-30" d="M968,127.61s.52,7.78-43,27.49-10.37,33.71,27.49,29.56,33.71-34.23,55-34.23,8.3,21.78,27.49,25.41,50.31-20.74,63.27-19.19,20.23,2.59,13-17.63,4.67-30.6-13-30.6S1081.78,127,1060,128,981.47,104.79,968,127.61Z"/><path class="cls-31" d="M1292,360.75s-20.42-16.09-59.32,9.84c-9.84,6.56-40.5-14.59-50.48-14.89-8.33-.25-31-13.63-58.56,12.12s-36.09,9.09-46.95,30-40.39,49.22-32.81,30.79,6.56-16.66-6.31-18.93-13.63,4.54-21.2,5.55-20.19,0-22.72-3.53-2.78,7.07-8.08,8.08-5.81-6.06-10.35-6.06,22-6.06,30.79-13.38,25-15.4,3.28-12.37S974,397.34,953,389.52s-25.75-21.71-28.27,3.79-1,31.3,10.35,31.3,10.6,2.52,4.29,5-6.81,8.08,10.1,5,44.17-6.31,29.28.76-29.28,1.77-39.38,11.11-28,24.74-3.28,24.74,84.3-3.79,97.18-13.63,19.06-21.58,33.95-20.07,3,15.4,5,22.21,50.23.5,57.8-11.36,18.43-36.85,32.81-29.78-4.8.76-6.56,19.94-11.86,28.52.5,28.52,91.88-6.56,86.32-15.65S1219,436.59,1219,433.06s15.14.76,31,5,37.36-17.42,46.95-17.42,10.1-34.83,2.52-47.45S1292,360.75,1292,360.75Z"/><path class="cls-32" d="M1022.56,600.17s-14.21-4-28.95,18.09c-3.73,5.59-24.41,1.18-29.71,3.2-4.42,1.68-19.25-.37-28.06,19.12s-16.94,12.63-18.06,26-10.44,34.61-10.49,23.3-.19-10.16-7.44-8.55-6.15,5.35-9.9,7.53-10.59,4.4-12.68,3.1.09,4.31-2.47,6-4.36-1.91-6.75-.92,10.19-8,13.23-13.73,9.74-13.52-1-7.2-16.49,12.6-29.18,13.07-18.23-5.76-14,8.15,6.3,16.63,12.25,14.15,6.11-1,3.35,1.71-1.81,5.72,6.39.44,21.78-12.94,15.51-6-15,7.31-18.22,14.41-9.29,19.08,3.67,13.68,43.37-20.37,48-28.34,5.28-15.47,13.42-17.92,4.95,7.41,7.49,10.54,26.44-10.69,27.82-18.56,1.62-23.34,10.71-22.77-2.35,1.44.91,11.88,0,17.54,6.48,14.84,46.73-23.48,41.84-27-15.95-2.52-16.72-4.38,8.1-2.91,17.38-4.12,15.78-17.28,20.81-19.37-2.3-20.46-9-25.43S1022.56,600.17,1022.56,600.17Z"/><path class="cls-33" d="M1156.5,306.34s-6.53-4.22-17.39,4.58c-2.75,2.23-12.47-3.22-15.45-3-2.49.16-9.62-3.19-17.1,5.24s-10.49,3.71-13.14,10.25-10.65,15.78-8.91,10.08,1.49-5.14-2.41-5.46-3.93,1.73-6.16,2.24-6,.56-6.86-.42-.63,2.18-2.18,2.63-1.9-1.64-3.25-1.52,6.37-2.42,8.8-4.84,7-5.28.63-3.77-10.26,3.77-16.72,2-8.27-5.75-8.31,1.92.57,9.35,4,9,3.23.46,1.42,1.38-1.8,2.59,3.15,1.22,13-3.11,8.74-.59-8.67,1.34-11.42,4.4-7.65,8.15-.29,7.46,25-3.48,28.56-6.77,5.07-7,9.55-6.92,1.33,4.5,2.12,6.47,15-1.25,16.89-5,4.46-11.49,8.94-9.78-1.41.36-1.4,6.12-2.74,8.82.95,8.48,27.18-4.51,25.27-7.07-7.63-3.76-7.73-4.81,4.53-.2,9.39.64,10.64-6.23,13.49-6.49,2-10.65-.57-14.2S1156.5,306.34,1156.5,306.34Z"/><path class="cls-34" d="M955.68,75.11s-8.38-5.42-22.31,5.88c-3.53,2.86-16-4.13-19.82-3.88-3.19.2-12.35-4.1-21.94,6.72S878.15,88.59,874.75,97s-13.67,20.25-11.44,12.94,1.91-6.6-3.09-7-5,2.22-7.9,2.88-7.71.72-8.81-.54-.81,2.8-2.8,3.37-2.43-2.11-4.17-1.94,8.17-3.1,11.29-6.21,9-6.78.81-4.84-13.17,4.83-21.45,2.59-10.61-7.37-10.67,2.46.73,12,5.07,11.59,4.14.59,1.82,1.78-2.32,3.33,4,1.57,16.65-4,11.21-.76-11.12,1.72-14.65,5.65-9.82,10.45-.37,9.57,32.07-4.46,36.64-8.68,6.51-8.93,12.25-8.88,1.71,5.77,2.72,8.31,19.21-1.6,21.68-6.41,5.72-14.74,11.47-12.55-1.81.46-1.79,7.85-3.51,11.32,1.21,10.88,34.87-5.79,32.42-9.07-9.79-4.82-9.92-6.17,5.81-.25,12,.82,13.65-8,17.31-8.33,2.61-13.67-.73-18.22S955.68,75.11,955.68,75.11Z"/><path class="cls-35" d="M659.59,158.34a47.69,47.69,0,0,0,16.55-14.18c6.62-9.45,16.55-28.84,28.84-30.73s40.18,1.42,43,13.24,21.27,11.35-7.09,31.67-18.44-8-26-7.56-22.22,16.07-42.07,15.13S659.59,158.34,659.59,158.34Z"/><path class="cls-36" d="M646.69,218.63a110.92,110.92,0,0,0,26.95-16.55c13.71-11.35,24.11-9.93,31.2-9.93s14.65-8.51,17.49-6.62,4.25,1.42-8.51,12.29-40.18,24.58-46.33,27.89-13.71,11.82-20.8,14.18-6.15-8.51-2.36-13.24S646.69,218.63,646.69,218.63Z"/><path class="cls-37" d="M622.69,268.63a110.92,110.92,0,0,0,26.95-16.55c13.71-11.35,24.11-9.93,31.2-9.93s14.65-8.51,17.49-6.62,4.25,1.42-8.51,12.29-40.18,24.58-46.33,27.89-13.71,11.82-20.8,14.18-6.15-8.51-2.36-13.24S622.69,268.63,622.69,268.63Z"/><path class="cls-38" d="M141.69,118.63a110.92,110.92,0,0,0,26.95-16.55c13.71-11.35,24.11-9.93,31.2-9.93s14.65-8.51,17.49-6.62,4.25,1.42-8.51,12.29-40.18,24.58-46.33,27.89-13.71,11.82-20.8,14.18-6.15-8.51-2.36-13.24S141.69,118.63,141.69,118.63Z"/><path class="cls-39" d="M523.11,227.94s40.18-35,63.82-41.13,46.33-11.82,50.58,0-9.93,18.91-17.49,27.42-20.33,18-21.75,22.69S590.71,238.34,586,227s-29.78.47-41.6,5.2-29.31,12.29-29.31,6.62S523.11,227.94,523.11,227.94Z"/><path class="cls-40" d="M1218.11,273.94s40.18-35,63.82-41.13,46.33-11.82,50.58,0-9.93,18.91-17.49,27.42-20.33,18-21.75,22.69-7.56,1.42-12.29-9.93-29.78.47-41.6,5.2-29.31,12.29-29.31,6.62S1218.11,273.94,1218.11,273.94Z"/><path class="cls-41" d="M784.07,196.85s-13-22.3,0-27,15.56,2.07,37.86,8.82,28,4.15,45.12,4.15,10.37,18.15-3.63,20.23S862.71,243.74,843,251s-46.48-25.11-54.78-23-6.74-6.74-25.93,2.07-23.86,4.67-22.3,1.56,21.26-17.11,32.15-17.11S784.07,196.85,784.07,196.85Z"/><path class="cls-42" d="M795,314s24.11-27.45,37.07-32.12,15.56,2.07,37.86,8.82,28,4.15,45.12,4.15,10.37,18.15-3.63,20.23S927.71,323.74,908,331s-12.7,41.93-21,44-57.52-41.78-76.71-33-23.86,4.67-22.3,1.56,21.26-17.11,32.15-17.11S795,314,795,314Z"/><path class="cls-43" d="M1210.07,28.85s-13-22.3,0-27,15.56,2.07,37.86,8.82,28,4.15,45.12,4.15,10.37,18.15-3.63,20.23-20.74,1-40.45,8.3-26.45,14.52-34.75,16.6-6.74-6.74-25.93,2.07-23.86,4.67-22.3,1.56,21.26-17.11,32.15-17.11S1210.07,28.85,1210.07,28.85Z"/><path class="cls-44" d="M970.58,256.23c4.15-10.37,11.93-3.11,14,4.15s8.3,10.37,10.37,19.71-5.19,20.23,3.11,26.45,8.3,1,8.3-4.15,6.22,20.74,2.59,23.86-18.67-13.48-18.67-20.74-2.07,24.89-14.52,25.93-38.38-13-38.38-22.82,14.52-7.26,22.82-8.82,7.78-17.63,4.15-24.89S970.58,256.23,970.58,256.23Z"/></svg>