<?xml version="1.0" encoding="UTF-8"?>
<svg width="1259px" height="1165px" viewBox="0 0 1259 1165" version="1.1" xmlns="http://www.w3.org/2000/svg" xmlns:xlink="http://www.w3.org/1999/xlink">
    <!-- Generator: Sketch 47.1 (45422) - http://www.bohemiancoding.com/sketch -->
    <title>Artboard</title>
    <desc>Created with Sketch.</desc>
    <defs>
        <linearGradient x1="50%" y1="0%" x2="50%" y2="100%" id="linearGradient-1">
            <stop stop-color="#8DB19C" offset="0%"></stop>
            <stop stop-color="#528855" offset="100%"></stop>
        </linearGradient>
        <linearGradient x1="-2764.91968%" y1="40561%" x2="28609.8794%" y2="49395%" id="linearGradient-2">
            <stop stop-color="#528855" offset="0%"></stop>
            <stop stop-color="#6B9F6F" offset="50%"></stop>
            <stop stop-color="#8DB19C" offset="100%"></stop>
        </linearGradient>
        <linearGradient x1="-2764.91968%" y1="40561%" x2="28609.8794%" y2="49395%" id="linearGradient-3">
            <stop stop-color="#528855" offset="0%"></stop>
            <stop stop-color="#F2E178" offset="50%"></stop>
            <stop stop-color="#F2EF7E" offset="100%"></stop>
        </linearGradient>
        <linearGradient x1="199.334059%" y1="200.078778%" x2="-119.660143%" y2="-157.106671%" id="linearGradient-4">
            <stop stop-color="#8DB19C" offset="0%"></stop>
            <stop stop-color="#528855" offset="100%"></stop>
        </linearGradient>
        <linearGradient x1="130.530373%" y1="-38.4443945%" x2="-118.776899%" y2="42.7228217%" id="linearGradient-5">
            <stop stop-color="#8DB19C" offset="0%"></stop>
            <stop stop-color="#528855" offset="100%"></stop>
        </linearGradient>
        <linearGradient x1="-167.874836%" y1="-295.79628%" x2="152.16182%" y2="199.015576%" id="linearGradient-6">
            <stop stop-color="#8DB19C" offset="0%"></stop>
            <stop stop-color="#528855" offset="100%"></stop>
        </linearGradient>
        <linearGradient x1="100%" y1="-32.0269631%" x2="50%" y2="100%" id="linearGradient-7">
            <stop stop-color="#8DB19C" offset="0%"></stop>
            <stop stop-color="#528855" offset="100%"></stop>
        </linearGradient>
    </defs>
    <g id="Page-1" stroke="none" stroke-width="1" fill="none" fill-rule="evenodd">
        <g id="Artboard" fill-rule="nonzero">
            <g id="couche-jaune" transform="translate(650.000000, 544.500000) rotate(28.000000) translate(-650.000000, -544.500000) translate(-29.000000, -62.000000)">
                <path d="M435.61,600.56 C439.08,596.93 445.85,589.14 449.39,588.75 C452.93,588.36 456.48,595.84 453.72,602.53 C450.96,609.22 446.63,615.13 447.42,615.13 C448.21,615.13 449.78,615.92 459.63,615.13 C469.48,614.34 487.19,612.77 484.44,607.25 C481.69,601.73 471.44,583.25 457.66,575.75 C474.2,565.51 482.47,563.15 487.19,558.42 C491.91,553.69 498.19,553.69 505.7,558.42 C505.7,548.58 505.32,528.91 487.98,511.56 C485.98,509.56 482.07,506.83 488.77,502.9 C495.47,498.97 506.88,493.84 510.03,490.3 C513.18,486.76 517.51,493.06 520.27,496.6 C523.03,500.14 532.48,513.93 542.71,520.6 C552.94,527.27 577.71,531.6 583.71,537.93 C589.71,544.26 587.71,547.22 579.77,563.13 C577.01,568.64 565.2,567.46 560.48,566.67 C555.76,565.88 536,571 532.87,579.29 C529.74,587.58 543.5,610 543.5,610 C543.5,610 557.68,623.78 559.64,628.51 C561.6,633.24 569.48,646.23 572.24,652.14 C575,658.05 571.06,660.8 566.73,662.38 C562.4,663.96 526.57,661.59 518.73,658.44 C510.89,655.29 514.79,678.92 512.43,686 C510.07,693.08 499.43,660.41 477.78,649.38 C456.13,638.35 445.49,634.81 443.52,632.05 C441.55,629.29 441.94,651.34 445.52,655.28 C449.1,659.22 470.33,663.16 474.66,664.73 C478.99,666.3 486.08,669.06 479.39,676.15 C472.7,683.24 460.88,688.75 454.19,687.15 C447.5,685.55 436.25,670.62 435.68,666.67 C435.42,665.33 418.88,618.08 435.61,600.56 Z" id="Shape" fill="url(#linearGradient-1)"></path>
                <path d="M874,771 C877.47,767.37 915.85,783.14 919.39,782.74 C922.93,782.34 926.48,789.83 923.72,796.52 C920.96,803.21 916.63,809.12 917.42,809.12 C918.21,809.12 919.78,809.91 929.63,809.12 C939.48,808.33 957.19,806.76 954.44,801.24 C951.69,795.72 906,751 909,739 C925.54,728.76 946.27,743.73 951,739 C955.73,734.27 968.22,747.7 975.7,752.42 C975.7,742.58 975.32,722.91 957.98,705.56 C955.98,703.56 950.31,670.93 956.98,666.99 C963.65,663.05 976.86,687.84 979.98,684.3 C983.1,680.76 987.46,687.06 990.22,690.6 C992.98,694.14 1002.43,707.93 1012.66,714.6 C1022.89,721.27 1047.66,725.6 1053.66,731.93 C1059.66,738.26 1057.66,741.22 1049.72,757.13 C1046.96,762.64 1035.15,761.46 1030.43,760.67 C1025.71,759.88 1006,765 1002.87,773.29 C999.74,781.58 1013.5,804 1013.5,804 C1013.5,804 1027.68,817.78 1029.64,822.51 C1031.6,827.24 1039.48,840.23 1042.24,846.14 C1045,852.05 1041.06,854.8 1036.73,856.38 C1032.4,857.96 996.57,855.59 988.73,852.44 C980.89,849.29 984.79,872.92 982.43,880 C980.07,887.08 969.43,854.41 947.78,843.38 C926.13,832.35 915.49,828.81 913.52,826.05 C911.55,823.29 911.94,845.34 915.52,849.28 C919.1,853.22 940.33,857.16 944.66,858.73 C948.99,860.3 956.08,863.06 949.39,870.15 C942.7,877.24 930.88,882.75 924.19,881.15 C917.5,879.55 909.46,859.4 905.68,860.67 C878,870 857.27,788.52 874,771 Z" id="Shape" fill="url(#linearGradient-1)"></path>
                <path d="M1289.05,896.39 C1293.87,893.39 1184.62,833.1 1154,828 C1146.91,826.82 1183.92,846.39 1178,852.69 C1172.08,858.99 1166.6,861 1156,851.11 C1145.4,841.22 1112.18,858.11 1109,868 C1105.82,877.89 1140.22,896 1140.22,896 L1158.92,895.8 C1158.92,895.8 1177.03,876.51 1197.92,876.9 C1218.81,877.29 1213.87,894.82 1225.48,895.8 C1237.09,896.78 1264,912 1289.05,896.39 Z" id="Shape" fill="url(#linearGradient-1)"></path>
                <path d="M700.05,756.39 C703.2,751.66 647.59,703.61 616.97,698.51 C609.88,697.33 594.92,706.39 588.97,712.69 C583.02,718.99 577.6,721 567,711.11 C556.4,701.22 551.64,689.85 548.49,699.69 C545.34,709.53 551.22,756 551.22,756 L569.92,755.8 C569.92,755.8 588.03,736.51 608.92,736.9 C629.81,737.29 624.87,754.82 636.48,755.8 C648.09,756.78 696.9,761.12 700.05,756.39 Z" id="Shape" fill="url(#linearGradient-1)"></path>
                <path d="M1210.05,655.39 C1213.2,650.66 1157.59,602.61 1126.97,597.51 C1119.88,596.33 1104.92,605.39 1098.97,611.69 C1093.02,617.99 1087.6,620 1077,610.11 C1066.4,600.22 1025.18,641.11 1022,651 C1018.82,660.89 1041,706 1057,706 C1073,706 1079.92,654.8 1079.92,654.8 C1079.92,654.8 1098.03,635.51 1118.92,635.9 C1139.81,636.29 1134.87,653.82 1146.48,654.8 C1158.09,655.78 1206.9,660.12 1210.05,655.39 Z" id="Shape" fill="url(#linearGradient-1)"></path>
                <path d="M424,673 C427.15,668.27 404,615 420,592 C424.1,586.1 331.92,608.39 326,614.69 C320.08,620.99 314.6,623 304,613.11 C293.4,603.22 288.64,591.85 285.49,601.69 C282.34,611.53 288.22,658 288.22,658 L306.92,657.8 C306.92,657.8 325.03,638.51 345.92,638.9 C366.81,639.29 361.87,656.82 373.48,657.8 C385.09,658.78 420.85,677.73 424,673 Z" id="Shape" fill="url(#linearGradient-1)"></path>
                <path d="M296,973 C299.15,968.27 276,915 292,892 C296.1,886.1 203.92,908.39 198,914.69 C192.08,920.99 186.6,923 176,913.11 C165.4,903.22 160.64,891.85 157.49,901.69 C154.34,911.53 160.22,958 160.22,958 L178.92,957.8 C178.92,957.8 197.03,938.51 217.92,938.9 C238.81,939.29 233.87,956.82 245.48,957.8 C257.09,958.78 292.85,977.73 296,973 Z" id="Shape" fill="url(#linearGradient-1)"></path>
                <path d="M194.7,667.12 C195.8,661.55 153.99,621.22 159.94,593.85 C161.47,586.85 84.88,642.76 81.84,650.85 C78.8,658.94 74.47,662.85 60.84,657.85 C47.21,652.85 38.54,644.1 39.41,654.4 C40.28,664.7 63.55,705.34 63.55,705.34 L80.74,698 C80.74,698 90.07,673.24 109.49,665.6 C128.91,657.96 131.09,676.03 142.19,672.49 C153.29,668.95 193.6,672.7 194.7,667.12 Z" id="Shape" fill="url(#linearGradient-1)"></path>
                <g id="Calque_6" transform="translate(80.000000, 700.000000)" fill="url(#linearGradient-2)">
                    <path d="M418.81,50.77 C416.05,48.41 405.03,29.11 418.81,7.46 C432.59,-14.19 440.86,18.09 445.19,25.18 C449.52,32.27 451.88,46.05 447.19,50.77 C442.5,55.49 421.38,53 418.81,50.77 Z" id="Shape"></path>
                    <path d="M1247.44,216.27 C1243.99,215.15 1226.44,201.55 1230.83,176.27 C1235.22,150.99 1265.73,172.02 1272.44,176.9 C1279.15,181.78 1276.17,199.22 1273.62,205.4 C1271.07,211.58 1250.66,217.32 1247.44,216.27 Z" id="Shape"></path>
                    <path d="M437.81,110.77 C435.05,108.41 424.03,89.11 437.81,67.46 C451.59,45.81 565,80 464.19,85.18 C468.52,92.27 470.88,106.05 466.19,110.77 C461.5,115.49 440.38,113 437.81,110.77 Z" id="Shape"></path>
                    <path d="M6.81,69.77 C4.05,67.41 -6.97,48.11 6.81,26.46 C20.59,4.81 134,39 33.19,44.18 C37.52,51.27 39.88,65.05 35.19,69.77 C30.5,74.49 9.38,72 6.81,69.77 Z" id="Shape"></path>
                    <path d="M1113,63.8 C1110,62.8 1094.61,50.93 1098.48,28.8 C1102.35,6.67 1205.39,-3.72 1125.72,34.26 C1131.59,38.53 1138.12,48.87 1135.89,54.26 C1133.66,59.65 1115.85,64.71 1113,63.8 Z" id="Shape"></path>
                </g>
                <g id="Calque_7" transform="translate(442.000000, 687.000000)" fill="url(#linearGradient-3)">
                    <path d="M38.7,61 C40.58,59.68 30.43,41.71 39.49,31.86 C48.55,22.01 50.49,14.14 49.33,0.36 C49.33,0.36 36.73,5.09 28.07,6.66 C19.41,8.23 9.96,8.66 2.07,6.66 C4.83,17.29 5.61,26.74 2.07,39.34 C-1.47,51.94 0.07,65.72 2.86,65.72 C5.65,65.72 34.76,63.77 38.7,61 Z" id="Shape"></path>
                    <path d="M814.43,145.37 C815.51,143.68 801.28,132.56 805.3,121.58 C809.32,110.6 808.3,103.58 802.69,92.84 C802.69,92.84 794.1,100.84 787.63,105.06 C781.16,109.28 773.63,112.72 766.63,113.77 C772.42,121.43 776.22,128.77 777.63,140.16 C779.04,151.55 784.89,162.16 787.11,161.16 C789.33,160.16 812.18,148.92 814.43,145.37 Z" id="Shape"></path>
                </g>
                <g id="Calque_8" transform="translate(431.000000, 238.000000)" fill="url(#linearGradient-1)">
                    <path d="M0.81,294.57 C0.81,294.57 7.9,279.57 16.56,276.46 C25.22,273.35 48.85,281.58 55.56,290.24 C62.27,298.9 53.2,312.29 50.44,315.05 C47.68,317.81 37.44,312.69 33.9,311.9 C30.36,311.11 9.09,312.69 5.55,319.78 C2.01,326.87 0.82,328.05 0.82,328.05 L0.81,294.57 Z" id="Shape"></path>
                    <path d="M1,19.57 C1,19.57 8.09,4.57 16.75,1.46 C25.41,-1.65 49.04,6.58 55.75,15.24 C62.46,23.9 53.37,37.29 50.61,40 C47.85,42.71 37.61,37.64 34.07,36.85 C30.53,36.06 9.26,37.64 5.72,44.73 C2.18,51.82 1,53 1,53 L1,19.57 Z" id="Shape"></path>
                    <path d="M828.65,571.79 C828.65,571.79 829.36,557.33 835.3,551.88 C841.24,546.43 863.09,545.19 871.4,549.94 C879.71,554.69 876.89,568.54 875.58,571.69 C874.27,574.84 864.3,574.14 861.17,574.69 C858.04,575.24 841.4,583.69 840.92,590.55 C840.44,597.41 839.92,598.81 839.92,598.81 L828.65,571.79 Z" id="Shape"></path>
                    <path d="M302.48,294.24 C302.48,294.24 275.48,338.08 259.17,369.84 C250.9,360 236.33,321 234.76,315.9 C233.19,310.8 219.4,324.56 219,337.55 C218.6,350.54 220.18,361.18 221.76,366.29 C223.34,371.4 198.53,408.42 192.23,413.15 C185.93,417.88 180.81,396.61 171.36,394.64 C161.91,392.67 158,387.17 145,392.28 C132,397.39 111.14,354.09 114.29,347.79 C117.44,341.49 138.9,358.22 156.22,358.22 C173.54,358.22 184.57,331.05 189.69,312.94 C194.81,294.83 211.74,282.23 213.69,277.11 C215.64,271.99 209.36,264.11 220.78,262.93 C232.2,261.75 271.18,265.69 282.6,279.86 C294.02,294.03 302.48,294.24 302.48,294.24 Z" id="Shape"></path>
                    <path d="M520.48,102.24 C520.48,102.24 493.48,146.08 477.17,177.84 C468.9,168 454.33,129 452.76,123.9 C451.19,118.8 437.4,132.56 437,145.55 C436.6,158.54 438.18,169.18 439.76,174.29 C441.34,179.4 416.53,216.42 410.23,221.15 C403.93,225.88 398.81,204.61 389.36,202.64 C379.91,200.67 376,195.17 363,200.28 C350,205.39 329.14,162.09 332.29,155.79 C335.44,149.49 356.9,166.22 374.22,166.22 C391.54,166.22 402.57,139.05 407.69,120.94 C412.81,102.83 429.74,90.23 431.69,85.11 C433.64,79.99 427.36,72.11 438.78,70.93 C450.2,69.75 489.18,73.69 500.6,87.86 C512.02,102.03 520.48,102.24 520.48,102.24 Z" id="Shape"></path>
                </g>
                <g id="Calque_10" transform="translate(169.000000, 213.000000)" fill="url(#linearGradient-4)">
                    <path d="M557,282.62 L612.52,269.62 C612.52,269.62 603.86,296 605.83,317.62 C607.8,339.24 571.18,348.33 569.6,344.79 C568.02,341.25 570.19,302.86 570.19,302.86 C570.19,302.86 545.78,291.87 557,282.62 Z" id="Shape"></path>
                    <path d="M472,693.12 C472,693.12 504,673.86 527.52,686.04 C551.04,698.22 532,761.59 534,773.39 C536,785.19 470.58,797.11 469,795.18 C467.42,793.25 485.19,704.18 485.19,704.18 C485.19,704.18 460.78,698.16 472,693.12 Z" id="Shape"></path>
                    <path d="M604,113.62 L659.52,100.62 C659.52,100.62 650.86,127 652.83,148.62 C654.8,170.24 618.18,179.33 616.6,175.79 C615.02,172.25 617.19,133.86 617.19,133.86 C617.19,133.86 592.78,122.87 604,113.62 Z" id="Shape"></path>
                    <path d="M487,89.62 L542.52,76.62 C542.52,76.62 533.86,103 535.83,124.62 C537.8,146.24 501.18,155.33 499.6,151.79 C498.02,148.25 500.19,109.86 500.19,109.86 C500.19,109.86 475.78,98.87 487,89.62 Z" id="Shape"></path>
                    <path d="M756,202.62 L811.52,189.62 C811.52,189.62 802.86,216 804.83,237.62 C806.8,259.24 770.18,268.33 768.6,264.79 C767.02,261.25 769.19,222.86 769.19,222.86 C769.19,222.86 744.78,211.87 756,202.62 Z" id="Shape"></path>
                    <path d="M990,138.62 L1045.52,125.62 C1045.52,125.62 1036.86,152 1038.83,173.62 C1040.8,195.24 1004.18,204.33 1002.6,200.79 C1001.02,197.25 1003.19,158.86 1003.19,158.86 C1003.19,158.86 978.78,147.87 990,138.62 Z" id="Shape"></path>
                    <path d="M733,692.62 C733,692.62 780,674 813,685 C846,696 800,713.34 802,735 C804,756.66 747.18,758.38 745.6,754.83 C744.02,751.28 746.19,712.9 746.19,712.9 C746.19,712.9 721.78,701.87 733,692.62 Z" id="Shape"></path>
                    <path d="M838,686.62 C838,686.62 885,668 918,679 C951,690 905,707.34 907,729 C909,750.66 852.18,752.38 850.6,748.83 C849.02,745.28 851.19,706.9 851.19,706.9 C851.19,706.9 826.78,695.87 838,686.62 Z" id="Shape"></path>
                    <path d="M538,558 C538,558 633,550 666,561 C699,572 695.71,620.76 674,622 C639,624 582.18,639.38 580.6,635.83 C579.02,632.28 581.19,593.9 581.19,593.9 C581.19,593.9 526.78,567.25 538,558 Z" id="Shape"></path>
                    <path d="M350,3 C350,3 445,-5 478,6 C511,17 507.71,65.76 486,67 C451,69 394.18,84.38 392.6,80.83 C391.02,77.28 393.19,38.9 393.19,38.9 C393.19,38.9 338.78,12.25 350,3 Z" id="Shape"></path>
                    <path d="M12,372 C12,372 171,254 200,301 C209,323 98,349.34 100,371 C102,392.66 99.58,413.54 98,410 C96.42,406.46 20,433 20,433 C20,433 0.78,381.25 12,372 Z" id="Shape"></path>
                    <path d="M358,239 C358,239 457,230.26 461.52,238.63 C466.04,247 480,277 454.83,286.63 C456.83,308.29 420.18,317.34 418.6,313.8 C417.02,310.26 385,287 385,287 C385,287 346.78,248.25 358,239 Z" id="Shape"></path>
                    <path d="M219,240.62 L274.52,227.62 C274.52,227.62 265.86,254 267.83,275.62 C269.8,297.24 233.18,306.33 231.6,302.79 C230.02,299.25 232.19,260.86 232.19,260.86 C232.19,260.86 207.78,249.87 219,240.62 Z" id="Shape"></path>
                    <path d="M1059.35,523.68 L1099.82,494.57 C1099.82,494.57 1101.67,518.78 1110.52,535.57 C1119.37,552.36 1092.84,571.99 1090.38,569.66 C1087.92,567.33 1076.8,535.6 1076.8,535.6 C1076.8,535.6 1053.39,534.92 1059.35,523.68 Z" id="Shape"></path>
                    <path d="M6,461 L76.52,487.63 C76.52,487.63 67.86,514.01 69.83,535.63 C71.8,557.25 35.18,566.34 33.6,562.8 C32.02,559.26 4,541 4,541 C4,541 -5.22,470.25 6,461 Z" id="Shape"></path>
                </g>
                <g id="Calque_11" transform="translate(737.000000, 490.000000)" fill="url(#linearGradient-2)">
                    <path d="M355,271.11 C355,271.11 339.25,238.43 347.91,229.37 C356.57,220.31 367.31,160.42 374,162 C380.69,163.58 419.39,204.43 419,219 C418.61,233.57 381.41,277.41 381,286.07 C380.59,294.73 407.87,306.88 413,312 C418.13,317.12 377.47,331.35 371.17,325.84 C364.87,320.33 360.93,317.96 359.75,312.45 C358.57,306.94 349.51,318.75 355.02,330.17 C360.53,341.59 373.13,363.64 358.17,363.64 C343.21,363.64 345,350.73 345,346 C345,341.27 335.76,350.24 333,353 C330.24,355.76 327.07,350.25 309,338 C290.93,325.75 289.31,285.24 294,285.63 C298.69,286.02 312.31,290.16 312.31,296.85 C312.31,303.54 325.7,301.97 328.06,297.64 C322.55,296.06 311.92,292.52 311.92,290.16 C311.92,287.8 312.71,277.56 322.92,276.38 C333.13,275.2 338.28,270.47 346.92,272.44 C355.56,274.41 355,271.11 355,271.11 Z" id="Shape"></path>
                    <path d="M64,67.11 C64,67.11 48.25,34.43 56.91,25.37 C65.57,16.31 73.84,-1.41 80.54,0.17 C87.24,1.75 106.54,19.07 106.13,33.64 C105.72,48.21 90.41,73.41 90,82.07 C89.59,90.73 90.79,104.91 95.91,110.07 C101.03,115.23 86.46,127.4 80.16,121.88 C73.86,116.36 69.92,114 68.74,108.49 C67.56,102.98 58.5,114.79 64.01,126.21 C69.52,137.63 82.12,159.68 67.16,159.68 C52.2,159.68 58.89,136.05 58.89,131.33 C58.89,126.61 53.77,127.39 51.01,130.15 C48.25,132.91 36.01,146.29 17.93,134.09 C-0.15,121.89 -1.76,81.33 2.93,81.72 C7.62,82.11 21.24,86.25 21.24,92.94 C21.24,99.63 34.63,98.06 36.99,93.73 C31.48,92.15 20.85,88.61 20.85,86.25 C20.85,83.89 21.64,73.65 31.85,72.47 C42.06,71.29 47.21,66.56 55.85,68.53 C64.49,70.5 64,67.11 64,67.11 Z" id="Shape"></path>
                </g>
                <g id="Calque_12" transform="translate(217.000000, 338.000000)" fill="url(#linearGradient-5)">
                    <path d="M727.73,333.82 C713.95,357.45 729.11,380.48 729.11,380.48 C729.11,380.48 724.78,380.09 714.54,375.36 C682.15,360.36 685.01,355.28 678.71,347.8 C672.41,340.32 665.71,305.67 664.53,284.41 C663.35,263.15 661.38,262.36 649.96,259.21 C638.54,256.06 632.63,261.97 622.79,250.15 C612.95,238.33 616.1,210.77 644.45,220.62 C672.8,230.47 682.64,269.05 686.98,271.81 C691.32,274.57 699.98,277.72 714.98,253.3 C729.98,228.88 751.98,271.41 756.72,280.08 C761.46,288.75 761.45,322.21 757.72,324.77 C753.99,327.33 743.94,305.48 728.19,303.11 C712.44,300.74 732.52,324.77 732.52,324.77 L727.73,333.82 Z" id="Shape"></path>
                    <path d="M490.73,115.82 C476.95,139.45 492.11,162.48 492.11,162.48 C492.11,162.48 487.78,162.09 477.54,157.36 C445.15,142.36 448.01,137.28 441.71,129.8 C435.41,122.32 428.71,87.67 427.53,66.41 C426.35,45.15 424.38,44.36 412.96,41.21 C401.54,38.06 395.63,43.97 385.79,32.15 C375.95,20.33 379.1,-7.23 407.45,2.62 C435.8,12.47 445.64,51.05 449.98,53.81 C454.32,56.57 462.98,59.72 477.98,35.3 C492.98,10.88 514.98,53.41 519.72,62.08 C524.46,70.75 524.45,104.21 520.72,106.77 C516.99,109.33 506.94,87.48 491.19,85.11 C475.44,82.74 495.52,106.77 495.52,106.77 L490.73,115.82 Z" id="Shape"></path>
                    <path d="M348.73,563.82 C334.95,587.45 350.11,610.48 350.11,610.48 C350.11,610.48 345.78,610.09 335.54,605.36 C303.15,590.36 306.01,585.28 299.71,577.8 C293.41,570.32 286.71,535.67 285.53,514.41 C284.35,493.15 282.38,492.36 270.96,489.21 C259.54,486.06 253.63,491.97 243.79,480.15 C233.95,468.33 237.1,440.77 265.45,450.62 C293.8,460.47 303.64,499.05 307.98,501.81 C312.32,504.57 320.98,507.72 335.98,483.3 C350.98,458.88 372.98,501.41 377.72,510.08 C382.46,518.75 382.45,552.21 378.72,554.77 C374.99,557.33 364.94,535.48 349.19,533.11 C333.44,530.74 353.52,554.77 353.52,554.77 L348.73,563.82 Z" id="Shape"></path>
                    <path d="M110.73,417.82 C96.95,441.45 112.11,464.48 112.11,464.48 C112.11,464.48 107.78,464.09 97.54,459.36 C65.15,444.36 68.01,439.28 61.71,431.8 C55.41,424.32 48.71,389.67 47.53,368.41 C46.35,347.15 44.38,346.36 32.96,343.21 C21.54,340.06 15.63,345.97 5.79,334.15 C-4.05,322.33 -0.9,294.77 27.45,304.62 C55.8,314.47 65.64,353.05 69.98,355.81 C74.32,358.57 82.98,361.72 97.98,337.3 C112.98,312.88 134.98,355.41 139.72,364.08 C144.46,372.75 144.45,406.21 140.72,408.77 C136.99,411.33 126.94,389.48 111.19,387.11 C95.44,384.74 115.52,408.77 115.52,408.77 L110.73,417.82 Z" id="Shape"></path>
                </g>
                <g id="Calque_13" transform="translate(239.000000, 239.000000)" fill="url(#linearGradient-6)">
                    <path d="M638.6,492.08 C638.6,492.08 621.27,484.99 614.6,475.94 C607.93,466.89 576,496 567.72,496 C559.44,496 538.98,472.77 529.92,458.2 C520.86,443.63 510.63,433 510.63,416.86 C510.63,400.72 502.75,395.2 499.63,387.72 C525.63,387.72 542.94,403.47 542.55,406.62 C542.16,409.77 557.12,432.21 579.55,425.91 C601.98,419.61 603.18,418.82 617.35,436.91 C631.52,455 638.22,448.72 645.35,454.63 C652.48,460.54 656.77,469.2 661.89,477.07 C667.01,484.94 658.28,500.75 652,500 C645.72,499.25 646.49,491.34 646.09,489.37 C645.69,487.4 638.6,492.08 638.6,492.08 Z" id="Shape"></path>
                    <path d="M355.6,199.08 C355.6,199.08 338.27,191.99 331.6,182.94 C324.93,173.89 293,203 284.72,203 C276.44,203 255.98,179.77 246.92,165.2 C237.86,150.63 227.63,140 227.63,123.86 C227.63,107.72 219.75,102.2 216.63,94.72 C242.63,94.72 259.94,110.47 259.55,113.62 C259.16,116.77 274.12,139.21 296.55,132.91 C318.98,126.61 320.18,125.82 334.35,143.91 C348.52,162 355.22,155.72 362.35,161.63 C369.48,167.54 373.77,176.2 378.89,184.07 C384.01,191.94 375.28,207.75 369,207 C362.72,206.25 363.49,198.34 363.09,196.37 C362.69,194.4 355.6,199.08 355.6,199.08 Z" id="Shape"></path>
                    <path d="M139.6,193.08 C139.6,193.08 122.27,185.99 115.6,176.94 C108.93,167.89 77,197 68.72,197 C60.44,197 39.98,173.77 30.92,159.2 C21.86,144.63 11.63,134 11.63,117.86 C11.63,101.72 3.75,96.2 0.63,88.72 C26.63,88.72 43.94,104.47 43.55,107.62 C43.16,110.77 58.12,133.21 80.55,126.91 C102.98,120.61 104.18,119.82 118.35,137.91 C132.52,156 139.22,149.72 146.35,155.63 C153.48,161.54 157.77,170.2 162.89,178.07 C168.01,185.94 159.28,201.75 153,201 C146.72,200.25 147.49,192.34 147.09,190.37 C146.69,188.4 139.6,193.08 139.6,193.08 Z" id="Shape"></path>
                    <path d="M342.6,800.08 C342.6,800.08 325.27,792.99 318.6,783.94 C311.93,774.89 280,804 271.72,804 C263.44,804 242.98,780.77 233.92,766.2 C224.86,751.63 214.63,741 214.63,724.86 C214.63,708.72 206.75,703.2 203.63,695.72 C229.63,695.72 246.94,711.47 246.55,714.62 C246.16,717.77 261.12,740.21 283.55,733.91 C305.98,727.61 307.18,726.82 321.35,744.91 C335.52,763 342.22,756.72 349.35,762.63 C356.48,768.54 360.77,777.2 365.89,785.07 C371.01,792.94 362.28,808.75 356,808 C349.72,807.25 350.49,799.34 350.09,797.37 C349.69,795.4 342.6,800.08 342.6,800.08 Z" id="Shape"></path>
                    <path d="M178.6,105.08 C178.6,105.08 161.27,97.99 154.6,88.94 C147.93,79.89 116,109 107.72,109 C99.44,109 78.98,85.77 69.92,71.2 C60.86,56.63 50.63,46 50.63,29.88 C50.63,13.76 42.75,8.22 39.63,0.74 C65.63,0.74 82.94,16.49 82.55,19.64 C82.16,22.79 97.12,45.23 119.55,38.93 C141.98,32.63 143.18,31.84 157.35,49.93 C171.52,68.02 178.22,61.74 185.35,67.65 C192.48,73.56 196.77,82.22 201.89,90.09 C207.01,97.96 198.28,113.75 192,113 C185.72,112.25 186.49,104.34 186.09,102.37 C185.69,100.4 178.6,105.08 178.6,105.08 Z" id="Shape"></path>
                    <path d="M911.6,344.08 C911.6,344.08 894.27,336.99 887.6,327.94 C880.93,318.89 849,348 840.72,348 C832.44,348 811.98,324.77 802.92,310.2 C793.86,295.63 783.63,285 783.63,268.86 C783.63,252.72 775.75,247.2 772.63,239.72 C798.63,239.72 815.94,255.47 815.55,258.62 C815.16,261.77 830.12,284.21 852.55,277.91 C874.98,271.61 876.18,270.82 890.35,288.91 C904.52,307 911.22,300.72 918.35,306.63 C925.48,312.54 929.77,321.2 934.89,329.07 C940.01,336.94 931.35,352.7 925.05,351.91 C918.75,351.12 919.54,343.25 919.14,341.28 C918.74,339.31 911.6,344.08 911.6,344.08 Z" id="Shape"></path>
                    <path d="M744.6,327.08 C744.6,327.08 727.27,319.99 720.6,310.94 C713.93,301.89 682,331 673.72,331 C665.44,331 644.98,307.77 635.92,293.2 C626.86,278.63 616.63,268 616.63,251.86 C616.63,235.72 608.75,230.2 605.63,222.72 C631.63,222.72 648.94,238.47 648.55,241.62 C648.16,244.77 663.12,267.21 685.55,260.91 C707.98,254.61 709.18,253.82 723.35,271.91 C737.52,290 744.22,283.72 751.35,289.63 C758.48,295.54 762.77,304.2 767.89,312.07 C773.01,319.94 764.28,335.75 758,335 C751.72,334.25 752.49,326.34 752.09,324.37 C751.69,322.4 744.6,327.08 744.6,327.08 Z" id="Shape"></path>
                </g>
                <g id="Calque_13-Copy" transform="translate(677.700349, 606.678906) rotate(100.000000) translate(-677.700349, -606.678906) translate(167.700349, 9.178906)" fill="url(#linearGradient-6)">
                    <path d="M1020.49718,848.656087 C1020.49718,848.656087 1003.16718,841.566087 996.497181,832.516087 C989.827181,823.466087 957.897181,852.576087 949.617181,852.576087 C941.337181,852.576087 920.877181,829.346087 911.817181,814.776087 C902.757181,800.206087 892.527181,789.576087 892.527181,773.436087 C892.527181,757.296087 884.647181,751.776087 881.527181,744.296087 C907.527181,744.296087 924.837181,760.046087 924.447181,763.196087 C924.057181,766.346087 939.017181,788.786087 961.447181,782.486087 C983.877181,776.186087 985.077181,775.396087 999.247181,793.486087 C1013.41718,811.576087 1020.11718,805.296087 1027.24718,811.206087 C1034.37718,817.116087 1038.66718,825.776087 1043.78718,833.646087 C1048.90718,841.516087 1040.17718,857.326087 1033.89718,856.576087 C1027.61718,855.826087 1028.38718,847.916087 1027.98718,845.946087 C1027.58718,843.976087 1020.49718,848.656087 1020.49718,848.656087 Z" id="Shape" transform="translate(963.429298, 800.448970) rotate(90.000000) translate(-963.429298, -800.448970) "></path>
                    <path d="M944.925708,234.76139 C944.925708,234.76139 927.595708,227.67139 920.925708,218.62139 C914.255708,209.57139 882.325708,238.68139 874.045708,238.68139 C865.765708,238.68139 845.305708,215.45139 836.245708,200.88139 C827.185708,186.31139 816.955708,175.68139 816.955708,159.54139 C816.955708,143.40139 809.075708,137.88139 805.955708,130.40139 C831.955708,130.40139 849.265708,146.15139 848.875708,149.30139 C848.485708,152.45139 863.445708,174.89139 885.875708,168.59139 C908.305708,162.29139 909.505708,161.50139 923.675708,179.59139 C937.845708,197.68139 944.545708,191.40139 951.675708,197.31139 C958.805708,203.22139 963.095708,211.88139 968.215708,219.75139 C973.335708,227.62139 964.605708,243.43139 958.325708,242.68139 C952.045708,241.93139 952.815708,234.02139 952.415708,232.05139 C952.015708,230.08139 944.925708,234.76139 944.925708,234.76139 Z" id="Shape"></path>
                    <path d="M191.853195,593.203637 C191.853195,593.203637 183.51639,589.792907 180.307706,585.439295 C177.099022,581.085684 161.73871,595.089401 157.755516,595.089401 C153.772322,595.089401 143.929792,583.914329 139.57137,576.905254 C135.212948,569.89618 130.291683,564.78249 130.291683,557.018149 C130.291683,549.253807 126.500914,546.598344 125,543 C137.507614,543 145.834798,550.576728 145.647184,552.092073 C145.45957,553.607419 152.656258,564.402451 163.44648,561.37176 C174.236702,558.341069 174.813977,557.96103 181.630626,566.663443 C188.447276,575.365856 191.670392,572.344786 195.100364,575.187863 C198.530337,578.03094 200.594093,582.196937 203.057131,585.982896 C205.520169,589.768854 201.320497,597.374445 198.299427,597.013649 C195.278357,596.652852 195.648775,592.847651 195.45635,591.899959 C195.263925,590.952267 191.853195,593.203637 191.853195,593.203637 Z" id="Shape"></path>
                    <path d="M384.4531,1186.15223 C384.4531,1186.15223 367.1231,1179.06223 360.4531,1170.01223 C353.7831,1160.96223 321.8531,1190.07223 313.5731,1190.07223 C305.2931,1190.07223 284.8331,1166.84223 275.7731,1152.27223 C266.7131,1137.70223 256.4831,1127.07223 256.4831,1110.93223 C256.4831,1094.79223 248.6031,1089.27223 245.4831,1081.79223 C271.4831,1081.79223 288.7931,1097.54223 288.4031,1100.69223 C288.0131,1103.84223 302.9731,1126.28223 325.4031,1119.98223 C347.8331,1113.68223 349.0331,1112.89223 363.2031,1130.98223 C377.3731,1149.07223 384.0731,1142.79223 391.2031,1148.70223 C398.3331,1154.61223 402.6231,1163.27223 407.7431,1171.14223 C412.8631,1179.01223 404.1331,1194.82223 397.8531,1194.07223 C391.5731,1193.32223 392.3431,1185.41223 391.9431,1183.44223 C391.5431,1181.47223 384.4531,1186.15223 384.4531,1186.15223 Z" id="Shape"></path>
                    <path d="M139.931998,495.196011 C139.931998,495.196011 122.601998,488.106011 115.931998,479.056011 C109.261998,470.006011 77.3319981,499.116011 69.0519981,499.116011 C60.7719981,499.116011 40.3119981,475.886011 31.2519981,461.316011 C22.1919981,446.746011 11.9619981,436.116011 11.9619981,419.996011 C11.9619981,403.876011 4.08199813,398.336011 0.961998127,390.856011 C26.9619981,390.856011 44.2719981,406.606011 43.8819981,409.756011 C43.4919981,412.906011 58.4519981,435.346011 80.8819981,429.046011 C103.311998,422.746011 104.511998,421.956011 118.681998,440.046011 C132.851998,458.136011 139.551998,451.856011 146.681998,457.766011 C153.811998,463.676011 158.101998,472.336011 163.221998,480.206011 C168.341998,488.076011 159.611998,503.866011 153.331998,503.116011 C147.051998,502.366011 147.821998,494.456011 147.421998,492.486011 C147.021998,490.516011 139.931998,495.196011 139.931998,495.196011 Z" id="Shape"></path>
                    <path d="M863.97,104.36 C863.97,104.36 846.64,97.27 839.97,88.22 C833.3,79.17 801.37,108.28 793.09,108.28 C784.81,108.28 764.35,85.05 755.29,70.48 C746.23,55.91 736,45.28 736,29.14 C736,13 728.12,7.48 725,-2.27373675e-13 C751,-2.27373675e-13 768.31,15.75 767.92,18.9 C767.53,22.05 782.49,44.49 804.92,38.19 C827.35,31.89 828.55,31.1 842.72,49.19 C856.89,67.28 863.59,61 870.72,66.91 C877.85,72.82 882.14,81.48 887.26,89.35 C892.38,97.22 883.72,112.98 877.42,112.19 C871.12,111.4 871.91,103.53 871.51,101.56 C871.11,99.59 863.97,104.36 863.97,104.36 Z" id="Shape"></path>
                    <path d="M887.97,463.36 C887.97,463.36 870.64,456.27 863.97,447.22 C857.3,438.17 825.37,467.28 817.09,467.28 C808.81,467.28 788.35,444.05 779.29,429.48 C770.23,414.91 760,404.28 760,388.14 C760,372 752.12,366.48 749,359 C775,359 792.31,374.75 791.92,377.9 C791.53,381.05 806.49,403.49 828.92,397.19 C851.35,390.89 852.55,390.1 866.72,408.19 C880.89,426.28 887.59,420 894.72,425.91 C901.85,431.82 906.14,440.48 911.26,448.35 C916.38,456.22 907.65,472.03 901.37,471.28 C895.09,470.53 895.86,462.62 895.46,460.65 C895.06,458.68 887.97,463.36 887.97,463.36 Z" id="Shape"></path>
                </g>
                <g id="Calque_14" transform="translate(37.000000, 231.000000)" fill="url(#linearGradient-7)">
                    <path d="M557.52,589.77 C557,573 566.18,578.77 565,559.45 C563.82,540.13 557.12,517.32 567,514.56 C576.88,511.8 600.47,557.09 608,570.47 C615.53,583.85 632.74,591.47 675.73,581.1 C687.15,578.34 685.99,585.39 686.73,589.37 C692,617 627.56,657.09 587,650 C580.31,648.78 560,608 557.52,589.77 Z" id="Shape"></path>
                    <path d="M179.52,227.77 C179,211 188.18,216.77 187,197.45 C185.82,178.13 179.12,155.32 189,152.56 C198.88,149.8 222.47,195.09 230,208.47 C237.53,221.85 254.74,229.47 297.73,219.1 C309.15,216.34 307.99,223.39 308.73,227.37 C314,255 249.56,295.09 209,288 C202.31,286.78 182,246 179.52,227.77 Z" id="Shape"></path>
                    <path d="M699.63,385.5 C699.63,385.5 690.18,414.24 692.15,426.06 C694.12,437.88 681.15,452.06 677.58,460.71 C674.01,469.36 681.91,480.79 677.58,487.49 C673.25,494.19 641.35,487.88 636.58,478.04 C631.81,468.2 623.98,450.04 650.76,420.95 C677.54,391.86 679.11,378.42 689.35,381.95 L699.63,385.5 Z" id="Shape"></path>
                    <path d="M398.62,488.43 C398.62,488.43 393.09,518.18 396.62,529.62 C400.15,541.06 389.16,556.85 386.8,565.9 C384.44,574.95 393.8,585.22 390.37,592.44 C386.94,599.66 354.52,597.66 348.53,588.54 C342.54,579.42 332.31,562.54 354.96,530.07 C377.61,497.6 377.38,484.14 387.96,486.29 L398.62,488.43 Z" id="Shape"></path>
                    <path d="M190,288 C190,288 164.47,289.56 168,301 C171.53,312.44 139.15,300.84 136.8,309.9 C134.45,318.96 143.8,329.22 140.37,336.44 C136.94,343.66 104.52,341.66 98.53,332.54 C92.54,323.42 82.31,306.54 104.96,274.07 C127.61,241.6 127.38,228.14 137.96,230.29 C148.54,232.44 190,288 190,288 Z" id="Shape"></path>
                    <path d="M132,181 C132,181 74.47,245.56 78,257 C81.53,268.44 49.15,256.84 46.8,265.9 C44.45,274.96 53.8,285.22 50.37,292.44 C46.94,299.66 14.52,297.66 8.53,288.54 C2.54,279.42 -7.69,262.54 14.96,230.07 C37.61,197.6 37.38,184.14 47.96,186.29 C58.54,188.44 132,181 132,181 Z" id="Shape"></path>
                    <path d="M280.857897,555.747267 C280.857897,555.747267 275.327897,585.497267 278.857897,596.937267 C282.387897,608.377267 271.397897,624.167267 269.037897,633.217267 C266.677897,642.267267 276.037897,652.537267 272.607897,659.757267 C269.177897,666.977267 236.757897,664.977267 230.767897,655.857267 C224.777897,646.737267 214.547897,629.857267 237.197897,597.387267 C259.847897,564.917267 259.617897,551.457267 270.197897,553.607267 L280.857897,555.747267 Z" id="Shape" transform="translate(252.027401, 608.759621) rotate(73.000000) translate(-252.027401, -608.759621) "></path>
                    <path d="M401.62,611.43 C401.62,611.43 396.09,641.18 399.62,652.62 C403.15,664.06 392.16,679.85 389.8,688.9 C387.44,697.95 396.8,708.22 393.37,715.44 C389.94,722.66 357.52,720.66 351.53,711.54 C345.54,702.42 335.31,685.54 357.96,653.07 C380.61,620.6 380.38,607.14 390.96,609.29 L401.62,611.43 Z" id="Shape"></path>
                    <path d="M634.67,385.5 C634.67,385.5 594.51,402.43 613.41,468.58 C621.68,462.67 634.28,429.99 634.67,420.94 C635.06,411.89 638.21,390.62 634.67,385.5 Z" id="Shape"></path>
                    <path d="M150.67,561.5 C150.67,561.5 110.51,578.43 129.41,644.58 C137.68,638.67 150.28,605.99 150.67,596.94 C151.06,587.89 154.21,566.62 150.67,561.5 Z" id="Shape"></path>
                    <path d="M1251.67,377.5 C1251.67,377.5 1211.51,394.43 1230.41,460.58 C1238.68,454.67 1251.28,421.99 1251.67,412.94 C1252.06,403.89 1255.21,382.62 1251.67,377.5 Z" id="Shape"></path>
                    <path d="M1242.67,260.47 C1237.16,249.47 1206.84,218.34 1205.67,206.53 C1197,201.8 1159.48,183.09 1152,189 C1144.52,194.91 1154.87,226.21 1145.42,221.48 C1135.97,216.75 1132.03,208.88 1122.58,206.48 C1113.13,204.08 1092.26,204.48 1107.58,216.72 C1122.9,228.96 1112.36,226.15 1111.96,250.96 C1111.56,275.77 1119.39,287.59 1121.36,293.5 C1123.33,299.41 1128.05,297.44 1156.36,284.84 C1184.67,272.24 1138.16,374.82 1148,376 C1157.84,377.18 1193,419.91 1206,427 C1208.76,432.12 1235.58,343.15 1242.67,336.07 C1249.76,328.99 1248.18,271.49 1242.67,260.47 Z" id="Shape"></path>
                    <path d="M1087.67,178.47 C1082.16,167.47 1051.84,136.34 1050.67,124.53 C1042.01,119.8 1014.44,118.62 1006.96,124.53 C999.48,130.44 999.87,144.22 990.42,139.53 C980.97,134.84 977.03,126.93 967.58,124.53 C958.13,122.13 937.26,122.53 952.58,134.77 C967.9,147.01 970.3,134.38 969.91,159.18 C969.52,183.98 964.4,205.64 966.37,211.55 C968.34,217.46 973.06,215.49 1001.37,202.89 C1029.68,190.29 1029.37,245.81 1039.17,246.99 C1048.97,248.17 1068,243 1081,250.13 C1083.76,255.25 1080.61,261.13 1087.69,254.07 C1094.77,247.01 1093.18,189.49 1087.67,178.47 Z" id="Shape"></path>
                    <path d="M1098,77 C1092.49,66 1069.18,76.81 1068,65 C1059.34,60.27 1031.43,-5.38 1024,0.52 C1016.57,6.42 1016.91,20.21 1007.46,15.52 C998.01,10.83 981.45,54.36 972,52 C962.55,49.64 853.64,39.79 869,52 C884.36,64.21 909.39,53.19 909,78 C908.61,102.81 981.43,81.63 983.4,87.54 C985.37,93.45 990.09,91.48 1018.4,78.88 C1046.71,66.28 1046.4,121.8 1056.2,122.98 C1066,124.16 1085,119 1098,126.13 C1100.76,131.25 1097.61,137.13 1104.69,130.07 C1111.77,123.01 1103.51,88 1098,77 Z" id="Shape"></path>
                </g>
            </g>
        </g>
    </g>
</svg>