<?xml version="1.0" encoding="utf-8"?>
<!-- Generator: Adobe Illustrator 22.0.1, SVG Export Plug-In . SVG Version: 6.00 Build 0)  -->
<svg version="1.1" id="Calque_1" xmlns="http://www.w3.org/2000/svg" xmlns:xlink="http://www.w3.org/1999/xlink" x="0px" y="0px"
	 viewBox="0 0 2000 1000" style="enable-background:new 0 0 2000 1000;" xml:space="preserve">
<style type="text/css">
	.st0{fill:url(#SVGID_1_);}
	.st1{fill:url(#SVGID_2_);}
	.st2{fill:url(#SVGID_3_);}
	.st3{fill:url(#SVGID_4_);}
	.st4{fill:url(#SVGID_5_);}
	.st5{fill:url(#SVGID_6_);}
	.st6{fill:url(#SVGID_7_);}
	.st7{fill:url(#SVGID_8_);}
	.st8{fill:url(#SVGID_9_);}
	.st9{fill:url(#SVGID_10_);}
	.st10{fill:url(#SVGID_11_);}
	.st11{fill:url(#SVGID_12_);}
	.st12{fill:url(#SVGID_13_);}
	.st13{fill:url(#SVGID_14_);}
	.st14{fill:url(#SVGID_15_);}
	.st15{fill:url(#SVGID_16_);}
	.st16{fill:url(#SVGID_17_);}
	.st17{fill:url(#SVGID_18_);}
	.st18{fill:url(#SVGID_19_);}
	.st19{fill:url(#SVGID_20_);}
	.st20{fill:url(#SVGID_21_);}
	.st21{fill:url(#SVGID_22_);}
	.st22{fill:url(#SVGID_23_);}
	.st23{fill:url(#SVGID_24_);}
	.st24{fill:url(#SVGID_25_);}
	.st25{fill:url(#SVGID_26_);}
	.st26{fill:url(#SVGID_27_);}
	.st27{fill:url(#SVGID_28_);}
	.st28{fill:url(#SVGID_29_);}
	.st29{fill:url(#SVGID_30_);}
	.st30{fill:url(#SVGID_31_);}
	.st31{fill:url(#SVGID_32_);}
	.st32{fill:url(#SVGID_33_);}
	.st33{fill:url(#SVGID_34_);}
	.st34{fill:url(#SVGID_35_);}
	.st35{fill:url(#SVGID_36_);}
	.st36{fill:url(#SVGID_37_);}
	.st37{fill:url(#SVGID_38_);}
	.st38{fill:url(#SVGID_39_);}
	.st39{fill:url(#SVGID_40_);}
	.st40{fill:url(#SVGID_41_);}
	.st41{fill:url(#SVGID_42_);}
	.st42{fill:url(#SVGID_43_);}
	.st43{fill:url(#SVGID_44_);}
</style>
<title>couche-bleuFoncé</title>
<g id="Calque_2_1_">
	<linearGradient id="SVGID_1_" gradientUnits="userSpaceOnUse" x1="535.1794" y1="514.5766" x2="931.1895" y2="514.5766">
		<stop  offset="0.4925" style="stop-color:#161D46"/>
		<stop  offset="0.8969" style="stop-color:#1E3780"/>
	</linearGradient>
	<path class="st0" d="M795.6,708c-9.5-7.7-26.2-42.7-32.1-60.6c-5.9-17.9,4.7-42.3,4.7-42.3s32.5-47.3,41.7-47.4
		c9.2-0.1,24.8-35.9,24.8-35.9s45.8-14.9,49.5-15.1c44.2-0.8,48.6-25.5,46.7-27.5s-36.5,12.5-36.5,12.5l-24.7-31.4
		c2.7-11.9,6.5-23.5,11.4-34.6c8.2-18.9-8.9-29.9-8.9-29.9l8.9-7.9c0,0,11.3,1.4,12.6-5.8c1.3-7.1-12.8-8.5-12.8-8.5
		s10.7-11.9,2.1-13.3c-8.5-1.4-7,18.2-25.9,44.8s-23.3,24.1-28.4,25.4c-15-11.8,2.3-40.9,4.9-46.9c1.9-27.5-6.1-36.3-9.4-47.8
		c1.3-11.3-2.8-23.1-7-30.2c-2.5-19.4-34.1-26.7-34.1-26.7s-20,6.1-24.3,5.4c-10.3-1.5-33.1,0.4-44.8,3.2
		c-14.2,30.5-47.8,15.2-47.8,15.2c-4.2,4.4,8.6,25.3,18.9,33.3c9.6,5.3,16.8,13.8,13.9,22.6c-2.9,8.8-11.3,51.2-11.3,51.2
		s-5.7,15.2-10.9,31.3c-3,9.6-0.1,21.1,8.1,31.9c13.3,24.1-7.2,64.8-7.2,64.8s-31.5,28.2-23,44.4c8.5,16.1,9.6,28.4-0.8,29.2
		c-10.4,0.8-31.2-20.7-43.5-26c-12.3-5.4-41,8.1-51.7,11.7c-10.7,3.6-15.4-6.7-15.4-6.7s-2.6,6-4.2,11.8c14.5,8.7-3.9,27.8-3.9,27.8
		s5.8-0.8,9.7,4.5c3.9,5.3,36.6,11.1,34,15.3c-2.6,4.3,19.3,8.3,19.3,7.6c-0.1-1.8,18.6-0.8,18.6-0.8l1.4,9.5c0,0,5-4,8.5,3.7
		c3.5,7.7,7.2,3.2,10.8,4.7c6.7-7.1-2.6-21.2-13.6-40.2s1.7-22.9,15.5-14.5c13.7,8.3,29.4,3.9,29.4,3.9s12.5-28.8,20.2-25.5
		c7.7,3.3-4.9,28-4.9,28s-12.2,26-14.9,34.3c8.6,9.6-5.6,25.3-5.6,25.3s29.3,1.2,33.9,14.7c2.2,6.4,38.7,13.2,51,26.7
		c7.5,8.2,37.5,9.7,42.4,17.7c4.8,8,17.4,3.8,18.8,4.4C817.9,736.6,805,715.7,795.6,708z M867,416c7.9,2.8-11.2,53-7.1,58.3
		c15.1,9.5,9.9,15,11.3,16.1s-20,6.1-20,6.1s-18.4,15-34.2,13.5C753.6,489.5,867,416,867,416z M744.9,515.8
		c-13.8-16.6-25.3-36.4-1.9-48.1c0,0,12.6-5.8,18.2-3.9s14.7-14.9,18.5-13.2l3.8,1.7c0,0,13.6,6.5,0.3,30.8c0,0,3.9,10-1.1,21.4
		c0,0,23.1-0.6-11.2,25.8C769.2,529.3,758.7,532.5,744.9,515.8z M761.8,575.7l0.9-2c0,0,12.4-45.4,23.1-42.5
		c7,0.7,6.7-15.4,6.7-15.4l29.9,0.6c0,0,0.7,10.9-4.8,10.9c-5.5,0-22.5,28.6-22.5,28.6S780.6,578.6,761.8,575.7z"/>
</g>
<g id="Calque_3">
	<linearGradient id="SVGID_2_" gradientUnits="userSpaceOnUse" x1="1241.814" y1="536.7531" x2="1392.3182" y2="536.7531">
		<stop  offset="0.4925" style="stop-color:#161D46"/>
		<stop  offset="0.8969" style="stop-color:#1E3780"/>
	</linearGradient>
	<path class="st1" d="M1272.3,403.3c0,0-3.3,13.6,0.3,16.8s16.2,27.2,9,42.9c-4.2,6-25.8,28.1-25.2,39.7v6c0,0-26.4,42.4-8.4,49.8
		c10.2,5.1,25.2-8.8,25.2-8.8s11.4-3.7,12,14.8c0.6,18.4-4.2,12.9-4.2,12.9s-3.6,16.6,5.4,21.7c9,5.1,0,25.4,0,25.4
		s-48.5,42.4-17.4,53.9c13.2,4.6,37.1-53.5,47.9-51.2c10.8,2.3,23.4,12.4,38.3,0c9.6-8.3,27.6,6.5,27.6,6.5s28.1-18-12.6-29.5
		c-3,0-20.4,4.6-19.8-15.2c0.6-19.8,26.4-63.6,26.4-63.6s4.2-17.5-21-13.4c-2.4-0.5-7.8,12.4-25.2,2.3c-6.6-8.8-9.6-16.6-13.8-16.6
		c-4.2,0,10.2-6,10.8-8.3s-1.2-3.2-1.2-3.2s-7.2,6.5-11.4,8.3c-4.2,1.8-15.6,3.2-15.6-9.7c0-12.9,4.2-31.4,10.2-40.6
		c0,0,4.2-16.1-4.2-23.5c-8.4-7.4,6.9,1.2-7.8-17.5S1272.3,403.3,1272.3,403.3z"/>
</g>
<g id="Calque_4">
	<linearGradient id="SVGID_3_" gradientUnits="userSpaceOnUse" x1="1081.6788" y1="676.6715" x2="1254.4225" y2="676.6715">
		<stop  offset="0.4925" style="stop-color:#161D46"/>
		<stop  offset="0.8969" style="stop-color:#1E3780"/>
	</linearGradient>
	<path class="st2" d="M1084.9,629.4c0,0,0-21,20-27c5.5-2.5,23.5,31.5,49.5,31.5c7.1,0,14.1-2.1,20-6c0,0,13-2,9,21s-1,29-1,29
		s13,15,32,13c0,0,8,36,18,40s28-11,20,19c-1,5-29-7-29-7h-15c0,0-26-39-56-45s-54,24-54,24s-15-6-16-11s-6-40,33-42
		C1125.4,666.9,1118.4,638.9,1084.9,629.4z"/>
</g>
<g id="Calque_6">
	<linearGradient id="SVGID_4_" gradientUnits="userSpaceOnUse" x1="1317.8118" y1="648.6791" x2="1654.4249" y2="648.6791">
		<stop  offset="0.4925" style="stop-color:#161D46"/>
		<stop  offset="0.8969" style="stop-color:#1E3780"/>
	</linearGradient>
	<path class="st3" d="M1654.4,470.6l-16.2-30.6c0,0-39.4,22.3-52.6,59c-13.1,36.7-77.1,93.6-156.1,116c-7.3,2.9-6.7,74.7-6.7,74.7
		s-46.7,33.1-46.3,44.8c0.4,11.7,0.5,56-18.1,74.1c-11.8,11.3-24.9,21.1-39.1,29.2c-5.3,6.6,4.6,8.8,18.1,6c11.6-2.4,13,4.3,13,4.3
		c9.1,9.7,16.3,11.7,22.1,7.3c0,0,64.5-99.8,82-156.2c17.5-56.4,78.4-87.9,91.1-81.6s64.2-6.2,69.2-24.6
		C1619.7,574.4,1654.4,470.6,1654.4,470.6z"/>
</g>
<g id="Calque_7">
	<linearGradient id="SVGID_5_" gradientUnits="userSpaceOnUse" x1="1239.1093" y1="177.1814" x2="1271.5032" y2="177.1814">
		<stop  offset="0.4925" style="stop-color:#161D46"/>
		<stop  offset="0.8969" style="stop-color:#1E3780"/>
	</linearGradient>
	<path class="st4" d="M1271.5,235.5c0,0,1-93-16-126C1253,104,1228,143,1245,177s1,58,1,58c5.4,7.6,8.4,7.2,9.3,0.2l5.4,0.1
		C1255,248.6,1258.6,248.8,1271.5,235.5z"/>
</g>
<g id="Calque_8">
	<linearGradient id="SVGID_6_" gradientUnits="userSpaceOnUse" x1="1144.428" y1="816.25" x2="1191.6733" y2="816.25">
		<stop  offset="0.4925" style="stop-color:#161D46"/>
		<stop  offset="0.8969" style="stop-color:#1E3780"/>
	</linearGradient>
	<path class="st5" d="M1167.2,850c0,0-25.5-10.5-22.5-36.5s36-16,36-16l11-15l-5,18C1186.7,800.5,1181.7,836.5,1167.2,850z"/>
</g>
<g id="Calque_9">
	<linearGradient id="SVGID_7_" gradientUnits="userSpaceOnUse" x1="1714.1361" y1="459.5007" x2="1844.1361" y2="459.5007">
		<stop  offset="0.4925" style="stop-color:#161D46"/>
		<stop  offset="0.8969" style="stop-color:#1E3780"/>
	</linearGradient>
	<path class="st6" d="M1755.6,497.8c0,0-6-29-14-34s-27.5-53.5-27.5-53.5s53,42,74,41s56,47,56,47s-35-14.8-31.2-0.2
		c3.8,14.7-33.8-0.2-33.8-0.2C1773,518.7,1764,504.1,1755.6,497.8z"/>
</g>
<g id="Calque_9_4_">
	<linearGradient id="SVGID_8_" gradientUnits="userSpaceOnUse" x1="195.8421" y1="607.5277" x2="325.8421" y2="607.5277">
		<stop  offset="0.4925" style="stop-color:#161D46"/>
		<stop  offset="0.8969" style="stop-color:#1E3780"/>
	</linearGradient>
	<path class="st7" d="M237.3,645.9c0,0-6-29-14-34s-27.5-53.5-27.5-53.5s53,42,74,41s56,47,56,47s-35-14.8-31.2-0.2
		s-33.8-0.2-33.8-0.2C254.7,666.7,245.7,652.1,237.3,645.9z"/>
</g>
<g id="Calque_10">
	<linearGradient id="SVGID_9_" gradientUnits="userSpaceOnUse" x1="824.5672" y1="143.973" x2="893.5281" y2="143.973">
		<stop  offset="0.4925" style="stop-color:#161D46"/>
		<stop  offset="0.8969" style="stop-color:#1E3780"/>
	</linearGradient>
	<path class="st8" d="M824.6,95c0,0,2,15,9,16s10.5-15.5,10.5-15.5s22-12,21,46c0,22,0,54,21,63s-9-87-9-87s23.5,3.5-1-23
		S824.6,95,824.6,95z"/>
</g>
<g id="Calque_11">
	<linearGradient id="SVGID_10_" gradientUnits="userSpaceOnUse" x1="584.3589" y1="133.5" x2="616" y2="133.5">
		<stop  offset="0.4925" style="stop-color:#161D46"/>
		<stop  offset="0.8969" style="stop-color:#1E3780"/>
	</linearGradient>
	<path class="st9" d="M597,109l19,49C616,158,560,152,597,109z"/>
</g>
<g id="Calque_12">
	<linearGradient id="SVGID_11_" gradientUnits="userSpaceOnUse" x1="248.6056" y1="266.1663" x2="330.4836" y2="266.1663">
		<stop  offset="0.4925" style="stop-color:#161D46"/>
		<stop  offset="0.8969" style="stop-color:#1E3780"/>
	</linearGradient>
	<path class="st10" d="M322.9,205.1c0,0,42.7,4.9-74.3,122.2C248.8,327.9,322.9,205.1,322.9,205.1z"/>
</g>
<g id="Calque_13">
	<linearGradient id="SVGID_12_" gradientUnits="userSpaceOnUse" x1="340.7637" y1="394.8715" x2="557.0595" y2="394.8715">
		<stop  offset="0.4925" style="stop-color:#161D46"/>
		<stop  offset="0.8969" style="stop-color:#1E3780"/>
	</linearGradient>
	<path class="st11" d="M508,268.6c0,0,18.6,20.1,44.9,24.7c2.2,0.6,12.4,7.2-10.2,20.6c-7.2,4-35,3.8-28.2,17.1
		c0,0,40.3,9.5-14.4,24.2c-10.2,2.1-25.8,4.4-20.9,32.3c0,3-10.2,31.8-17.2,36.7c-7,4.9-5,17-5,17s3.4,5.1,16.1-14.4
		c12.7-19.5,4.1-20.4,24.9-28.7c9.2-3.7,9.8-14.4,9.8-14.4s18.2-15.8,23.8-7.7c1.7,4.1,0.7,6.8,3.9,8.4c3.1,1.5,14.5-2.3,8.5,11.7
		c-6,14-10.5,13.3-10.5,13.3l-14.8,21c0,0-8,28.6-3,38.2c2.2,5.6-16.2,35.3-16.2,35.3s-0.6,9,8.8,1.8c2.5-2.6,2.6,1.7,2.6,1.7
		l-2.9,8.3c0,0-6.9-2.9-13.7,3c-6.8,5.9-16.3,6-20.6,3.2c-4.3-2.8-12.5-31.5-19.7-30.6c-7.2,1-22,13.2-21.8,19.8
		c0.4,5-10.3,2.9-9.7-3.4c0.3-3.5-13.3-8.2-13-4.6c0.5,6.9-12.7-0.8-12.4-4.4c0,0,0.1-13.5-11.9-16.9c-12-3.4-29.7-5.3-33.1-25.3
		c-0.8-3.8-8.1-6.8-8.1-6.8s-13.3-55.2,13.4-37.6s24.5,25.7,24.5,25.7l-1.8,3.7l-2.9-0.6c0,0-5.2,7.3,0.1,10.1
		c5.3,2.8,9.9-10,9.9-10l27,15.7c0,0-3.7,7.4,5.8,6c9.5-1.5,8.4,6,8.4,6s12-4.1-6-38c0,0-5.6-5-10.7,0.6c-5.1,5.6-15.2-3.2-15.2-3.2
		s-8,6.3-16.3-1.4c-8.3-7.7-19.8-22.8-19.8-22.8s-29.6-59.6,16.7-47s22.4,21.5,44.2,19.2c9-0.3,25.7,19.6,25.7,19.6
		s14.2-23.8-16.5-58.7c1.2-10.9,5.5-12.5,14.5-6.7c5.6,2,18.1,6.8,20.2-6.4c-1.6-2.8-23.4-21.4-10.5-28.2
		c12.9-6.8,16.9-4.5,24.7-17.9C487.1,264.4,507,264.5,508,268.6z"/>
</g>
<g id="Calque_13_1_">
	<linearGradient id="SVGID_13_" gradientUnits="userSpaceOnUse" x1="812.7637" y1="782.5" x2="1029.0594" y2="782.5">
		<stop  offset="0.4925" style="stop-color:#161D46"/>
		<stop  offset="0.8969" style="stop-color:#1E3780"/>
	</linearGradient>
	<path class="st12" d="M980,656.2c0,0,18.6,20.1,44.9,24.7c2.2,0.6,12.4,7.2-10.2,20.6c-7.2,4-35,3.8-28.2,17.1
		c0,0,40.3,9.5-14.4,24.2c-10.2,2.1-25.8,4.4-20.9,32.3c0,3-10.2,31.8-17.2,36.7c-7,4.9-5,17-5,17s3.4,5.1,16.1-14.4
		c12.7-19.5,4.1-20.4,24.9-28.7c9.2-3.7,9.8-14.4,9.8-14.4s18.2-15.8,23.8-7.7c1.7,4.1,0.7,6.8,3.9,8.4s14.5-2.3,8.5,11.7
		c-6,14-10.5,13.3-10.5,13.3l-14.8,21c0,0-8,28.6-3,38.2c2.2,5.6-16.2,35.3-16.2,35.3s-0.6,9,8.8,1.8c2.5-2.6,2.6,1.7,2.6,1.7
		l-2.9,8.3c0,0-6.9-2.9-13.7,3c-6.8,5.9-16.3,6-20.6,3.2s-12.5-31.5-19.7-30.6c-7.2,1-22,13.2-21.8,19.8c0.4,5-10.3,2.9-9.7-3.4
		c0.3-3.5-13.3-8.2-13-4.6c0.5,6.9-12.7-0.8-12.4-4.4c0,0,0.1-13.5-11.9-16.9c-12-3.4-29.7-5.3-33.1-25.3c-0.8-3.8-8.1-6.8-8.1-6.8
		s-13.3-55.2,13.4-37.6c26.7,17.5,24.5,25.7,24.5,25.7l-1.8,3.7l-2.9-0.6c0,0-5.2,7.3,0.1,10.1c5.3,2.8,9.9-10,9.9-10l27,15.7
		c0,0-3.7,7.4,5.8,6c9.5-1.5,8.4,6,8.4,6s12-4.1-6-38c0,0-5.6-5-10.7,0.6c-5.1,5.6-15.2-3.2-15.2-3.2s-8,6.3-16.3-1.4
		c-8.3-7.7-19.8-22.8-19.8-22.8s-29.6-59.6,16.7-47s22.4,21.5,44.2,19.2c9-0.3,25.7,19.6,25.7,19.6s14.2-23.8-16.5-58.7
		c1.2-10.9,5.5-12.5,14.5-6.7c5.6,2,18.1,6.8,20.2-6.4c-1.6-2.8-23.4-21.4-10.5-28.2c12.9-6.8,16.9-4.5,24.7-17.9
		C959.1,652,979,652.1,980,656.2z"/>
</g>
<g id="Calque_4_1_">
	<linearGradient id="SVGID_14_" gradientUnits="userSpaceOnUse" x1="1392.1744" y1="922.2576" x2="1564.918" y2="922.2576">
		<stop  offset="0.4925" style="stop-color:#161D46"/>
		<stop  offset="0.8969" style="stop-color:#1E3780"/>
	</linearGradient>
	<path class="st13" d="M1395.4,875c0,0,0-21,20-27c5.5-2.5,23.5,31.5,49.5,31.5c7.1,0,14.1-2.1,20-6c0,0,13-2,9,21s-1,29-1,29
		s13,15,32,13c0,0,8,36,18,40s28-11,20,19c-1,5-29-7-29-7h-15c0,0-26-39-56-45s-54,24-54,24s-15-6-16-11s-6-40,33-42
		C1435.9,912.5,1428.9,884.5,1395.4,875z"/>
</g>
<g id="Calque_3_1_">
	<linearGradient id="SVGID_15_" gradientUnits="userSpaceOnUse" x1="916.7928" y1="305.6985" x2="1068.7882" y2="305.6985">
		<stop  offset="0.4925" style="stop-color:#161D46"/>
		<stop  offset="0.8969" style="stop-color:#1E3780"/>
	</linearGradient>
	<path class="st14" d="M947.6,161.1c0,0-3.3,14.7,0.3,18.2c3.6,3.5,16.3,29.5,9.1,46.5c-4.2,6.5-26,30.5-25.4,43v6.5
		c0,0-26.6,46-8.5,54c10.3,5.5,25.4-9.5,25.4-9.5s11.5-4,12.1,16s-4.2,14-4.2,14s-3.6,18,5.4,23.5c9.1,5.5,0,27.5,0,27.5
		s-49,46-17.5,58.5c13.3,5,37.5-58,48.4-55.5c10.9,2.5,23.6,13.5,38.7,0c9.7-9,27.8,7,27.8,7s28.4-19.5-12.7-32c-3,0-20.6,5-20-16.5
		c0.6-21.5,26.6-69,26.6-69s4.2-19-21.2-14.5c-2.4-0.5-7.9,13.5-25.4,2.5c-6.7-9.5-9.7-18-13.9-18c-4.2,0,10.3-6.5,10.9-9
		c0.6-2.5-1.2-3.5-1.2-3.5s-7.3,7-11.5,9s-15.7,3.5-15.7-10.5s4.2-34,10.3-44c0,0,4.2-17.5-4.2-25.5c-8.5-8,7,1.2-7.9-19
		C958.5,140.6,947.6,161.1,947.6,161.1z"/>
</g>
<g id="Calque_7_1_">
	<linearGradient id="SVGID_16_" gradientUnits="userSpaceOnUse" x1="985.8957" y1="539.3463" x2="1018.2896" y2="539.3463">
		<stop  offset="0.4925" style="stop-color:#161D46"/>
		<stop  offset="0.8969" style="stop-color:#1E3780"/>
	</linearGradient>
	<path class="st15" d="M1018.3,597.7c0,0,1-93-16-126c-2.5-5.5-27.5,33.5-10.5,67.5s1,58,1,58c5.4,7.6,8.4,7.2,9.3,0.2l5.4,0.1
		C1001.8,610.7,1005.3,610.9,1018.3,597.7z"/>
</g>
<g id="Calque_6_1_">
	<linearGradient id="SVGID_17_" gradientUnits="userSpaceOnUse" x1="280" y1="676.6715" x2="568.3996" y2="676.6715">
		<stop  offset="0.4925" style="stop-color:#161D46"/>
		<stop  offset="0.8969" style="stop-color:#1E3780"/>
	</linearGradient>
	<path class="st16" d="M568.4,531l-3.9-25.5c0,0-29.4,18-45.3,48.2s-67.9,76.6-122.2,94.3c-5.2,2.3-19.7,61.6-19.7,61.6
		s-36.2,26.9-38.4,36.5c-2.2,9.7-11.3,46.3-26.7,61c-9.8,9.2-20,17.2-30.6,23.8c-4.7,5.4,1.1,7.3,10.2,5.1c7.8-1.9,7.3,3.7,7.3,3.7
		c3.7,8.1,7.8,9.8,12.4,6.2c0,0,61.2-81.9,83.9-128.3c22.7-46.4,67.5-71.9,74.2-66.5s41.6-4.5,48.6-19.6S568.4,531,568.4,531z"/>
</g>
<g id="Calque_2_2_">
	<linearGradient id="SVGID_18_" gradientUnits="userSpaceOnUse" x1="1343.0139" y1="196.3506" x2="1589.96" y2="196.3506">
		<stop  offset="0.4925" style="stop-color:#161D46"/>
		<stop  offset="0.8969" style="stop-color:#1E3780"/>
	</linearGradient>
	<path class="st17" d="M1518.8,295.7c-6.8-4.6-20.3-23.8-25.6-33.4c-5.2-9.6-0.2-21.2-0.2-21.2s17.6-21.6,23.6-21
		s13.4-16.4,13.4-16.4s28.7-4.1,31.2-3.9c28.8,3,29.7-9.3,28.4-10.5s-22.9,3.6-22.9,3.6l-18.5-17.9c0.9-5.9,2.5-11.5,4.8-16.8
		c3.9-9-8.1-15.9-8.1-15.9l5.2-3.4c0,0,7.5,1.6,7.8-2c0.3-3.5-9-5.3-9-5.3s6-5.3,0.4-6.6c-5.7-1.3-3.2,8.8-13.5,20.9
		c-10.3,12.1-13.4,10.5-16.6,10.8c-10.7-7.2-1.6-20.7-0.4-23.6c-0.8-13.9-6.8-19-9.8-25.1c0-5.7-3.6-12-6.8-15.9
		c-3.1-10.1-24.3-16.2-24.3-16.2s-12.6,1.6-15.4,0.9c-6.8-1.6-21.5-2.3-29-1.8c-6.9,14.5-30,4.1-30,4.1c-2.4,1.9,7.6,13.6,14.8,18.4
		c6.6,3.5,12,8.3,10.8,12.6s-3.5,25.3-3.5,25.3s-2.6,7.3-4.7,15.1c-1.2,4.7,1.5,10.8,7.7,16.9c10.5,13.3,0.3,32.5,0.3,32.5
		s-18.4,12-11.6,20.9c6.8,8.9,8.4,15.2,1.7,14.8c-6.7-0.4-21.9-12.9-30.4-16.6s-26.1,1-32.8,2s-10.5-4.6-10.5-4.6s-1.2,2.8-1.8,5.7
		c10.1,5.5-0.4,13.9-0.4,13.9s3.7,0,6.7,3c2.9,3,24.7,8.4,23.4,10.4c-1.4,2,13.2,5.7,13.2,5.4c-0.2-0.9,12.1,1,12.1,1l1.6,4.9
		c0,0,2.9-1.7,5.8,2.5c2.8,4.2,5,2.2,7.4,3.2c3.9-3.1-3.3-11-11.9-21.5c-8.6-10.5-0.6-11.5,9-6.2s19.5,4.2,19.5,4.2
		s6-13.7,11.2-11.4c5.3,2.3-1,13.9-1,13.9s-6,12.3-7.1,16.3c6.3,5.6-1.7,12.5-1.7,12.5s19.2,2.9,23.2,10.1
		c1.9,3.4,26.3,9.7,35.3,17.5c5.5,4.8,25.2,7.8,29,12.3c3.8,4.5,11.6,3.2,12.6,3.7C1535.6,312,1525.6,300.3,1518.8,295.7z
		 M1543.1,152.1c5.4,2.1-3.3,26.2-0.2,29.2c10.5,6,7.6,8.4,8.6,9.1c1,0.7-12.6,1.6-12.6,1.6s-10.9,6.3-21.3,4.3
		C1474.8,181,1543.1,152.1,1543.1,152.1z M1471.1,193.7c-10.3-9.5-19.3-20.5-4.9-24.7c0,0,7.8-2,11.5-0.6s8.5-6.5,11.1-5.3l2.6,1.1
		c0,0,9.4,4.4,2.5,15.8c0,0,3.3,5.4,0.9,10.8c0,0,15,1.5-5.4,12.3C1488,202.5,1481.3,203.3,1471.1,193.7z M1486.7,225.6l0.4-0.9
		c0,0,4.7-22.2,11.8-19.9c4.6,0.9,3.2-7.3,3.2-7.3l19.5,2.6c0,0,1.3,5.6-2.3,5.2c-3.6-0.4-12.5,12.9-12.5,12.9
		S1499.2,228.5,1486.7,225.6z"/>
</g>
<g id="Calque_4_2_">
	<linearGradient id="SVGID_19_" gradientUnits="userSpaceOnUse" x1="411.6153" y1="158" x2="584.3589" y2="158">
		<stop  offset="0.4925" style="stop-color:#161D46"/>
		<stop  offset="0.8969" style="stop-color:#1E3780"/>
	</linearGradient>
	<path class="st18" d="M414.9,110.7c0,0,0-21,20-27c5.5-2.5,23.5,31.5,49.5,31.5c7.1,0,14.1-2.1,20-6c0,0,13-2,9,21s-1,29-1,29
		s13,15,32,13c0,0,8,36,18,40s28-11,20,19c-1,5-29-7-29-7h-15c0,0-26-39-56-45s-54,24-54,24s-15-6-16-11s-6-40,33-42
		C455.4,148.2,448.4,120.2,414.9,110.7z"/>
</g>
<g id="Calque_5_1_">
	<linearGradient id="SVGID_20_" gradientUnits="userSpaceOnUse" x1="1092.053" y1="368.0013" x2="1255.3063" y2="368.0013">
		<stop  offset="0.4925" style="stop-color:#161D46"/>
		<stop  offset="0.8969" style="stop-color:#1E3780"/>
	</linearGradient>
	<path class="st19" d="M1218.4,331.3c13.6-5,35.8-9.6,35.8-9.6s4.9-42.3-6.5-52.2c-11.3-9.9-25,8.1-34.8-16.9c-2-4-5-5-9.4-2.1
		c-1.8-3.3-4.3-4-7.7-1.7c0,0-12.7,10.5-12-4.9c-2.9-13.7-8.6-13.3-15.8-4.8c-9.6-12.6-16.9-13.5-22.8-6.8c0.1-3.7-6-4.8-15.6-4.7
		c2.6-2.5-0.3-3.6-9.9-3c0,0,1.7,11.8-8.1,11c-4.7-1.8-7.8-15.8-7.8-15.8l-2.1-0.9c0,0-15.5,1,4.8,33.1c-0.3,0.1,10.6,1.6,9.3,23.4
		c-1.3,21.7-9.2,22,3.3,77.3c0,0,8.1,3.3,8.8-22.1c0.7-25.4,7.5-59.8,20.9-61s15.2,24.5,10.9,41.9c-4.3,17.3-0.8,17.1-0.8,17.1
		s-8,31-16.6,33.6c-1.7,1.2-13.1,40.7-13.1,40.7l-15.6,23.1l-9.6,43.5c0,0-4.2,9.6-5.3,16.2s-2.5,21.4-6.8,24
		c0.9,2.9,2.6,7.3,2.6,7.3l9.4-9.8c0,0,4.3-17.3,7.4-34.7c5.1-6.7,12.6-23.1,12.6-23.1s8.5-21.3,21.3-21.8c0.4-1.2,8.1-9.7,14-27.9
		s24.1-28.3,29.2-25.1c5.1,3.3,19.1-11.6,19.1-11.6S1204.8,336.3,1218.4,331.3z M1190.6,340.3c-0.6-1-4.4-10-0.8-29.3
		c-0.4-4.5-0.3-9.2-2.9-10.4c0,0-1.6-20.8,8.9-16.8c10,1.3,5,18,5,18s6.9,19-0.7,35.8C1200.1,338.8,1191.1,341.3,1190.6,340.3z"/>
</g>
<g id="Calque_9_1_">
	<linearGradient id="SVGID_21_" gradientUnits="userSpaceOnUse" x1="1344.2411" y1="384.1212" x2="1474.2411" y2="384.1212">
		<stop  offset="0.4925" style="stop-color:#161D46"/>
		<stop  offset="0.8969" style="stop-color:#1E3780"/>
	</linearGradient>
	<path class="st20" d="M1385.7,422.5c0,0-6-29-14-34s-27.5-53.5-27.5-53.5s53,42,74,41s56,47,56,47s-35-14.8-31.2-0.2
		s-33.8-0.2-33.8-0.2C1403.1,443.3,1394.1,428.7,1385.7,422.5z"/>
</g>
<g id="Calque_9_2_">
	<linearGradient id="SVGID_22_" gradientUnits="userSpaceOnUse" x1="674.8239" y1="213.1051" x2="828.193" y2="213.1051">
		<stop  offset="0.4925" style="stop-color:#161D46"/>
		<stop  offset="0.8969" style="stop-color:#1E3780"/>
	</linearGradient>
	<path class="st21" d="M736.2,180.3c0,0,25.1,15.6,34.3,13.3c9.1-2.3,57.7,17,57.7,17s-67,9.4-80.7,25.3s-72.7,8.2-72.7,8.2
		s34.9-15.1,21.7-22.5c-13.2-7.4,23.4-24.3,23.4-24.3C709.1,178.5,726,182,736.2,180.3z"/>
</g>
<g id="Calque_11_1_">
	<linearGradient id="SVGID_23_" gradientUnits="userSpaceOnUse" x1="916.3589" y1="499.5" x2="948" y2="499.5">
		<stop  offset="0.4925" style="stop-color:#161D46"/>
		<stop  offset="0.8969" style="stop-color:#1E3780"/>
	</linearGradient>
	<path class="st22" d="M929,475l19,49C948,524,892,518,929,475z"/>
</g>
<g id="Calque_4_3_">
	<linearGradient id="SVGID_24_" gradientUnits="userSpaceOnUse" x1="1029.0594" y1="109" x2="1201.8031" y2="109">
		<stop  offset="0.4925" style="stop-color:#161D46"/>
		<stop  offset="0.8969" style="stop-color:#1E3780"/>
	</linearGradient>
	<path class="st23" d="M1032.3,61.7c0,0,0-21,20-27c5.5-2.5,23.5,31.5,49.5,31.5c7.1,0,14.1-2.1,20-6c0,0,13-2,9,21s-1,29-1,29
		s13,15,32,13c0,0,8,36,18,40s28-11,20,19c-1,5-29-7-29-7h-15c0,0-26-39-56-45c-30-6-54,24-54,24s-15-6-16-11s-6-40,33-42
		C1072.8,99.2,1065.8,71.2,1032.3,61.7z"/>
</g>
<g id="Calque_3_2_">
	<linearGradient id="SVGID_25_" gradientUnits="userSpaceOnUse" x1="568.3996" y1="847.8325" x2="718.9038" y2="847.8325">
		<stop  offset="0.4925" style="stop-color:#161D46"/>
		<stop  offset="0.8969" style="stop-color:#1E3780"/>
	</linearGradient>
	<path class="st24" d="M598.9,714.4c0,0-3.3,13.6,0.3,16.8c3.6,3.2,16.2,27.2,9,42.9c-4.2,6-25.8,28.1-25.2,39.7v6
		c0,0-26.4,42.4-8.4,49.8c10.2,5.1,25.2-8.8,25.2-8.8s11.4-3.7,12,14.8c0.6,18.4-4.2,12.9-4.2,12.9s-3.6,16.6,5.4,21.7
		s0,25.4,0,25.4s-48.5,42.4-17.4,53.9c13.2,4.6,37.1-53.5,47.9-51.2c10.8,2.3,23.4,12.4,38.3,0c9.6-8.3,27.6,6.5,27.6,6.5
		s28.1-18-12.6-29.5c-3,0-20.4,4.6-19.8-15.2c0.6-19.8,26.4-63.6,26.4-63.6s4.2-17.5-21-13.4c-2.4-0.5-7.8,12.4-25.2,2.3
		c-6.6-8.8-9.6-16.6-13.8-16.6s10.2-6,10.8-8.3c0.6-2.3-1.2-3.2-1.2-3.2s-7.2,6.5-11.4,8.3s-15.6,3.2-15.6-9.7s4.2-31.4,10.2-40.6
		c0,0,4.2-16.1-4.2-23.5c-8.4-7.4,6.9,1.2-7.8-17.5S598.9,714.4,598.9,714.4z"/>
</g>
<g id="Calque_4_4_">
	<linearGradient id="SVGID_26_" gradientUnits="userSpaceOnUse" x1="1058.0562" y1="922.2576" x2="1230.7998" y2="922.2576">
		<stop  offset="0.4925" style="stop-color:#161D46"/>
		<stop  offset="0.8969" style="stop-color:#1E3780"/>
	</linearGradient>
	<path class="st25" d="M1061.3,875c0,0,0-21,20-27c5.5-2.5,23.5,31.5,49.5,31.5c7.1,0,14.1-2.1,20-6c0,0,13-2,9,21s-1,29-1,29
		s13,15,32,13c0,0,8,36,18,40s28-11,20,19c-1,5-29-7-29-7h-15c0,0-26-39-56-45s-54,24-54,24s-15-6-16-11s-6-40,33-42
		C1101.8,912.5,1094.8,884.5,1061.3,875z"/>
</g>
<g id="Calque_9_3_">
	<linearGradient id="SVGID_27_" gradientUnits="userSpaceOnUse" x1="1524.96" y1="750.1433" x2="1654.96" y2="750.1433">
		<stop  offset="0.4925" style="stop-color:#161D46"/>
		<stop  offset="0.8969" style="stop-color:#1E3780"/>
	</linearGradient>
	<path class="st26" d="M1566.5,788.5c0,0-6-29-14-34S1525,701,1525,701s53,42,74,41s56,47,56,47s-35-14.8-31.2-0.2
		s-33.8-0.2-33.8-0.2C1583.8,809.3,1574.8,794.7,1566.5,788.5z"/>
</g>
<g id="Calque_11_2_">
	<linearGradient id="SVGID_28_" gradientUnits="userSpaceOnUse" x1="1762.1444" y1="604.7259" x2="1788.3624" y2="604.7259">
		<stop  offset="0.4925" style="stop-color:#161D46"/>
		<stop  offset="0.8969" style="stop-color:#1E3780"/>
	</linearGradient>
	<path class="st27" d="M1788.3,614.7l-26.2-15.2C1762.1,599.4,1789.5,582,1788.3,614.7z"/>
</g>
<g id="Calque_12_1_">
	<linearGradient id="SVGID_29_" gradientUnits="userSpaceOnUse" x1="244.6442" y1="504.1649" x2="294.4449" y2="504.1649">
		<stop  offset="0.4925" style="stop-color:#161D46"/>
		<stop  offset="0.8969" style="stop-color:#1E3780"/>
	</linearGradient>
	<path class="st28" d="M244.6,472.5c0,0,11.6-21.8,49.8,65.7C294.8,538.3,244.6,472.5,244.6,472.5z"/>
</g>
<g id="Calque_13_2_">
	<linearGradient id="SVGID_30_" gradientUnits="userSpaceOnUse" x1="398.9306" y1="857.4077" x2="535.1794" y2="857.4077">
		<stop  offset="0.4925" style="stop-color:#161D46"/>
		<stop  offset="0.8969" style="stop-color:#1E3780"/>
	</linearGradient>
	<path class="st29" d="M402.8,804.4c0,0,14.7-5.7,22.7-18.9c0.8-1,6.5-5.1,8.9,9.8c0.6,4.7-5.4,19.6,3.2,18.7
		c0,0,13.6-19.6,9.9,12.8c-1.1,5.9-3.1,14.7,12.9,18.1c1.6,0.7,14.9,12.2,16,17c1.2,4.8,8.1,6.3,8.1,6.3s3.5-0.8-4.3-11.7
		c-7.8-10.9-10.1-6.5-10.1-19.4c0-5.7-5.6-8.3-5.6-8.3s-4.6-13.1,0.9-14.4c2.6,0,3.8,1,5.3-0.3s1.8-8.3,8.1-2.1
		c6.2,6.2,4.9,8.4,4.9,8.4l8.1,12.4c0,0,13.6,10.4,19.9,9.7c3.5,0,15.5,16.2,15.5,16.2s4.7,2.2,2.8-4.3c-0.9-1.9,1.4-1,1.4-1
		l3.8,3.3c0,0-3,3.1-1.3,8c1.7,4.9-0.2,10-2.6,11.7c-2.4,1.7-19.5,0-20.5,4.1s2.4,14.6,6,15.9c2.8,0.8-0.6,6.1-3.9,4.5
		c-1.8-0.9-7.2,5.4-5.2,6c3.8,1.2-3.1,6.7-5,5.7c0,0-7.2-2.9-11.6,2.8c-4.3,5.7-9.1,14.8-20.6,12.4c-2.2-0.4-5.4,2.9-5.4,2.9
		s-32.4-4.5-17.4-15.1c15-10.6,19-7.7,19-7.7l1.6,1.8l-0.9,1.4c0,0,2.8,4.4,5.4,2.1s-3.3-7.4-3.3-7.4l14.1-11.2c0,0,3.2,3.5,4.4-1.8
		c1.2-5.4,5-3.2,5-3.2s0.4-7.3-21.6-4.8c0,0-3.9,1.9-2,5.9c1.9,3.9-4.9,7.5-4.9,7.5s1.7,5.6-4.2,8.5c-5.9,2.8-16.4,5.8-16.4,5.8
		s-38.2,3.3-21.7-18.9c16.6-22.1,16.2-7.4,19.6-19.6c1.8-4.9,15.9-9.6,15.9-9.6s-9.7-12.7-35-3.6c-5.6-3-5.5-5.6-0.5-9.2
		c2.3-2.6,7.5-8.2,0.8-12.2c-1.8,0.3-16.4,8-17.3-0.3c-0.9-8.4,1.1-10-4.3-17S400.4,804.1,402.8,804.4z"/>
</g>
<g id="Calque_6_2_">
	<linearGradient id="SVGID_31_" gradientUnits="userSpaceOnUse" x1="1651.1901" y1="265.1405" x2="1700.1632" y2="265.1405">
		<stop  offset="0.4925" style="stop-color:#161D46"/>
		<stop  offset="0.8969" style="stop-color:#1E3780"/>
	</linearGradient>
	<path class="st30" d="M1665,380.5l10.9,10.1c0,0,6.8-18.7,3-38s3-58.9,21.1-86.4c1.5-2.9-13.3-34.8-13.3-34.8s6.6-25.1,4.1-30.3
		c-2.5-5.1-11.6-24.9-9.9-37.1c1.1-7.7,2.8-15,5.2-21.7c0.2-4.1-3.1-2.9-6.4,1.4c-2.8,3.7-4.6,1-4.6,1c-4.6-2.3-7.1-1.6-7.8,1.6
		c0,0,1.9,58.9,8.4,87.9s-4.6,56.6-9.5,56.6c-4.9,0-17.1,17-14.8,26.3S1665,380.5,1665,380.5z"/>
</g>
<g id="Calque_4_5_">
	<linearGradient id="SVGID_32_" gradientUnits="userSpaceOnUse" x1="158.3816" y1="420.5709" x2="269.0425" y2="420.5709">
		<stop  offset="0.4925" style="stop-color:#161D46"/>
		<stop  offset="0.8969" style="stop-color:#1E3780"/>
	</linearGradient>
	<path class="st31" d="M168.7,445.5c0,0-11.3-4.4-10.2-16.4c-0.2-3.5,21.9-5.9,27.4-19.9c1.5-3.8,1.9-8,1-12c0,0,1.7-7.4,13.2-0.4
		c11.5,7,15.3,6.7,15.3,6.7s10.8-3.8,13.7-14.4c0,0,21,3.3,25.3-1.2c4.3-4.5,0-17.3,14.4-6.7c2.5,1.6-9.9,14.1-9.9,14.1l-3.2,8
		c0,0-26.4,5.7-36,20.5c-9.6,14.8,1.4,34,1.4,34s-6.4,6.8-9.3,6.3c-2.9-0.5-22.7-5.2-15.5-26.6C197.4,431.7,180.9,429.5,168.7,445.5
		z"/>
</g>
<g id="Calque_12_2_">
	<linearGradient id="SVGID_33_" gradientUnits="userSpaceOnUse" x1="1659.0283" y1="882.9166" x2="1692.325" y2="882.9166">
		<stop  offset="0.4925" style="stop-color:#161D46"/>
		<stop  offset="0.8969" style="stop-color:#1E3780"/>
	</linearGradient>
	<path class="st32" d="M1659,846c0,0,16.4-18.6,33.3,75.4C1692.7,921.5,1659,846,1659,846z"/>
</g>
<g id="Calque_13_3_">
	<linearGradient id="SVGID_34_" gradientUnits="userSpaceOnUse" x1="1764.2178" y1="760.3344" x2="1888.868" y2="760.3344">
		<stop  offset="0.4925" style="stop-color:#161D46"/>
		<stop  offset="0.8969" style="stop-color:#1E3780"/>
	</linearGradient>
	<path class="st33" d="M1772.1,698.7c0,0,15.7-2.2,26.5-13.1c1-0.8,7.5-3.5,6.4,11.6c-0.5,4.7-9.8,17.8-1.2,18.9
		c0,0,17.8-15.9,6.7,14.8c-2.4,5.5-6.4,13.6,8.4,20.6c1.4,1,11.7,15.3,11.7,20.2c0,4.9,6.4,8,6.4,8s3.6,0.1-1.5-12.4
		c-5-12.4-8.3-8.7-5.4-21.3c1.3-5.6-3.6-9.4-3.6-9.4s-1.5-13.8,4.2-13.8c2.5,0.5,3.5,1.9,5.2,0.9s3.7-7.6,8.3-0.1
		c4.6,7.5,2.8,9.4,2.8,9.4l5,13.9c0,0,10.9,13.2,17.1,14c3.4,0.8,11.4,19.3,11.4,19.3s4.1,3.2,3.8-3.6c-0.4-2,1.6-0.7,1.6-0.7
		l2.9,4.1c0,0-3.6,2.3-3.1,7.5s-2.5,9.7-5.3,10.8c-2.7,1.1-19-4.5-20.9-0.8c-1.9,3.7-1,14.7,2.2,16.8c2.5,1.5-2,5.8-4.8,3.5
		c-1.6-1.3-8.2,3.6-6.5,4.6c3.4,2-4.6,5.8-6.1,4.4c0,0-6.4-4.5-11.9,0.1c-5.5,4.5-12.3,12.3-22.9,7.3c-2-0.9-5.9,1.6-5.9,1.6
		s-30.5-11.9-13.4-18.7c17.1-6.8,20.3-3.1,20.3-3.1l1.1,2.1l-1.3,1.2c0,0,1.7,4.9,4.8,3.3c3.1-1.6-1.5-8-1.5-8l16.3-7.6
		c0,0,2.3,4.2,4.7-0.8s5.6-2,5.6-2s2-7-19.9-9.7c0,0-4.2,1-3.3,5.3c1,4.3-6.5,6.1-6.5,6.1s0.3,5.9-6.1,7.3
		c-6.4,1.4-17.3,1.9-17.3,1.9s-38-5.7-16.7-23.3c21.2-17.7,17.5-3.5,23.6-14.6c2.8-4.4,17.7-5.7,17.7-5.7s-6.6-14.6-33.2-11.5
		c-4.8-4.2-4.1-6.7,1.6-9c2.8-2,9.2-6.3,3.6-11.6c-1.9-0.1-17.8,4-16.8-4.3c1.1-8.3,3.4-9.5-0.3-17.6
		C1763.2,707.2,1769.9,697.8,1772.1,698.7z"/>
</g>
<g id="Calque_4_6_">
	<linearGradient id="SVGID_35_" gradientUnits="userSpaceOnUse" x1="1659.7523" y1="682.0227" x2="1779.1361" y2="682.0227">
		<stop  offset="0.4925" style="stop-color:#161D46"/>
		<stop  offset="0.8969" style="stop-color:#1E3780"/>
	</linearGradient>
	<path class="st34" d="M1666.8,690.7c0,0-9.9-6.9-6.2-18.4c0.6-3.4,22.6-0.7,31.2-13c2.4-3.4,3.7-7.3,3.8-11.4c0,0,3.3-6.8,12.9,2.7
		c9.6,9.5,13.4,10,13.4,10s11.4-1.2,16.7-10.8c0,0,19.7,8.1,24.8,4.7c5.2-3.4,4-16.9,15.6-3.2c2,2.1-12.9,11.4-12.9,11.4l-4.9,7.1
		c0,0-27-0.6-39.7,11.6s-6.4,33.4-6.4,33.4s-7.8,5.1-10.5,3.9c-2.7-1.2-20.9-10.3-9-29.4C1697.9,683.9,1682.3,678,1666.8,690.7z"/>
</g>
<g id="Calque_12_3_">
	<linearGradient id="SVGID_36_" gradientUnits="userSpaceOnUse" x1="781.0463" y1="911.2051" x2="814.343" y2="911.2051">
		<stop  offset="0.4925" style="stop-color:#161D46"/>
		<stop  offset="0.8969" style="stop-color:#1E3780"/>
	</linearGradient>
	<path class="st35" d="M781,874.3c0,0,16.4-18.6,33.3,75.4C814.7,949.8,781,874.3,781,874.3z"/>
</g>
<g id="Calque_12_4_">
	<linearGradient id="SVGID_37_" gradientUnits="userSpaceOnUse" x1="1157.0312" y1="545.9156" x2="1190.328" y2="545.9156">
		<stop  offset="0.4925" style="stop-color:#161D46"/>
		<stop  offset="0.8969" style="stop-color:#1E3780"/>
	</linearGradient>
	<path class="st36" d="M1157,509c0,0,16.4-18.6,33.3,75.4C1190.7,584.5,1157,509,1157,509z"/>
</g>
<g id="Calque_7_2_">
	<linearGradient id="SVGID_38_" gradientUnits="userSpaceOnUse" x1="1535.3308" y1="410.331" x2="1567.7247" y2="410.331">
		<stop  offset="0.4925" style="stop-color:#161D46"/>
		<stop  offset="0.8969" style="stop-color:#1E3780"/>
	</linearGradient>
	<path class="st37" d="M1567.7,468.7c0,0,1-93-16-126c-2.5-5.5-27.5,33.5-10.5,67.5s1,58,1,58c5.4,7.6,8.4,7.2,9.3,0.2l5.4,0.1
		C1551.3,481.7,1554.8,481.9,1567.7,468.7z"/>
</g>
<g id="Calque_8_1_">
	<linearGradient id="SVGID_39_" gradientUnits="userSpaceOnUse" x1="576.5568" y1="420.5709" x2="623.8021" y2="420.5709">
		<stop  offset="0.4925" style="stop-color:#161D46"/>
		<stop  offset="0.8969" style="stop-color:#1E3780"/>
	</linearGradient>
	<path class="st38" d="M599.3,454.3c0,0-25.5-10.5-22.5-36.5s36-16,36-16l11-15l-5,18C618.8,404.8,613.8,440.8,599.3,454.3z"/>
</g>
<g id="Calque_8_2_">
	<linearGradient id="SVGID_40_" gradientUnits="userSpaceOnUse" x1="1435.0813" y1="515.8325" x2="1482.3267" y2="515.8325">
		<stop  offset="0.4925" style="stop-color:#161D46"/>
		<stop  offset="0.8969" style="stop-color:#1E3780"/>
	</linearGradient>
	<path class="st39" d="M1457.8,549.6c0,0-25.5-10.5-22.5-36.5s36-16,36-16l11-15l-5,18C1477.3,500.1,1472.3,536.1,1457.8,549.6z"/>
</g>
<g id="Calque_11_3_">
	<linearGradient id="SVGID_41_" gradientUnits="userSpaceOnUse" x1="871.1443" y1="618.7259" x2="897.3625" y2="618.7259">
		<stop  offset="0.4925" style="stop-color:#161D46"/>
		<stop  offset="0.8969" style="stop-color:#1E3780"/>
	</linearGradient>
	<path class="st40" d="M897.3,628.7l-26.2-15.2C871.1,613.4,898.5,596,897.3,628.7z"/>
</g>
<g id="Calque_11_4_">
	<linearGradient id="SVGID_42_" gradientUnits="userSpaceOnUse" x1="839.1443" y1="668.7259" x2="865.3625" y2="668.7259">
		<stop  offset="0.4925" style="stop-color:#161D46"/>
		<stop  offset="0.8969" style="stop-color:#1E3780"/>
	</linearGradient>
	<path class="st41" d="M865.3,678.7l-26.2-15.2C839.1,663.4,866.5,646,865.3,678.7z"/>
</g>
<g id="Calque_9_5_">
	<linearGradient id="SVGID_43_" gradientUnits="userSpaceOnUse" x1="1128.9324" y1="816.5007" x2="1219.34" y2="816.5007">
		<stop  offset="0.4925" style="stop-color:#161D46"/>
		<stop  offset="0.8969" style="stop-color:#1E3780"/>
	</linearGradient>
	<path class="st42" d="M1157.8,843.2c0,0-4.2-20.2-9.7-23.6c-5.6-3.5-19.1-37.2-19.1-37.2s36.9,29.2,51.5,28.5
		c14.6-0.7,38.9,32.7,38.9,32.7s-24.3-10.3-21.7-0.1s-23.5-0.1-23.5-0.1C1169.9,857.7,1163.6,847.5,1157.8,843.2z"/>
</g>
<g id="Calque_12_5_">
	<linearGradient id="SVGID_44_" gradientUnits="userSpaceOnUse" x1="1228.0283" y1="894.9166" x2="1261.325" y2="894.9166">
		<stop  offset="0.4925" style="stop-color:#161D46"/>
		<stop  offset="0.8969" style="stop-color:#1E3780"/>
	</linearGradient>
	<path class="st43" d="M1228,858c0,0,16.4-18.6,33.3,75.4C1261.7,933.5,1228,858,1228,858z"/>
</g>
</svg>
