<svg xmlns="http://www.w3.org/2000/svg" viewBox="0 0 2000 1000"><defs><style>.cls-1{fill:#101250;}.cls-2{fill:#131960;}.cls-3{fill:#0d0349;}</style></defs><title>couche-bleuFoncé</title><g id="Calque_2" data-name="Calque 2"><path class="cls-1" d="M968.5,843.5c-14-6-49-53-64-79s-15-75-15-75,13-104,23-111,10-79,10-79,43-59,47-62c48-34,41-79,38-81s-34,48-34,48l-42-35a544.58,544.58,0,0,1-4-67c0-38-24-44-24-44l6-20s13-6,11-19-18-5-18-5,6-28-4-24,1,36-7,95-14,58-19,64c-22-9-17-71-17-83-11-48-24-57-33-74-4-20-14-37-22-46-12-31-50-20-50-20s-19,25-24,27c-12,5-36,25-47.5,38.5-1,62-45,61-45,61-2.5,10.5,21.5,36.5,36.5,42.5,13,2,25,11,26,28s12,95,12,95,1,30,3,61a69.88,69.88,0,0,0,24,48c26,31,23,115,23,115s-21,71-4,92,24,41,13,50-44-12-60-12-41,44-51,58-20,0-20,0,0,12,1,23c20,4,9,50,9,50s6-5.67,12.74.42,45.32-8.27,44.54.9,25.09-.22,24.72-1.32c-1-3,20-15,20-15l6,15s3.54-10.5,11,0,9.43,0,14,0c4-17-13-34-34-58s-9-40,10-36,34-15,34-15,0-58,10-58,8,51,8,51-1,53,0,69c14,10,6,47,6,47s32.66-19.5,44.08,0c5.41,9.23,48.68-6.14,68.55,7.68,12.12,8.43,45.66-11.3,54.77-1.24s20.8-6.44,22.6-6.44C1006.5,875.5,982.5,849.5,968.5,843.5Zm-61-547c10-1,13,98,20,104,21,5,18,18,20,19s-19,25-19,25-13,39-31,48C818.5,504.5,907.5,296.5,907.5,296.5Zm-86,259c-23-18-45-43-25-80,0,0,11-19,18-20s9-36,14-36h5s18,1,15,52c0,0,9,14,9,37,0,0,25-18,0,52C854.5,560.5,844.5,573.5,821.5,555.5Zm47,89v-4s-8-86,5-89c8-4,0-31,0-31l33-21s6,18,0,22-11,65-11,65S890.5,635.5,868.5,644.5Z"/></g><g id="Calque_3" data-name="Calque 3"><path class="cls-2" d="M1083,95s-5.5,29.5.5,36.5,27,59,15,93c-7,13-43,61-42,86v13s-44,92-14,108c17,11,42-19,42-19s19-8,20,32-7,28-7,28-6,36,9,47,0,55,0,55-81,92-29,117c22,10,62-116,80-111s39,27,64,0c16-18,46,14,46,14s47-39-21-64c-5,0-34,10-33-33s44-138,44-138,7-38-35-29c-4-1-13,27-42,5-11-19-16-36-23-36s17-13,18-18-2-7-2-7-12,14-19,18-26,7-26-21,7-68,17-88c0,0,7-35-7-51s11.5,2.5-13-38S1083,95,1083,95Z"/></g><g id="Calque_4" data-name="Calque 4"><path class="cls-3" d="M1223,661s0-21,20-27c5.5-2.5,23.5,31.5,49.5,31.5a35.87,35.87,0,0,0,20-6s13-2,9,21-1,29-1,29,13,15,32,13c0,0,8,36,18,40s28-11,20,19c-1,5-29-7-29-7h-15s-26-39-56-45-54,24-54,24-15-6-16-11-6-40,33-42C1263.5,698.5,1256.5,670.5,1223,661Z"/></g><g id="Calque_5" data-name="Calque 5"><path class="cls-2" d="M1629.5,272.5c28-21,76-47,76-47s-18-101-51-116-52,36-92-15c-7.29-7.91-15-8.17-23.17,1.65-6.4-6.37-12.69-6.21-18.83,1.35,0,0-22,33-31-3-16.2-29.55-29-24.61-39.83,0-30.9-22.34-48.41-19.42-57.18,0-2.24-8.57-17.27-7-39.15,0,4.33-7.57-3.27-8-24.84,0,0,0,12,26-11,31-12-1-29-31-29-31L1283,94s-35,13,34,73c-.5.5,25.5-3.5,37.5,47.5s-6,57,61,176c0,0,21,2,5-57s-24-143,6-155,52,46,54,89,10,40,10,40,3,77-15,89c-3,4-2,103-2,103l-20,64,8,107s-3,25-1,41,9,51,1,60c4,6,11,15,11,15l15-29s-2-43-7-85c7-19,13-62,13-62s5-55,34-65c0-3,12-28,13-74s36-82,50-78,36-40,36-40S1601.5,293.5,1629.5,272.5Zm-58,40c-2-2-17-20-22-67-4-10-7-21-14-22,0,0-18-47,9-45,24-4,24,38,24,38s29,39,23,83C1592.5,302.5,1573.5,314.5,1571.5,312.5Z"/></g><g id="Calque_6" data-name="Calque 6"><path class="cls-2" d="M1720,451l-25-24s-30.5,33.5-31.5,72.5-44,113-112,159c-6,5,17,73,17,73s-34,46-30,57,18,53,6,76a200.51,200.51,0,0,1-28,40c-3,7.92,7.16,6.93,19.08,0,10.22-5.94,13.69,0,13.69,0,11.64,6.4,19.16,6,23.23,0,0,0,30-115,29-174s47-108,61-106,59-26,58-45S1720,451,1720,451Z"/></g><g id="Calque_7" data-name="Calque 7"><path class="cls-2" d="M1699,905s1-93-16-126c-2.5-5.5-27.5,33.5-10.5,67.5s1,58,1,58c5.42,7.62,8.38,7.2,9.31.18l5.37.11C1682.55,918.05,1686.07,918.26,1699,905Z"/></g><g id="Calque_8" data-name="Calque 8"><path class="cls-3" d="M1306,850s-25.5-10.5-22.5-36.5,36-16,36-16l11-15-5,18S1320.5,836.5,1306,850Z"/></g><g id="Calque_9" data-name="Calque 9"><path class="cls-3" d="M1191,904s-6-29-14-34-27.5-53.5-27.5-53.5,53,42,74,41,56,47,56,47-35-14.85-31.23-.18-33.77-.19-33.77-.19C1208.35,924.85,1199.33,910.22,1191,904Z"/></g><g id="Calque_10" data-name="Calque 10"><path class="cls-1" d="M890,95s2,15,9,16,10.5-15.5,10.5-15.5,22-12,21,46c0,22,0,54,21,63s-9-87-9-87,23.5,3.5-1-23S890,95,890,95Z"/></g><g id="Calque_11" data-name="Calque 11"><path class="cls-1" d="M597,109l19,49S560,152,597,109Z"/></g><g id="Calque_12" data-name="Calque 12"><path class="cls-1" d="M280,225s39-18,0,143C280.5,368.5,280,225,280,225Z"/></g><g id="Calque_13" data-name="Calque 13"><path class="cls-1" d="M470,288s49,31,102,20c4.5-.5,28.5,6.5-5.5,55.5-11,15-64,37-42,62,0,0,83-11-11,67-18,13-46,31-18,91,2,7,2,81-8,98s2,43,2,43,10,9,21-46-6-50,28-86c15-16,9-41,9-41s24-51,40-37c6,8,6,15,13,16s26-17,24,20-11,39-11,39l-14,60s4,72,20,90c8,11-7,94-7,94s5,21,18-3c3-8,6,1.72,6,1.72V853.5s-15-1-24,18-27,27-37,24-45-62-58-54-33,48-28,63c4.1,11.08-17.57,15.1-20.76,0-1.76-8.35-30.73-8-27.78,0,5.67,15.34-24.69,8.55-26.46,0,0,0-9-31-34-29s-60,12-80-31c-4-8-20-9-20-9s-62.5-115.5,0-97,64,39,64,39l-1,10-6,1s-5,21,7,23,12-31,12-31l62,14s-2,20,15,9,20,7,20,7,20-19-37-82c0,0-14-7-20,10s-31,5-31,5-11,21-32,10-53-36-53-36-96.5-112.5,0-121,57,31,97,8c17-8,62,24,62,24s11-66-71-121c-5-26,2-33,23-27,12,0,39,1,34-31-5-5-59-30-39-56s29-24,35-61S465.5,279.5,470,288Z"/></g></svg>