<svg id="Calque_1" data-name="Calque 1" xmlns="http://www.w3.org/2000/svg" viewBox="0 0 1366 768"><defs><style>.cls-1{fill:#4ab3d1;}</style></defs><title>Plan de travail 1</title><path class="cls-1" d="M53.5,23.5c12,14,55,79,55,108s42,59,80-15,42-103,58-93-6,44,36,42,45-92,64-92,34,11,48,26,52-18,62-18-53,43-55,77,30,55,48,55,146-101,207-101,123,2,150-17,47-16,61-5,26,11,14,28-47,53-54,74-26,18,19,66,10,49,10,49-76-23-123,5-109,54-172,59-99-32-151-14-158,24-199,46-58-9-67-18-44-44-72-37-14,53-19,60-55,27-62,48-12,56-21,65-88-52-64-95,53-46,52-85-33-256-8-272,80,2,80,12-5.87,22.57,19,35C53.5,18.5,53.5,23.5,53.5,23.5Z"/><path class="cls-1" d="M1115,19s1,15-83,53-20,65,53,57,65-66,106-66,16,42,53,49,97-40,122-37,39,5,25-34,9-59-25-59-107-2-149,0S1141-25,1115,19Z"/><path class="cls-1" d="M1377,437s-80.89-63.74-235,39c-39,26-160.46-57.8-200-59-33-1-123-54-232,48S567,501,524,584,364,779,394,706s26-66-25-75-54,18-84,22-80,0-90-14-11,28-32,32-23-24-41-24,87-24,122-53,99-61,13-49-140,37-223,6S-68,465-78,566s-4,124,41,124,42,10,17,20-27,32,40,20,175-25,116,3S20,740-20,777s-111,98-13,98,334-15,385-54,75.5-85.5,134.5-79.5,12,61,20,88,199,2,229-45,73-146,130-118-19,3-26,79-47,113,2,113,364-26,342-62-96-59-96-73,60,3,123,20,148-69,186-69,40-138,10-188S1377,437,1377,437Z"/><path class="cls-1" d="M394,452s21-10,35-30,35-61,61-65,85,3,91,28,45,24-15,67-39-17-55-16-47,34-89,32S394,452,394,452Z"/><path class="cls-1" d="M555,478s28-11,57-35,51-21,66-21,31-18,37-14,9,3-18,26-85,52-98,59-29,25-44,30-13-18-5-28S555,478,555,478Z"/><path class="cls-1" d="M283,595s85-74,135-87,98-25,107,0-21,40-37,58-43,38-46,48-16,3-26-21-63,1-88,11-62,26-62,14S283,595,283,595Z"/><path class="cls-1" d="M905,193s-25-43,0-52,30,4,73,17,54,8,87,8,20,35-7,39-40,2-78,16-51,28-67,32-13-13-50,4-46,9-43,3,41-33,62-33S905,193,905,193Z"/><path class="cls-1" d="M1120,267c8-20,23-6,27,8s16,20,20,38-10,39,6,51,16,2,16-8,12,40,5,46-36-26-36-40-4,48-28,50-74-25-74-44,28-14,44-17,15-34,8-48S1120,267,1120,267Z"/></svg>