<svg id="Calque_2" data-name="Calque 2" xmlns="http://www.w3.org/2000/svg" viewBox="0 0 1366 768"><defs><style>.cls-1{fill:#dc816d;}</style></defs><title>Plan de travail 1</title><path class="cls-1" d="M86.5,768.5s87-46,115-54,86-111,91-118,13-40,16,54,6,117-13,139-156,42-176,22S79.5,786.5,86.5,768.5Z"/><path class="cls-1" d="M990.5,767.5c-3,24,2,44-23,44s-39-23-39-34,2-10,11-42,5-96,20-144,1-106-10-107-53,0-66,24-39,64-73,102-45,53-100,83-103,77-105,85-43,55-64,41,6-27,4-40-43-36-50-92-31-151-38-234,18-124,41-130,76-1,77,21,27,147,83,194,21.58,42,146-66c38-33,110-3,154-61s123-100,136-90-4,62-42,112-63,117-55,196S990.5,767.5,990.5,767.5Z"/><path class="cls-1" d="M1366,727s-148-26-151-100,28-141,0-204-89-125-89-156,30-40,30-40l37.5,16.5s-20,37,22,96,37,77,81,78,70-16,70-16v45s-110,58-87,116,87,21,87,21,36,7,32,35-26,4-46,41c19,18,33,20,33,20s-6,29,13,34S1366,727,1366,727Z"/><path class="cls-1" d="M1284,111.18s-7.88,34.6-7.88-13.58S1249.88,58.18,1242,64.31s-55.19,56.94-62.19,84.09-7.88,71-43.8,71-28-26.28-46.43-29.78-20.15-13.14-29.78-13.14-106.87-31.54-226.88,5.26-130.52,18.4-186.58,67.45-133.59,39-133.59,39-48.18,6.13-56.06-14S433,125.19,396.23,97.16s-36.79-43.8-162.06-42-115.63-30.66-98.11-40.3,207.61-21.9,244.4-8.76,43.8-5.26,58.69,7,13.14,28,36.79,28,29.78-5.26,29.78-28S690.56-10.59,700.2-2.7,811.45,20.95,871,10.43,979.64-9.71,952.48,49s148-56.06,148-56.06,152.42-26.28,169.94,18.4S1284,111.18,1284,111.18Z"/><path class="cls-1" d="M29,146s160,36,169,81,26,242,26,259-37.5,6.5-37.5-101.5-53-181-101-192-90,21-109,23-79-56-33-70S29,146,29,146Z"/></svg>