<?xml version="1.0" encoding="UTF-8"?>
<svg width="1064px" height="604px" viewBox="0 0 1064 604" version="1.1" xmlns="http://www.w3.org/2000/svg" xmlns:xlink="http://www.w3.org/1999/xlink" style="background: #FFFFFF;">
    <!-- Generator: Sketch 46.1 (44463) - http://www.bohemiancoding.com/sketch -->
    <title>Artboard 2</title>
    <desc>Created with Sketch.</desc>
    <defs></defs>
    <g id="Page-1" stroke="none" stroke-width="1" fill="none" fill-rule="evenodd" opacity="0">
        <g id="Artboard-2" fill="#000000">
            <path d="M139.3325,324.385 L139.3325,268.115 C139.3325,267.661664 139.488332,267.279168 139.8,266.9675 C140.111668,266.655832 140.494164,266.5 140.9475,266.5 L148.7675,266.5 C149.220836,266.5 149.603332,266.669998 149.915,267.01 C150.226668,267.350002 150.3825,267.718331 150.3825,268.115 L150.3825,315.8 L172.0575,315.8 C172.510836,315.8 172.893332,315.955832 173.205,316.2675 C173.516668,316.579168 173.6725,316.961664 173.6725,317.415 L173.6725,324.385 C173.6725,324.838336 173.516668,325.220832 173.205,325.5325 C172.893332,325.844168 172.510836,326 172.0575,326 L140.9475,326 C140.494164,326 140.111668,325.844168 139.8,325.5325 C139.488332,325.220832 139.3325,324.838336 139.3325,324.385 Z M182.2575,324.385 L182.2575,268.115 C182.2575,267.661664 182.413332,267.279168 182.725,266.9675 C183.036668,266.655832 183.419164,266.5 183.8725,266.5 L218.4675,266.5 C218.920836,266.5 219.303332,266.655832 219.615,266.9675 C219.926668,267.279168 220.0825,267.661664 220.0825,268.115 L220.0825,275.085 C220.0825,275.538336 219.926668,275.920832 219.615,276.2325 C219.303332,276.544168 218.920836,276.7 218.4675,276.7 L193.3075,276.7 L193.3075,290.64 L214.3025,290.64 C214.755836,290.64 215.138332,290.809998 215.45,291.15 C215.761668,291.490002 215.9175,291.858331 215.9175,292.255 L215.9175,299.31 C215.9175,299.763336 215.761668,300.145832 215.45,300.4575 C215.138332,300.769168 214.755836,300.925 214.3025,300.925 L193.3075,300.925 L193.3075,315.8 L218.4675,315.8 C218.920836,315.8 219.303332,315.955832 219.615,316.2675 C219.926668,316.579168 220.0825,316.961664 220.0825,317.415 L220.0825,324.385 C220.0825,324.838336 219.926668,325.220832 219.615,325.5325 C219.303332,325.844168 218.920836,326 218.4675,326 L183.8725,326 C183.419164,326 183.036668,325.844168 182.725,325.5325 C182.413332,325.220832 182.2575,324.838336 182.2575,324.385 Z M229.1775,320.22 C228.384163,319.426663 228.242497,318.576671 228.7525,317.67 L231.8125,312.4 C232.152502,311.83333 232.634164,311.5075 233.2575,311.4225 C233.880836,311.3375 234.362498,311.464998 234.7025,311.805 L235.1275,312.06 C235.410835,312.286668 235.736665,312.513332 236.105,312.74 C236.473335,312.966668 236.94083,313.249998 237.5075,313.59 C238.074169,313.930002 238.64083,314.255832 239.2075,314.5675 C239.774169,314.879168 240.42583,315.190832 241.1625,315.5025 C241.89917,315.814168 242.607497,316.083332 243.2875,316.31 C243.967503,316.536668 244.67583,316.720833 245.4125,316.8625 C246.14917,317.004167 246.857497,317.075 247.5375,317.075 C249.747511,317.075 251.589159,316.437506 253.0625,315.1625 C254.535841,313.887494 255.2725,312.343342 255.2725,310.53 C255.2725,308.433323 254.394175,306.577508 252.6375,304.9625 C250.880825,303.347492 248.160852,301.803341 244.4775,300.33 C239.717476,298.403324 235.864181,295.995014 232.9175,293.105 C229.970819,290.214986 228.4975,286.503356 228.4975,281.97 C228.4975,277.663312 230.12665,273.866683 233.385,270.58 C236.64335,267.293317 241.389135,265.65 247.6225,265.65 C253.912531,265.65 259.579141,267.548314 264.6225,271.345 C265.019169,271.571668 265.274166,271.996664 265.3875,272.62 C265.500834,273.243336 265.415835,273.753331 265.1325,274.15 L261.9025,278.995 C260.995829,280.355007 260.004172,280.695003 258.9275,280.015 C253.940808,276.898318 250.002514,275.34 247.1125,275.34 C244.845822,275.34 243.032507,275.963327 241.6725,277.21 C240.312493,278.456673 239.6325,279.816659 239.6325,281.29 C239.6325,283.273343 240.425825,285.001659 242.0125,286.475 C243.599175,287.948341 246.149149,289.393326 249.6625,290.81 C252.099179,291.773338 254.209991,292.750828 255.995,293.7425 C257.780009,294.734172 259.621657,295.980826 261.52,297.4825 C263.418343,298.984174 264.877495,300.797489 265.8975,302.9225 C266.917505,305.047511 267.4275,307.41332 267.4275,310.02 C267.4275,314.610023 265.614185,318.562483 261.9875,321.8775 C258.360815,325.192517 253.657529,326.85 247.8775,326.85 C244.647484,326.85 241.573348,326.368338 238.655,325.405 C235.736652,324.441662 233.654173,323.549171 232.4075,322.7275 C231.160827,321.905829 230.084171,321.070004 229.1775,320.22 Z M297.0925,324.385 L297.0925,268.115 C297.0925,267.718331 297.248332,267.350002 297.56,267.01 C297.871668,266.669998 298.254164,266.5 298.7075,266.5 L306.6125,266.5 C307.009169,266.5 307.377498,266.669998 307.7175,267.01 C308.057502,267.350002 308.2275,267.718331 308.2275,268.115 L308.2275,324.385 C308.2275,324.781669 308.057502,325.149998 307.7175,325.49 C307.377498,325.830002 307.009169,326 306.6125,326 L298.7075,326 C298.254164,326 297.871668,325.830002 297.56,325.49 C297.248332,325.149998 297.0925,324.781669 297.0925,324.385 Z M323.6975,324.385 L323.6975,267.18 C323.6975,266.783331 323.853332,266.429168 324.165,266.1175 C324.476668,265.805832 324.859164,265.65 325.3125,265.65 L327.4375,265.65 L362.7975,303.22 L362.8825,303.22 L362.8825,268.115 C362.8825,267.661664 363.038332,267.279168 363.35,266.9675 C363.661668,266.655832 364.044164,266.5 364.4975,266.5 L372.3175,266.5 C372.714169,266.5 373.082498,266.669998 373.4225,267.01 C373.762502,267.350002 373.9325,267.718331 373.9325,268.115 L373.9325,325.32 C373.9325,325.716669 373.776668,326.070832 373.465,326.3825 C373.153332,326.694168 372.770836,326.85 372.3175,326.85 L370.2775,326.85 L334.7475,287.835 L334.6625,287.835 L334.6625,324.385 C334.6625,324.838336 334.506668,325.220832 334.195,325.5325 C333.883332,325.844168 333.500836,326 333.0475,326 L325.3125,326 C324.859164,326 324.476668,325.830002 324.165,325.49 C323.853332,325.149998 323.6975,324.781669 323.6975,324.385 Z M389.4025,324.385 L389.4025,268.115 C389.4025,267.661664 389.558332,267.279168 389.87,266.9675 C390.181668,266.655832 390.535831,266.5 390.9325,266.5 L411.0775,266.5 C419.294208,266.5 426.320804,269.404138 432.1575,275.2125 C437.994196,281.020862 440.9125,288.004959 440.9125,296.165 C440.9125,304.381708 437.994196,311.408304 432.1575,317.245 C426.320804,323.081696 419.294208,326 411.0775,326 L390.9325,326 C390.535831,326 390.181668,325.844168 389.87,325.5325 C389.558332,325.220832 389.4025,324.838336 389.4025,324.385 Z M400.3675,315.63 L410.0575,315.63 C415.554194,315.63 420.115815,313.774185 423.7425,310.0625 C427.369185,306.350815 429.1825,301.718361 429.1825,296.165 C429.1825,290.611639 427.369185,285.993352 423.7425,282.31 C420.115815,278.626648 415.554194,276.785 410.0575,276.785 L400.3675,276.785 L400.3675,315.63 Z M452.1325,324.385 L452.1325,268.115 C452.1325,267.718331 452.288332,267.350002 452.6,267.01 C452.911668,266.669998 453.294164,266.5 453.7475,266.5 L461.6525,266.5 C462.049169,266.5 462.417498,266.669998 462.7575,267.01 C463.097502,267.350002 463.2675,267.718331 463.2675,268.115 L463.2675,324.385 C463.2675,324.781669 463.097502,325.149998 462.7575,325.49 C462.417498,325.830002 462.049169,326 461.6525,326 L453.7475,326 C453.294164,326 452.911668,325.830002 452.6,325.49 C452.288332,325.149998 452.1325,324.781669 452.1325,324.385 Z M475.6775,320.22 C474.884163,319.426663 474.742497,318.576671 475.2525,317.67 L478.3125,312.4 C478.652502,311.83333 479.134164,311.5075 479.7575,311.4225 C480.380836,311.3375 480.862498,311.464998 481.2025,311.805 L481.6275,312.06 C481.910835,312.286668 482.236665,312.513332 482.605,312.74 C482.973335,312.966668 483.44083,313.249998 484.0075,313.59 C484.574169,313.930002 485.14083,314.255832 485.7075,314.5675 C486.274169,314.879168 486.92583,315.190832 487.6625,315.5025 C488.39917,315.814168 489.107497,316.083332 489.7875,316.31 C490.467503,316.536668 491.17583,316.720833 491.9125,316.8625 C492.64917,317.004167 493.357497,317.075 494.0375,317.075 C496.247511,317.075 498.089159,316.437506 499.5625,315.1625 C501.035841,313.887494 501.7725,312.343342 501.7725,310.53 C501.7725,308.433323 500.894175,306.577508 499.1375,304.9625 C497.380825,303.347492 494.660852,301.803341 490.9775,300.33 C486.217476,298.403324 482.364181,295.995014 479.4175,293.105 C476.470819,290.214986 474.9975,286.503356 474.9975,281.97 C474.9975,277.663312 476.62665,273.866683 479.885,270.58 C483.14335,267.293317 487.889135,265.65 494.1225,265.65 C500.412531,265.65 506.079141,267.548314 511.1225,271.345 C511.519169,271.571668 511.774166,271.996664 511.8875,272.62 C512.000834,273.243336 511.915835,273.753331 511.6325,274.15 L508.4025,278.995 C507.495829,280.355007 506.504172,280.695003 505.4275,280.015 C500.440808,276.898318 496.502514,275.34 493.6125,275.34 C491.345822,275.34 489.532507,275.963327 488.1725,277.21 C486.812493,278.456673 486.1325,279.816659 486.1325,281.29 C486.1325,283.273343 486.925825,285.001659 488.5125,286.475 C490.099175,287.948341 492.649149,289.393326 496.1625,290.81 C498.599179,291.773338 500.709991,292.750828 502.495,293.7425 C504.280009,294.734172 506.121657,295.980826 508.02,297.4825 C509.918343,298.984174 511.377495,300.797489 512.3975,302.9225 C513.417505,305.047511 513.9275,307.41332 513.9275,310.02 C513.9275,314.610023 512.114185,318.562483 508.4875,321.8775 C504.860815,325.192517 500.157529,326.85 494.3775,326.85 C491.147484,326.85 488.073348,326.368338 485.155,325.405 C482.236652,324.441662 480.154173,323.549171 478.9075,322.7275 C477.660827,321.905829 476.584171,321.070004 475.6775,320.22 Z M520.4725,296.335 C520.4725,287.834957 523.461637,280.595863 529.44,274.6175 C535.418363,268.639137 542.657457,265.65 551.1575,265.65 C558.977539,265.65 565.834137,268.284974 571.7275,273.555 C572.577504,274.348337 572.605837,275.141663 571.8125,275.935 L566.6275,281.29 C565.947497,282.02667 565.23917,282.02667 564.5025,281.29 C560.705814,277.94665 556.342525,276.275 551.4125,276.275 C546.02914,276.275 541.524185,278.215814 537.8975,282.0975 C534.270815,285.979186 532.4575,290.639973 532.4575,296.08 C532.4575,301.46336 534.284982,306.081647 537.94,309.935 C541.595018,313.788353 546.11414,315.715 551.4975,315.715 C556.200857,315.715 560.535813,314.100016 564.5025,310.87 C565.23917,310.189997 565.947497,310.189997 566.6275,310.87 L571.8975,316.31 C572.237502,316.650002 572.393333,317.032498 572.365,317.4575 C572.336667,317.882502 572.152502,318.264998 571.8125,318.605 C566.145805,324.101694 559.260874,326.85 551.1575,326.85 C542.657457,326.85 535.418363,323.889196 529.44,317.9675 C523.461637,312.045804 520.4725,304.835042 520.4725,296.335 Z M582.9475,324.385 L582.9475,268.115 C582.9475,267.718331 583.103332,267.350002 583.415,267.01 C583.726668,266.669998 584.109164,266.5 584.5625,266.5 L592.4675,266.5 C592.864169,266.5 593.232498,266.669998 593.5725,267.01 C593.912502,267.350002 594.0825,267.718331 594.0825,268.115 L594.0825,324.385 C594.0825,324.781669 593.912502,325.149998 593.5725,325.49 C593.232498,325.830002 592.864169,326 592.4675,326 L584.5625,326 C584.109164,326 583.726668,325.830002 583.415,325.49 C583.103332,325.149998 582.9475,324.781669 582.9475,324.385 Z M609.5525,324.385 L609.5525,268.115 C609.5525,267.661664 609.708332,267.279168 610.02,266.9675 C610.331668,266.655832 610.714164,266.5 611.1675,266.5 L631.1425,266.5 C636.355859,266.5 640.832481,268.341648 644.5725,272.025 C648.312519,275.708352 650.1825,280.128308 650.1825,285.285 C650.1825,290.555026 648.326685,295.059981 644.615,298.8 C640.903315,302.540019 636.440859,304.41 631.2275,304.41 L620.6025,304.41 L620.6025,324.385 C620.6025,324.781669 620.446668,325.149998 620.135,325.49 C619.823332,325.830002 619.440836,326 618.9875,326 L611.1675,326 C610.714164,326 610.331668,325.844168 610.02,325.5325 C609.708332,325.220832 609.5525,324.838336 609.5525,324.385 Z M620.6025,294.04 L630.4625,294.04 C632.842512,294.04 634.896658,293.190008 636.625,291.49 C638.353342,289.789991 639.2175,287.693346 639.2175,285.2 C639.2175,282.876655 638.353342,280.921675 636.625,279.335 C634.896658,277.748325 632.842512,276.955 630.4625,276.955 L620.6025,276.955 L620.6025,294.04 Z M659.8725,324.385 L659.8725,268.115 C659.8725,267.661664 660.028332,267.279168 660.34,266.9675 C660.651668,266.655832 661.034164,266.5 661.4875,266.5 L669.3075,266.5 C669.760836,266.5 670.143332,266.669998 670.455,267.01 C670.766668,267.350002 670.9225,267.718331 670.9225,268.115 L670.9225,315.8 L692.5975,315.8 C693.050836,315.8 693.433332,315.955832 693.745,316.2675 C694.056668,316.579168 694.2125,316.961664 694.2125,317.415 L694.2125,324.385 C694.2125,324.838336 694.056668,325.220832 693.745,325.5325 C693.433332,325.844168 693.050836,326 692.5975,326 L661.4875,326 C661.034164,326 660.651668,325.844168 660.34,325.5325 C660.028332,325.220832 659.8725,324.838336 659.8725,324.385 Z M702.7975,324.385 L702.7975,268.115 C702.7975,267.718331 702.953332,267.350002 703.265,267.01 C703.576668,266.669998 703.959164,266.5 704.4125,266.5 L712.3175,266.5 C712.714169,266.5 713.082498,266.669998 713.4225,267.01 C713.762502,267.350002 713.9325,267.718331 713.9325,268.115 L713.9325,324.385 C713.9325,324.781669 713.762502,325.149998 713.4225,325.49 C713.082498,325.830002 712.714169,326 712.3175,326 L704.4125,326 C703.959164,326 703.576668,325.830002 703.265,325.49 C702.953332,325.149998 702.7975,324.781669 702.7975,324.385 Z M729.4025,324.385 L729.4025,267.18 C729.4025,266.783331 729.558332,266.429168 729.87,266.1175 C730.181668,265.805832 730.564164,265.65 731.0175,265.65 L733.1425,265.65 L768.5025,303.22 L768.5875,303.22 L768.5875,268.115 C768.5875,267.661664 768.743332,267.279168 769.055,266.9675 C769.366668,266.655832 769.749164,266.5 770.2025,266.5 L778.0225,266.5 C778.419169,266.5 778.787498,266.669998 779.1275,267.01 C779.467502,267.350002 779.6375,267.718331 779.6375,268.115 L779.6375,325.32 C779.6375,325.716669 779.481668,326.070832 779.17,326.3825 C778.858332,326.694168 778.475836,326.85 778.0225,326.85 L775.9825,326.85 L740.4525,287.835 L740.3675,287.835 L740.3675,324.385 C740.3675,324.838336 740.211668,325.220832 739.9,325.5325 C739.588332,325.844168 739.205836,326 738.7525,326 L731.0175,326 C730.564164,326 730.181668,325.830002 729.87,325.49 C729.558332,325.149998 729.4025,324.781669 729.4025,324.385 Z M795.1075,324.385 L795.1075,268.115 C795.1075,267.661664 795.263332,267.279168 795.575,266.9675 C795.886668,266.655832 796.269164,266.5 796.7225,266.5 L831.3175,266.5 C831.770836,266.5 832.153332,266.655832 832.465,266.9675 C832.776668,267.279168 832.9325,267.661664 832.9325,268.115 L832.9325,275.085 C832.9325,275.538336 832.776668,275.920832 832.465,276.2325 C832.153332,276.544168 831.770836,276.7 831.3175,276.7 L806.1575,276.7 L806.1575,290.64 L827.1525,290.64 C827.605836,290.64 827.988332,290.809998 828.3,291.15 C828.611668,291.490002 828.7675,291.858331 828.7675,292.255 L828.7675,299.31 C828.7675,299.763336 828.611668,300.145832 828.3,300.4575 C827.988332,300.769168 827.605836,300.925 827.1525,300.925 L806.1575,300.925 L806.1575,315.8 L831.3175,315.8 C831.770836,315.8 832.153332,315.955832 832.465,316.2675 C832.776668,316.579168 832.9325,316.961664 832.9325,317.415 L832.9325,324.385 C832.9325,324.838336 832.776668,325.220832 832.465,325.5325 C832.153332,325.844168 831.770836,326 831.3175,326 L796.7225,326 C796.269164,326 795.886668,325.844168 795.575,325.5325 C795.263332,325.220832 795.1075,324.838336 795.1075,324.385 Z M808.6225,260.72 C807.602495,261.173336 806.894169,260.975004 806.4975,260.125 L804.9675,257.15 C804.627498,256.469997 804.797497,255.931669 805.4775,255.535 L819.4175,247.205 C820.437505,246.581664 821.174164,246.666663 821.6275,247.46 L824.0075,251.88 C824.630836,252.956672 824.460838,253.721664 823.4975,254.175 L808.6225,260.72 Z M845.0875,324.385 L845.0875,268.115 C845.0875,267.661664 845.243332,267.279168 845.555,266.9675 C845.866668,266.655832 846.249164,266.5 846.7025,266.5 L881.2975,266.5 C881.750836,266.5 882.133332,266.655832 882.445,266.9675 C882.756668,267.279168 882.9125,267.661664 882.9125,268.115 L882.9125,275.085 C882.9125,275.538336 882.756668,275.920832 882.445,276.2325 C882.133332,276.544168 881.750836,276.7 881.2975,276.7 L856.1375,276.7 L856.1375,290.64 L877.1325,290.64 C877.585836,290.64 877.968332,290.809998 878.28,291.15 C878.591668,291.490002 878.7475,291.858331 878.7475,292.255 L878.7475,299.31 C878.7475,299.763336 878.591668,300.145832 878.28,300.4575 C877.968332,300.769168 877.585836,300.925 877.1325,300.925 L856.1375,300.925 L856.1375,315.8 L881.2975,315.8 C881.750836,315.8 882.133332,315.955832 882.445,316.2675 C882.756668,316.579168 882.9125,316.961664 882.9125,317.415 L882.9125,324.385 C882.9125,324.838336 882.756668,325.220832 882.445,325.5325 C882.133332,325.844168 881.750836,326 881.2975,326 L846.7025,326 C846.249164,326 845.866668,325.844168 845.555,325.5325 C845.243332,325.220832 845.0875,324.838336 845.0875,324.385 Z M892.0075,320.22 C891.214163,319.426663 891.072497,318.576671 891.5825,317.67 L894.6425,312.4 C894.982502,311.83333 895.464164,311.5075 896.0875,311.4225 C896.710836,311.3375 897.192498,311.464998 897.5325,311.805 L897.9575,312.06 C898.240835,312.286668 898.566665,312.513332 898.935,312.74 C899.303335,312.966668 899.77083,313.249998 900.3375,313.59 C900.904169,313.930002 901.47083,314.255832 902.0375,314.5675 C902.604169,314.879168 903.25583,315.190832 903.9925,315.5025 C904.72917,315.814168 905.437497,316.083332 906.1175,316.31 C906.797503,316.536668 907.50583,316.720833 908.2425,316.8625 C908.97917,317.004167 909.687497,317.075 910.3675,317.075 C912.577511,317.075 914.419159,316.437506 915.8925,315.1625 C917.365841,313.887494 918.1025,312.343342 918.1025,310.53 C918.1025,308.433323 917.224175,306.577508 915.4675,304.9625 C913.710825,303.347492 910.990852,301.803341 907.3075,300.33 C902.547476,298.403324 898.694181,295.995014 895.7475,293.105 C892.800819,290.214986 891.3275,286.503356 891.3275,281.97 C891.3275,277.663312 892.95665,273.866683 896.215,270.58 C899.47335,267.293317 904.219135,265.65 910.4525,265.65 C916.742531,265.65 922.409141,267.548314 927.4525,271.345 C927.849169,271.571668 928.104166,271.996664 928.2175,272.62 C928.330834,273.243336 928.245835,273.753331 927.9625,274.15 L924.7325,278.995 C923.825829,280.355007 922.834172,280.695003 921.7575,280.015 C916.770808,276.898318 912.832514,275.34 909.9425,275.34 C907.675822,275.34 905.862507,275.963327 904.5025,277.21 C903.142493,278.456673 902.4625,279.816659 902.4625,281.29 C902.4625,283.273343 903.255825,285.001659 904.8425,286.475 C906.429175,287.948341 908.979149,289.393326 912.4925,290.81 C914.929179,291.773338 917.039991,292.750828 918.825,293.7425 C920.610009,294.734172 922.451657,295.980826 924.35,297.4825 C926.248343,298.984174 927.707495,300.797489 928.7275,302.9225 C929.747505,305.047511 930.2575,307.41332 930.2575,310.02 C930.2575,314.610023 928.444185,318.562483 924.8175,321.8775 C921.190815,325.192517 916.487529,326.85 910.7075,326.85 C907.477484,326.85 904.403348,326.368338 901.485,325.405 C898.566652,324.441662 896.484173,323.549171 895.2375,322.7275 C893.990827,321.905829 892.914171,321.070004 892.0075,320.22 Z" id="LES-INDISCIPLINÉES"></path>
        </g>
    </g>
</svg>