<?xml version="1.0" encoding="UTF-8"?>
<svg width="1059px" height="599px" viewBox="0 0 1059 599" version="1.1" xmlns="http://www.w3.org/2000/svg" xmlns:xlink="http://www.w3.org/1999/xlink">
    <!-- Generator: Sketch 47.1 (45422) - http://www.bohemiancoding.com/sketch -->
    <title>Artboard</title>
    <desc>Created with Sketch.</desc>
    <defs></defs>
    <g id="Page-1" stroke="none" stroke-width="1" fill="none" fill-rule="evenodd">
        <g id="Artboard" fill-rule="nonzero">
            <g id="titre" transform="translate(138.000000, 243.000000)" fill="#000000" opacity="0">
                <g id="Page-1">
                    <g id="Artboard-2">
                        <path d="M0.3325,78.385 L0.3325,22.115 C0.3325,21.661664 0.488332,21.279168 0.8,20.9675 C1.111668,20.655832 1.494164,20.5 1.9475,20.5 L9.7675,20.5 C10.220836,20.5 10.603332,20.669998 10.915,21.01 C11.226668,21.350002 11.3825,21.718331 11.3825,22.115 L11.3825,69.8 L33.0575,69.8 C33.510836,69.8 33.893332,69.955832 34.205,70.2675 C34.516668,70.579168 34.6725,70.961664 34.6725,71.415 L34.6725,78.385 C34.6725,78.838336 34.516668,79.220832 34.205,79.5325 C33.893332,79.844168 33.510836,80 33.0575,80 L1.9475,80 C1.494164,80 1.111668,79.844168 0.8,79.5325 C0.488332,79.220832 0.3325,78.838336 0.3325,78.385 Z M43.2575,78.385 L43.2575,22.115 C43.2575,21.661664 43.413332,21.279168 43.725,20.9675 C44.036668,20.655832 44.419164,20.5 44.8725,20.5 L79.4675,20.5 C79.920836,20.5 80.303332,20.655832 80.615,20.9675 C80.926668,21.279168 81.0825,21.661664 81.0825,22.115 L81.0825,29.085 C81.0825,29.538336 80.926668,29.920832 80.615,30.2325 C80.303332,30.544168 79.920836,30.7 79.4675,30.7 L54.3075,30.7 L54.3075,44.64 L75.3025,44.64 C75.755836,44.64 76.138332,44.809998 76.45,45.15 C76.761668,45.490002 76.9175,45.858331 76.9175,46.255 L76.9175,53.31 C76.9175,53.763336 76.761668,54.145832 76.45,54.4575 C76.138332,54.769168 75.755836,54.925 75.3025,54.925 L54.3075,54.925 L54.3075,69.8 L79.4675,69.8 C79.920836,69.8 80.303332,69.955832 80.615,70.2675 C80.926668,70.579168 81.0825,70.961664 81.0825,71.415 L81.0825,78.385 C81.0825,78.838336 80.926668,79.220832 80.615,79.5325 C80.303332,79.844168 79.920836,80 79.4675,80 L44.8725,80 C44.419164,80 44.036668,79.844168 43.725,79.5325 C43.413332,79.220832 43.2575,78.838336 43.2575,78.385 Z M90.1775,74.22 C89.384163,73.426663 89.242497,72.576671 89.7525,71.67 L92.8125,66.4 C93.152502,65.83333 93.634164,65.5075 94.2575,65.4225 C94.880836,65.3375 95.362498,65.464998 95.7025,65.805 L96.1275,66.06 C96.410835,66.286668 96.736665,66.513332 97.105,66.74 C97.473335,66.966668 97.94083,67.249998 98.5075,67.59 C99.074169,67.930002 99.64083,68.255832 100.2075,68.5675 C100.774169,68.879168 101.42583,69.190832 102.1625,69.5025 C102.89917,69.814168 103.607497,70.083332 104.2875,70.31 C104.967503,70.536668 105.67583,70.720833 106.4125,70.8625 C107.14917,71.004167 107.857497,71.075 108.5375,71.075 C110.747511,71.075 112.589159,70.437506 114.0625,69.1625 C115.535841,67.887494 116.2725,66.343342 116.2725,64.53 C116.2725,62.433323 115.394175,60.577508 113.6375,58.9625 C111.880825,57.347492 109.160852,55.803341 105.4775,54.33 C100.717476,52.403324 96.864181,49.995014 93.9175,47.105 C90.970819,44.214986 89.4975,40.503356 89.4975,35.97 C89.4975,31.663312 91.12665,27.866683 94.385,24.58 C97.64335,21.293317 102.389135,19.65 108.6225,19.65 C114.912531,19.65 120.579141,21.548314 125.6225,25.345 C126.019169,25.571668 126.274166,25.996664 126.3875,26.62 C126.500834,27.243336 126.415835,27.753331 126.1325,28.15 L122.9025,32.995 C121.995829,34.355007 121.004172,34.695003 119.9275,34.015 C114.940808,30.898318 111.002514,29.34 108.1125,29.34 C105.845822,29.34 104.032507,29.963327 102.6725,31.21 C101.312493,32.456673 100.6325,33.816659 100.6325,35.29 C100.6325,37.273343 101.425825,39.001659 103.0125,40.475 C104.599175,41.948341 107.149149,43.393326 110.6625,44.81 C113.099179,45.773338 115.209991,46.750828 116.995,47.7425 C118.780009,48.734172 120.621657,49.980826 122.52,51.4825 C124.418343,52.984174 125.877495,54.797489 126.8975,56.9225 C127.917505,59.047511 128.4275,61.41332 128.4275,64.02 C128.4275,68.610023 126.614185,72.562483 122.9875,75.8775 C119.360815,79.192517 114.657529,80.85 108.8775,80.85 C105.647484,80.85 102.573348,80.368338 99.655,79.405 C96.736652,78.441662 94.654173,77.549171 93.4075,76.7275 C92.160827,75.905829 91.084171,75.070004 90.1775,74.22 Z M158.0925,78.385 L158.0925,22.115 C158.0925,21.718331 158.248332,21.350002 158.56,21.01 C158.871668,20.669998 159.254164,20.5 159.7075,20.5 L167.6125,20.5 C168.009169,20.5 168.377498,20.669998 168.7175,21.01 C169.057502,21.350002 169.2275,21.718331 169.2275,22.115 L169.2275,78.385 C169.2275,78.781669 169.057502,79.149998 168.7175,79.49 C168.377498,79.830002 168.009169,80 167.6125,80 L159.7075,80 C159.254164,80 158.871668,79.830002 158.56,79.49 C158.248332,79.149998 158.0925,78.781669 158.0925,78.385 Z M184.6975,78.385 L184.6975,21.18 C184.6975,20.783331 184.853332,20.429168 185.165,20.1175 C185.476668,19.805832 185.859164,19.65 186.3125,19.65 L188.4375,19.65 L223.7975,57.22 L223.8825,57.22 L223.8825,22.115 C223.8825,21.661664 224.038332,21.279168 224.35,20.9675 C224.661668,20.655832 225.044164,20.5 225.4975,20.5 L233.3175,20.5 C233.714169,20.5 234.082498,20.669998 234.4225,21.01 C234.762502,21.350002 234.9325,21.718331 234.9325,22.115 L234.9325,79.32 C234.9325,79.716669 234.776668,80.070832 234.465,80.3825 C234.153332,80.694168 233.770836,80.85 233.3175,80.85 L231.2775,80.85 L195.7475,41.835 L195.6625,41.835 L195.6625,78.385 C195.6625,78.838336 195.506668,79.220832 195.195,79.5325 C194.883332,79.844168 194.500836,80 194.0475,80 L186.3125,80 C185.859164,80 185.476668,79.830002 185.165,79.49 C184.853332,79.149998 184.6975,78.781669 184.6975,78.385 Z M250.4025,78.385 L250.4025,22.115 C250.4025,21.661664 250.558332,21.279168 250.87,20.9675 C251.181668,20.655832 251.535831,20.5 251.9325,20.5 L272.0775,20.5 C280.294208,20.5 287.320804,23.404138 293.1575,29.2125 C298.994196,35.020862 301.9125,42.004959 301.9125,50.165 C301.9125,58.381708 298.994196,65.408304 293.1575,71.245 C287.320804,77.081696 280.294208,80 272.0775,80 L251.9325,80 C251.535831,80 251.181668,79.844168 250.87,79.5325 C250.558332,79.220832 250.4025,78.838336 250.4025,78.385 Z M261.3675,69.63 L271.0575,69.63 C276.554194,69.63 281.115815,67.774185 284.7425,64.0625 C288.369185,60.350815 290.1825,55.718361 290.1825,50.165 C290.1825,44.611639 288.369185,39.993352 284.7425,36.31 C281.115815,32.626648 276.554194,30.785 271.0575,30.785 L261.3675,30.785 L261.3675,69.63 Z M313.1325,78.385 L313.1325,22.115 C313.1325,21.718331 313.288332,21.350002 313.6,21.01 C313.911668,20.669998 314.294164,20.5 314.7475,20.5 L322.6525,20.5 C323.049169,20.5 323.417498,20.669998 323.7575,21.01 C324.097502,21.350002 324.2675,21.718331 324.2675,22.115 L324.2675,78.385 C324.2675,78.781669 324.097502,79.149998 323.7575,79.49 C323.417498,79.830002 323.049169,80 322.6525,80 L314.7475,80 C314.294164,80 313.911668,79.830002 313.6,79.49 C313.288332,79.149998 313.1325,78.781669 313.1325,78.385 Z M336.6775,74.22 C335.884163,73.426663 335.742497,72.576671 336.2525,71.67 L339.3125,66.4 C339.652502,65.83333 340.134164,65.5075 340.7575,65.4225 C341.380836,65.3375 341.862498,65.464998 342.2025,65.805 L342.6275,66.06 C342.910835,66.286668 343.236665,66.513332 343.605,66.74 C343.973335,66.966668 344.44083,67.249998 345.0075,67.59 C345.574169,67.930002 346.14083,68.255832 346.7075,68.5675 C347.274169,68.879168 347.92583,69.190832 348.6625,69.5025 C349.39917,69.814168 350.107497,70.083332 350.7875,70.31 C351.467503,70.536668 352.17583,70.720833 352.9125,70.8625 C353.64917,71.004167 354.357497,71.075 355.0375,71.075 C357.247511,71.075 359.089159,70.437506 360.5625,69.1625 C362.035841,67.887494 362.7725,66.343342 362.7725,64.53 C362.7725,62.433323 361.894175,60.577508 360.1375,58.9625 C358.380825,57.347492 355.660852,55.803341 351.9775,54.33 C347.217476,52.403324 343.364181,49.995014 340.4175,47.105 C337.470819,44.214986 335.9975,40.503356 335.9975,35.97 C335.9975,31.663312 337.62665,27.866683 340.885,24.58 C344.14335,21.293317 348.889135,19.65 355.1225,19.65 C361.412531,19.65 367.079141,21.548314 372.1225,25.345 C372.519169,25.571668 372.774166,25.996664 372.8875,26.62 C373.000834,27.243336 372.915835,27.753331 372.6325,28.15 L369.4025,32.995 C368.495829,34.355007 367.504172,34.695003 366.4275,34.015 C361.440808,30.898318 357.502514,29.34 354.6125,29.34 C352.345822,29.34 350.532507,29.963327 349.1725,31.21 C347.812493,32.456673 347.1325,33.816659 347.1325,35.29 C347.1325,37.273343 347.925825,39.001659 349.5125,40.475 C351.099175,41.948341 353.649149,43.393326 357.1625,44.81 C359.599179,45.773338 361.709991,46.750828 363.495,47.7425 C365.280009,48.734172 367.121657,49.980826 369.02,51.4825 C370.918343,52.984174 372.377495,54.797489 373.3975,56.9225 C374.417505,59.047511 374.9275,61.41332 374.9275,64.02 C374.9275,68.610023 373.114185,72.562483 369.4875,75.8775 C365.860815,79.192517 361.157529,80.85 355.3775,80.85 C352.147484,80.85 349.073348,80.368338 346.155,79.405 C343.236652,78.441662 341.154173,77.549171 339.9075,76.7275 C338.660827,75.905829 337.584171,75.070004 336.6775,74.22 Z M381.4725,50.335 C381.4725,41.834957 384.461637,34.595863 390.44,28.6175 C396.418363,22.639137 403.657457,19.65 412.1575,19.65 C419.977539,19.65 426.834137,22.284974 432.7275,27.555 C433.577504,28.348337 433.605837,29.141663 432.8125,29.935 L427.6275,35.29 C426.947497,36.02667 426.23917,36.02667 425.5025,35.29 C421.705814,31.94665 417.342525,30.275 412.4125,30.275 C407.02914,30.275 402.524185,32.215814 398.8975,36.0975 C395.270815,39.979186 393.4575,44.639973 393.4575,50.08 C393.4575,55.46336 395.284982,60.081647 398.94,63.935 C402.595018,67.788353 407.11414,69.715 412.4975,69.715 C417.200857,69.715 421.535813,68.100016 425.5025,64.87 C426.23917,64.189997 426.947497,64.189997 427.6275,64.87 L432.8975,70.31 C433.237502,70.650002 433.393333,71.032498 433.365,71.4575 C433.336667,71.882502 433.152502,72.264998 432.8125,72.605 C427.145805,78.101694 420.260874,80.85 412.1575,80.85 C403.657457,80.85 396.418363,77.889196 390.44,71.9675 C384.461637,66.045804 381.4725,58.835042 381.4725,50.335 Z M443.9475,78.385 L443.9475,22.115 C443.9475,21.718331 444.103332,21.350002 444.415,21.01 C444.726668,20.669998 445.109164,20.5 445.5625,20.5 L453.4675,20.5 C453.864169,20.5 454.232498,20.669998 454.5725,21.01 C454.912502,21.350002 455.0825,21.718331 455.0825,22.115 L455.0825,78.385 C455.0825,78.781669 454.912502,79.149998 454.5725,79.49 C454.232498,79.830002 453.864169,80 453.4675,80 L445.5625,80 C445.109164,80 444.726668,79.830002 444.415,79.49 C444.103332,79.149998 443.9475,78.781669 443.9475,78.385 Z M470.5525,78.385 L470.5525,22.115 C470.5525,21.661664 470.708332,21.279168 471.02,20.9675 C471.331668,20.655832 471.714164,20.5 472.1675,20.5 L492.1425,20.5 C497.355859,20.5 501.832481,22.341648 505.5725,26.025 C509.312519,29.708352 511.1825,34.128308 511.1825,39.285 C511.1825,44.555026 509.326685,49.059981 505.615,52.8 C501.903315,56.540019 497.440859,58.41 492.2275,58.41 L481.6025,58.41 L481.6025,78.385 C481.6025,78.781669 481.446668,79.149998 481.135,79.49 C480.823332,79.830002 480.440836,80 479.9875,80 L472.1675,80 C471.714164,80 471.331668,79.844168 471.02,79.5325 C470.708332,79.220832 470.5525,78.838336 470.5525,78.385 Z M481.6025,48.04 L491.4625,48.04 C493.842512,48.04 495.896658,47.190008 497.625,45.49 C499.353342,43.789991 500.2175,41.693346 500.2175,39.2 C500.2175,36.876655 499.353342,34.921675 497.625,33.335 C495.896658,31.748325 493.842512,30.955 491.4625,30.955 L481.6025,30.955 L481.6025,48.04 Z M520.8725,78.385 L520.8725,22.115 C520.8725,21.661664 521.028332,21.279168 521.34,20.9675 C521.651668,20.655832 522.034164,20.5 522.4875,20.5 L530.3075,20.5 C530.760836,20.5 531.143332,20.669998 531.455,21.01 C531.766668,21.350002 531.9225,21.718331 531.9225,22.115 L531.9225,69.8 L553.5975,69.8 C554.050836,69.8 554.433332,69.955832 554.745,70.2675 C555.056668,70.579168 555.2125,70.961664 555.2125,71.415 L555.2125,78.385 C555.2125,78.838336 555.056668,79.220832 554.745,79.5325 C554.433332,79.844168 554.050836,80 553.5975,80 L522.4875,80 C522.034164,80 521.651668,79.844168 521.34,79.5325 C521.028332,79.220832 520.8725,78.838336 520.8725,78.385 Z M563.7975,78.385 L563.7975,22.115 C563.7975,21.718331 563.953332,21.350002 564.265,21.01 C564.576668,20.669998 564.959164,20.5 565.4125,20.5 L573.3175,20.5 C573.714169,20.5 574.082498,20.669998 574.4225,21.01 C574.762502,21.350002 574.9325,21.718331 574.9325,22.115 L574.9325,78.385 C574.9325,78.781669 574.762502,79.149998 574.4225,79.49 C574.082498,79.830002 573.714169,80 573.3175,80 L565.4125,80 C564.959164,80 564.576668,79.830002 564.265,79.49 C563.953332,79.149998 563.7975,78.781669 563.7975,78.385 Z M590.4025,78.385 L590.4025,21.18 C590.4025,20.783331 590.558332,20.429168 590.87,20.1175 C591.181668,19.805832 591.564164,19.65 592.0175,19.65 L594.1425,19.65 L629.5025,57.22 L629.5875,57.22 L629.5875,22.115 C629.5875,21.661664 629.743332,21.279168 630.055,20.9675 C630.366668,20.655832 630.749164,20.5 631.2025,20.5 L639.0225,20.5 C639.419169,20.5 639.787498,20.669998 640.1275,21.01 C640.467502,21.350002 640.6375,21.718331 640.6375,22.115 L640.6375,79.32 C640.6375,79.716669 640.481668,80.070832 640.17,80.3825 C639.858332,80.694168 639.475836,80.85 639.0225,80.85 L636.9825,80.85 L601.4525,41.835 L601.3675,41.835 L601.3675,78.385 C601.3675,78.838336 601.211668,79.220832 600.9,79.5325 C600.588332,79.844168 600.205836,80 599.7525,80 L592.0175,80 C591.564164,80 591.181668,79.830002 590.87,79.49 C590.558332,79.149998 590.4025,78.781669 590.4025,78.385 Z M656.1075,78.385 L656.1075,22.115 C656.1075,21.661664 656.263332,21.279168 656.575,20.9675 C656.886668,20.655832 657.269164,20.5 657.7225,20.5 L692.3175,20.5 C692.770836,20.5 693.153332,20.655832 693.465,20.9675 C693.776668,21.279168 693.9325,21.661664 693.9325,22.115 L693.9325,29.085 C693.9325,29.538336 693.776668,29.920832 693.465,30.2325 C693.153332,30.544168 692.770836,30.7 692.3175,30.7 L667.1575,30.7 L667.1575,44.64 L688.1525,44.64 C688.605836,44.64 688.988332,44.809998 689.3,45.15 C689.611668,45.490002 689.7675,45.858331 689.7675,46.255 L689.7675,53.31 C689.7675,53.763336 689.611668,54.145832 689.3,54.4575 C688.988332,54.769168 688.605836,54.925 688.1525,54.925 L667.1575,54.925 L667.1575,69.8 L692.3175,69.8 C692.770836,69.8 693.153332,69.955832 693.465,70.2675 C693.776668,70.579168 693.9325,70.961664 693.9325,71.415 L693.9325,78.385 C693.9325,78.838336 693.776668,79.220832 693.465,79.5325 C693.153332,79.844168 692.770836,80 692.3175,80 L657.7225,80 C657.269164,80 656.886668,79.844168 656.575,79.5325 C656.263332,79.220832 656.1075,78.838336 656.1075,78.385 Z M669.6225,14.72 C668.602495,15.173336 667.894169,14.975004 667.4975,14.125 L665.9675,11.15 C665.627498,10.469997 665.797497,9.931669 666.4775,9.535 L680.4175,1.205 C681.437505,0.581664 682.174164,0.666663 682.6275,1.46 L685.0075,5.88 C685.630836,6.956672 685.460838,7.721664 684.4975,8.175 L669.6225,14.72 Z M706.0875,78.385 L706.0875,22.115 C706.0875,21.661664 706.243332,21.279168 706.555,20.9675 C706.866668,20.655832 707.249164,20.5 707.7025,20.5 L742.2975,20.5 C742.750836,20.5 743.133332,20.655832 743.445,20.9675 C743.756668,21.279168 743.9125,21.661664 743.9125,22.115 L743.9125,29.085 C743.9125,29.538336 743.756668,29.920832 743.445,30.2325 C743.133332,30.544168 742.750836,30.7 742.2975,30.7 L717.1375,30.7 L717.1375,44.64 L738.1325,44.64 C738.585836,44.64 738.968332,44.809998 739.28,45.15 C739.591668,45.490002 739.7475,45.858331 739.7475,46.255 L739.7475,53.31 C739.7475,53.763336 739.591668,54.145832 739.28,54.4575 C738.968332,54.769168 738.585836,54.925 738.1325,54.925 L717.1375,54.925 L717.1375,69.8 L742.2975,69.8 C742.750836,69.8 743.133332,69.955832 743.445,70.2675 C743.756668,70.579168 743.9125,70.961664 743.9125,71.415 L743.9125,78.385 C743.9125,78.838336 743.756668,79.220832 743.445,79.5325 C743.133332,79.844168 742.750836,80 742.2975,80 L707.7025,80 C707.249164,80 706.866668,79.844168 706.555,79.5325 C706.243332,79.220832 706.0875,78.838336 706.0875,78.385 Z M753.0075,74.22 C752.214163,73.426663 752.072497,72.576671 752.5825,71.67 L755.6425,66.4 C755.982502,65.83333 756.464164,65.5075 757.0875,65.4225 C757.710836,65.3375 758.192498,65.464998 758.5325,65.805 L758.9575,66.06 C759.240835,66.286668 759.566665,66.513332 759.935,66.74 C760.303335,66.966668 760.77083,67.249998 761.3375,67.59 C761.904169,67.930002 762.47083,68.255832 763.0375,68.5675 C763.604169,68.879168 764.25583,69.190832 764.9925,69.5025 C765.72917,69.814168 766.437497,70.083332 767.1175,70.31 C767.797503,70.536668 768.50583,70.720833 769.2425,70.8625 C769.97917,71.004167 770.687497,71.075 771.3675,71.075 C773.577511,71.075 775.419159,70.437506 776.8925,69.1625 C778.365841,67.887494 779.1025,66.343342 779.1025,64.53 C779.1025,62.433323 778.224175,60.577508 776.4675,58.9625 C774.710825,57.347492 771.990852,55.803341 768.3075,54.33 C763.547476,52.403324 759.694181,49.995014 756.7475,47.105 C753.800819,44.214986 752.3275,40.503356 752.3275,35.97 C752.3275,31.663312 753.95665,27.866683 757.215,24.58 C760.47335,21.293317 765.219135,19.65 771.4525,19.65 C777.742531,19.65 783.409141,21.548314 788.4525,25.345 C788.849169,25.571668 789.104166,25.996664 789.2175,26.62 C789.330834,27.243336 789.245835,27.753331 788.9625,28.15 L785.7325,32.995 C784.825829,34.355007 783.834172,34.695003 782.7575,34.015 C777.770808,30.898318 773.832514,29.34 770.9425,29.34 C768.675822,29.34 766.862507,29.963327 765.5025,31.21 C764.142493,32.456673 763.4625,33.816659 763.4625,35.29 C763.4625,37.273343 764.255825,39.001659 765.8425,40.475 C767.429175,41.948341 769.979149,43.393326 773.4925,44.81 C775.929179,45.773338 778.039991,46.750828 779.825,47.7425 C781.610009,48.734172 783.451657,49.980826 785.35,51.4825 C787.248343,52.984174 788.707495,54.797489 789.7275,56.9225 C790.747505,59.047511 791.2575,61.41332 791.2575,64.02 C791.2575,68.610023 789.444185,72.562483 785.8175,75.8775 C782.190815,79.192517 777.487529,80.85 771.7075,80.85 C768.477484,80.85 765.403348,80.368338 762.485,79.405 C759.566652,78.441662 757.484173,77.549171 756.2375,76.7275 C754.990827,75.905829 753.914171,75.070004 753.0075,74.22 Z" id="LES-INDISCIPLINÉES"></path>
                    </g>
                </g>
            </g>
            <g id="titre2" transform="translate(-1.000000, -3.000000)" fill="#FFFFFF">
                <path d="M0,0 L1064,0 L1064,604 L0,604 L0,0 Z M130.8225,317.385 C130.8225,317.838336 130.978332,318.220832 131.29,318.5325 C131.601668,318.844168 131.984164,319 132.4375,319 L163.5475,319 C164.000836,319 164.383332,318.844168 164.695,318.5325 C165.006668,318.220832 165.1625,317.838336 165.1625,317.385 L165.1625,310.415 C165.1625,309.961664 165.006668,309.579168 164.695,309.2675 C164.383332,308.955832 164.000836,308.8 163.5475,308.8 L141.8725,308.8 L141.8725,261.115 C141.8725,260.718331 141.716668,260.350002 141.405,260.01 C141.093332,259.669998 140.710836,259.5 140.2575,259.5 L132.4375,259.5 C131.984164,259.5 131.601668,259.655832 131.29,259.9675 C130.978332,260.279168 130.8225,260.661664 130.8225,261.115 L130.8225,317.385 Z M173.7475,317.385 C173.7475,317.838336 173.903332,318.220832 174.215,318.5325 C174.526668,318.844168 174.909164,319 175.3625,319 L209.9575,319 C210.410836,319 210.793332,318.844168 211.105,318.5325 C211.416668,318.220832 211.5725,317.838336 211.5725,317.385 L211.5725,310.415 C211.5725,309.961664 211.416668,309.579168 211.105,309.2675 C210.793332,308.955832 210.410836,308.8 209.9575,308.8 L184.7975,308.8 L184.7975,293.925 L205.7925,293.925 C206.245836,293.925 206.628332,293.769168 206.94,293.4575 C207.251668,293.145832 207.4075,292.763336 207.4075,292.31 L207.4075,285.255 C207.4075,284.858331 207.251668,284.490002 206.94,284.15 C206.628332,283.809998 206.245836,283.64 205.7925,283.64 L184.7975,283.64 L184.7975,269.7 L209.9575,269.7 C210.410836,269.7 210.793332,269.544168 211.105,269.2325 C211.416668,268.920832 211.5725,268.538336 211.5725,268.085 L211.5725,261.115 C211.5725,260.661664 211.416668,260.279168 211.105,259.9675 C210.793332,259.655832 210.410836,259.5 209.9575,259.5 L175.3625,259.5 C174.909164,259.5 174.526668,259.655832 174.215,259.9675 C173.903332,260.279168 173.7475,260.661664 173.7475,261.115 L173.7475,317.385 Z M220.6675,313.22 C221.574171,314.070004 222.650827,314.905829 223.8975,315.7275 C225.144173,316.549171 227.226652,317.441662 230.145,318.405 C233.063348,319.368338 236.137484,319.85 239.3675,319.85 C245.147529,319.85 249.850815,318.192517 253.4775,314.8775 C257.104185,311.562483 258.9175,307.610023 258.9175,303.02 C258.9175,300.41332 258.407505,298.047511 257.3875,295.9225 C256.367495,293.797489 254.908343,291.984174 253.01,290.4825 C251.111657,288.980826 249.270009,287.734172 247.485,286.7425 C245.699991,285.750828 243.589179,284.773338 241.1525,283.81 C237.639149,282.393326 235.089175,280.948341 233.5025,279.475 C231.915825,278.001659 231.1225,276.273343 231.1225,274.29 C231.1225,272.816659 231.802493,271.456673 233.1625,270.21 C234.522507,268.963327 236.335822,268.34 238.6025,268.34 C241.492514,268.34 245.430808,269.898318 250.4175,273.015 C251.494172,273.695003 252.485829,273.355007 253.3925,271.995 L256.6225,267.15 C256.905835,266.753331 256.990834,266.243336 256.8775,265.62 C256.764166,264.996664 256.509169,264.571668 256.1125,264.345 C251.069141,260.548314 245.402531,258.65 239.1125,258.65 C232.879135,258.65 228.13335,260.293317 224.875,263.58 C221.61665,266.866683 219.9875,270.663312 219.9875,274.97 C219.9875,279.503356 221.460819,283.214986 224.4075,286.105 C227.354181,288.995014 231.207476,291.403324 235.9675,293.33 C239.650852,294.803341 242.370825,296.347492 244.1275,297.9625 C245.884175,299.577508 246.7625,301.433323 246.7625,303.53 C246.7625,305.343342 246.025841,306.887494 244.5525,308.1625 C243.079159,309.437506 241.237511,310.075 239.0275,310.075 C238.347497,310.075 237.63917,310.004167 236.9025,309.8625 C236.16583,309.720833 235.457503,309.536668 234.7775,309.31 C234.097497,309.083332 233.38917,308.814168 232.6525,308.5025 C231.91583,308.190832 231.264169,307.879168 230.6975,307.5675 C230.13083,307.255832 229.564169,306.930002 228.9975,306.59 C228.43083,306.249998 227.963335,305.966668 227.595,305.74 C227.226665,305.513332 226.900835,305.286668 226.6175,305.06 L226.1925,304.805 C225.852498,304.464998 225.370836,304.3375 224.7475,304.4225 C224.124164,304.5075 223.642502,304.83333 223.3025,305.4 L220.2425,310.67 C219.732497,311.576671 219.874163,312.426663 220.6675,313.22 Z M288.5825,317.385 C288.5825,317.781669 288.738332,318.149998 289.05,318.49 C289.361668,318.830002 289.744164,319 290.1975,319 L298.1025,319 C298.499169,319 298.867498,318.830002 299.2075,318.49 C299.547502,318.149998 299.7175,317.781669 299.7175,317.385 L299.7175,261.115 C299.7175,260.718331 299.547502,260.350002 299.2075,260.01 C298.867498,259.669998 298.499169,259.5 298.1025,259.5 L290.1975,259.5 C289.744164,259.5 289.361668,259.669998 289.05,260.01 C288.738332,260.350002 288.5825,260.718331 288.5825,261.115 L288.5825,317.385 Z M315.1875,317.385 C315.1875,317.781669 315.343332,318.149998 315.655,318.49 C315.966668,318.830002 316.349164,319 316.8025,319 L324.5375,319 C324.990836,319 325.373332,318.844168 325.685,318.5325 C325.996668,318.220832 326.1525,317.838336 326.1525,317.385 L326.1525,280.835 L326.2375,280.835 L361.7675,319.85 L363.8075,319.85 C364.260836,319.85 364.643332,319.694168 364.955,319.3825 C365.266668,319.070832 365.4225,318.716669 365.4225,318.32 L365.4225,261.115 C365.4225,260.718331 365.252502,260.350002 364.9125,260.01 C364.572498,259.669998 364.204169,259.5 363.8075,259.5 L355.9875,259.5 C355.534164,259.5 355.151668,259.655832 354.84,259.9675 C354.528332,260.279168 354.3725,260.661664 354.3725,261.115 L354.3725,296.22 L354.2875,296.22 L318.9275,258.65 L316.8025,258.65 C316.349164,258.65 315.966668,258.805832 315.655,259.1175 C315.343332,259.429168 315.1875,259.783331 315.1875,260.18 L315.1875,317.385 Z M380.8925,317.385 C380.8925,317.838336 381.048332,318.220832 381.36,318.5325 C381.671668,318.844168 382.025831,319 382.4225,319 L402.5675,319 C410.784208,319 417.810804,316.081696 423.6475,310.245 C429.484196,304.408304 432.4025,297.381708 432.4025,289.165 C432.4025,281.004959 429.484196,274.020862 423.6475,268.2125 C417.810804,262.404138 410.784208,259.5 402.5675,259.5 L382.4225,259.5 C382.025831,259.5 381.671668,259.655832 381.36,259.9675 C381.048332,260.279168 380.8925,260.661664 380.8925,261.115 L380.8925,317.385 Z M391.8575,308.63 L391.8575,269.785 L401.5475,269.785 C407.044194,269.785 411.605815,271.626648 415.2325,275.31 C418.859185,278.993352 420.6725,283.611639 420.6725,289.165 C420.6725,294.718361 418.859185,299.350815 415.2325,303.0625 C411.605815,306.774185 407.044194,308.63 401.5475,308.63 L391.8575,308.63 Z M443.6225,317.385 C443.6225,317.781669 443.778332,318.149998 444.09,318.49 C444.401668,318.830002 444.784164,319 445.2375,319 L453.1425,319 C453.539169,319 453.907498,318.830002 454.2475,318.49 C454.587502,318.149998 454.7575,317.781669 454.7575,317.385 L454.7575,261.115 C454.7575,260.718331 454.587502,260.350002 454.2475,260.01 C453.907498,259.669998 453.539169,259.5 453.1425,259.5 L445.2375,259.5 C444.784164,259.5 444.401668,259.669998 444.09,260.01 C443.778332,260.350002 443.6225,260.718331 443.6225,261.115 L443.6225,317.385 Z M467.1675,313.22 C468.074171,314.070004 469.150827,314.905829 470.3975,315.7275 C471.644173,316.549171 473.726652,317.441662 476.645,318.405 C479.563348,319.368338 482.637484,319.85 485.8675,319.85 C491.647529,319.85 496.350815,318.192517 499.9775,314.8775 C503.604185,311.562483 505.4175,307.610023 505.4175,303.02 C505.4175,300.41332 504.907505,298.047511 503.8875,295.9225 C502.867495,293.797489 501.408343,291.984174 499.51,290.4825 C497.611657,288.980826 495.770009,287.734172 493.985,286.7425 C492.199991,285.750828 490.089179,284.773338 487.6525,283.81 C484.139149,282.393326 481.589175,280.948341 480.0025,279.475 C478.415825,278.001659 477.6225,276.273343 477.6225,274.29 C477.6225,272.816659 478.302493,271.456673 479.6625,270.21 C481.022507,268.963327 482.835822,268.34 485.1025,268.34 C487.992514,268.34 491.930808,269.898318 496.9175,273.015 C497.994172,273.695003 498.985829,273.355007 499.8925,271.995 L503.1225,267.15 C503.405835,266.753331 503.490834,266.243336 503.3775,265.62 C503.264166,264.996664 503.009169,264.571668 502.6125,264.345 C497.569141,260.548314 491.902531,258.65 485.6125,258.65 C479.379135,258.65 474.63335,260.293317 471.375,263.58 C468.11665,266.866683 466.4875,270.663312 466.4875,274.97 C466.4875,279.503356 467.960819,283.214986 470.9075,286.105 C473.854181,288.995014 477.707476,291.403324 482.4675,293.33 C486.150852,294.803341 488.870825,296.347492 490.6275,297.9625 C492.384175,299.577508 493.2625,301.433323 493.2625,303.53 C493.2625,305.343342 492.525841,306.887494 491.0525,308.1625 C489.579159,309.437506 487.737511,310.075 485.5275,310.075 C484.847497,310.075 484.13917,310.004167 483.4025,309.8625 C482.66583,309.720833 481.957503,309.536668 481.2775,309.31 C480.597497,309.083332 479.88917,308.814168 479.1525,308.5025 C478.41583,308.190832 477.764169,307.879168 477.1975,307.5675 C476.630831,307.255832 476.064169,306.930002 475.4975,306.59 C474.930831,306.249998 474.463335,305.966668 474.095,305.74 C473.726665,305.513332 473.400835,305.286668 473.1175,305.06 L472.6925,304.805 C472.352498,304.464998 471.870836,304.3375 471.2475,304.4225 C470.624164,304.5075 470.142502,304.83333 469.8025,305.4 L466.7425,310.67 C466.232497,311.576671 466.374163,312.426663 467.1675,313.22 Z M511.9625,289.335 C511.9625,297.835042 514.951637,305.045804 520.93,310.9675 C526.908363,316.889196 534.147457,319.85 542.6475,319.85 C550.750874,319.85 557.635805,317.101694 563.3025,311.605 C563.642502,311.264998 563.826667,310.882502 563.855,310.4575 C563.883333,310.032498 563.727502,309.650002 563.3875,309.31 L558.1175,303.87 C557.437497,303.189997 556.72917,303.189997 555.9925,303.87 C552.025813,307.100016 547.690857,308.715 542.9875,308.715 C537.60414,308.715 533.085018,306.788353 529.43,302.935 C525.774982,299.081647 523.9475,294.46336 523.9475,289.08 C523.9475,283.639973 525.760815,278.979186 529.3875,275.0975 C533.014185,271.215814 537.51914,269.275 542.9025,269.275 C547.832525,269.275 552.195814,270.94665 555.9925,274.29 C556.72917,275.02667 557.437497,275.02667 558.1175,274.29 L563.3025,268.935 C564.095837,268.141663 564.067504,267.348337 563.2175,266.555 C557.324137,261.284974 550.467539,258.65 542.6475,258.65 C534.147457,258.65 526.908363,261.639137 520.93,267.6175 C514.951637,273.595863 511.9625,280.834957 511.9625,289.335 Z M574.4375,317.385 C574.4375,317.781669 574.593332,318.149998 574.905,318.49 C575.216668,318.830002 575.599164,319 576.0525,319 L583.9575,319 C584.354169,319 584.722498,318.830002 585.0625,318.49 C585.402502,318.149998 585.5725,317.781669 585.5725,317.385 L585.5725,261.115 C585.5725,260.718331 585.402502,260.350002 585.0625,260.01 C584.722498,259.669998 584.354169,259.5 583.9575,259.5 L576.0525,259.5 C575.599164,259.5 575.216668,259.669998 574.905,260.01 C574.593332,260.350002 574.4375,260.718331 574.4375,261.115 L574.4375,317.385 Z M601.0425,317.385 C601.0425,317.838336 601.198332,318.220832 601.51,318.5325 C601.821668,318.844168 602.204164,319 602.6575,319 L610.4775,319 C610.930836,319 611.313332,318.830002 611.625,318.49 C611.936668,318.149998 612.0925,317.781669 612.0925,317.385 L612.0925,297.41 L622.7175,297.41 C627.930859,297.41 632.393315,295.540019 636.105,291.8 C639.816685,288.059981 641.6725,283.555026 641.6725,278.285 C641.6725,273.128308 639.802519,268.708352 636.0625,265.025 C632.322481,261.341648 627.845859,259.5 622.6325,259.5 L602.6575,259.5 C602.204164,259.5 601.821668,259.655832 601.51,259.9675 C601.198332,260.279168 601.0425,260.661664 601.0425,261.115 L601.0425,317.385 Z M612.0925,287.04 L612.0925,269.955 L621.9525,269.955 C624.332512,269.955 626.386658,270.748325 628.115,272.335 C629.843342,273.921675 630.7075,275.876655 630.7075,278.2 C630.7075,280.693346 629.843342,282.789992 628.115,284.49 C626.386658,286.190009 624.332512,287.04 621.9525,287.04 L612.0925,287.04 Z M651.3625,317.385 C651.3625,317.838336 651.518332,318.220832 651.83,318.5325 C652.141668,318.844168 652.524164,319 652.9775,319 L684.0875,319 C684.540836,319 684.923332,318.844168 685.235,318.5325 C685.546668,318.220832 685.7025,317.838336 685.7025,317.385 L685.7025,310.415 C685.7025,309.961664 685.546668,309.579168 685.235,309.2675 C684.923332,308.955832 684.540836,308.8 684.0875,308.8 L662.4125,308.8 L662.4125,261.115 C662.4125,260.718331 662.256668,260.350002 661.945,260.01 C661.633332,259.669998 661.250836,259.5 660.7975,259.5 L652.9775,259.5 C652.524164,259.5 652.141668,259.655832 651.83,259.9675 C651.518332,260.279168 651.3625,260.661664 651.3625,261.115 L651.3625,317.385 Z M694.2875,317.385 C694.2875,317.781669 694.443332,318.149998 694.755,318.49 C695.066668,318.830002 695.449164,319 695.9025,319 L703.8075,319 C704.204169,319 704.572498,318.830002 704.9125,318.49 C705.252502,318.149998 705.4225,317.781669 705.4225,317.385 L705.4225,261.115 C705.4225,260.718331 705.252502,260.350002 704.9125,260.01 C704.572498,259.669998 704.204169,259.5 703.8075,259.5 L695.9025,259.5 C695.449164,259.5 695.066668,259.669998 694.755,260.01 C694.443332,260.350002 694.2875,260.718331 694.2875,261.115 L694.2875,317.385 Z M720.8925,317.385 C720.8925,317.781669 721.048332,318.149998 721.36,318.49 C721.671668,318.830002 722.054164,319 722.5075,319 L730.2425,319 C730.695836,319 731.078332,318.844168 731.39,318.5325 C731.701668,318.220832 731.8575,317.838336 731.8575,317.385 L731.8575,280.835 L731.9425,280.835 L767.4725,319.85 L769.5125,319.85 C769.965836,319.85 770.348332,319.694168 770.66,319.3825 C770.971668,319.070832 771.1275,318.716669 771.1275,318.32 L771.1275,261.115 C771.1275,260.718331 770.957502,260.350002 770.6175,260.01 C770.277498,259.669998 769.909169,259.5 769.5125,259.5 L761.6925,259.5 C761.239164,259.5 760.856668,259.655832 760.545,259.9675 C760.233332,260.279168 760.0775,260.661664 760.0775,261.115 L760.0775,296.22 L759.9925,296.22 L724.6325,258.65 L722.5075,258.65 C722.054164,258.65 721.671668,258.805832 721.36,259.1175 C721.048332,259.429168 720.8925,259.783331 720.8925,260.18 L720.8925,317.385 Z M786.5975,317.385 C786.5975,317.838336 786.753332,318.220832 787.065,318.5325 C787.376668,318.844168 787.759164,319 788.2125,319 L822.8075,319 C823.260836,319 823.643332,318.844168 823.955,318.5325 C824.266668,318.220832 824.4225,317.838336 824.4225,317.385 L824.4225,310.415 C824.4225,309.961664 824.266668,309.579168 823.955,309.2675 C823.643332,308.955832 823.260836,308.8 822.8075,308.8 L797.6475,308.8 L797.6475,293.925 L818.6425,293.925 C819.095836,293.925 819.478332,293.769168 819.79,293.4575 C820.101668,293.145832 820.2575,292.763336 820.2575,292.31 L820.2575,285.255 C820.2575,284.858331 820.101668,284.490002 819.79,284.15 C819.478332,283.809998 819.095836,283.64 818.6425,283.64 L797.6475,283.64 L797.6475,269.7 L822.8075,269.7 C823.260836,269.7 823.643332,269.544168 823.955,269.2325 C824.266668,268.920832 824.4225,268.538336 824.4225,268.085 L824.4225,261.115 C824.4225,260.661664 824.266668,260.279168 823.955,259.9675 C823.643332,259.655832 823.260836,259.5 822.8075,259.5 L788.2125,259.5 C787.759164,259.5 787.376668,259.655832 787.065,259.9675 C786.753332,260.279168 786.5975,260.661664 786.5975,261.115 L786.5975,317.385 Z M836.5975,317.385 C836.5975,317.838336 836.753332,318.220832 837.065,318.5325 C837.376668,318.844168 837.759164,319 838.2125,319 L872.8075,319 C873.260836,319 873.643332,318.844168 873.955,318.5325 C874.266668,318.220832 874.4225,317.838336 874.4225,317.385 L874.4225,310.415 C874.4225,309.961664 874.266668,309.579168 873.955,309.2675 C873.643332,308.955832 873.260836,308.8 872.8075,308.8 L847.6475,308.8 L847.6475,293.925 L868.6425,293.925 C869.095836,293.925 869.478332,293.769168 869.79,293.4575 C870.101668,293.145832 870.2575,292.763336 870.2575,292.31 L870.2575,285.255 C870.2575,284.858331 870.101668,284.490002 869.79,284.15 C869.478332,283.809998 869.095836,283.64 868.6425,283.64 L847.6475,283.64 L847.6475,269.7 L872.8075,269.7 C873.260836,269.7 873.643332,269.544168 873.955,269.2325 C874.266668,268.920832 874.4225,268.538336 874.4225,268.085 L874.4225,261.115 C874.4225,260.661664 874.266668,260.279168 873.955,259.9675 C873.643332,259.655832 873.260836,259.5 872.8075,259.5 L838.2125,259.5 C837.759164,259.5 837.376668,259.655832 837.065,259.9675 C836.753332,260.279168 836.5975,260.661664 836.5975,261.115 L836.5975,317.385 Z M800.1125,253.72 L814.9875,247.175 C815.950838,246.721664 816.120836,245.956672 815.4975,244.88 L813.1175,240.46 C812.664164,239.666663 811.927505,239.581664 810.9075,240.205 L796.9675,248.535 C796.287497,248.931669 796.117498,249.469997 796.4575,250.15 L797.9875,253.125 C798.384169,253.975004 799.092495,254.173336 800.1125,253.72 Z M886.5175,313.22 C887.424171,314.070004 888.500827,314.905829 889.7475,315.7275 C890.994173,316.549171 893.076652,317.441662 895.995,318.405 C898.913348,319.368338 901.987484,319.85 905.2175,319.85 C910.997529,319.85 915.700815,318.192517 919.3275,314.8775 C922.954185,311.562483 924.7675,307.610023 924.7675,303.02 C924.7675,300.41332 924.257505,298.047511 923.2375,295.9225 C922.217495,293.797489 920.758343,291.984174 918.86,290.4825 C916.961657,288.980826 915.120009,287.734172 913.335,286.7425 C911.549991,285.750828 909.439179,284.773338 907.0025,283.81 C903.489149,282.393326 900.939175,280.948341 899.3525,279.475 C897.765825,278.001659 896.9725,276.273343 896.9725,274.29 C896.9725,272.816659 897.652493,271.456673 899.0125,270.21 C900.372507,268.963327 902.185822,268.34 904.4525,268.34 C907.342514,268.34 911.280808,269.898318 916.2675,273.015 C917.344172,273.695003 918.335829,273.355007 919.2425,271.995 L922.4725,267.15 C922.755835,266.753331 922.840834,266.243336 922.7275,265.62 C922.614166,264.996664 922.359169,264.571668 921.9625,264.345 C916.919141,260.548314 911.252531,258.65 904.9625,258.65 C898.729135,258.65 893.98335,260.293317 890.725,263.58 C887.46665,266.866683 885.8375,270.663312 885.8375,274.97 C885.8375,279.503356 887.310819,283.214986 890.2575,286.105 C893.204181,288.995014 897.057476,291.403324 901.8175,293.33 C905.500852,294.803341 908.220825,296.347492 909.9775,297.9625 C911.734175,299.577508 912.6125,301.433323 912.6125,303.53 C912.6125,305.343342 911.875841,306.887494 910.4025,308.1625 C908.929159,309.437506 907.087511,310.075 904.8775,310.075 C904.197497,310.075 903.48917,310.004167 902.7525,309.8625 C902.01583,309.720833 901.307503,309.536668 900.6275,309.31 C899.947497,309.083332 899.23917,308.814168 898.5025,308.5025 C897.76583,308.190832 897.114169,307.879168 896.5475,307.5675 C895.98083,307.255832 895.414169,306.930002 894.8475,306.59 C894.28083,306.249998 893.813335,305.966668 893.445,305.74 C893.076665,305.513332 892.750835,305.286668 892.4675,305.06 L892.0425,304.805 C891.702498,304.464998 891.220836,304.3375 890.5975,304.4225 C889.974164,304.5075 889.492502,304.83333 889.1525,305.4 L886.0925,310.67 C885.582497,311.576671 885.724163,312.426663 886.5175,313.22 Z" id="Combined-Shape"></path>
            </g>
        </g>
    </g>
</svg>