<?xml version="1.0" encoding="UTF-8"?>
<svg width="1064px" height="604px" viewBox="0 0 1064 604" version="1.1" xmlns="http://www.w3.org/2000/svg" xmlns:xlink="http://www.w3.org/1999/xlink">
    <!-- Generator: Sketch 46.1 (44463) - http://www.bohemiancoding.com/sketch -->
    <title>Combined Shape</title>
    <desc>Created with Sketch.</desc>
    <defs></defs>
    <g id="Page-1" stroke="none" stroke-width="1" fill="none" fill-rule="evenodd">
        <g id="Artboard-2" fill="#FFFFFF">
            <path d="M0,0 L1064,0 L1064,604 L0,604 L0,0 Z M163.8225,317.385 C163.8225,317.838336 163.978332,318.220832 164.29,318.5325 C164.601668,318.844168 164.984164,319 165.4375,319 L196.5475,319 C197.000836,319 197.383332,318.844168 197.695,318.5325 C198.006668,318.220832 198.1625,317.838336 198.1625,317.385 L198.1625,310.415 C198.1625,309.961664 198.006668,309.579168 197.695,309.2675 C197.383332,308.955832 197.000836,308.8 196.5475,308.8 L174.8725,308.8 L174.8725,261.115 C174.8725,260.718331 174.716668,260.350002 174.405,260.01 C174.093332,259.669998 173.710836,259.5 173.2575,259.5 L165.4375,259.5 C164.984164,259.5 164.601668,259.655832 164.29,259.9675 C163.978332,260.279168 163.8225,260.661664 163.8225,261.115 L163.8225,317.385 Z M206.7475,317.385 C206.7475,317.838336 206.903332,318.220832 207.215,318.5325 C207.526668,318.844168 207.909164,319 208.3625,319 L242.9575,319 C243.410836,319 243.793332,318.844168 244.105,318.5325 C244.416668,318.220832 244.5725,317.838336 244.5725,317.385 L244.5725,310.415 C244.5725,309.961664 244.416668,309.579168 244.105,309.2675 C243.793332,308.955832 243.410836,308.8 242.9575,308.8 L217.7975,308.8 L217.7975,293.925 L238.7925,293.925 C239.245836,293.925 239.628332,293.769168 239.94,293.4575 C240.251668,293.145832 240.4075,292.763336 240.4075,292.31 L240.4075,285.255 C240.4075,284.858331 240.251668,284.490002 239.94,284.15 C239.628332,283.809998 239.245836,283.64 238.7925,283.64 L217.7975,283.64 L217.7975,269.7 L242.9575,269.7 C243.410836,269.7 243.793332,269.544168 244.105,269.2325 C244.416668,268.920832 244.5725,268.538336 244.5725,268.085 L244.5725,261.115 C244.5725,260.661664 244.416668,260.279168 244.105,259.9675 C243.793332,259.655832 243.410836,259.5 242.9575,259.5 L208.3625,259.5 C207.909164,259.5 207.526668,259.655832 207.215,259.9675 C206.903332,260.279168 206.7475,260.661664 206.7475,261.115 L206.7475,317.385 Z M253.6675,313.22 C254.574171,314.070004 255.650827,314.905829 256.8975,315.7275 C258.144173,316.549171 260.226652,317.441662 263.145,318.405 C266.063348,319.368338 269.137484,319.85 272.3675,319.85 C278.147529,319.85 282.850815,318.192517 286.4775,314.8775 C290.104185,311.562483 291.9175,307.610023 291.9175,303.02 C291.9175,300.41332 291.407505,298.047511 290.3875,295.9225 C289.367495,293.797489 287.908343,291.984174 286.01,290.4825 C284.111657,288.980826 282.270009,287.734172 280.485,286.7425 C278.699991,285.750828 276.589179,284.773338 274.1525,283.81 C270.639149,282.393326 268.089175,280.948341 266.5025,279.475 C264.915825,278.001659 264.1225,276.273343 264.1225,274.29 C264.1225,272.816659 264.802493,271.456673 266.1625,270.21 C267.522507,268.963327 269.335822,268.34 271.6025,268.34 C274.492514,268.34 278.430808,269.898318 283.4175,273.015 C284.494172,273.695003 285.485829,273.355007 286.3925,271.995 L289.6225,267.15 C289.905835,266.753331 289.990834,266.243336 289.8775,265.62 C289.764166,264.996664 289.509169,264.571668 289.1125,264.345 C284.069141,260.548314 278.402531,258.65 272.1125,258.65 C265.879135,258.65 261.13335,260.293317 257.875,263.58 C254.61665,266.866683 252.9875,270.663312 252.9875,274.97 C252.9875,279.503356 254.460819,283.214986 257.4075,286.105 C260.354181,288.995014 264.207476,291.403324 268.9675,293.33 C272.650852,294.803341 275.370825,296.347492 277.1275,297.9625 C278.884175,299.577508 279.7625,301.433323 279.7625,303.53 C279.7625,305.343342 279.025841,306.887494 277.5525,308.1625 C276.079159,309.437506 274.237511,310.075 272.0275,310.075 C271.347497,310.075 270.63917,310.004167 269.9025,309.8625 C269.16583,309.720833 268.457503,309.536668 267.7775,309.31 C267.097497,309.083332 266.38917,308.814168 265.6525,308.5025 C264.91583,308.190832 264.264169,307.879168 263.6975,307.5675 C263.13083,307.255832 262.564169,306.930002 261.9975,306.59 C261.43083,306.249998 260.963335,305.966668 260.595,305.74 C260.226665,305.513332 259.900835,305.286668 259.6175,305.06 L259.1925,304.805 C258.852498,304.464998 258.370836,304.3375 257.7475,304.4225 C257.124164,304.5075 256.642502,304.83333 256.3025,305.4 L253.2425,310.67 C252.732497,311.576671 252.874163,312.426663 253.6675,313.22 Z M321.5825,317.385 C321.5825,317.781669 321.738332,318.149998 322.05,318.49 C322.361668,318.830002 322.744164,319 323.1975,319 L331.1025,319 C331.499169,319 331.867498,318.830002 332.2075,318.49 C332.547502,318.149998 332.7175,317.781669 332.7175,317.385 L332.7175,261.115 C332.7175,260.718331 332.547502,260.350002 332.2075,260.01 C331.867498,259.669998 331.499169,259.5 331.1025,259.5 L323.1975,259.5 C322.744164,259.5 322.361668,259.669998 322.05,260.01 C321.738332,260.350002 321.5825,260.718331 321.5825,261.115 L321.5825,317.385 Z M348.1875,317.385 C348.1875,317.781669 348.343332,318.149998 348.655,318.49 C348.966668,318.830002 349.349164,319 349.8025,319 L357.5375,319 C357.990836,319 358.373332,318.844168 358.685,318.5325 C358.996668,318.220832 359.1525,317.838336 359.1525,317.385 L359.1525,280.835 L359.2375,280.835 L394.7675,319.85 L396.8075,319.85 C397.260836,319.85 397.643332,319.694168 397.955,319.3825 C398.266668,319.070832 398.4225,318.716669 398.4225,318.32 L398.4225,261.115 C398.4225,260.718331 398.252502,260.350002 397.9125,260.01 C397.572498,259.669998 397.204169,259.5 396.8075,259.5 L388.9875,259.5 C388.534164,259.5 388.151668,259.655832 387.84,259.9675 C387.528332,260.279168 387.3725,260.661664 387.3725,261.115 L387.3725,296.22 L387.2875,296.22 L351.9275,258.65 L349.8025,258.65 C349.349164,258.65 348.966668,258.805832 348.655,259.1175 C348.343332,259.429168 348.1875,259.783331 348.1875,260.18 L348.1875,317.385 Z M413.8925,317.385 C413.8925,317.838336 414.048332,318.220832 414.36,318.5325 C414.671668,318.844168 415.025831,319 415.4225,319 L435.5675,319 C443.784208,319 450.810804,316.081696 456.6475,310.245 C462.484196,304.408304 465.4025,297.381708 465.4025,289.165 C465.4025,281.004959 462.484196,274.020862 456.6475,268.2125 C450.810804,262.404138 443.784208,259.5 435.5675,259.5 L415.4225,259.5 C415.025831,259.5 414.671668,259.655832 414.36,259.9675 C414.048332,260.279168 413.8925,260.661664 413.8925,261.115 L413.8925,317.385 Z M424.8575,308.63 L424.8575,269.785 L434.5475,269.785 C440.044194,269.785 444.605815,271.626648 448.2325,275.31 C451.859185,278.993352 453.6725,283.611639 453.6725,289.165 C453.6725,294.718361 451.859185,299.350815 448.2325,303.0625 C444.605815,306.774185 440.044194,308.63 434.5475,308.63 L424.8575,308.63 Z M476.6225,317.385 C476.6225,317.781669 476.778332,318.149998 477.09,318.49 C477.401668,318.830002 477.784164,319 478.2375,319 L486.1425,319 C486.539169,319 486.907498,318.830002 487.2475,318.49 C487.587502,318.149998 487.7575,317.781669 487.7575,317.385 L487.7575,261.115 C487.7575,260.718331 487.587502,260.350002 487.2475,260.01 C486.907498,259.669998 486.539169,259.5 486.1425,259.5 L478.2375,259.5 C477.784164,259.5 477.401668,259.669998 477.09,260.01 C476.778332,260.350002 476.6225,260.718331 476.6225,261.115 L476.6225,317.385 Z M500.1675,313.22 C501.074171,314.070004 502.150827,314.905829 503.3975,315.7275 C504.644173,316.549171 506.726652,317.441662 509.645,318.405 C512.563348,319.368338 515.637484,319.85 518.8675,319.85 C524.647529,319.85 529.350815,318.192517 532.9775,314.8775 C536.604185,311.562483 538.4175,307.610023 538.4175,303.02 C538.4175,300.41332 537.907505,298.047511 536.8875,295.9225 C535.867495,293.797489 534.408343,291.984174 532.51,290.4825 C530.611657,288.980826 528.770009,287.734172 526.985,286.7425 C525.199991,285.750828 523.089179,284.773338 520.6525,283.81 C517.139149,282.393326 514.589175,280.948341 513.0025,279.475 C511.415825,278.001659 510.6225,276.273343 510.6225,274.29 C510.6225,272.816659 511.302493,271.456673 512.6625,270.21 C514.022507,268.963327 515.835822,268.34 518.1025,268.34 C520.992514,268.34 524.930808,269.898318 529.9175,273.015 C530.994172,273.695003 531.985829,273.355007 532.8925,271.995 L536.1225,267.15 C536.405835,266.753331 536.490834,266.243336 536.3775,265.62 C536.264166,264.996664 536.009169,264.571668 535.6125,264.345 C530.569141,260.548314 524.902531,258.65 518.6125,258.65 C512.379135,258.65 507.63335,260.293317 504.375,263.58 C501.11665,266.866683 499.4875,270.663312 499.4875,274.97 C499.4875,279.503356 500.960819,283.214986 503.9075,286.105 C506.854181,288.995014 510.707476,291.403324 515.4675,293.33 C519.150852,294.803341 521.870825,296.347492 523.6275,297.9625 C525.384175,299.577508 526.2625,301.433323 526.2625,303.53 C526.2625,305.343342 525.525841,306.887494 524.0525,308.1625 C522.579159,309.437506 520.737511,310.075 518.5275,310.075 C517.847497,310.075 517.13917,310.004167 516.4025,309.8625 C515.66583,309.720833 514.957503,309.536668 514.2775,309.31 C513.597497,309.083332 512.88917,308.814168 512.1525,308.5025 C511.41583,308.190832 510.764169,307.879168 510.1975,307.5675 C509.630831,307.255832 509.064169,306.930002 508.4975,306.59 C507.930831,306.249998 507.463335,305.966668 507.095,305.74 C506.726665,305.513332 506.400835,305.286668 506.1175,305.06 L505.6925,304.805 C505.352498,304.464998 504.870836,304.3375 504.2475,304.4225 C503.624164,304.5075 503.142502,304.83333 502.8025,305.4 L499.7425,310.67 C499.232497,311.576671 499.374163,312.426663 500.1675,313.22 Z M544.9625,289.335 C544.9625,297.835042 547.951637,305.045804 553.93,310.9675 C559.908363,316.889196 567.147457,319.85 575.6475,319.85 C583.750874,319.85 590.635805,317.101694 596.3025,311.605 C596.642502,311.264998 596.826667,310.882502 596.855,310.4575 C596.883333,310.032498 596.727502,309.650002 596.3875,309.31 L591.1175,303.87 C590.437497,303.189997 589.72917,303.189997 588.9925,303.87 C585.025813,307.100016 580.690857,308.715 575.9875,308.715 C570.60414,308.715 566.085018,306.788353 562.43,302.935 C558.774982,299.081647 556.9475,294.46336 556.9475,289.08 C556.9475,283.639973 558.760815,278.979186 562.3875,275.0975 C566.014185,271.215814 570.51914,269.275 575.9025,269.275 C580.832525,269.275 585.195814,270.94665 588.9925,274.29 C589.72917,275.02667 590.437497,275.02667 591.1175,274.29 L596.3025,268.935 C597.095837,268.141663 597.067504,267.348337 596.2175,266.555 C590.324137,261.284974 583.467539,258.65 575.6475,258.65 C567.147457,258.65 559.908363,261.639137 553.93,267.6175 C547.951637,273.595863 544.9625,280.834957 544.9625,289.335 Z M607.4375,317.385 C607.4375,317.781669 607.593332,318.149998 607.905,318.49 C608.216668,318.830002 608.599164,319 609.0525,319 L616.9575,319 C617.354169,319 617.722498,318.830002 618.0625,318.49 C618.402502,318.149998 618.5725,317.781669 618.5725,317.385 L618.5725,261.115 C618.5725,260.718331 618.402502,260.350002 618.0625,260.01 C617.722498,259.669998 617.354169,259.5 616.9575,259.5 L609.0525,259.5 C608.599164,259.5 608.216668,259.669998 607.905,260.01 C607.593332,260.350002 607.4375,260.718331 607.4375,261.115 L607.4375,317.385 Z M634.0425,317.385 C634.0425,317.838336 634.198332,318.220832 634.51,318.5325 C634.821668,318.844168 635.204164,319 635.6575,319 L643.4775,319 C643.930836,319 644.313332,318.830002 644.625,318.49 C644.936668,318.149998 645.0925,317.781669 645.0925,317.385 L645.0925,297.41 L655.7175,297.41 C660.930859,297.41 665.393315,295.540019 669.105,291.8 C672.816685,288.059981 674.6725,283.555026 674.6725,278.285 C674.6725,273.128308 672.802519,268.708352 669.0625,265.025 C665.322481,261.341648 660.845859,259.5 655.6325,259.5 L635.6575,259.5 C635.204164,259.5 634.821668,259.655832 634.51,259.9675 C634.198332,260.279168 634.0425,260.661664 634.0425,261.115 L634.0425,317.385 Z M645.0925,287.04 L645.0925,269.955 L654.9525,269.955 C657.332512,269.955 659.386658,270.748325 661.115,272.335 C662.843342,273.921675 663.7075,275.876655 663.7075,278.2 C663.7075,280.693346 662.843342,282.789992 661.115,284.49 C659.386658,286.190009 657.332512,287.04 654.9525,287.04 L645.0925,287.04 Z M684.3625,317.385 C684.3625,317.838336 684.518332,318.220832 684.83,318.5325 C685.141668,318.844168 685.524164,319 685.9775,319 L717.0875,319 C717.540836,319 717.923332,318.844168 718.235,318.5325 C718.546668,318.220832 718.7025,317.838336 718.7025,317.385 L718.7025,310.415 C718.7025,309.961664 718.546668,309.579168 718.235,309.2675 C717.923332,308.955832 717.540836,308.8 717.0875,308.8 L695.4125,308.8 L695.4125,261.115 C695.4125,260.718331 695.256668,260.350002 694.945,260.01 C694.633332,259.669998 694.250836,259.5 693.7975,259.5 L685.9775,259.5 C685.524164,259.5 685.141668,259.655832 684.83,259.9675 C684.518332,260.279168 684.3625,260.661664 684.3625,261.115 L684.3625,317.385 Z M727.2875,317.385 C727.2875,317.781669 727.443332,318.149998 727.755,318.49 C728.066668,318.830002 728.449164,319 728.9025,319 L736.8075,319 C737.204169,319 737.572498,318.830002 737.9125,318.49 C738.252502,318.149998 738.4225,317.781669 738.4225,317.385 L738.4225,261.115 C738.4225,260.718331 738.252502,260.350002 737.9125,260.01 C737.572498,259.669998 737.204169,259.5 736.8075,259.5 L728.9025,259.5 C728.449164,259.5 728.066668,259.669998 727.755,260.01 C727.443332,260.350002 727.2875,260.718331 727.2875,261.115 L727.2875,317.385 Z M753.8925,317.385 C753.8925,317.781669 754.048332,318.149998 754.36,318.49 C754.671668,318.830002 755.054164,319 755.5075,319 L763.2425,319 C763.695836,319 764.078332,318.844168 764.39,318.5325 C764.701668,318.220832 764.8575,317.838336 764.8575,317.385 L764.8575,280.835 L764.9425,280.835 L800.4725,319.85 L802.5125,319.85 C802.965836,319.85 803.348332,319.694168 803.66,319.3825 C803.971668,319.070832 804.1275,318.716669 804.1275,318.32 L804.1275,261.115 C804.1275,260.718331 803.957502,260.350002 803.6175,260.01 C803.277498,259.669998 802.909169,259.5 802.5125,259.5 L794.6925,259.5 C794.239164,259.5 793.856668,259.655832 793.545,259.9675 C793.233332,260.279168 793.0775,260.661664 793.0775,261.115 L793.0775,296.22 L792.9925,296.22 L757.6325,258.65 L755.5075,258.65 C755.054164,258.65 754.671668,258.805832 754.36,259.1175 C754.048332,259.429168 753.8925,259.783331 753.8925,260.18 L753.8925,317.385 Z M819.5975,317.385 C819.5975,317.838336 819.753332,318.220832 820.065,318.5325 C820.376668,318.844168 820.759164,319 821.2125,319 L855.8075,319 C856.260836,319 856.643332,318.844168 856.955,318.5325 C857.266668,318.220832 857.4225,317.838336 857.4225,317.385 L857.4225,310.415 C857.4225,309.961664 857.266668,309.579168 856.955,309.2675 C856.643332,308.955832 856.260836,308.8 855.8075,308.8 L830.6475,308.8 L830.6475,293.925 L851.6425,293.925 C852.095836,293.925 852.478332,293.769168 852.79,293.4575 C853.101668,293.145832 853.2575,292.763336 853.2575,292.31 L853.2575,285.255 C853.2575,284.858331 853.101668,284.490002 852.79,284.15 C852.478332,283.809998 852.095836,283.64 851.6425,283.64 L830.6475,283.64 L830.6475,269.7 L855.8075,269.7 C856.260836,269.7 856.643332,269.544168 856.955,269.2325 C857.266668,268.920832 857.4225,268.538336 857.4225,268.085 L857.4225,261.115 C857.4225,260.661664 857.266668,260.279168 856.955,259.9675 C856.643332,259.655832 856.260836,259.5 855.8075,259.5 L821.2125,259.5 C820.759164,259.5 820.376668,259.655832 820.065,259.9675 C819.753332,260.279168 819.5975,260.661664 819.5975,261.115 L819.5975,317.385 Z M833.1125,253.72 L847.9875,247.175 C848.950838,246.721664 849.120836,245.956672 848.4975,244.88 L846.1175,240.46 C845.664164,239.666663 844.927505,239.581664 843.9075,240.205 L829.9675,248.535 C829.287497,248.931669 829.117498,249.469997 829.4575,250.15 L830.9875,253.125 C831.384169,253.975004 832.092495,254.173336 833.1125,253.72 Z M866.5175,313.22 C867.424171,314.070004 868.500827,314.905829 869.7475,315.7275 C870.994173,316.549171 873.076652,317.441662 875.995,318.405 C878.913348,319.368338 881.987484,319.85 885.2175,319.85 C890.997529,319.85 895.700815,318.192517 899.3275,314.8775 C902.954185,311.562483 904.7675,307.610023 904.7675,303.02 C904.7675,300.41332 904.257505,298.047511 903.2375,295.9225 C902.217495,293.797489 900.758343,291.984174 898.86,290.4825 C896.961657,288.980826 895.120009,287.734172 893.335,286.7425 C891.549991,285.750828 889.439179,284.773338 887.0025,283.81 C883.489149,282.393326 880.939175,280.948341 879.3525,279.475 C877.765825,278.001659 876.9725,276.273343 876.9725,274.29 C876.9725,272.816659 877.652493,271.456673 879.0125,270.21 C880.372507,268.963327 882.185822,268.34 884.4525,268.34 C887.342514,268.34 891.280808,269.898318 896.2675,273.015 C897.344172,273.695003 898.335829,273.355007 899.2425,271.995 L902.4725,267.15 C902.755835,266.753331 902.840834,266.243336 902.7275,265.62 C902.614166,264.996664 902.359169,264.571668 901.9625,264.345 C896.919141,260.548314 891.252531,258.65 884.9625,258.65 C878.729135,258.65 873.98335,260.293317 870.725,263.58 C867.46665,266.866683 865.8375,270.663312 865.8375,274.97 C865.8375,279.503356 867.310819,283.214986 870.2575,286.105 C873.204181,288.995014 877.057476,291.403324 881.8175,293.33 C885.500852,294.803341 888.220825,296.347492 889.9775,297.9625 C891.734175,299.577508 892.6125,301.433323 892.6125,303.53 C892.6125,305.343342 891.875841,306.887494 890.4025,308.1625 C888.929159,309.437506 887.087511,310.075 884.8775,310.075 C884.197497,310.075 883.48917,310.004167 882.7525,309.8625 C882.01583,309.720833 881.307503,309.536668 880.6275,309.31 C879.947497,309.083332 879.23917,308.814168 878.5025,308.5025 C877.76583,308.190832 877.114169,307.879168 876.5475,307.5675 C875.98083,307.255832 875.414169,306.930002 874.8475,306.59 C874.28083,306.249998 873.813335,305.966668 873.445,305.74 C873.076665,305.513332 872.750835,305.286668 872.4675,305.06 L872.0425,304.805 C871.702498,304.464998 871.220836,304.3375 870.5975,304.4225 C869.974164,304.5075 869.492502,304.83333 869.1525,305.4 L866.0925,310.67 C865.582497,311.576671 865.724163,312.426663 866.5175,313.22 Z" id="Combined-Shape"></path>
        </g>
    </g>
</svg>