<svg id="Calque_2" data-name="Calque 2" xmlns="http://www.w3.org/2000/svg" xmlns:xlink="http://www.w3.org/1999/xlink" viewBox="0 0 1366 768"><defs><style>.cls-1{fill:url(#Dégradé_sans_nom_16);}.cls-2{fill:url(#Dégradé_sans_nom_16-2);}.cls-3{fill:url(#Dégradé_sans_nom_16-3);}.cls-4{fill:url(#Dégradé_sans_nom_16-4);}.cls-5{fill:url(#Dégradé_sans_nom_16-5);}.cls-6{fill:url(#Dégradé_sans_nom_16-6);}.cls-7{fill:url(#Dégradé_sans_nom_16-7);}.cls-8{fill:url(#Dégradé_sans_nom_16-8);}.cls-9{fill:url(#Dégradé_sans_nom_16-9);}.cls-10{fill:url(#Dégradé_sans_nom_16-10);}.cls-11{fill:url(#Dégradé_sans_nom_16-11);}.cls-12{fill:url(#Dégradé_sans_nom_16-12);}.cls-13{fill:url(#Dégradé_sans_nom_16-13);}.cls-14{fill:url(#Dégradé_sans_nom_16-14);}.cls-15{fill:url(#Dégradé_sans_nom_16-15);}.cls-16{fill:url(#Dégradé_sans_nom_16-16);}.cls-17{fill:url(#Dégradé_sans_nom_16-17);}.cls-18{fill:url(#Dégradé_sans_nom_16-18);}.cls-19{fill:url(#Dégradé_sans_nom_16-19);}.cls-20{fill:url(#Dégradé_sans_nom_16-20);}.cls-21{fill:url(#Dégradé_sans_nom_16-21);}.cls-22{fill:url(#Dégradé_sans_nom_16-22);}.cls-23{fill:url(#Dégradé_sans_nom_16-23);}.cls-24{fill:url(#Dégradé_sans_nom_16-24);}.cls-25{fill:url(#Dégradé_sans_nom_16-25);}.cls-26{fill:url(#Dégradé_sans_nom_16-26);}.cls-27{fill:url(#Dégradé_sans_nom_16-27);}.cls-28{fill:url(#Dégradé_sans_nom_16-28);}.cls-29{fill:url(#Dégradé_sans_nom_16-29);}.cls-30{fill:url(#Dégradé_sans_nom_16-30);}.cls-31{fill:url(#Dégradé_sans_nom_16-31);}.cls-32{fill:url(#Dégradé_sans_nom_16-32);}.cls-33{fill:url(#Dégradé_sans_nom_16-33);}.cls-34{fill:url(#Dégradé_sans_nom_16-34);}.cls-35{fill:url(#Dégradé_sans_nom_16-35);}.cls-36{fill:url(#Dégradé_sans_nom_16-36);}.cls-37{fill:url(#Dégradé_sans_nom_16-37);}.cls-38{fill:url(#Dégradé_sans_nom_16-38);}.cls-39{fill:url(#Dégradé_sans_nom_16-39);}.cls-40{fill:url(#Dégradé_sans_nom_16-40);}.cls-41{fill:url(#Dégradé_sans_nom_16-41);}.cls-42{fill:url(#Dégradé_sans_nom_16-42);}.cls-43{fill:url(#Dégradé_sans_nom_16-43);}.cls-44{fill:url(#Dégradé_sans_nom_16-44);}.cls-45{fill:url(#Dégradé_sans_nom_16-45);}.cls-46{fill:url(#Dégradé_sans_nom_16-46);}.cls-47{fill:url(#Dégradé_sans_nom_16-47);}.cls-48{fill:url(#Dégradé_sans_nom_16-48);}.cls-49{fill:url(#Dégradé_sans_nom_16-49);}.cls-50{fill:url(#Dégradé_sans_nom_16-50);}.cls-51{fill:url(#Dégradé_sans_nom_16-51);}.cls-52{fill:url(#Dégradé_sans_nom_16-52);}.cls-53{fill:url(#Dégradé_sans_nom_16-53);}.cls-54{fill:url(#Dégradé_sans_nom_16-54);}.cls-55{fill:url(#Dégradé_sans_nom_16-55);}.cls-56{fill:url(#Dégradé_sans_nom_16-56);}.cls-57{fill:url(#Dégradé_sans_nom_16-57);}.cls-58{fill:url(#Dégradé_sans_nom_16-58);}.cls-59{fill:url(#Dégradé_sans_nom_16-59);}.cls-60{fill:url(#Dégradé_sans_nom_16-60);}.cls-61{fill:url(#Dégradé_sans_nom_16-61);}.cls-62{fill:url(#Dégradé_sans_nom_16-62);}.cls-63{fill:url(#Dégradé_sans_nom_16-63);}.cls-64{fill:url(#Dégradé_sans_nom_16-64);}.cls-65{fill:url(#Dégradé_sans_nom_16-65);}.cls-66{fill:url(#Dégradé_sans_nom_16-66);}.cls-67{fill:url(#Dégradé_sans_nom_16-67);}.cls-68{fill:url(#Dégradé_sans_nom_16-68);}.cls-69{fill:url(#Dégradé_sans_nom_16-69);}.cls-70{fill:url(#Dégradé_sans_nom_16-70);}.cls-71{fill:url(#Dégradé_sans_nom_16-71);}.cls-72{fill:url(#Dégradé_sans_nom_16-72);}.cls-73{fill:url(#Dégradé_sans_nom_16-73);}</style><linearGradient id="Dégradé_sans_nom_16" x1="-107.23" y1="253.14" x2="1181.86" y2="975.86" gradientUnits="userSpaceOnUse"><stop offset="0" stop-color="#dd816c"/><stop offset="0" stop-color="#dc816d"/><stop offset="0.61" stop-color="#e78263"/></linearGradient><linearGradient id="Dégradé_sans_nom_16-2" x1="-6.86" y1="74.11" x2="1282.23" y2="796.83" xlink:href="#Dégradé_sans_nom_16"/><linearGradient id="Dégradé_sans_nom_16-3" x1="35.34" y1="-1.16" x2="1324.43" y2="721.56" xlink:href="#Dégradé_sans_nom_16"/><linearGradient id="Dégradé_sans_nom_16-4" x1="83.04" y1="-86.24" x2="1372.13" y2="636.48" xlink:href="#Dégradé_sans_nom_16"/><linearGradient id="Dégradé_sans_nom_16-5" x1="-40.24" y1="133.66" x2="1248.84" y2="856.38" xlink:href="#Dégradé_sans_nom_16"/><linearGradient id="Dégradé_sans_nom_16-6" x1="17.75" y1="30.21" x2="1306.84" y2="752.94" xlink:href="#Dégradé_sans_nom_16"/><linearGradient id="Dégradé_sans_nom_16-7" x1="100.56" y1="-117.49" x2="1389.65" y2="605.23" xlink:href="#Dégradé_sans_nom_16"/><linearGradient id="Dégradé_sans_nom_16-8" x1="-45.52" y1="143.08" x2="1243.56" y2="865.8" xlink:href="#Dégradé_sans_nom_16"/><linearGradient id="Dégradé_sans_nom_16-9" x1="-34.61" y1="123.61" x2="1254.48" y2="846.34" xlink:href="#Dégradé_sans_nom_16"/><linearGradient id="Dégradé_sans_nom_16-10" x1="76.34" y1="-74.29" x2="1365.43" y2="648.43" xlink:href="#Dégradé_sans_nom_16"/><linearGradient id="Dégradé_sans_nom_16-11" x1="81.71" y1="-83.87" x2="1370.8" y2="638.85" xlink:href="#Dégradé_sans_nom_16"/><linearGradient id="Dégradé_sans_nom_16-12" x1="172.23" y1="-245.32" x2="1461.32" y2="477.4" xlink:href="#Dégradé_sans_nom_16"/><linearGradient id="Dégradé_sans_nom_16-13" x1="204.97" y1="-303.71" x2="1494.06" y2="419.01" xlink:href="#Dégradé_sans_nom_16"/><linearGradient id="Dégradé_sans_nom_16-14" x1="125.72" y1="-162.37" x2="1414.81" y2="560.36" xlink:href="#Dégradé_sans_nom_16"/><linearGradient id="Dégradé_sans_nom_16-15" x1="10.79" y1="42.62" x2="1299.88" y2="765.35" xlink:href="#Dégradé_sans_nom_16"/><linearGradient id="Dégradé_sans_nom_16-16" x1="-79.57" y1="203.8" x2="1209.52" y2="926.52" xlink:href="#Dégradé_sans_nom_16"/><linearGradient id="Dégradé_sans_nom_16-17" x1="-149.35" y1="328.27" x2="1139.73" y2="1051" xlink:href="#Dégradé_sans_nom_16"/><linearGradient id="Dégradé_sans_nom_16-18" x1="-81.52" y1="207.27" x2="1207.57" y2="930" xlink:href="#Dégradé_sans_nom_16"/><linearGradient id="Dégradé_sans_nom_16-19" x1="-133.64" y1="300.25" x2="1155.45" y2="1022.97" xlink:href="#Dégradé_sans_nom_16"/><linearGradient id="Dégradé_sans_nom_16-20" x1="146.45" y1="-199.35" x2="1435.54" y2="523.38" xlink:href="#Dégradé_sans_nom_16"/><linearGradient id="Dégradé_sans_nom_16-21" x1="-216.1" y1="447.32" x2="1072.99" y2="1170.04" xlink:href="#Dégradé_sans_nom_16"/><linearGradient id="Dégradé_sans_nom_16-22" x1="131.97" y1="-173.5" x2="1421.06" y2="549.22" xlink:href="#Dégradé_sans_nom_16"/><linearGradient id="Dégradé_sans_nom_16-23" x1="31.65" y1="5.42" x2="1320.74" y2="728.14" xlink:href="#Dégradé_sans_nom_16"/><linearGradient id="Dégradé_sans_nom_16-24" x1="42.29" y1="-13.55" x2="1331.38" y2="709.17" xlink:href="#Dégradé_sans_nom_16"/><linearGradient id="Dégradé_sans_nom_16-25" x1="220.83" y1="-332.01" x2="1509.92" y2="390.71" xlink:href="#Dégradé_sans_nom_16"/><linearGradient id="Dégradé_sans_nom_16-26" x1="-79.78" y1="204.17" x2="1209.31" y2="926.9" xlink:href="#Dégradé_sans_nom_16"/><linearGradient id="Dégradé_sans_nom_16-27" x1="51.53" y1="-30.03" x2="1340.61" y2="692.7" xlink:href="#Dégradé_sans_nom_16"/><linearGradient id="Dégradé_sans_nom_16-28" x1="-94.37" y1="230.21" x2="1194.72" y2="952.93" xlink:href="#Dégradé_sans_nom_16"/><linearGradient id="Dégradé_sans_nom_16-29" x1="162.67" y1="-228.27" x2="1451.76" y2="494.46" xlink:href="#Dégradé_sans_nom_16"/><linearGradient id="Dégradé_sans_nom_16-30" x1="139.94" y1="-187.74" x2="1429.03" y2="534.99" xlink:href="#Dégradé_sans_nom_16"/><linearGradient id="Dégradé_sans_nom_16-31" x1="-195.27" y1="410.16" x2="1093.82" y2="1132.89" xlink:href="#Dégradé_sans_nom_16"/><linearGradient id="Dégradé_sans_nom_16-32" x1="-166.75" y1="359.31" x2="1122.33" y2="1082.03" xlink:href="#Dégradé_sans_nom_16"/><linearGradient id="Dégradé_sans_nom_16-33" x1="-53.95" y1="158.11" x2="1235.14" y2="880.83" xlink:href="#Dégradé_sans_nom_16"/><linearGradient id="Dégradé_sans_nom_16-34" x1="233.65" y1="-354.88" x2="1522.74" y2="367.85" xlink:href="#Dégradé_sans_nom_16"/><linearGradient id="Dégradé_sans_nom_16-35" x1="26.94" y1="13.82" x2="1316.03" y2="736.54" xlink:href="#Dégradé_sans_nom_16"/><linearGradient id="Dégradé_sans_nom_16-36" x1="-3.88" y1="68.8" x2="1285.21" y2="791.52" xlink:href="#Dégradé_sans_nom_16"/><linearGradient id="Dégradé_sans_nom_16-37" x1="-34.95" y1="124.21" x2="1254.14" y2="846.93" xlink:href="#Dégradé_sans_nom_16"/><linearGradient id="Dégradé_sans_nom_16-38" x1="146.95" y1="-200.24" x2="1436.04" y2="522.49" xlink:href="#Dégradé_sans_nom_16"/><linearGradient id="Dégradé_sans_nom_16-39" x1="44.84" y1="-18.1" x2="1333.93" y2="704.62" xlink:href="#Dégradé_sans_nom_16"/><linearGradient id="Dégradé_sans_nom_16-40" x1="0.63" y1="60.76" x2="1289.72" y2="783.48" xlink:href="#Dégradé_sans_nom_16"/><linearGradient id="Dégradé_sans_nom_16-41" x1="-45.01" y1="142.15" x2="1244.08" y2="864.87" xlink:href="#Dégradé_sans_nom_16"/><linearGradient id="Dégradé_sans_nom_16-42" x1="80.91" y1="-82.45" x2="1370" y2="640.28" xlink:href="#Dégradé_sans_nom_16"/><linearGradient id="Dégradé_sans_nom_16-43" x1="14.87" y1="35.35" x2="1303.96" y2="758.07" xlink:href="#Dégradé_sans_nom_16"/><linearGradient id="Dégradé_sans_nom_16-44" x1="-67.79" y1="182.79" x2="1221.3" y2="905.51" xlink:href="#Dégradé_sans_nom_16"/><linearGradient id="Dégradé_sans_nom_16-45" x1="78.8" y1="-78.67" x2="1367.89" y2="644.05" xlink:href="#Dégradé_sans_nom_16"/><linearGradient id="Dégradé_sans_nom_16-46" x1="-47.07" y1="145.84" x2="1242.02" y2="868.56" xlink:href="#Dégradé_sans_nom_16"/><linearGradient id="Dégradé_sans_nom_16-47" x1="-46.46" y1="144.74" x2="1242.63" y2="867.47" xlink:href="#Dégradé_sans_nom_16"/><linearGradient id="Dégradé_sans_nom_16-48" x1="-137.64" y1="307.38" x2="1151.45" y2="1030.11" xlink:href="#Dégradé_sans_nom_16"/><linearGradient id="Dégradé_sans_nom_16-49" x1="-172.9" y1="370.26" x2="1116.19" y2="1092.99" xlink:href="#Dégradé_sans_nom_16"/><linearGradient id="Dégradé_sans_nom_16-50" x1="-94.82" y1="230.99" x2="1194.27" y2="953.72" xlink:href="#Dégradé_sans_nom_16"/><linearGradient id="Dégradé_sans_nom_16-51" x1="20.31" y1="25.64" x2="1309.4" y2="748.37" xlink:href="#Dégradé_sans_nom_16"/><linearGradient id="Dégradé_sans_nom_16-52" x1="116.65" y1="-146.18" x2="1405.74" y2="576.54" xlink:href="#Dégradé_sans_nom_16"/><linearGradient id="Dégradé_sans_nom_16-53" x1="186.83" y1="-271.37" x2="1475.92" y2="451.36" xlink:href="#Dégradé_sans_nom_16"/><linearGradient id="Dégradé_sans_nom_16-54" x1="117.1" y1="-147" x2="1406.19" y2="575.73" xlink:href="#Dégradé_sans_nom_16"/><linearGradient id="Dégradé_sans_nom_16-55" x1="167.67" y1="-237.19" x2="1456.76" y2="485.53" xlink:href="#Dégradé_sans_nom_16"/><linearGradient id="Dégradé_sans_nom_16-56" x1="-110.04" y1="258.16" x2="1179.05" y2="980.88" xlink:href="#Dégradé_sans_nom_16"/><linearGradient id="Dégradé_sans_nom_16-57" x1="254.56" y1="-392.17" x2="1543.65" y2="330.55" xlink:href="#Dégradé_sans_nom_16"/><linearGradient id="Dégradé_sans_nom_16-58" x1="-103.03" y1="245.64" x2="1186.06" y2="968.36" xlink:href="#Dégradé_sans_nom_16"/><linearGradient id="Dégradé_sans_nom_16-59" x1="9.23" y1="45.42" x2="1298.32" y2="768.14" xlink:href="#Dégradé_sans_nom_16"/><linearGradient id="Dégradé_sans_nom_16-60" x1="-8.36" y1="76.79" x2="1280.73" y2="799.52" xlink:href="#Dégradé_sans_nom_16"/><linearGradient id="Dégradé_sans_nom_16-61" x1="-191.06" y1="402.66" x2="1098.03" y2="1125.38" xlink:href="#Dégradé_sans_nom_16"/><linearGradient id="Dégradé_sans_nom_16-62" x1="113.98" y1="-141.43" x2="1403.07" y2="581.29" xlink:href="#Dégradé_sans_nom_16"/><linearGradient id="Dégradé_sans_nom_16-63" x1="-24.56" y1="105.69" x2="1264.53" y2="828.41" xlink:href="#Dégradé_sans_nom_16"/><linearGradient id="Dégradé_sans_nom_16-64" x1="134.91" y1="-178.76" x2="1424" y2="543.97" xlink:href="#Dégradé_sans_nom_16"/><linearGradient id="Dégradé_sans_nom_16-65" x1="-130.31" y1="294.3" x2="1158.78" y2="1017.03" xlink:href="#Dégradé_sans_nom_16"/><linearGradient id="Dégradé_sans_nom_16-66" x1="-102.26" y1="244.27" x2="1186.83" y2="967" xlink:href="#Dégradé_sans_nom_16"/><linearGradient id="Dégradé_sans_nom_16-67" x1="231.28" y1="-350.64" x2="1520.37" y2="372.08" xlink:href="#Dégradé_sans_nom_16"/><linearGradient id="Dégradé_sans_nom_16-68" x1="206.86" y1="-307.08" x2="1495.94" y2="415.64" xlink:href="#Dégradé_sans_nom_16"/><linearGradient id="Dégradé_sans_nom_16-69" x1="89.19" y1="-97.21" x2="1378.28" y2="625.51" xlink:href="#Dégradé_sans_nom_16"/><linearGradient id="Dégradé_sans_nom_16-70" x1="-200.16" y1="418.88" x2="1088.93" y2="1141.61" xlink:href="#Dégradé_sans_nom_16"/><linearGradient id="Dégradé_sans_nom_16-71" x1="12.05" y1="40.39" x2="1301.14" y2="763.11" xlink:href="#Dégradé_sans_nom_16"/><linearGradient id="Dégradé_sans_nom_16-72" x1="31.26" y1="6.12" x2="1320.35" y2="728.84" xlink:href="#Dégradé_sans_nom_16"/><linearGradient id="Dégradé_sans_nom_16-73" x1="67.03" y1="-57.68" x2="1356.12" y2="665.04" xlink:href="#Dégradé_sans_nom_16"/></defs><title>Plan de travail 1</title><path class="cls-1" d="M132.84,448.8s38.19-20.19,50.48-23.7,37.74-48.72,39.94-51.79,5.71-17.56,7,23.7,2.64,51.35-5.7,61-68.48,18.44-77.26,9.66S129.77,456.7,132.84,448.8Z"/><path class="cls-2" d="M487.64,395.36c-1.32,10.54.87,19.32-10.1,19.32s-17.12-10.1-17.12-14.93.88-4.39,4.83-18.43,2.2-42.14,8.78-63.21.44-46.53-4.39-47-23.26,0-29,10.54a254,254,0,0,1-32,44.77c-14.93,16.68-19.75,23.26-43.9,36.43s-45.21,33.8-46.08,37.31-18.88,24.14-28.1,18,2.64-11.85,1.76-17.56-18.87-15.8-21.95-40.38S256.76,294,253.68,257.54s7.9-54.43,18-57.06,33.36-.44,33.8,9.21,11.85,64.53,36.43,85.16,9.47,18.45,64.08-29c16.68-14.49,48.29-1.32,67.6-26.78s54-43.89,59.7-39.5-1.76,27.21-18.44,49.16a120.26,120.26,0,0,0-24.14,86C494.22,369.47,487.64,395.36,487.64,395.36Z"/><path class="cls-3" d="M567.25,428.56s-45.35-47.89-27-74.76,46.76-42.36,53.38-71.89,1.33-67.34,9.45-78.27,21-6.25,21-6.25L633,213s-16.73,7.81-17.36,39.59-7.11,36.82,8.14,48.68S652.59,314,652.59,314l-11.77,15.86s-53.94-8.34-61,18.12S605,378.11,605,378.11s10.85,11.89,2.12,20.71-10.21-5.39-26.94,2.41c2,11.32,6.39,15.69,6.39,15.69s-9.7,8.65-4.31,15.38S567.25,428.56,567.25,428.56Z"/><path class="cls-4" d="M632.71,180.69s-5.73,9.75-1.08-4.89-4.18-14.51-7.16-13.4-22.26,12-27,19.53-9.25,20.79-20.16,17.32-6-10.69-11.22-13.53-4.85-5.93-7.78-6.86-29.42-19.9-69.42-20.32-41.42-7-63.18,2.47S381.36,160,381.36,160s-15.23-2.79-15.67-9.67,7.19-47.51-1.27-59.58-6.95-16.85-45.17-28.42S287.1,41.8,293.35,40.57,358.52,54,368.42,61.51s13.81,2.63,17.15,7.79,1.29,9.79,8.47,12.07,9.55,1.28,11.75-5.64,58.43,10.67,60.59,14,31.51,17.93,50.61,20.49,34.94,4.37,21,19.57,50.38-2.73,50.38-2.73,48.83,6.74,49.84,22S632.71,180.69,632.71,180.69Z"/><path class="cls-5" d="M119.6,176.56s70.23,15.81,74.18,35.56,11.41,106.22,11.41,113.68-16.46,2.86-16.46-44.55S165.47,201.8,144.4,197s-39.5,9.21-47.84,10.09-34.68-24.58-14.49-30.72A64.43,64.43,0,0,1,119.6,176.56Z"/><path class="cls-6" d="M851.79,430.63S818.34,458,807,463.82s-27.4,55.21-29,58.65-2.13,18.34-11.56-21.85-12.7-49.83-6.43-60.94,63.49-31.57,73.83-24.7S853.25,422.28,851.79,430.63Z"/><path class="cls-7" d="M836,284.79c-.43-5.7-2.52-10.11,3.28-11.27s10.11,3.51,10.62,6.06,0,2.41-.59,10.25,3.32,22.49,2.08,34.32,4.71,24.62,7.31,24.34S871,346,872.86,339.85A136.78,136.78,0,0,1,885,312.8c6.11-10.4,8-14.39,19.31-23.91s20.29-22.66,20.38-24.6,7.41-14.76,12.93-12.49-.13,6.54.94,9.46,11.64,6.34,15.88,19,14.23,33.56,19.72,52.47,1.61,29.59-3.44,32.06-17.58,3.77-18.83-1.28-13.12-32.82-28.29-41.11-7-8.74-30.78,22.11c-7.27,9.42-25.36,5.83-32.85,21.32S836.14,394.75,832.66,393s-2-14.56,4.52-27.92a64.84,64.84,0,0,0,3.61-48A103.39,103.39,0,0,1,836,284.79Z"/><path class="cls-8" d="M613.79,459.23s65.94-1.62,73.63,30,.16,63.1,17.66,87.79,49.12,46.08,51.8,59.42-9.45,19.81-9.45,19.81l-17.56-3.85s5.4-17.65-17.78-39.41S689.51,583,670.49,586.4s-28.74,12.94-28.74,12.94L637.85,580s42.32-34.48,27.4-57.45S626,521,626,521s-16.1.11-16.8-12.29,10.84-4,16.24-21.62c-9.73-6.1-15.93-5.75-15.93-5.75s.07-13-8.54-13.51S613.79,459.23,613.79,459.23Z"/><path class="cls-9" d="M773.43,712.55s.7-11.22,3.68,3.61,11.89,10.24,14.35,7.78,16.32-21.52,17.16-30.39-1.56-22.43,11.36-25,11.71,6.06,18.54,5.81,8.06,2.59,11.53,1.89,40.39,2,81.28-18,45.8-15.11,62.93-34.27,45.63-21.67,45.63-21.67,16.95-5.37,21,.26,17.74,44.15,32.7,50.12,16,10.83,60.9,1.23,43.49,1.07,37.78,5.31-73.31,21.76-87.36,20.38-15.43,4.78-21.54,2.08-6.47-7.68-15-6-10.39,3.78-9,10.79-65,20.66-69,18.93-41.48.76-62.25,8.31-37.82,14.06-31.69-6-49.77,28-49.77,28-53.2,19.11-62.27,6.62S773.43,712.55,773.43,712.55Z"/><path class="cls-10" d="M1156.46,543.67s-40.88-.94-45.3-11.5-18.25-57.88-19.09-62,8.85-3.44,14.16,23,21.86,41.64,34.13,42,21-9.56,25.52-11,22.07,9.81,11.51,15.49A36.6,36.6,0,0,1,1156.46,543.67Z"/><path class="cls-11" d="M685.4,318.33s12.72-41.28,18.93-52.45S696.57,204.73,696,201s-8.38-16.45,21.73,11.79,38.17,34.46,39.1,47.18S721.4,321.44,709,321.44,688.81,326.09,685.4,318.33Z"/><path class="cls-12" d="M901.29,134c3.27,4.2,7.16,6.53,3.27,10.42s-9.65,2.49-11.36.78-1.24-1.87-4.82-8.25-14.16-15.71-19.29-25.51-16.34-16.65-18.2-15.09-8.25,8.24-6.54,14a126.88,126.88,0,0,1,4.52,27.22c.62,11.2,1.24,15.25-2.65,28.47s-4,28-3.11,29.56,1.87,15.25-3.58,16.34-3.27-5.14-5.6-6.85-12.29,1.09-22.09-6.53-28.31-18.67-42.32-30.49S753,146,755.68,141.46s11.67-12,15.24-8.71S798,151.42,814,150s9.9,3.18,12.44-33c.78-11.05,16.65-17.58,14.47-33.45s3.58-34.69,7.16-35.16,9,10.27,10.89,24a60.28,60.28,0,0,0,21.93,39.05A96,96,0,0,1,901.29,134Z"/><path class="cls-13" d="M1128.64,206.33s-54,37.86-77.9,15.83-35.07-52.46-63.32-63.32-66.42-11.17-76-20.8-3.1-21.72-3.1-21.72L925,109.8s5.27,17.69,36.62,23,35.38,12.41,49.35-.93,16.76-26.7,16.76-26.7l14,14s-16.14,52.14,9,63,33.52-20.49,33.52-20.49,13.35-9,20.79.93-6.82,9.31-1.55,27c11.49-.31,16.45-4,16.45-4s7.14,10.86,14.59,6.52S1128.64,206.33,1128.64,206.33Z"/><path class="cls-14" d="M1178.76,247.31s5.52,8.79-4.44-1.18-13.58-2.71-13.94.19.36,23.18,4.53,30.24,13,16.3,5.61,23.72-11.23.37-15.76,3.45-6.88,1.44-8.87,3.44-28.61,15.57-45.82,48-23.18,30.79-24.63,52.52-19.56,35.67-19.56,35.67-8.69,11.23-14.49,8.7-35.67-25.9-49.07-24.09-16.66-1.45-42.2,24.81-30.24,17.57-28.61,12,38.39-47.44,48.71-52.33,8-10.15,13.58-10.69,8.52,3.08,13.41-1.81,5.07-7.24.36-11.95,33.32-43.1,36.94-43.47,27.89-18.11,38-32.6,18.3-26.62,24.82-8.87,19-42.2,19-42.2,26.08-36.94,38.94-31.33S1178.76,247.31,1178.76,247.31Z"/><path class="cls-15" d="M883.34,541s60.84-38.49,77.6-27.31,83.18,67,88.45,72.31-9.62,13.66-43.14-19.86-72.63-39.73-90.94-28.24-21.41,34.45-26.69,41-41.9,7.13-32-11.49A64.42,64.42,0,0,1,883.34,541Z"/><path class="cls-16" d="M448.3,477.33s-29.81-1.05-38.38-3.18-39.36,16.19-41.74,17.27-9.45,8.55,3.95-16.61,16.1-31.65,24.41-34.56,47.34,12.52,49.58,20.79S452.85,473.65,448.3,477.33Z"/><path class="cls-17" d="M183.31,522.23s7.3-7.9,0,4.76,1,14.33,3.95,13.91,23.11-6.63,29.05-12.71,12.79-17.46,22.23-12S242,527.3,246.26,531s3.31,6.5,5.84,8,23.33,24.42,60.42,32.88,37.08,14.87,59.22,10.45,41,9.93,41,9.93,13.58,5.66,12.61,12.15-16.27,42.7-10.83,55.63,3.05,17.06,36.24,35.52,25.75,25.52,19.69,25.4-57.86-25.59-65.55-34.6-12.3-5.23-14.36-10.71.78-9.35-5.44-12.92-8.62-3.11-12.06,2.87-52.15-21.7-53.49-25.22-25.66-23-42.91-29.25S245.06,600,261.06,588.65,213.68,581,213.68,581s-44-16.11-41.88-30.49S183.31,522.23,183.31,522.23Z"/><path class="cls-18" d="M496.4,590.61S459.79,557,464.22,543.8s29.71-67.53,32.28-72,10.84,3.95-5.47,32.33-13.41,55.57-2.45,65.71,26.82,8.08,32.11,10.42,12.31,26.65-1.89,23.38A44.51,44.51,0,0,1,496.4,590.61Z"/><path class="cls-19" d="M648.41,760.52s-72-1.64-79.73-20.22-32.13-101.89-33.61-109.21,15.58-6,24.93,40.44,38.47,73.3,60.08,73.87S657,728.58,665,726.07s38.84,17.26,20.26,27.27A64.36,64.36,0,0,1,648.41,760.52Z"/><path class="cls-20" d="M726.3,103.33s-29.81-1-38.38-3.18-39.36,16.19-41.74,17.27-9.45,8.55,4-16.61,16.1-31.65,24.41-34.56S721.88,78.77,724.12,87,730.85,99.65,726.3,103.33Z"/><path class="cls-21" d="M215.46,701.67s-40.88-.94-45.3-11.5-18.25-57.88-19.09-62,8.85-3.44,14.16,23,21.86,41.64,34.13,42,21-9.56,25.52-11,22.07,9.81,11.51,15.49A36.6,36.6,0,0,1,215.46,701.67Z"/><path class="cls-22" d="M1211.52,447c-.46,3.65.3,6.69-3.49,6.69a6.08,6.08,0,0,1-5.93-5.17c0-1.67.31-1.52,1.67-6.38s.76-14.58,3-21.88.15-16.1-1.52-16.25-8,0-10,3.64a87,87,0,0,1-11.09,15.5c-5.16,5.77-6.83,8.05-15.19,12.61s-15.65,11.7-16,12.91-6.53,8.36-9.72,6.23.91-4.1.61-6.08-6.54-5.46-7.6-14-4.71-22.94-5.77-35.55,2.73-18.84,6.23-19.75,11.54-.15,11.69,3.19,4.1,22.33,12.61,29.47,3.28,6.39,22.18-10c5.78-5,16.71-.45,23.4-9.26s18.69-15.19,20.66-13.68-.61,9.42-6.38,17a41.67,41.67,0,0,0-8.36,29.78A66.35,66.35,0,0,1,1211.52,447Z"/><path class="cls-23" d="M214.65,162.44c-3.53-1-6.65-.74-6.06-4.49a6.08,6.08,0,0,1,6-5c1.65.26,1.45.54,6,2.65s14.29,3,21.14,6.41,15.88,2.66,16.29,1,1.25-8-2-10.47a88.13,88.13,0,0,1-13.58-13.37c-4.9-6-6.89-8-10.09-17s-9.11-17.28-10.27-17.77-7.23-7.76-4.64-10.58,3.91,1.54,5.91,1.55,6.42-5.6,15-5.33,23.4-1.08,36-.16,18.18,5.63,18.54,9.23-1.65,11.43-5,11.06-22.7.57-31.08,7.86-6.82,2.24,6.45,23.47c4.06,6.49-2.15,16.58,5.51,24.56s12.1,20.82,10.29,22.54-9.21-2.07-15.81-9a41.67,41.67,0,0,0-28.12-12.89A66.45,66.45,0,0,1,214.65,162.44Z"/><g id="Calque_7" data-name="Calque 7"><path class="cls-24" d="M713.44,431.56s67.51-64,79.39-99.14c2.21-5.63-43.2,3.54-55.8,39.41s-41,41.06-41,41.06c-1.7,9.19.66,11,6.35,6.81l3.65,3.94C692.62,428.82,694.92,431.49,713.44,431.56Z"/></g><g id="Calque_7-2" data-name="Calque 7"><path class="cls-25" d="M1264.4,274.52s-40.21-83.86-70.05-105.95c-4.67-3.82-9.86,42.21,20.42,65.19s26.54,51.59,26.54,51.59c8.23,4.44,10.7,2.75,8.43-4l4.86-2.27C1255.41,293.5,1258.66,292.13,1264.4,274.52Z"/></g><g id="Calque_12" data-name="Calque 12"><path class="cls-26" d="M571.64,553.54s11.64-21.84,49.8,65.67C621.85,619.26,571.64,553.54,571.64,553.54Z"/></g><g id="Calque_12-2" data-name="Calque 12"><path class="cls-27" d="M1211.64,604.54s11.64-21.84,49.8,65.67C1261.85,670.26,1211.64,604.54,1211.64,604.54Z"/></g><g id="Calque_12-3" data-name="Calque 12"><path class="cls-28" d="M114.64,331.54s11.64-21.84,49.8,65.67C164.85,397.26,114.64,331.54,114.64,331.54Z"/></g><g id="Calque_12-4" data-name="Calque 12"><path class="cls-29" d="M948.64,196.54s11.64-21.84,49.8,65.67C998.85,262.26,948.64,196.54,948.64,196.54Z"/></g><g id="Calque_12-5" data-name="Calque 12"><path class="cls-30" d="M607,27.39s24.2,5.19-49.44,65.94C557.66,93.73,607,27.39,607,27.39Z"/></g><g id="Calque_8" data-name="Calque 8"><path class="cls-31" d="M346.3,754.32s-25.5-10.5-22.5-36.5,36-16,36-16l11-15-5,18S360.8,740.82,346.3,754.32Z"/></g><g id="Calque_8-2" data-name="Calque 8"><path class="cls-32" d="M75.49,518.73s8.16-26.34,34.33-25.69S129,527.46,129,527.46l15.93,9.6-18.38-3.36S90.24,532,75.49,518.73Z"/></g><g id="Calque_11" data-name="Calque 11"><path class="cls-33" d="M563.32,511.67l-26.18-15.23S564.52,479,563.32,511.67Z"/></g><g id="Calque_11-2" data-name="Calque 11"><path class="cls-34" d="M979.32,70.67,953.14,55.44S980.52,38,979.32,70.67Z"/></g><g id="Calque_11-3" data-name="Calque 11"><path class="cls-35" d="M384.32,221.67l-26.18-15.23S385.52,189,384.32,221.67Z"/></g><g id="Calque_11-4" data-name="Calque 11"><path class="cls-36" d="M1163.32,730.67l-26.18-15.23S1164.52,698,1163.32,730.67Z"/></g><g id="Calque_11-5" data-name="Calque 11"><path class="cls-37" d="M803.32,601.67l-26.18-15.23S804.52,569,803.32,601.67Z"/></g><path class="cls-38" d="M1197.61,326.79s-37.66,21.16-49.86,25-36.49,49.67-38.6,52.8-5.26,17.7-7.63-23.51-3.94-51.27,4.15-61.14,68-20.18,77-11.63S1200.48,318.81,1197.61,326.79Z"/><path class="cls-39" d="M844.29,389.28c1.05-10.57-1.37-19.29,9.6-19.57s17.37,9.66,17.5,14.48-.77,4.41-4.36,18.55-1.12,42.19-7.16,63.42.75,46.52,5.59,46.83,23.25-.59,28.69-11.27A252.84,252.84,0,0,1,925,456.15c14.49-17.06,19.15-23.76,43-37.54s44.33-34.95,45.12-38.48,18.25-24.61,27.62-18.71-2.33,11.92-1.31,17.6,19.27,15.31,23,39.81,15.3,65.91,19.3,102.25-6.51,54.61-16.53,57.5-33.34,1.29-34-8.35-13.5-64.2-38.6-84.19-9.94-18.21-63.32,30.59c-16.31,14.91-48.24,2.55-66.89,28.5s-52.85,45.26-58.67,41,1.06-27.25,17.17-49.61a120.23,120.23,0,0,0,21.94-86.62C838.37,415.33,844.29,389.28,844.29,389.28Z"/><path class="cls-40" d="M763.85,358.13s46.57,46.71,29,74-45.66,43.55-51.52,73.24.38,67.35-7.45,78.48S713,590.67,713,590.67l-9.3-15.4s16.53-8.23,16.35-40,6.16-37-9.38-48.46-29.17-11.93-29.17-11.93l11.36-16.16s54.14,7,60.53-19.67-25.93-29.51-25.93-29.51-11.15-11.61-2.65-20.65,10.35,5.13,26.87-3.1c-2.27-11.26-6.79-15.51-6.79-15.51s9.48-8.9,3.92-15.49S763.85,358.13,763.85,358.13Z"/><path class="cls-41" d="M704.75,607.58s5.49-9.89,1.21,4.86,4.54,14.4,7.5,13.22,21.95-12.53,26.5-20.22,8.72-21,19.71-17.83,6.25,10.54,11.57,13.24,5,5.81,8,6.67,29.91,19.14,69.91,18.53,41.58,6,63.1-4.08,44.35-.08,44.35-.08,15.29,2.41,15.92,9.27-6,47.68,2.79,59.53,7.37,16.67,45.87,27.26,32.67,19.65,26.45,21S982.09,727.26,972,720s-13.88-2.28-17.35-7.36-1.53-9.75-8.77-11.85-9.58-1-11.6,5.94-58.68-9.17-60.93-12.44-32-17.11-51.12-19.18-35-3.48-21.51-19-50.29,4-50.29,4-49-5.49-50.39-20.72S704.75,607.58,704.75,607.58Z"/><path class="cls-42" d="M1217.8,598.6s-70.61-14-75.06-33.65-14.13-105.89-14.32-113.35,16.38-3.28,17.6,44.11,25.28,78.83,46.47,83.12,39.25-10.22,47.57-11.31,35.29,23.68,15.26,30.34A64.41,64.41,0,0,1,1217.8,598.6Z"/><path class="cls-43" d="M479.36,363.33S512.1,335.16,523.31,329s26-55.89,27.43-59.37,1.67-18.39,12.12,21.55,14,49.48,8,60.75-62.67,33.19-73.18,26.58S478.12,371.71,479.36,363.33Z"/><path class="cls-44" d="M498.89,508.71c.57,5.69,2.78,10-3,11.36s-10.2-3.26-10.78-5.79-.06-2.42.33-10.27-3.89-22.4-2.95-34.25-5.34-24.49-7.93-24.15-12.22,2.79-14,9A136.28,136.28,0,0,1,449.14,482c-5.84,10.55-7.59,14.58-18.7,24.39s-19.7,23.17-19.74,25.12-7,14.94-12.6,12.81,0-6.54-1.18-9.43-11.81-6-16.37-18.59-15.08-33.19-21.05-52-2.37-29.53,2.62-32.12S379.59,428,381,433s13.95,32.48,29.33,40.37,7.19,8.56,30.2-22.89c7-9.6,25.2-6.47,32.3-22.15s23.11-29.52,26.63-27.9,2.34,14.51-3.8,28a64.79,64.79,0,0,0-2.38,48.08A103.57,103.57,0,0,1,498.89,508.71Z"/><path class="cls-45" d="M716.55,328.65s-65.88,3.31-74.38-28.07-1.76-63.07-19.89-87.3S572,168.46,569,155.19s8.94-20,8.94-20l17.65,3.4s-5,17.79,18.78,38.94,23.34,29.35,42.27,25.48S685,189.3,685,189.3l4.39,19.26S648,244.11,663.49,266.69s39.28.5,39.28.5,16.09-.51,17.11,11.86-10.74,4.25-15.69,22c9.88,5.85,16.07,5.34,16.07,5.34s.26,13,8.88,13.29S716.55,328.65,716.55,328.65Z"/><path class="cls-46" d="M171.9,258.11s40.89-.11,45.57,10.33,19.73,57.4,20.67,61.53-8.75,3.66-14.74-22.6-22.91-41.07-35.19-41.09-20.72,10.1-25.23,11.63-22.31-9.23-11.9-15.19A36.6,36.6,0,0,1,171.9,258.11Z"/><path class="cls-47" d="M648.56,471.33S636.9,512.93,631,524.25s9.32,60.93,10,64.64,8.8,16.23-22-11.24-39-33.46-40.3-46.16,33.8-62.34,46.21-62.66S645,463.67,648.56,471.33Z"/><path class="cls-48" d="M437.45,661.13c-3.37-4.12-7.32-6.35-3.53-10.34s9.58-2.73,11.33-1.07,1.29,1.84,5,8.12,14.56,15.35,19.94,25S487,699.08,488.8,697.47s8-8.45,6.17-14.16a127.69,127.69,0,0,1-5.2-27.1c-.91-11.18-1.64-15.21,1.91-28.53S495,599.59,494,598.05s-2.26-15.19,3.16-16.42,3.4,5,5.77,6.7,12.26-1.4,22.25,6S554,612.24,568.3,623.7s17.05,21.66,14.53,26.24-11.36,12.27-15,9.1-27.54-18-43.52-16.16-10-2.93-11.6,33.29c-.5,11.06-16.19,18-13.61,33.8s-2.69,34.77-6.26,35.33-9.28-10-11.49-23.67a60.28,60.28,0,0,0-22.93-38.47A96.45,96.45,0,0,1,437.45,661.13Z"/><path class="cls-49" d="M208.33,594.63s53-39.24,77.47-17.82,36.4,51.54,64.91,61.68,66.69,9.47,76.55,18.85S430.92,679,430.92,679l-16.59,6.94s-5.72-17.55-37.2-22-35.69-11.51-49.31,2.19-16.07,27.11-16.07,27.11l-14.32-13.61s14.8-52.53-10.61-62.75-33,21.33-33,21.33-13.11,9.34-20.81-.4,6.58-9.48.86-27c-11.48.6-16.34,4.45-16.34,4.45s-7.42-10.67-14.75-6.14S208.33,594.63,208.33,594.63Z"/><path class="cls-50" d="M157.18,554.93s-5.75-8.63,4.46,1.07,13.65,2.37,13.94-.54-1-23.16-5.3-30.12-13.45-16-6.22-23.57,11.22-.65,15.66-3.84,6.85-1.63,8.79-3.67,28.2-16.3,44.58-49.15,22.38-31.36,23.28-53.13S275,355.82,275,355.82s8.4-11.45,14.26-9.06,36.32,25,49.68,22.82,16.69,1,41.54-25.88,29.79-18.33,28.3-12.68-37.16,48.42-47.36,53.57-7.71,10.34-13.3,11-8.59-2.86-13.36,2.15-4.88,7.37,0,12-32.21,43.94-35.82,44.39-27.42,18.82-37.19,33.56-17.61,27.08-24.58,9.51-17.93,42.66-17.93,42.66-25.12,37.6-38.12,32.32S157.18,554.93,157.18,554.93Z"/><path class="cls-51" d="M445,253.83s-59.83,40-76.88,29.28-84.86-64.89-90.27-70,9.27-13.9,43.63,18.75,73.62,37.86,91.64,25.92,20.53-35,25.63-41.64,41.71-8.21,32.26,10.66A64.5,64.5,0,0,1,445,253.83Z"/><path class="cls-52" d="M881.53,306.33s29.82.29,38.44,2.2,38.94-17.19,41.28-18.33,9.24-8.79-3.52,16.7S942.45,339,934.21,342.08s-47.64-11.31-50.09-19.52S877.06,310.12,881.53,306.33Z"/><path class="cls-53" d="M1145.28,254.68s-7.1,8.08-.15-4.76-1.32-14.3-4.3-13.8-22.93,7.21-28.71,13.44-12.34,17.78-21.91,12.6-3.68-11.05-8.08-14.64-3.48-6.41-6.05-7.8-23.94-23.82-61.24-31.32-37.44-13.93-59.46-8.94-41.24-8.88-41.24-8.88-13.73-5.31-12.92-11.82,15.17-43.11,9.41-55.89-3.49-17-37.14-34.58-26.4-24.86-20.34-24.9,58.51,24.11,66.42,32.92,12.43,4.92,14.63,10.34-.54,9.36,5.77,12.78,8.69,2.89,12-3.18,52.68,20.36,54.11,23.85,26.25,22.35,43.65,28.14,31.86,10.3,16.15,22,47.55,6.41,47.55,6.41,44.43,15,42.65,29.41S1145.28,254.68,1145.28,254.68Z"/><path class="cls-54" d="M830.54,194.32s37.46,32.68,33.37,46-28,68.26-30.43,72.8-10.93-3.68,4.65-32.47,12-55.9.77-65.75-27-7.39-32.38-9.6-13-26.32,1.3-23.42A44.54,44.54,0,0,1,830.54,194.32Z"/><path class="cls-55" d="M674.24,28.34s72-.19,80.22,18.19,34.73,101,36.39,108.3-15.42,6.44-26-39.78S724.57,42.76,703,42.73,666.49,60.5,658.55,63.2,619.28,46.94,637.6,36.47A64.43,64.43,0,0,1,674.24,28.34Z"/><path class="cls-56" d="M613.17,687.31s29.83.29,38.45,2.2,38.94-17.19,41.28-18.33,9.23-8.79-3.53,16.7-15.27,32.06-23.51,35.18-47.65-11.31-50.09-19.52S608.71,691.1,613.17,687.31Z"/><path class="cls-57" d="M1108.55,76.12s40.9-.11,45.58,10.33,19.73,57.4,20.67,61.53-8.76,3.66-14.74-22.6-22.91-41.07-35.19-41.08-20.72,10.09-25.23,11.63-22.31-9.24-11.9-15.2A36.58,36.58,0,0,1,1108.55,76.12Z"/><path class="cls-58" d="M119.33,356.17c.36-3.66-.48-6.68,3.32-6.77a6.05,6.05,0,0,1,6,5c.05,1.67-.26,1.53-1.5,6.42s-.39,14.6-2.48,21.95.26,16.1,1.93,16.21,8-.21,9.93-3.9a88.06,88.06,0,0,1,10.69-15.78c5-5.9,6.63-8.22,14.87-13s15.34-12.09,15.62-13.32,6.31-8.52,9.56-6.47-.81,4.12-.46,6.09,6.67,5.3,7.95,13.78,5.3,22.81,6.68,35.39-2.25,18.9-5.72,19.9-11.54.45-11.77-2.89-4.68-22.22-13.36-29.14-3.44-6.3-21.92,10.59c-5.64,5.16-16.69.88-23.15,9.86s-18.29,15.67-20.31,14.2.37-9.43,5.95-17.18a41.66,41.66,0,0,0,7.59-30A66.47,66.47,0,0,1,119.33,356.17Z"/><path class="cls-59" d="M1123.14,615.15c3.56.92,6.67.57,6.17,4.33a6.06,6.06,0,0,1-5.89,5.2c-1.66-.22-1.47-.5-6.11-2.49s-14.36-2.65-21.29-5.86-16-2.26-16.32-.62-1,8,2.31,10.42a87.21,87.21,0,0,1,13.91,13c5,5.87,7.09,7.82,10.52,16.7s9.56,17,10.72,17.5,7.44,7.57,4.91,10.46-4-1.44-5.94-1.4-6.28,5.76-14.85,5.71-23.36,1.67-36,1.08-18.32-5.17-18.77-8.75,1.36-11.47,4.69-11.18,22.68-1.15,30.87-8.66,6.76-2.41-7-23.3c-4.22-6.37,1.73-16.62-6.14-24.4s-12.62-20.51-10.86-22.27,9.26,1.83,16,8.55a41.7,41.7,0,0,0,28.43,12.17A66.46,66.46,0,0,1,1123.14,615.15Z"/><g id="Calque_7-3" data-name="Calque 7"><path class="cls-60" d="M617.64,358.86S551.79,424.54,540.81,460c-2.07,5.68,43.09-4.65,54.77-40.82s39.91-42.1,39.91-42.1c1.47-9.23-.94-11-6.52-6.65l-3.75-3.84C638.52,361.07,636.16,358.46,617.64,358.86Z"/></g><g id="Calque_7-4" data-name="Calque 7"><path class="cls-61" d="M70.87,529.92s42.34,82.81,72.73,104.13c4.77,3.7,8.78-42.45-22.07-64.65s-27.85-50.89-27.85-50.89c-8.34-4.23-10.77-2.48-8.33,4.17l-4.8,2.4C79.37,510.72,76.16,512.17,70.87,529.92Z"/></g><g id="Calque_12-6" data-name="Calque 12"><path class="cls-62" d="M756.27,233.29s-11.08,22.14-51.46-64.37C704.41,168.88,756.27,233.29,756.27,233.29Z"/></g><g id="Calque_12-7" data-name="Calque 12"><path class="cls-63" d="M115.18,198.66S104.1,220.8,63.72,134.29C63.31,134.24,115.18,198.66,115.18,198.66Z"/></g><g id="Calque_12-8" data-name="Calque 12"><path class="cls-64" d="M1218.79,443.55s-11.07,22.13-51.46-64.38C1166.93,379.13,1218.79,443.55,1218.79,443.55Z"/></g><g id="Calque_12-9" data-name="Calque 12"><path class="cls-65" d="M388.52,599.81S377.44,622,337.06,535.44C336.65,535.39,388.52,599.81,388.52,599.81Z"/></g><g id="Calque_12-10" data-name="Calque 12"><path class="cls-66" d="M734.33,760.18S710,755.61,782.07,693C782,692.59,734.33,760.18,734.33,760.18Z"/></g><g id="Calque_8-3" data-name="Calque 8"><path class="cls-67" d="M976.41,26.82s25.76,9.85,23.43,35.92-35.58,16.91-35.58,16.91L953.64,94.93l4.54-18.12S962.26,40.69,976.41,26.82Z"/></g><g id="Calque_8-4" data-name="Calque 8"><path class="cls-68" d="M1253.16,255.42S1245.67,282,1219.5,282s-20-33.92-20-33.92l-16.17-9.19,18.46,2.89S1238.07,242.57,1253.16,255.42Z"/></g><g id="Calque_11-6" data-name="Calque 11"><path class="cls-69" d="M765.66,274.94l26.56,14.56S765.3,307.64,765.66,274.94Z"/></g><g id="Calque_11-7" data-name="Calque 11"><path class="cls-70" d="M361.06,726.43,387.62,741S360.7,759.12,361.06,726.43Z"/></g><g id="Calque_11-8" data-name="Calque 11"><path class="cls-71" d="M952,560.28l26.56,14.55S951.65,593,952,560.28Z"/></g><g id="Calque_11-9" data-name="Calque 11"><path class="cls-72" d="M160.26,71.35,186.82,85.9S159.9,104,160.26,71.35Z"/></g><g id="Calque_11-10" data-name="Calque 11"><path class="cls-73" d="M523.44,191.11,550,205.66S523.08,223.8,523.44,191.11Z"/></g></svg>