<svg id="Couche" xmlns="http://www.w3.org/2000/svg" xmlns:xlink="http://www.w3.org/1999/xlink" viewBox="0 0 1366 768"><defs><style>.cls-1{fill:url(#Dégradé_sans_nom_56);}.cls-2{fill:url(#Dégradé_sans_nom_56-2);}.cls-3{fill:url(#Dégradé_sans_nom_56-3);}.cls-4{fill:url(#Dégradé_sans_nom_56-4);}.cls-5{fill:url(#Dégradé_sans_nom_56-5);}.cls-6{fill:url(#Dégradé_sans_nom_56-6);}.cls-7{fill:url(#Dégradé_sans_nom_56-7);}.cls-8{fill:url(#Dégradé_sans_nom_56-8);}.cls-9{fill:url(#Dégradé_sans_nom_56-9);}.cls-10{fill:url(#Dégradé_sans_nom_56-10);}.cls-11{fill:url(#Dégradé_sans_nom_56-11);}.cls-12{fill:url(#Dégradé_sans_nom_56-12);}.cls-13{fill:url(#Dégradé_sans_nom_56-13);}.cls-14{fill:url(#Dégradé_sans_nom_56-14);}.cls-15{fill:url(#Dégradé_sans_nom_56-15);}.cls-16{fill:url(#Dégradé_sans_nom_56-16);}.cls-17{fill:url(#Dégradé_sans_nom_56-17);}.cls-18{fill:url(#Dégradé_sans_nom_56-18);}.cls-19{fill:url(#Dégradé_sans_nom_56-19);}.cls-20{fill:url(#Dégradé_sans_nom_56-20);}.cls-21{fill:url(#Dégradé_sans_nom_56-21);}.cls-22{fill:url(#Dégradé_sans_nom_56-22);}.cls-23{fill:url(#Dégradé_sans_nom_56-23);}.cls-24{fill:url(#Dégradé_sans_nom_56-24);}.cls-25{fill:url(#Dégradé_sans_nom_56-25);}.cls-26{fill:url(#Dégradé_sans_nom_56-26);}.cls-27{fill:url(#Dégradé_sans_nom_56-27);}.cls-28{fill:url(#Dégradé_sans_nom_56-28);}.cls-29{fill:url(#Dégradé_sans_nom_56-29);}.cls-30{fill:url(#Dégradé_sans_nom_56-30);}.cls-31{fill:url(#Dégradé_sans_nom_56-31);}.cls-32{fill:url(#Dégradé_sans_nom_56-32);}.cls-33{fill:url(#Dégradé_sans_nom_56-33);}.cls-34{fill:url(#Dégradé_sans_nom_56-34);}.cls-35{fill:url(#Dégradé_sans_nom_56-35);}.cls-36{fill:url(#Dégradé_sans_nom_56-36);}.cls-37{fill:url(#Dégradé_sans_nom_56-37);}.cls-38{fill:url(#Dégradé_sans_nom_56-38);}.cls-39{fill:url(#Dégradé_sans_nom_56-39);}.cls-40{fill:url(#Dégradé_sans_nom_56-40);}.cls-41{fill:url(#Dégradé_sans_nom_56-41);}.cls-42{fill:url(#Dégradé_sans_nom_56-42);}.cls-43{fill:url(#Dégradé_sans_nom_56-43);}.cls-44{fill:url(#Dégradé_sans_nom_56-44);}.cls-45{fill:url(#Dégradé_sans_nom_56-45);}.cls-46{fill:url(#Dégradé_sans_nom_56-46);}.cls-47{fill:url(#Dégradé_sans_nom_56-47);}.cls-48{fill:url(#Dégradé_sans_nom_56-48);}.cls-49{fill:url(#Dégradé_sans_nom_56-49);}.cls-50{fill:url(#Dégradé_sans_nom_56-50);}.cls-51{fill:url(#Dégradé_sans_nom_56-51);}.cls-52{fill:url(#Dégradé_sans_nom_56-52);}.cls-53{fill:url(#Dégradé_sans_nom_56-53);}.cls-54{fill:url(#Dégradé_sans_nom_56-54);}.cls-55{fill:url(#Dégradé_sans_nom_56-55);}.cls-56{fill:url(#Dégradé_sans_nom_56-56);}.cls-57{fill:url(#Dégradé_sans_nom_56-57);}.cls-58{fill:url(#Dégradé_sans_nom_56-58);}.cls-59{fill:url(#Dégradé_sans_nom_56-59);}.cls-60{fill:url(#Dégradé_sans_nom_56-60);}.cls-61{fill:url(#Dégradé_sans_nom_56-61);}.cls-62{fill:url(#Dégradé_sans_nom_56-62);}.cls-63{fill:url(#Dégradé_sans_nom_56-63);}</style><linearGradient id="Dégradé_sans_nom_56" x1="-37.01" y1="292.51" x2="565.76" y2="380.85" gradientUnits="userSpaceOnUse"><stop offset="0" stop-color="#f2d975"/><stop offset="0.5" stop-color="#f2e178"/><stop offset="1" stop-color="#f2ef7e"/></linearGradient><linearGradient id="Dégradé_sans_nom_56-2" x1="-53.93" y1="408.53" x2="548.84" y2="496.87" xlink:href="#Dégradé_sans_nom_56"/><linearGradient id="Dégradé_sans_nom_56-3" x1="-62.32" y1="465.27" x2="540.44" y2="553.61" xlink:href="#Dégradé_sans_nom_56"/><linearGradient id="Dégradé_sans_nom_56-4" x1="-54.83" y1="414.14" x2="547.94" y2="502.47" xlink:href="#Dégradé_sans_nom_56"/><linearGradient id="Dégradé_sans_nom_56-5" x1="-33.33" y1="267.4" x2="569.44" y2="355.74" xlink:href="#Dégradé_sans_nom_56"/><linearGradient id="Dégradé_sans_nom_56-6" x1="-44.94" y1="346.64" x2="557.83" y2="434.98" xlink:href="#Dégradé_sans_nom_56"/><linearGradient id="Dégradé_sans_nom_56-7" x1="-90.67" y1="658.7" x2="512.1" y2="747.04" xlink:href="#Dégradé_sans_nom_56"/><linearGradient id="Dégradé_sans_nom_56-8" x1="-53.58" y1="405.61" x2="549.19" y2="493.95" xlink:href="#Dégradé_sans_nom_56"/><linearGradient id="Dégradé_sans_nom_56-9" x1="-56.33" y1="424.36" x2="546.44" y2="512.7" xlink:href="#Dégradé_sans_nom_56"/><linearGradient id="Dégradé_sans_nom_56-10" x1="-62.6" y1="467.17" x2="540.16" y2="555.51" xlink:href="#Dégradé_sans_nom_56"/><linearGradient id="Dégradé_sans_nom_56-11" x1="-64.35" y1="479.1" x2="538.42" y2="567.44" xlink:href="#Dégradé_sans_nom_56"/><linearGradient id="Dégradé_sans_nom_56-12" x1="-67.53" y1="500.8" x2="535.24" y2="589.13" xlink:href="#Dégradé_sans_nom_56"/><linearGradient id="Dégradé_sans_nom_56-13" x1="-42.97" y1="333.21" x2="559.8" y2="421.55" xlink:href="#Dégradé_sans_nom_56"/><linearGradient id="Dégradé_sans_nom_56-14" x1="-56.24" y1="423.74" x2="546.53" y2="512.08" xlink:href="#Dégradé_sans_nom_56"/><linearGradient id="Dégradé_sans_nom_56-15" x1="-53.56" y1="405.48" x2="549.21" y2="493.82" xlink:href="#Dégradé_sans_nom_56"/><linearGradient id="Dégradé_sans_nom_56-16" x1="-30.91" y1="250.96" x2="571.85" y2="339.29" xlink:href="#Dégradé_sans_nom_56"/><linearGradient id="Dégradé_sans_nom_56-17" x1="8.54" y1="-18.29" x2="611.31" y2="70.05" xlink:href="#Dégradé_sans_nom_56"/><linearGradient id="Dégradé_sans_nom_56-18" x1="-52.18" y1="396.07" x2="550.58" y2="484.4" xlink:href="#Dégradé_sans_nom_56"/><linearGradient id="Dégradé_sans_nom_56-19" x1="-31.93" y1="257.91" x2="570.83" y2="346.25" xlink:href="#Dégradé_sans_nom_56"/><linearGradient id="Dégradé_sans_nom_56-20" x1="0.2" y1="38.67" x2="602.96" y2="127.01" xlink:href="#Dégradé_sans_nom_56"/><linearGradient id="Dégradé_sans_nom_56-21" x1="-21.46" y1="186.45" x2="581.3" y2="274.79" xlink:href="#Dégradé_sans_nom_56"/><linearGradient id="Dégradé_sans_nom_56-22" x1="-85.42" y1="622.9" x2="517.34" y2="711.24" xlink:href="#Dégradé_sans_nom_56"/><linearGradient id="Dégradé_sans_nom_56-23" x1="3.77" y1="14.26" x2="606.54" y2="102.6" xlink:href="#Dégradé_sans_nom_56"/><linearGradient id="Dégradé_sans_nom_56-24" x1="4.76" y1="7.55" x2="607.52" y2="95.89" xlink:href="#Dégradé_sans_nom_56"/><linearGradient id="Dégradé_sans_nom_56-25" x1="-5.8" y1="79.58" x2="596.97" y2="167.92" xlink:href="#Dégradé_sans_nom_56"/><linearGradient id="Dégradé_sans_nom_56-26" x1="8.3" y1="-16.64" x2="611.07" y2="71.69" xlink:href="#Dégradé_sans_nom_56"/><linearGradient id="Dégradé_sans_nom_56-27" x1="-76.65" y1="563.06" x2="526.11" y2="651.39" xlink:href="#Dégradé_sans_nom_56"/><linearGradient id="Dégradé_sans_nom_56-28" x1="-73.58" y1="542.12" x2="529.18" y2="630.45" xlink:href="#Dégradé_sans_nom_56"/><linearGradient id="Dégradé_sans_nom_56-29" x1="-62.47" y1="466.28" x2="540.3" y2="554.61" xlink:href="#Dégradé_sans_nom_56"/><linearGradient id="Dégradé_sans_nom_56-30" x1="13.2" y1="-50.08" x2="615.97" y2="38.26" xlink:href="#Dégradé_sans_nom_56"/><linearGradient id="Dégradé_sans_nom_56-31" x1="-39.54" y1="309.81" x2="563.23" y2="398.14" xlink:href="#Dégradé_sans_nom_56"/><linearGradient id="Dégradé_sans_nom_56-32" x1="-20.08" y1="177" x2="582.69" y2="265.34" xlink:href="#Dégradé_sans_nom_56"/><linearGradient id="Dégradé_sans_nom_56-33" x1="-22.54" y1="193.83" x2="580.22" y2="282.16" xlink:href="#Dégradé_sans_nom_56"/><linearGradient id="Dégradé_sans_nom_56-34" x1="-43.1" y1="334.14" x2="559.66" y2="422.47" xlink:href="#Dégradé_sans_nom_56"/><linearGradient id="Dégradé_sans_nom_56-35" x1="-62.84" y1="468.79" x2="539.93" y2="557.13" xlink:href="#Dégradé_sans_nom_56"/><linearGradient id="Dégradé_sans_nom_56-36" x1="-47.6" y1="364.82" x2="555.16" y2="453.16" xlink:href="#Dégradé_sans_nom_56"/><linearGradient id="Dégradé_sans_nom_56-37" x1="-27.49" y1="227.62" x2="575.27" y2="315.96" xlink:href="#Dégradé_sans_nom_56"/><linearGradient id="Dégradé_sans_nom_56-38" x1="-35.33" y1="281.07" x2="567.44" y2="369.4" xlink:href="#Dégradé_sans_nom_56"/><linearGradient id="Dégradé_sans_nom_56-39" x1="-9.03" y1="101.65" x2="593.73" y2="189.99" xlink:href="#Dégradé_sans_nom_56"/><linearGradient id="Dégradé_sans_nom_56-40" x1="-76.29" y1="560.61" x2="526.47" y2="648.94" xlink:href="#Dégradé_sans_nom_56"/><linearGradient id="Dégradé_sans_nom_56-41" x1="-60.35" y1="451.82" x2="542.41" y2="540.16" xlink:href="#Dégradé_sans_nom_56"/><linearGradient id="Dégradé_sans_nom_56-42" x1="-44.17" y1="341.38" x2="558.6" y2="429.71" xlink:href="#Dégradé_sans_nom_56"/><linearGradient id="Dégradé_sans_nom_56-43" x1="-8.08" y1="95.14" x2="594.69" y2="183.47" xlink:href="#Dégradé_sans_nom_56"/><linearGradient id="Dégradé_sans_nom_56-44" x1="-11.76" y1="120.25" x2="591.01" y2="208.59" xlink:href="#Dégradé_sans_nom_56"/><linearGradient id="Dégradé_sans_nom_56-45" x1="-94.58" y1="685.37" x2="508.19" y2="773.7" xlink:href="#Dégradé_sans_nom_56"/><linearGradient id="Dégradé_sans_nom_56-46" x1="1.69" y1="28.51" x2="604.45" y2="116.84" xlink:href="#Dégradé_sans_nom_56"/><linearGradient id="Dégradé_sans_nom_56-47" x1="-17.19" y1="157.32" x2="585.57" y2="245.66" xlink:href="#Dégradé_sans_nom_56"/><linearGradient id="Dégradé_sans_nom_56-48" x1="-18.26" y1="164.64" x2="584.5" y2="252.97" xlink:href="#Dégradé_sans_nom_56"/><linearGradient id="Dégradé_sans_nom_56-49" x1="-66.52" y1="493.93" x2="536.24" y2="582.27" xlink:href="#Dégradé_sans_nom_56"/><linearGradient id="Dégradé_sans_nom_56-50" x1="-22.53" y1="193.78" x2="580.23" y2="282.11" xlink:href="#Dégradé_sans_nom_56"/><linearGradient id="Dégradé_sans_nom_56-51" x1="-43.45" y1="336.48" x2="559.32" y2="424.82" xlink:href="#Dégradé_sans_nom_56"/><linearGradient id="Dégradé_sans_nom_56-52" x1="-64.85" y1="482.53" x2="537.91" y2="570.86" xlink:href="#Dégradé_sans_nom_56"/><linearGradient id="Dégradé_sans_nom_56-53" x1="-33.38" y1="267.78" x2="569.39" y2="356.11" xlink:href="#Dégradé_sans_nom_56"/><linearGradient id="Dégradé_sans_nom_56-54" x1="-27.7" y1="229.01" x2="575.07" y2="317.35" xlink:href="#Dégradé_sans_nom_56"/><linearGradient id="Dégradé_sans_nom_56-55" x1="-76.53" y1="562.19" x2="526.24" y2="650.53" xlink:href="#Dégradé_sans_nom_56"/><linearGradient id="Dégradé_sans_nom_56-56" x1="-82.44" y1="602.51" x2="520.33" y2="690.85" xlink:href="#Dégradé_sans_nom_56"/><linearGradient id="Dégradé_sans_nom_56-57" x1="-43.28" y1="335.34" x2="559.48" y2="423.68" xlink:href="#Dégradé_sans_nom_56"/><linearGradient id="Dégradé_sans_nom_56-58" x1="-78.71" y1="577.08" x2="524.06" y2="665.42" xlink:href="#Dégradé_sans_nom_56"/><linearGradient id="Dégradé_sans_nom_56-59" x1="-29.16" y1="238.99" x2="573.6" y2="327.33" xlink:href="#Dégradé_sans_nom_56"/><linearGradient id="Dégradé_sans_nom_56-60" x1="18.78" y1="-88.16" x2="621.55" y2="0.18" xlink:href="#Dégradé_sans_nom_56"/><linearGradient id="Dégradé_sans_nom_56-61" x1="-14.4" y1="138.28" x2="588.36" y2="226.61" xlink:href="#Dégradé_sans_nom_56"/><linearGradient id="Dégradé_sans_nom_56-62" x1="0.01" y1="39.92" x2="602.78" y2="128.25" xlink:href="#Dégradé_sans_nom_56"/><linearGradient id="Dégradé_sans_nom_56-63" x1="17.64" y1="-80.33" x2="620.4" y2="8" xlink:href="#Dégradé_sans_nom_56"/></defs><title>Plan de travail 1</title><path class="cls-1" d="M411.61,377.56c3.47-3.63,10.24-11.42,13.78-11.81s7.09,7.09,4.33,13.78-7.09,12.6-6.3,12.6,2.36.79,12.21,0,27.56-2.36,24.81-7.88-13-24-26.78-31.5c16.54-10.24,24.81-12.6,29.53-17.33s11-4.73,18.51,0c0-9.84-.38-29.51-17.72-46.86-2-2-5.91-4.73.79-8.66s18.11-9.06,21.26-12.6,7.48,2.76,10.24,6.3,12.21,17.33,22.44,24,35,11,41,17.33,4,9.29-3.94,25.2c-2.76,5.51-14.57,4.33-19.29,3.54S512,348,508.87,356.29,519.5,387,519.5,387s14.18,13.78,16.14,18.51,9.84,17.72,12.6,23.63-1.18,8.66-5.51,10.24-40.16-.79-48-3.94-3.94,20.48-6.3,27.56-13-25.59-34.65-36.62-32.29-14.57-34.26-17.33-1.58,19.29,2,23.23,24.81,7.88,29.14,9.45,11.42,4.33,4.73,11.42-18.51,12.6-25.2,11-17.94-16.53-18.51-20.48C411.42,442.33,394.88,395.08,411.61,377.56Z"/><path class="cls-2" d="M850,548c3.47-3.63,41.85,12.14,45.39,11.74s7.09,7.09,4.33,13.78-7.09,12.6-6.3,12.6,2.36.79,12.21,0,27.56-2.36,24.81-7.88S882,528,885,516c16.54-10.24,37.27,4.73,42,0s17.22,8.7,24.7,13.42c0-9.84-.38-29.51-17.72-46.86-2-2-7.67-34.63-1-38.57s19.88,20.85,23,17.31,7.48,2.76,10.24,6.3,12.21,17.33,22.44,24,35,11,41,17.33,4,9.29-3.94,25.2c-2.76,5.51-14.57,4.33-19.29,3.54S982,542,978.87,550.29,989.5,581,989.5,581s14.18,13.78,16.14,18.51,9.84,17.72,12.6,23.63-1.18,8.66-5.51,10.24-40.16-.79-48-3.94-3.94,20.48-6.3,27.56-13-25.59-34.65-36.62-32.29-14.57-34.26-17.33-1.58,19.29,2,23.23,24.81,7.88,29.14,9.45,11.42,4.33,4.73,11.42-18.51,12.6-25.2,11-14.73-21.75-18.51-20.48C854,647,833.27,565.52,850,548Z"/><path class="cls-3" d="M1265.05,673.39c4.82-3-104.43-63.29-135.05-68.39-7.09-1.18,29.92,18.39,24,24.69S1142.6,638,1132,628.11s-43.82,7-47,16.89,31.22,28,31.22,28l18.7-.2s18.11-19.29,39-18.9,15.95,17.92,27.56,18.9S1240,689,1265.05,673.39Z"/><path class="cls-4" d="M676.05,533.39c3.15-4.73-52.46-52.78-83.08-57.88-7.09-1.18-22.05,7.88-28,14.18S553.6,498,543,488.11s-15.36-21.26-18.51-11.42S527.22,533,527.22,533l18.7-.2s18.11-19.29,39-18.9,15.95,17.92,27.56,18.9S672.9,538.12,676.05,533.39Z"/><path class="cls-5" d="M1186.05,432.39c3.15-4.73-52.46-52.78-83.08-57.88-7.09-1.18-22.05,7.88-28,14.18S1063.6,397,1053,387.11s-51.82,31-55,40.89,19,55,35,55,22.92-51.2,22.92-51.2,18.11-19.29,39-18.9,15.95,17.92,27.56,18.9S1182.9,437.12,1186.05,432.39Z"/><path class="cls-6" d="M400,450c3.15-4.73-20-58-4-81,4.1-5.9-88.08,16.39-94,22.69S290.6,400,280,390.11s-15.36-21.26-18.51-11.42S264.22,435,264.22,435l18.7-.2s18.11-19.29,39-18.9,15.95,17.92,27.56,18.9S396.85,454.73,400,450Z"/><path class="cls-7" d="M272,750c3.15-4.73-20-58-4-81,4.1-5.9-88.08,16.39-94,22.69S162.6,700,152,690.11s-15.36-21.26-18.51-11.42S136.22,735,136.22,735l18.7-.2s18.11-19.29,39-18.9,15.95,17.92,27.56,18.9S268.85,754.73,272,750Z"/><path class="cls-8" d="M170.7,444.12c1.1-5.57-40.71-45.9-34.76-73.27,1.53-7-75.06,48.91-78.1,57s-7.37,12-21,7S14.54,421.1,15.41,431.4s24.14,50.94,24.14,50.94L56.74,475s9.33-24.76,28.75-32.4,21.6,10.43,32.7,6.89S169.6,449.7,170.7,444.12Z"/><g id="Calque_6" data-name="Calque 6"><path class="cls-9" d="M474.81,527.77c-2.76-2.36-13.78-21.66,0-43.31s22.05,10.63,26.38,17.72,6.69,20.87,2,25.59S477.38,530,474.81,527.77Z"/><path class="cls-10" d="M1303.44,693.27c-3.45-1.12-21-14.72-16.61-40s34.9-4.25,41.61.63,3.73,22.32,1.18,28.5S1306.66,694.32,1303.44,693.27Z"/><path class="cls-11" d="M493.81,587.77c-2.76-2.36-13.78-21.66,0-43.31S621,557,520.19,562.18c4.33,7.09,6.69,20.87,2,25.59S496.38,590,493.81,587.77Z"/><path class="cls-12" d="M62.81,546.77c-2.76-2.36-13.78-21.66,0-43.31S190,516,89.19,521.18c4.33,7.09,6.69,20.87,2,25.59S65.38,549,62.81,546.77Z"/><path class="cls-13" d="M1169,540.8c-3-1-18.39-12.87-14.52-35s106.91-32.52,27.24,5.46c5.87,4.27,12.4,14.61,10.17,20S1171.85,541.71,1169,540.8Z"/></g><g id="Calque_7" data-name="Calque 7"><path class="cls-14" d="M456.7,525c1.88-1.32-8.27-19.29.79-29.14s11-17.72,9.84-31.5c0,0-12.6,4.73-21.26,6.3s-18.11,2-26,0c2.76,10.63,3.54,20.08,0,32.68s-2,26.38.79,26.38S452.76,527.77,456.7,525Z"/><path class="cls-15" d="M1232.43,609.37c1.08-1.69-13.15-12.81-9.13-23.79s3-18-2.61-28.74c0,0-8.59,8-15.06,12.22s-14,7.66-21,8.71c5.79,7.66,9.59,15,11,26.39s7.26,22,9.48,21S1230.18,612.92,1232.43,609.37Z"/></g><g id="Calque_8" data-name="Calque 8"><path class="cls-16" d="M407.81,309.57s7.09-15,15.75-18.11,32.29,5.12,39,13.78-2.36,22.05-5.12,24.81-13-2.36-16.54-3.15-24.81.79-28.35,7.88-4.73,8.27-4.73,8.27Z"/><path class="cls-17" d="M408,34.57s7.09-15,15.75-18.11,32.29,5.12,39,13.78S460.37,52.29,457.61,55s-13-2.36-16.54-3.15-24.81.79-28.35,7.88S408,68,408,68Z"/><path class="cls-18" d="M1235.65,586.79s.71-14.46,6.65-19.91,27.79-6.69,36.1-1.94,5.49,18.6,4.18,21.75-11.28,2.45-14.41,3-19.77,9-20.25,15.86-1,8.26-1,8.26Z"/><path class="cls-19" d="M709.48,309.24s-27,43.84-43.31,75.6C657.9,375,643.33,336,641.76,330.9S626.4,339.56,626,352.55s1.18,23.63,2.76,28.74-23.23,42.13-29.53,46.86-11.42-16.54-20.87-18.51S565,402.17,552,407.28s-33.86-38.19-30.71-44.49,24.61,10.43,41.93,10.43,28.35-27.17,33.47-45.28,22.05-30.71,24-35.83-4.33-13,7.09-14.18,50.4,2.76,61.82,16.93S709.48,309.24,709.48,309.24Z"/><path class="cls-20" d="M927.48,117.24s-27,43.84-43.31,75.6C875.9,183,861.33,144,859.76,138.9S844.4,147.56,844,160.55s1.18,23.63,2.76,28.74-23.23,42.13-29.53,46.86-11.42-16.54-20.87-18.51S783,210.17,770,215.28s-33.86-38.19-30.71-44.49,24.61,10.43,41.93,10.43,28.35-27.17,33.47-45.28,22.05-30.71,24-35.83-4.33-13,7.09-14.18,50.4,2.76,61.82,16.93S927.48,117.24,927.48,117.24Z"/></g><g id="Calque_10" data-name="Calque 10"><path class="cls-21" d="M702,272.62l55.52-13s-8.66,26.38-6.69,48-34.65,30.71-36.23,27.17.59-41.93.59-41.93S690.78,281.87,702,272.62Z"/><path class="cls-22" d="M617,683.12s32-19.26,55.52-7.08S677,751.59,679,763.39s-63.42,23.72-65,21.79,16.19-91,16.19-91S605.78,688.16,617,683.12Z"/><path class="cls-23" d="M749,103.62l55.52-13s-8.66,26.38-6.69,48-34.65,30.71-36.23,27.17.59-41.93.59-41.93S737.78,112.87,749,103.62Z"/><path class="cls-24" d="M632,79.62l55.52-13s-8.66,26.38-6.69,48-34.65,30.71-36.23,27.17.59-41.93.59-41.93S620.78,88.87,632,79.62Z"/><path class="cls-25" d="M901,192.62l55.52-13s-8.66,26.38-6.69,48-34.65,30.71-36.23,27.17.59-41.93.59-41.93S889.78,201.87,901,192.62Z"/><path class="cls-26" d="M1135,128.62l55.52-13s-8.66,26.38-6.69,48-34.65,30.71-36.23,27.17.59-41.93.59-41.93S1123.78,137.87,1135,128.62Z"/><path class="cls-27" d="M878,682.62S925,664,958,675s-13,28.34-11,50-54.82,23.38-56.4,19.83.59-41.93.59-41.93S866.78,691.87,878,682.62Z"/><path class="cls-28" d="M983,676.62s47-18.62,80-7.62-13,28.34-11,50-54.82,23.38-56.4,19.83.59-41.93.59-41.93S971.78,685.87,983,676.62Z"/><path class="cls-29" d="M683,548s95-8,128,3,29.71,59.76,8,61c-35,2-91.82,17.38-93.4,13.83s.59-41.93.59-41.93S671.78,557.25,683,548Z"/><path class="cls-30" d="M495-7s95-8,128,3,29.71,59.76,8,61c-35,2-91.82,17.38-93.4,13.83s.59-41.93.59-41.93S483.78,2.25,495-7Z"/><path class="cls-31" d="M157,362s159-118,188-71c9,22-102,48.34-100,70s-.42,42.54-2,39-78,23-78,23S145.78,371.25,157,362Z"/><path class="cls-32" d="M503,229s99-8.74,103.52-.37,18.48,38.37-6.69,48c2,21.66-34.65,30.71-36.23,27.17S530,277,530,277,491.78,238.25,503,229Z"/><path class="cls-33" d="M364,230.62l55.52-13s-8.66,26.38-6.69,48-34.65,30.71-36.23,27.17.59-41.93.59-41.93S352.78,239.87,364,230.62Z"/><path class="cls-34" d="M1204.35,513.68l40.47-29.11s1.85,24.21,10.7,41-17.68,36.42-20.14,34.09-13.58-34.06-13.58-34.06S1198.39,524.92,1204.35,513.68Z"/><path class="cls-35" d="M151,451l70.52,26.63s-8.66,26.38-6.69,48-34.65,30.71-36.23,27.17S149,531,149,531,139.78,460.25,151,451Z"/></g><g id="Calque_11" data-name="Calque 11"><path class="cls-36" d="M1068,538.11s-15.75-32.68-7.09-41.74S1080.31,427.42,1087,429s45.39,42.43,45,57-37.59,58.41-38,67.07,26.87,20.81,32,25.93-35.53,19.35-41.83,13.84-10.24-7.88-11.42-13.39-10.24,6.3-4.73,17.72,18.11,33.47,3.15,33.47S1058,617.73,1058,613s-9.24,4.24-12,7-5.93-2.75-24-15-19.69-52.76-15-52.37,18.31,4.53,18.31,11.22,13.39,5.12,15.75.79c-5.51-1.58-16.14-5.12-16.14-7.48s.79-12.6,11-13.78,15.36-5.91,24-3.94S1068,538.11,1068,538.11Z"/><path class="cls-37" d="M777,334.11s-15.75-32.68-7.09-41.74,16.93-26.78,23.63-25.2,26,18.9,25.59,33.47S803.41,340.41,803,349.07s.79,22.84,5.91,28-9.45,17.33-15.75,11.81-10.24-7.88-11.42-13.39-10.24,6.3-4.73,17.72,18.11,33.47,3.15,33.47-8.27-23.63-8.27-28.35-5.12-3.94-7.88-1.18-15,16.14-33.08,3.94-19.69-52.76-15-52.37,18.31,4.53,18.31,11.22,13.39,5.12,15.75.79c-5.51-1.58-16.14-5.12-16.14-7.48s.79-12.6,11-13.78,15.36-5.91,24-3.94S777,334.11,777,334.11Z"/></g><g id="Calque_12" data-name="Calque 12"><path class="cls-38" d="M920.73,448.82c-13.78,23.63,1.38,46.66,1.38,46.66s-4.33-.39-14.57-5.12c-32.39-15-29.53-20.08-35.83-27.56s-13-42.13-14.18-63.39-3.15-22.05-14.57-25.2-17.33,2.76-27.17-9.06-6.69-39.38,21.66-29.53,38.19,48.43,42.53,51.19,13,5.91,28-18.51,37,18.11,41.74,26.78,4.73,42.13,1,44.69-13.78-19.29-29.53-21.66,4.33,21.66,4.33,21.66Z"/><path class="cls-39" d="M683.73,230.82c-13.78,23.63,1.38,46.66,1.38,46.66s-4.33-.39-14.57-5.12c-32.39-15-29.53-20.08-35.83-27.56s-13-42.13-14.18-63.39-3.15-22.05-14.57-25.2-17.33,2.76-27.17-9.06-6.69-39.38,21.66-29.53,38.19,48.43,42.53,51.19,13,5.91,28-18.51,37,18.11,41.74,26.78,4.73,42.13,1,44.69-13.78-19.29-29.53-21.66,4.33,21.66,4.33,21.66Z"/><path class="cls-40" d="M541.73,678.82c-13.78,23.63,1.38,46.66,1.38,46.66s-4.33-.39-14.57-5.12c-32.39-15-29.53-20.08-35.83-27.56s-13-42.13-14.18-63.39-3.15-22.05-14.57-25.2-17.33,2.76-27.17-9.06-6.69-39.38,21.66-29.53,38.19,48.43,42.53,51.19,13,5.91,28-18.51,37,18.11,41.74,26.78,4.73,42.13,1,44.69-13.78-19.29-29.53-21.66,4.33,21.66,4.33,21.66Z"/><path class="cls-41" d="M303.73,532.82c-13.78,23.63,1.38,46.66,1.38,46.66s-4.33-.39-14.57-5.12c-32.39-15-29.53-20.08-35.83-27.56s-13-42.13-14.18-63.39-3.15-22.05-14.57-25.2-17.33,2.76-27.17-9.06-6.69-39.38,21.66-29.53,38.19,48.43,42.53,51.19,13,5.91,28-18.51,37,18.11,41.74,26.78,4.73,42.13,1,44.69-13.78-19.29-29.53-21.66,4.33,21.66,4.33,21.66Z"/></g><g id="Calque_13" data-name="Calque 13"><path class="cls-42" d="M853.6,508.08s-17.33-7.09-24-16.14S791,512,782.72,512s-28.74-23.23-37.8-37.8-19.29-25.2-19.29-41.34-7.88-21.66-11-29.14c26,0,43.31,15.75,42.92,18.9s14.57,25.59,37,19.29,23.63-7.09,37.8,11,20.87,11.81,28,17.72,11.42,14.57,16.54,22.44S873.28,516.75,867,516s-5.51-8.66-5.91-10.63S853.6,508.08,853.6,508.08Z"/><path class="cls-43" d="M570.6,215.08s-17.33-7.09-24-16.14S508,219,499.72,219s-28.74-23.23-37.8-37.8-19.29-25.2-19.29-41.34-7.88-21.66-11-29.14c26,0,43.31,15.75,42.92,18.9s14.57,25.59,37,19.29,23.63-7.09,37.8,11,20.87,11.81,28,17.72,11.42,14.57,16.54,22.44S590.28,223.75,584,223s-5.51-8.66-5.91-10.63S570.6,215.08,570.6,215.08Z"/><path class="cls-44" d="M354.6,209.08s-17.33-7.09-24-16.14S292,213,283.72,213s-28.74-23.23-37.8-37.8-19.29-25.2-19.29-41.34-7.88-21.66-11-29.14c26,0,43.31,15.75,42.92,18.9s14.57,25.59,37,19.29,23.63-7.09,37.8,11,20.87,11.81,28,17.72,11.42,14.57,16.54,22.44S374.28,217.75,368,217s-5.51-8.66-5.91-10.63S354.6,209.08,354.6,209.08Z"/><path class="cls-45" d="M557.6,816.08s-17.33-7.09-24-16.14S495,820,486.72,820s-28.74-23.23-37.8-37.8-19.29-25.2-19.29-41.34-7.88-21.66-11-29.14c26,0,43.31,15.75,42.92,18.9s14.57,25.59,37,19.29,23.63-7.09,37.8,11,20.87,11.81,28,17.72,11.42,14.57,16.54,22.44S577.28,824.75,571,824s-5.51-8.66-5.91-10.63S557.6,816.08,557.6,816.08Z"/><path class="cls-46" d="M393.6,121.08s-17.33-7.09-24-16.14S331,125,322.72,125s-28.74-23.23-37.8-37.8S265.63,62,265.63,45.88s-7.88-21.66-11-29.14c26,0,43.31,15.75,42.92,18.9s14.57,25.59,37,19.29,23.63-7.09,37.8,11,20.87,11.81,28,17.72,11.42,14.57,16.54,22.44S413.28,129.75,407,129s-5.51-8.66-5.91-10.63S393.6,121.08,393.6,121.08Z"/><path class="cls-47" d="M1126.6,360.08s-17.33-7.09-24-16.14S1064,364,1055.72,364s-28.74-23.23-37.8-37.8-19.29-25.2-19.29-41.34-7.88-21.66-11-29.14c26,0,43.31,15.75,42.92,18.9s14.57,25.59,37,19.29,23.63-7.09,37.8,11,20.87,11.81,28,17.72,11.42,14.57,16.54,22.44-3.54,23.63-9.84,22.84-5.51-8.66-5.91-10.63S1126.6,360.08,1126.6,360.08Z"/><path class="cls-48" d="M959.6,343.08s-17.33-7.09-24-16.14S897,347,888.72,347s-28.74-23.23-37.8-37.8-19.29-25.2-19.29-41.34-7.88-21.66-11-29.14c26,0,43.31,15.75,42.92,18.9s14.57,25.59,37,19.29,23.63-7.09,37.8,11,20.87,11.81,28,17.72,11.42,14.57,16.54,22.44S979.28,351.75,973,351s-5.51-8.66-5.91-10.63S959.6,343.08,959.6,343.08Z"/></g><g id="Calque_14" data-name="Calque 14"><path class="cls-49" d="M570.52,597.77c-.52-16.77,8.66-11,7.48-30.32s-7.88-42.13,2-44.89,33.47,42.53,41,55.91,24.74,21,67.73,10.63c11.42-2.76,10.26,4.29,11,8.27C705,625,640.56,665.09,600,658,593.31,656.78,573,616,570.52,597.77Z"/><path class="cls-50" d="M192.52,235.77c-.52-16.77,8.66-11,7.48-30.32s-7.88-42.13,2-44.89,33.47,42.53,41,55.91,24.74,21,67.73,10.63c11.42-2.76,10.26,4.29,11,8.27C327,263,262.56,303.09,222,296,215.31,294.78,195,254,192.52,235.77Z"/><path class="cls-51" d="M712.63,393.5s-9.45,28.74-7.48,40.56-11,26-14.57,34.65,4.33,20.08,0,26.78-36.23.39-41-9.45-12.6-28,14.18-57.09,28.35-42.53,38.59-39Z"/><path class="cls-52" d="M411.62,496.43s-5.53,29.75-2,41.19-7.46,27.23-9.82,36.28,7,19.32,3.57,26.54-35.85,5.22-41.84-3.9-16.22-26,6.43-58.47,22.42-45.93,33-43.78Z"/><path class="cls-53" d="M203,296s-25.53,1.56-22,13-28.85-.16-31.2,8.9,7,19.32,3.57,26.54-35.85,5.22-41.84-3.9-16.22-26,6.43-58.47,22.42-45.93,33-43.78S203,296,203,296Z"/><path class="cls-54" d="M145,189s-57.53,64.56-54,76-28.85-.16-31.2,8.9,7,19.32,3.57,26.54-35.85,5.22-41.84-3.9-16.22-26,6.43-58.47,22.42-45.93,33-43.78S145,189,145,189Z"/><path class="cls-55" d="M231.62,551.43s-5.53,29.75-2,41.19-7.46,27.23-9.82,36.28,7,19.32,3.57,26.54-35.85,5.22-41.84-3.9-16.22-26,6.43-58.47,22.42-45.93,33-43.78Z"/><path class="cls-56" d="M414.62,619.43s-5.53,29.75-2,41.19-7.46,27.23-9.82,36.28,7,19.32,3.57,26.54-35.85,5.22-41.84-3.9-16.22-26,6.43-58.47,22.42-45.93,33-43.78Z"/><path class="cls-57" d="M647.67,393.5s-40.16,16.93-21.26,83.08c8.27-5.91,20.87-38.59,21.26-47.64S651.21,398.62,647.67,393.5Z"/><path class="cls-58" d="M163.67,569.5s-40.16,16.93-21.26,83.08c8.27-5.91,20.87-38.59,21.26-47.64S167.21,574.62,163.67,569.5Z"/><path class="cls-59" d="M1264.67,385.5s-40.16,16.93-21.26,83.08c8.27-5.91,20.87-38.59,21.26-47.64S1268.21,390.62,1264.67,385.5Z"/><path class="cls-60" d="M1324.67,88.47c-5.51-11-35.83-42.13-37-53.94-8.66-4.73-36.23-5.91-43.71,0s-7.09,19.69-16.54,15-13.39-12.6-22.84-15-30.32-2-15,10.24,17.72-.39,17.33,24.41-5.51,46.46-3.54,52.37,6.69,3.94,35-8.66,28,42.92,37.8,44.1S1305,153,1318,160.13c2.76,5.12-.39,11,6.69,3.94S1330.18,99.49,1324.67,88.47Z"/><path class="cls-61" d="M1255.67,268.47c-5.51-11-35.83-42.13-37-53.94C1210,209.8,1172.48,191.09,1165,197s2.87,37.21-6.58,32.48-13.39-12.6-22.84-15-30.32-2-15,10.24,4.78,9.43,4.38,34.24,7.43,36.63,9.4,42.54,6.69,3.94,35-8.66S1151.16,382.82,1161,384s45,43.91,58,51c2.76,5.12,29.58-83.85,36.67-90.93S1261.18,279.49,1255.67,268.47Z"/><path class="cls-62" d="M1100.67,186.47c-5.51-11-35.83-42.13-37-53.94-8.66-4.73-36.23-5.91-43.71,0s-7.09,19.69-16.54,15-13.39-12.6-22.84-15-30.32-2-15,10.24,17.72-.39,17.33,24.41-5.51,46.46-3.54,52.37,6.69,3.94,35-8.66,28,42.92,37.8,44.1S1081,251,1094,258.13c2.76,5.12-.39,11,6.69,3.94S1106.18,197.49,1100.67,186.47Z"/><path class="cls-63" d="M1111,85c-5.51-11-28.82-.19-30-12-8.66-4.73-36.57-70.38-44-64.48s-7.09,19.69-16.54,15S994.45,62.36,985,60,866.64,47.79,882,60s40.39,1.19,40,26,72.43,3.63,74.4,9.54,6.69,3.94,35-8.66,28,42.92,37.8,44.1S1098,127,1111,134.13c2.76,5.12-.39,11,6.69,3.94S1116.51,96,1111,85Z"/></g></svg>