<?xml version="1.0" encoding="UTF-8"?>
<svg width="1793px" height="1349px" viewBox="0 0 1793 1349" version="1.1" xmlns="http://www.w3.org/2000/svg" xmlns:xlink="http://www.w3.org/1999/xlink">
    <!-- Generator: Sketch 47.1 (45422) - http://www.bohemiancoding.com/sketch -->
    <title>Artboard 3</title>
    <desc>Created with Sketch.</desc>
    <defs>
        <linearGradient x1="-0.00520130302%" y1="50.0400963%" x2="99.9835621%" y2="50.0400963%" id="linearGradient-1">
            <stop stop-color="#161D46" offset="49.25%"></stop>
            <stop stop-color="#1E3780" offset="89.69%"></stop>
        </linearGradient>
        <linearGradient x1="49.2392647%" y1="50.0400963%" x2="89.6747206%" y2="50.0400963%" id="linearGradient-2">
            <stop stop-color="#161D46" offset="0%"></stop>
            <stop stop-color="#1E3780" offset="100%"></stop>
        </linearGradient>
        <linearGradient x1="0.0642226003%" y1="49.988004%" x2="100.043865%" y2="49.988004%" id="linearGradient-3">
            <stop stop-color="#161D46" offset="49.25%"></stop>
            <stop stop-color="#1E3780" offset="89.69%"></stop>
        </linearGradient>
        <linearGradient x1="0.0166721085%" y1="49.9850923%" x2="100.016731%" y2="49.9850923%" id="linearGradient-4">
            <stop stop-color="#161D46" offset="49.25%"></stop>
            <stop stop-color="#1E3780" offset="89.69%"></stop>
        </linearGradient>
        <linearGradient x1="-0.00998549481%" y1="49.9688314%" x2="100.007399%" y2="49.9688314%" id="linearGradient-5">
            <stop stop-color="#161D46" offset="49.25%"></stop>
            <stop stop-color="#1E3780" offset="89.69%"></stop>
        </linearGradient>
        <linearGradient x1="-0.0242612791%" y1="50.0034447%" x2="99.9756734%" y2="50.0034447%" id="linearGradient-6">
            <stop stop-color="#161D46" offset="49.25%"></stop>
            <stop stop-color="#1E3780" offset="89.69%"></stop>
        </linearGradient>
        <linearGradient x1="-0.0563645272%" y1="50%" x2="99.9434865%" y2="50%" id="linearGradient-7">
            <stop stop-color="#161D46" offset="49.25%"></stop>
            <stop stop-color="#1E3780" offset="89.69%"></stop>
        </linearGradient>
        <linearGradient x1="0.0277692308%" y1="50.012741%" x2="100.027769%" y2="50.012741%" id="linearGradient-8">
            <stop stop-color="#161D46" offset="49.25%"></stop>
            <stop stop-color="#1E3780" offset="89.69%"></stop>
        </linearGradient>
        <linearGradient x1="0.0323846154%" y1="49.9746277%" x2="100.032385%" y2="49.9746277%" id="linearGradient-9">
            <stop stop-color="#161D46" offset="49.25%"></stop>
            <stop stop-color="#1E3780" offset="89.69%"></stop>
        </linearGradient>
        <linearGradient x1="-0.0475631807%" y1="50.000031%" x2="99.9524291%" y2="50.000031%" id="linearGradient-10">
            <stop stop-color="#161D46" offset="49.25%"></stop>
            <stop stop-color="#1E3780" offset="89.69%"></stop>
        </linearGradient>
        <linearGradient x1="-8.69795485e-06%" y1="50%" x2="100%" y2="50%" id="linearGradient-11">
            <stop stop-color="#161D46" offset="49.25%"></stop>
            <stop stop-color="#1E3780" offset="89.69%"></stop>
        </linearGradient>
        <linearGradient x1="0.00683744756%" y1="49.9715261%" x2="99.9776466%" y2="49.9715261%" id="linearGradient-12">
            <stop stop-color="#161D46" offset="49.25%"></stop>
            <stop stop-color="#1E3780" offset="89.69%"></stop>
        </linearGradient>
        <linearGradient x1="0.0352267747%" y1="49.9786677%" x2="99.9812857%" y2="49.9786677%" id="linearGradient-13">
            <stop stop-color="#161D46" offset="49.25%"></stop>
            <stop stop-color="#1E3780" offset="89.69%"></stop>
        </linearGradient>
        <linearGradient x1="0.0352267747%" y1="49.9897351%" x2="99.9812395%" y2="49.9897351%" id="linearGradient-14">
            <stop stop-color="#161D46" offset="49.25%"></stop>
            <stop stop-color="#1E3780" offset="89.69%"></stop>
        </linearGradient>
        <linearGradient x1="0.0141249808%" y1="49.975754%" x2="100.014126%" y2="49.975754%" id="linearGradient-15">
            <stop stop-color="#161D46" offset="49.25%"></stop>
            <stop stop-color="#1E3780" offset="89.69%"></stop>
        </linearGradient>
        <linearGradient x1="0.00118688565%" y1="49.9861705%" x2="100.018676%" y2="49.9861705%" id="linearGradient-16">
            <stop stop-color="#161D46" offset="49.25%"></stop>
            <stop stop-color="#1E3780" offset="89.69%"></stop>
        </linearGradient>
        <linearGradient x1="-0.0662444646%" y1="50.0052056%" x2="99.9336902%" y2="50.0052056%" id="linearGradient-17">
            <stop stop-color="#161D46" offset="49.25%"></stop>
            <stop stop-color="#1E3780" offset="89.69%"></stop>
        </linearGradient>
        <linearGradient x1="0.0241310365%" y1="50.0219173%" x2="99.9998613%" y2="50.0219173%" id="linearGradient-18">
            <stop stop-color="#161D46" offset="49.25%"></stop>
            <stop stop-color="#1E3780" offset="89.69%"></stop>
        </linearGradient>
        <linearGradient x1="-0.0348794488%" y1="50.0124043%" x2="100.003957%" y2="50.0124043%" id="linearGradient-19">
            <stop stop-color="#161D46" offset="49.25%"></stop>
            <stop stop-color="#1E3780" offset="89.69%"></stop>
        </linearGradient>
        <linearGradient x1="-0.0200875751%" y1="50.0042391%" x2="99.9799137%" y2="50.0042391%" id="linearGradient-20">
            <stop stop-color="#161D46" offset="49.25%"></stop>
            <stop stop-color="#1E3780" offset="89.69%"></stop>
        </linearGradient>
        <linearGradient x1="0.0936655908%" y1="50.017209%" x2="100.036259%" y2="50.017209%" id="linearGradient-21">
            <stop stop-color="#161D46" offset="49.25%"></stop>
            <stop stop-color="#1E3780" offset="89.69%"></stop>
        </linearGradient>
        <linearGradient x1="0.0316153846%" y1="49.9680157%" x2="100.031615%" y2="49.9680157%" id="linearGradient-22">
            <stop stop-color="#161D46" offset="49.25%"></stop>
            <stop stop-color="#1E3780" offset="89.69%"></stop>
        </linearGradient>
        <linearGradient x1="0.0155801825%" y1="49.9590418%" x2="99.9954368%" y2="49.9590418%" id="linearGradient-23">
            <stop stop-color="#161D46" offset="49.25%"></stop>
            <stop stop-color="#1E3780" offset="89.69%"></stop>
        </linearGradient>
        <linearGradient x1="0.00544159096%" y1="50.0042391%" x2="100.005501%" y2="50.0042391%" id="linearGradient-24">
            <stop stop-color="#161D46" offset="49.25%"></stop>
            <stop stop-color="#1E3780" offset="89.69%"></stop>
        </linearGradient>
        <linearGradient x1="0.0546567087%" y1="49.9807439%" x2="100.0343%" y2="49.9807439%" id="linearGradient-25">
            <stop stop-color="#161D46" offset="49.25%"></stop>
            <stop stop-color="#1E3780" offset="89.69%"></stop>
        </linearGradient>
        <linearGradient x1="0.00358913446%" y1="49.975754%" x2="100.00359%" y2="49.975754%" id="linearGradient-26">
            <stop stop-color="#161D46" offset="49.25%"></stop>
            <stop stop-color="#1E3780" offset="89.69%"></stop>
        </linearGradient>
        <linearGradient x1="-0.0307692308%" y1="49.9904967%" x2="99.9692308%" y2="49.9904967%" id="linearGradient-27">
            <stop stop-color="#161D46" offset="49.25%"></stop>
            <stop stop-color="#1E3780" offset="89.69%"></stop>
        </linearGradient>
        <linearGradient x1="0.169218306%" y1="49.9129522%" x2="100.091866%" y2="49.9129522%" id="linearGradient-28">
            <stop stop-color="#161D46" offset="49.25%"></stop>
            <stop stop-color="#1E3780" offset="89.69%"></stop>
        </linearGradient>
        <linearGradient x1="0.0887507825%" y1="50.0299769%" x2="100.085382%" y2="50.0299769%" id="linearGradient-29">
            <stop stop-color="#161D46" offset="49.25%"></stop>
            <stop stop-color="#1E3780" offset="89.69%"></stop>
        </linearGradient>
        <linearGradient x1="0.0770325996%" y1="49.9622501%" x2="99.9848945%" y2="49.9622501%" id="linearGradient-30">
            <stop stop-color="#161D46" offset="49.25%"></stop>
            <stop stop-color="#1E3780" offset="89.69%"></stop>
        </linearGradient>
        <linearGradient x1="0.154521491%" y1="49.9811535%" x2="100.115169%" y2="49.9811535%" id="linearGradient-31">
            <stop stop-color="#161D46" offset="49.25%"></stop>
            <stop stop-color="#1E3780" offset="89.69%"></stop>
        </linearGradient>
        <linearGradient x1="-0.0388430952%" y1="49.9492862%" x2="99.9183222%" y2="49.9492862%" id="linearGradient-32">
            <stop stop-color="#161D46" offset="49.25%"></stop>
            <stop stop-color="#1E3780" offset="89.69%"></stop>
        </linearGradient>
        <linearGradient x1="0.0849759697%" y1="49.9534501%" x2="100.064459%" y2="49.9534501%" id="linearGradient-33">
            <stop stop-color="#161D46" offset="49.25%"></stop>
            <stop stop-color="#1E3780" offset="89.69%"></stop>
        </linearGradient>
        <linearGradient x1="0.24152493%" y1="49.9868518%" x2="100.054451%" y2="49.9868518%" id="linearGradient-34">
            <stop stop-color="#161D46" offset="49.25%"></stop>
            <stop stop-color="#1E3780" offset="89.69%"></stop>
        </linearGradient>
        <linearGradient x1="-0.0165231875%" y1="49.919563%" x2="99.959281%" y2="49.919563%" id="linearGradient-35">
            <stop stop-color="#161D46" offset="49.25%"></stop>
            <stop stop-color="#1E3780" offset="89.69%"></stop>
        </linearGradient>
        <linearGradient x1="0.13902429%" y1="49.9384947%" x2="100.118507%" y2="49.9384947%" id="linearGradient-36">
            <stop stop-color="#161D46" offset="49.25%"></stop>
            <stop stop-color="#1E3780" offset="89.69%"></stop>
        </linearGradient>
        <linearGradient x1="0.0936837546%" y1="49.9521496%" x2="100.073467%" y2="49.9521496%" id="linearGradient-37">
            <stop stop-color="#161D46" offset="49.25%"></stop>
            <stop stop-color="#1E3780" offset="89.69%"></stop>
        </linearGradient>
        <linearGradient x1="0.0421091979%" y1="49.9939822%" x2="100.042044%" y2="49.9939822%" id="linearGradient-38">
            <stop stop-color="#161D46" offset="49.25%"></stop>
            <stop stop-color="#1E3780" offset="89.69%"></stop>
        </linearGradient>
        <linearGradient x1="0.00459382656%" y1="50.030963%" x2="100.004445%" y2="50.030963%" id="linearGradient-39">
            <stop stop-color="#161D46" offset="49.25%"></stop>
            <stop stop-color="#1E3780" offset="89.69%"></stop>
        </linearGradient>
        <linearGradient x1="0.0564507594%" y1="49.9740741%" x2="100.056513%" y2="49.9740741%" id="linearGradient-40">
            <stop stop-color="#161D46" offset="49.25%"></stop>
            <stop stop-color="#1E3780" offset="89.69%"></stop>
        </linearGradient>
        <linearGradient x1="0.168837184%" y1="49.9129522%" x2="100.092247%" y2="49.9129522%" id="linearGradient-41">
            <stop stop-color="#161D46" offset="49.25%"></stop>
            <stop stop-color="#1E3780" offset="89.69%"></stop>
        </linearGradient>
        <linearGradient x1="-0.0747787611%" y1="49.8861921%" x2="99.9336283%" y2="49.8861921%" id="linearGradient-42">
            <stop stop-color="#161D46" offset="49.25%"></stop>
            <stop stop-color="#1E3780" offset="89.69%"></stop>
        </linearGradient>
    </defs>
    <g id="Page-1" stroke="none" stroke-width="1" fill="none" fill-rule="evenodd">
        <g id="Artboard-3" fill-rule="nonzero">
            <g id="couche-bleuFonce" transform="translate(-24.000000, 34.000000)">
                <g id="Calque_2_1_" transform="translate(436.000000, 326.000000)" fill="url(#linearGradient-1)">
                    <path d="M260.6,430 C251.1,422.3 234.4,387.3 228.5,369.4 C222.6,351.5 233.2,327.1 233.2,327.1 C233.2,327.1 265.7,279.8 274.9,279.7 C284.1,279.6 299.7,243.8 299.7,243.8 C299.7,243.8 345.5,228.9 349.2,228.7 C393.4,227.9 397.8,203.2 395.9,201.2 C394,199.2 359.4,213.7 359.4,213.7 L334.7,182.3 C337.4,170.4 341.2,158.8 346.1,147.7 C354.3,128.8 337.2,117.8 337.2,117.8 L346.1,109.9 C346.1,109.9 357.4,111.3 358.7,104.1 C360,97 345.9,95.6 345.9,95.6 C345.9,95.6 356.6,83.7 348,82.3 C339.5,80.9 341,100.5 322.1,127.1 C303.2,153.7 298.8,151.2 293.7,152.5 C278.7,140.7 296,111.6 298.6,105.6 C300.5,78.1 292.5,69.3 289.2,57.8 C290.5,46.5 286.4,34.7 282.2,27.6 C279.7,8.2 248.1,0.9 248.1,0.9 C248.1,0.9 228.1,7 223.8,6.3 C213.5,4.8 190.7,6.7 179,9.5 C164.8,40 131.2,24.7 131.2,24.7 C127,29.1 139.8,50 150.1,58 C159.7,63.3 166.9,71.8 164,80.6 C161.1,89.4 152.7,131.8 152.7,131.8 C152.7,131.8 147,147 141.8,163.1 C138.8,172.7 141.7,184.2 149.9,195 C163.2,219.1 142.7,259.8 142.7,259.8 C142.7,259.8 111.2,288 119.7,304.2 C128.2,320.3 129.3,332.6 118.9,333.4 C108.5,334.2 87.7,312.7 75.4,307.4 C63.1,302 34.4,315.5 23.7,319.1 C13,322.7 8.3,312.4 8.3,312.4 C8.3,312.4 5.7,318.4 4.1,324.2 C18.6,332.9 0.2,352 0.2,352 C0.2,352 6,351.2 9.9,356.5 C13.8,361.8 46.5,367.6 43.9,371.8 C41.3,376.1 63.2,380.1 63.2,379.4 C63.1,377.6 81.8,378.6 81.8,378.6 L83.2,388.1 C83.2,388.1 88.2,384.1 91.7,391.8 C95.2,399.5 98.9,395 102.5,396.5 C109.2,389.4 99.9,375.3 88.9,356.3 C77.9,337.3 90.6,333.4 104.4,341.8 C118.1,350.1 133.8,345.7 133.8,345.7 C133.8,345.7 146.3,316.9 154,320.2 C161.7,323.5 149.1,348.2 149.1,348.2 C149.1,348.2 136.9,374.2 134.2,382.5 C142.8,392.1 128.6,407.8 128.6,407.8 C128.6,407.8 157.9,409 162.5,422.5 C164.7,428.9 201.2,435.7 213.5,449.2 C221,457.4 251,458.9 255.9,466.9 C260.7,474.9 273.3,470.7 274.7,471.3 C282.9,458.6 270,437.7 260.6,430 Z M332,138 C339.9,140.8 320.8,191 324.9,196.3 C340,205.8 334.8,211.3 336.2,212.4 C337.6,213.5 316.2,218.5 316.2,218.5 C316.2,218.5 297.8,233.5 282,232 C218.6,211.5 332,138 332,138 Z M209.9,237.8 C196.1,221.2 184.6,201.4 208,189.7 C208,189.7 220.6,183.9 226.2,185.8 C231.8,187.7 240.9,170.9 244.7,172.6 L248.5,174.3 C248.5,174.3 262.1,180.8 248.8,205.1 C248.8,205.1 252.7,215.1 247.7,226.5 C247.7,226.5 270.8,225.9 236.5,252.3 C234.2,251.3 223.7,254.5 209.9,237.8 Z M226.8,297.7 L227.7,295.7 C227.7,295.7 240.1,250.3 250.8,253.2 C257.8,253.9 257.5,237.8 257.5,237.8 L287.4,238.4 C287.4,238.4 288.1,249.3 282.6,249.3 C277.1,249.3 260.1,277.9 260.1,277.9 C260.1,277.9 245.6,300.6 226.8,297.7 Z" id="Shape"></path>
                </g>
                <g id="Calque_2_1_-Copy-2" transform="translate(43.000000, 0.000000)" fill="url(#linearGradient-1)">
                    <path d="M260.6,348 C251.1,340.3 234.4,305.3 228.5,287.4 C222.6,269.5 233.2,245.1 233.2,245.1 C233.2,245.1 265.7,197.8 274.9,197.7 C284.1,197.6 299.7,161.8 299.7,161.8 C299.7,161.8 345.5,146.9 349.2,146.7 C393.4,145.9 397.8,121.2 395.9,119.2 C394,117.2 359.4,131.7 359.4,131.7 L334.7,100.3 C337.4,88.4 341.2,76.8 346.1,65.7 C354.3,46.8 337.2,35.8 337.2,35.8 L346.1,27.9 C346.1,27.9 357.4,29.3 358.7,22.1 C360,15 345.9,13.6 345.9,13.6 C345.9,13.6 356.6,1.7 348,0.3 C339.5,-1.1 341,18.5 322.1,45.1 C303.2,71.7 298.8,69.2 293.7,70.5 C278.7,58.7 147,65 141.8,81.1 C138.8,90.7 141.7,102.2 149.9,113 C163.2,137.1 142.7,177.8 142.7,177.8 C142.7,177.8 111.2,206 119.7,222.2 C128.2,238.3 129.3,250.6 118.9,251.4 C108.5,252.2 87.7,230.7 75.4,225.4 C63.1,220 34.4,233.5 23.7,237.1 C13,240.7 8.3,230.4 8.3,230.4 C8.3,230.4 5.7,236.4 4.1,242.2 C18.6,250.9 0.2,270 0.2,270 C0.2,270 6,269.2 9.9,274.5 C13.8,279.8 46.5,285.6 43.9,289.8 C41.3,294.1 63.2,298.1 63.2,297.4 C63.1,295.6 81.8,296.6 81.8,296.6 L83.2,306.1 C83.2,306.1 88.2,302.1 91.7,309.8 C95.2,317.5 98.9,313 102.5,314.5 C109.2,307.4 99.9,293.3 88.9,274.3 C77.9,255.3 90.6,251.4 104.4,259.8 C118.1,268.1 133.8,263.7 133.8,263.7 C133.8,263.7 146.3,234.9 154,238.2 C161.7,241.5 149.1,266.2 149.1,266.2 C149.1,266.2 136.9,292.2 134.2,300.5 C142.8,310.1 128.6,325.8 128.6,325.8 C128.6,325.8 157.9,327 162.5,340.5 C164.7,346.9 201.2,353.7 213.5,367.2 C221,375.4 251,376.9 255.9,384.9 C260.7,392.9 273.3,388.7 274.7,389.3 C282.9,376.6 270,355.7 260.6,348 Z M332,56 C339.9,58.8 320.8,109 324.9,114.3 C340,123.8 334.8,129.3 336.2,130.4 C337.6,131.5 316.2,136.5 316.2,136.5 C316.2,136.5 297.8,151.5 282,150 C218.6,129.5 332,56 332,56 Z M209.9,155.8 C196.1,139.2 184.6,119.4 208,107.7 C208,107.7 220.6,101.9 226.2,103.8 C231.8,105.7 240.9,88.9 244.7,90.6 L248.5,92.3 C248.5,92.3 262.1,98.8 248.8,123.1 C248.8,123.1 252.7,133.1 247.7,144.5 C247.7,144.5 270.8,143.9 236.5,170.3 C234.2,169.3 223.7,172.5 209.9,155.8 Z M226.8,215.7 L227.7,213.7 C227.7,213.7 240.1,168.3 250.8,171.2 C257.8,171.9 257.5,155.8 257.5,155.8 L287.4,156.4 C287.4,156.4 288.1,167.3 282.6,167.3 C277.1,167.3 260.1,195.9 260.1,195.9 C260.1,195.9 245.6,218.6 226.8,215.7 Z" id="Shape"></path>
                </g>
                <g id="Calque_2_1_-Copy" transform="translate(1044.603383, 1097.307193) rotate(54.000000) translate(-1044.603383, -1097.307193) translate(846.103383, 861.307193)" fill="url(#linearGradient-2)">
                    <path d="M260.6,430 C251.1,422.3 234.4,387.3 228.5,369.4 C222.6,351.5 233.2,327.1 233.2,327.1 C233.2,327.1 265.7,279.8 274.9,279.7 C284.1,279.6 299.7,243.8 299.7,243.8 C299.7,243.8 345.5,228.9 349.2,228.7 C393.4,227.9 397.8,203.2 395.9,201.2 C394,199.2 359.4,213.7 359.4,213.7 L334.7,182.3 C337.4,170.4 341.2,158.8 346.1,147.7 C354.3,128.8 337.2,117.8 337.2,117.8 L346.1,109.9 C346.1,109.9 357.4,111.3 358.7,104.1 C360,97 345.9,95.6 345.9,95.6 C345.9,95.6 356.6,83.7 348,82.3 C339.5,80.9 341,100.5 322.1,127.1 C303.2,153.7 298.8,151.2 293.7,152.5 C278.7,140.7 296,111.6 298.6,105.6 C300.5,78.1 292.5,69.3 289.2,57.8 C290.5,46.5 286.4,34.7 282.2,27.6 C279.7,8.2 248.1,0.9 248.1,0.9 C248.1,0.9 228.1,7 223.8,6.3 C213.5,4.8 190.7,6.7 179,9.5 C164.8,40 131.2,24.7 131.2,24.7 C127,29.1 139.8,50 150.1,58 C159.7,63.3 166.9,71.8 164,80.6 C161.1,89.4 152.7,131.8 152.7,131.8 C152.7,131.8 147,147 141.8,163.1 C138.8,172.7 141.7,184.2 149.9,195 C163.2,219.1 142.7,259.8 142.7,259.8 C142.7,259.8 111.2,288 119.7,304.2 C128.2,320.3 129.3,332.6 118.9,333.4 C108.5,334.2 87.7,312.7 75.4,307.4 C63.1,302 34.4,315.5 23.7,319.1 C13,322.7 8.3,312.4 8.3,312.4 C8.3,312.4 5.7,318.4 4.1,324.2 C18.6,332.9 0.2,352 0.2,352 C0.2,352 6,351.2 9.9,356.5 C13.8,361.8 46.5,367.6 43.9,371.8 C41.3,376.1 63.2,380.1 63.2,379.4 C63.1,377.6 81.8,378.6 81.8,378.6 L83.2,388.1 C83.2,388.1 88.2,384.1 91.7,391.8 C95.2,399.5 98.9,395 102.5,396.5 C109.2,389.4 99.9,375.3 88.9,356.3 C77.9,337.3 90.6,333.4 104.4,341.8 C118.1,350.1 133.8,345.7 133.8,345.7 C133.8,345.7 146.3,316.9 154,320.2 C161.7,323.5 149.1,348.2 149.1,348.2 C149.1,348.2 136.9,374.2 134.2,382.5 C142.8,392.1 128.6,407.8 128.6,407.8 C128.6,407.8 157.9,409 162.5,422.5 C164.7,428.9 201.2,435.7 213.5,449.2 C221,457.4 251,458.9 255.9,466.9 C260.7,474.9 273.3,470.7 274.7,471.3 C282.9,458.6 270,437.7 260.6,430 Z M332,138 C339.9,140.8 320.8,191 324.9,196.3 C340,205.8 334.8,211.3 336.2,212.4 C337.6,213.5 316.2,218.5 316.2,218.5 C316.2,218.5 297.8,233.5 282,232 C218.6,211.5 332,138 332,138 Z M209.9,237.8 C196.1,221.2 184.6,201.4 208,189.7 C208,189.7 220.6,183.9 226.2,185.8 C231.8,187.7 240.9,170.9 244.7,172.6 L248.5,174.3 C248.5,174.3 262.1,180.8 248.8,205.1 C248.8,205.1 252.7,215.1 247.7,226.5 C247.7,226.5 270.8,225.9 236.5,252.3 C234.2,251.3 223.7,254.5 209.9,237.8 Z M226.8,297.7 L227.7,295.7 C227.7,295.7 240.1,250.3 250.8,253.2 C257.8,253.9 257.5,237.8 257.5,237.8 L287.4,238.4 C287.4,238.4 288.1,249.3 282.6,249.3 C277.1,249.3 260.1,277.9 260.1,277.9 C260.1,277.9 245.6,300.6 226.8,297.7 Z" id="Shape"></path>
                </g>
                <g id="Calque_3" transform="translate(1142.000000, 442.000000)" fill="url(#linearGradient-3)">
                    <path d="M31.3,9.3 C31.3,9.3 28,22.9 31.6,26.1 C35.2,29.3 47.8,53.3 40.6,69 C36.4,75 14.8,97.1 15.4,108.7 L15.4,114.7 C15.4,114.7 -11,157.1 7,164.5 C17.2,169.6 32.2,155.7 32.2,155.7 C32.2,155.7 43.6,152 44.2,170.5 C44.8,188.9 40,183.4 40,183.4 C40,183.4 36.4,200 45.4,205.1 C54.4,210.2 45.4,230.5 45.4,230.5 C45.4,230.5 -3.1,272.9 28,284.4 C41.2,289 65.1,230.9 75.9,233.2 C86.7,235.5 99.3,245.6 114.2,233.2 C123.8,224.9 141.8,239.7 141.8,239.7 C141.8,239.7 169.9,221.7 129.2,210.2 C126.2,210.2 108.8,214.8 109.4,195 C110,175.2 135.8,131.4 135.8,131.4 C135.8,131.4 140,113.9 114.8,118 C112.4,117.5 107,130.4 89.6,120.3 C83,111.5 80,103.7 75.8,103.7 C71.6,103.7 86,97.7 86.6,95.4 C87.2,93.1 85.4,92.2 85.4,92.2 C85.4,92.2 78.2,98.7 74,100.5 C69.8,102.3 58.4,103.7 58.4,90.8 C58.4,77.9 62.6,59.4 68.6,50.2 C68.6,50.2 72.8,34.1 64.4,26.7 C56,19.3 71.3,27.9 56.6,9.2 C41.9,-9.5 31.3,9.3 31.3,9.3 Z" id="Shape"></path>
                </g>
                <g id="Calque_3-Copy" transform="translate(518.000000, 346.250000) rotate(19.000000) translate(-518.000000, -346.250000) translate(472.000000, 260.000000)" fill="url(#linearGradient-3)">
                    <path d="M18.9447368,5.62894737 C18.9447368,5.62894737 16.9473684,13.8605263 19.1263158,15.7973684 C21.3052632,17.7342105 28.9315789,32.2605263 24.5736842,41.7631579 C22.0315789,45.3947368 8.95789474,58.7710526 9.32105263,65.7921053 L9.32105263,69.4236842 C9.32105263,69.4236842 -6.65789474,95.0868421 4.23684211,99.5657895 C10.4105263,102.652632 19.4894737,94.2394737 19.4894737,94.2394737 C19.4894737,94.2394737 26.3894737,92 26.7526316,103.197368 C27.1157895,114.334211 24.2105263,111.005263 24.2105263,111.005263 C24.2105263,111.005263 22.0315789,121.052632 27.4789474,124.139474 C32.9263158,127.226316 27.4789474,139.513158 27.4789474,139.513158 C27.4789474,139.513158 -1.87631579,165.176316 16.9473684,172.136842 C24.9368421,174.921053 39.4026316,139.755263 45.9394737,141.147368 C52.4763158,142.539474 60.1026316,148.652632 69.1210526,141.147368 C74.9315789,136.123684 85.8263158,145.081579 85.8263158,145.081579 C85.8263158,145.081579 102.834211,134.186842 78.2,127.226316 C76.3842105,127.226316 65.8526316,130.010526 66.2157895,118.026316 C66.5789474,106.042105 82.1947368,79.5315789 82.1947368,79.5315789 C82.1947368,79.5315789 84.7368421,68.9394737 69.4842105,71.4210526 C68.0315789,71.1184211 64.7631579,78.9263158 54.2315789,72.8131579 C50.2368421,67.4868421 48.4210526,62.7657895 45.8789474,62.7657895 C43.3368421,62.7657895 52.0526316,59.1342105 52.4157895,57.7421053 C52.7789474,56.35 51.6894737,55.8052632 51.6894737,55.8052632 C51.6894737,55.8052632 47.3315789,59.7394737 44.7894737,60.8289474 C42.2473684,61.9184211 35.3473684,62.7657895 35.3473684,54.9578947 C35.3473684,47.15 37.8894737,35.9526316 41.5210526,30.3842105 C41.5210526,30.3842105 44.0631579,20.6394737 38.9789474,16.1605263 C33.8947368,11.6815789 43.1552632,16.8868421 34.2578947,5.56842105 C25.3605263,-5.75 18.9447368,5.62894737 18.9447368,5.62894737 Z" id="Shape"></path>
                </g>
                <g id="Calque_3-Copy-2" transform="translate(981.574108, 895.527112) rotate(19.000000) translate(-981.574108, -895.527112) translate(935.574108, 809.277112)" fill="url(#linearGradient-3)">
                    <path d="M18.9447368,5.62894737 C18.9447368,5.62894737 16.9473684,13.8605263 19.1263158,15.7973684 C21.3052632,17.7342105 28.9315789,32.2605263 24.5736842,41.7631579 C22.0315789,45.3947368 8.95789474,58.7710526 9.32105263,65.7921053 L9.32105263,69.4236842 C9.32105263,69.4236842 -6.65789474,95.0868421 4.23684211,99.5657895 C10.4105263,102.652632 19.4894737,94.2394737 19.4894737,94.2394737 C19.4894737,94.2394737 26.3894737,92 26.7526316,103.197368 C27.1157895,114.334211 24.2105263,111.005263 24.2105263,111.005263 C24.2105263,111.005263 22.0315789,121.052632 27.4789474,124.139474 C32.9263158,127.226316 27.4789474,139.513158 27.4789474,139.513158 C27.4789474,139.513158 -1.87631579,165.176316 16.9473684,172.136842 C24.9368421,174.921053 39.4026316,139.755263 45.9394737,141.147368 C52.4763158,142.539474 60.1026316,148.652632 69.1210526,141.147368 C74.9315789,136.123684 85.8263158,145.081579 85.8263158,145.081579 C85.8263158,145.081579 102.834211,134.186842 78.2,127.226316 C76.3842105,127.226316 65.8526316,130.010526 66.2157895,118.026316 C66.5789474,106.042105 82.1947368,79.5315789 82.1947368,79.5315789 C82.1947368,79.5315789 84.7368421,68.9394737 69.4842105,71.4210526 C68.0315789,71.1184211 64.7631579,78.9263158 54.2315789,72.8131579 C50.2368421,67.4868421 48.4210526,62.7657895 45.8789474,62.7657895 C43.3368421,62.7657895 52.0526316,59.1342105 52.4157895,57.7421053 C52.7789474,56.35 51.6894737,55.8052632 51.6894737,55.8052632 C51.6894737,55.8052632 47.3315789,59.7394737 44.7894737,60.8289474 C42.2473684,61.9184211 35.3473684,62.7657895 35.3473684,54.9578947 C35.3473684,47.15 37.8894737,35.9526316 41.5210526,30.3842105 C41.5210526,30.3842105 44.0631579,20.6394737 38.9789474,16.1605263 C33.8947368,11.6815789 43.1552632,16.8868421 34.2578947,5.56842105 C25.3605263,-5.75 18.9447368,5.62894737 18.9447368,5.62894737 Z" id="Shape"></path>
                </g>
                <g id="Calque_4" transform="translate(982.000000, 650.000000)" fill="url(#linearGradient-4)">
                    <path d="M3.9,27.4 C3.9,27.4 3.9,6.4 23.9,0.4 C29.4,-2.1 47.4,31.9 73.4,31.9 C80.5,31.9 87.5,29.8 93.4,25.9 C93.4,25.9 106.4,23.9 102.4,46.9 C98.4,69.9 101.4,75.9 101.4,75.9 C101.4,75.9 114.4,90.9 133.4,88.9 C133.4,88.9 141.4,124.9 151.4,128.9 C161.4,132.9 179.4,117.9 171.4,147.9 C170.4,152.9 142.4,140.9 142.4,140.9 L127.4,140.9 C127.4,140.9 101.4,101.9 71.4,95.9 C41.4,89.9 17.4,119.9 17.4,119.9 C17.4,119.9 2.4,113.9 1.4,108.9 C0.4,103.9 -4.6,68.9 34.4,66.9 C44.4,64.9 37.4,36.9 3.9,27.4 Z" id="Shape"></path>
                </g>
                <g id="Calque_4-Copy" transform="translate(1273.000000, 398.000000)" fill="url(#linearGradient-4)">
                    <path d="M3.9,27.4 C3.9,27.4 3.9,6.4 23.9,0.4 C29.4,-2.1 47.4,31.9 73.4,31.9 C80.5,31.9 87.5,29.8 93.4,25.9 C93.4,25.9 106.4,23.9 102.4,46.9 C98.4,69.9 101.4,75.9 101.4,75.9 C101.4,75.9 114.4,90.9 133.4,88.9 C133.4,88.9 141.4,124.9 151.4,128.9 C161.4,132.9 179.4,117.9 171.4,147.9 C170.4,152.9 142.4,140.9 142.4,140.9 L127.4,140.9 C127.4,140.9 101.4,101.9 71.4,95.9 C41.4,89.9 17.4,119.9 17.4,119.9 C17.4,119.9 2.4,113.9 1.4,108.9 C0.4,103.9 -4.6,68.9 34.4,66.9 C44.4,64.9 37.4,36.9 3.9,27.4 Z" id="Shape"></path>
                </g>
                <g id="Calque_6" transform="translate(1218.000000, 488.000000)" fill="url(#linearGradient-5)">
                    <path d="M337.4,30.6 L321.2,0 C321.2,0 281.8,22.3 268.6,59 C255.5,95.7 191.5,152.6 112.5,175 C105.2,177.9 105.8,249.7 105.8,249.7 C105.8,249.7 59.1,282.8 59.5,294.5 C59.9,306.2 60,350.5 41.4,368.6 C29.6,379.9 16.5,389.7 2.3,397.8 C-3,404.4 6.9,406.6 20.4,403.8 C32,401.4 33.4,408.1 33.4,408.1 C42.5,417.8 49.7,419.8 55.5,415.4 C55.5,415.4 120,315.6 137.5,259.2 C155,202.8 215.9,171.3 228.6,177.6 C241.3,183.9 292.8,171.4 297.8,153 C302.7,134.4 337.4,30.6 337.4,30.6 Z" id="Shape"></path>
                </g>
                <g id="Calque_6-Copy" transform="translate(519.513592, 1126.061434) rotate(-106.000000) translate(-519.513592, -1126.061434) translate(350.513592, 917.061434)" fill="url(#linearGradient-5)">
                    <path d="M337.4,30.6 L321.2,0 C321.2,0 281.8,22.3 268.6,59 C255.5,95.7 191.5,152.6 112.5,175 C105.2,177.9 105.8,249.7 105.8,249.7 C105.8,249.7 59.1,282.8 59.5,294.5 C59.9,306.2 60,350.5 41.4,368.6 C29.6,379.9 16.5,389.7 2.3,397.8 C-3,404.4 6.9,406.6 20.4,403.8 C32,401.4 33.4,408.1 33.4,408.1 C42.5,417.8 49.7,419.8 55.5,415.4 C55.5,415.4 120,315.6 137.5,259.2 C155,202.8 215.9,171.3 228.6,177.6 C241.3,183.9 292.8,171.4 297.8,153 C302.7,134.4 337.4,30.6 337.4,30.6 Z" id="Shape"></path>
                </g>
                <g id="Calque_7" transform="translate(1140.000000, 156.000000)" fill="url(#linearGradient-6)">
                    <path d="M32.5,127.5 C32.5,127.5 33.5,34.5 16.5,1.5 C14,-4 -11,35 6,69 C23,103 7,127 7,127 C12.4,134.6 15.4,134.2 16.3,127.2 L21.7,127.3 C16,140.6 19.6,140.8 32.5,127.5 Z" id="Shape"></path>
                </g>
                <g id="Calque_8" transform="translate(1194.000000, 774.000000)" fill="url(#linearGradient-7)">
                    <path d="M23.2,68 C23.2,68 -2.3,57.5 0.7,31.5 C3.7,5.5 36.7,15.5 36.7,15.5 L47.7,0.5 L42.7,18.5 C42.7,18.5 37.7,54.5 23.2,68 Z" id="Shape"></path>
                </g>
                <g id="Calque_9" transform="translate(1615.000000, 458.000000)" fill="url(#linearGradient-8)">
                    <path d="M41.6,87.8 C41.6,87.8 35.6,58.8 27.6,53.8 C19.6,48.8 0.1,0.3 0.1,0.3 C0.1,0.3 53.1,42.3 74.1,41.3 C95.1,40.3 130.1,88.3 130.1,88.3 C130.1,88.3 95.1,73.5 98.9,88.1 C102.7,102.8 65.1,87.9 65.1,87.9 C59,108.7 50,94.1 41.6,87.8 Z" id="Shape"></path>
                </g>
                <g id="Calque_9_4_" transform="translate(96.000000, 606.000000)" fill="url(#linearGradient-9)">
                    <path d="M42.3,87.9 C42.3,87.9 36.3,58.9 28.3,53.9 C20.3,48.9 0.8,0.4 0.8,0.4 C0.8,0.4 53.8,42.4 74.8,41.4 C95.8,40.4 130.8,88.4 130.8,88.4 C130.8,88.4 95.8,73.6 99.6,88.2 C103.4,102.8 65.8,88 65.8,88 C59.7,108.7 50.7,94.1 42.3,87.9 Z" id="Shape"></path>
                </g>
                <g id="Calque_10" transform="translate(725.000000, 130.000000)" fill="url(#linearGradient-10)">
                    <path d="M0.6,19.1524911 C0.6,19.1524911 3.61279482,41.7484523 14.1575767,43.2548497 C24.7023585,44.7612471 29.9747495,19.9056898 29.9747495,19.9056898 C29.9747495,19.9056898 63.1154924,1.82892095 61.609095,89.1999706 C61.609095,122.340714 61.609095,170.545431 93.2434406,184.103007 C124.877786,197.660584 79.6858639,53.0464328 79.6858639,53.0464328 C79.6858639,53.0464328 115.086203,58.3188237 78.1794665,18.3992924 C41.27273,-21.5202389 0.6,19.1524911 0.6,19.1524911 Z" id="Shape"></path>
                </g>
                <g id="Calque_11" transform="translate(485.000000, 157.000000)" fill="url(#linearGradient-11)">
                    <path d="M13,0 L32,49 C32,49 -24,43 13,0 Z" id="Shape"></path>
                </g>
                <g id="Calque_12" transform="translate(149.000000, 253.000000)" fill="url(#linearGradient-12)">
                    <path d="M74.9,0.1 C74.9,0.1 117.6,5 0.6,122.3 C0.8,122.9 74.9,0.1 74.9,0.1 Z" id="Shape"></path>
                </g>
                <g id="Calque_13" transform="translate(241.000000, 314.000000)" fill="url(#linearGradient-13)">
                    <path d="M168,2.6 C168,2.6 186.6,22.7 212.9,27.3 C215.1,27.9 225.3,34.5 202.7,47.9 C195.5,51.9 167.7,51.7 174.5,65 C174.5,65 214.8,74.5 160.1,89.2 C149.9,91.3 134.3,93.6 139.2,121.5 C139.2,124.5 129,153.3 122,158.2 C115,163.1 117,175.2 117,175.2 C117,175.2 120.4,180.3 133.1,160.8 C145.8,141.3 137.2,140.4 158,132.1 C167.2,128.4 167.8,117.7 167.8,117.7 C167.8,117.7 186,101.9 191.6,110 C193.3,114.1 192.3,116.8 195.5,118.4 C198.6,119.9 210,116.1 204,130.1 C198,144.1 193.5,143.4 193.5,143.4 L178.7,164.4 C178.7,164.4 170.7,193 175.7,202.6 C177.9,208.2 159.5,237.9 159.5,237.9 C159.5,237.9 158.9,246.9 168.3,239.7 C170.8,237.1 170.9,241.4 170.9,241.4 L168,249.7 C168,249.7 161.1,246.8 154.3,252.7 C147.5,258.6 138,258.7 133.7,255.9 C129.4,253.1 121.2,224.4 114,225.3 C106.8,226.3 92,238.5 92.2,245.1 C92.6,250.1 81.9,248 82.5,241.7 C82.8,238.2 69.2,233.5 69.5,237.1 C70,244 56.8,236.3 57.1,232.7 C57.1,232.7 57.2,219.2 45.2,215.8 C33.2,212.4 15.5,210.5 12.1,190.5 C11.3,186.7 4,183.7 4,183.7 C4,183.7 -9.3,128.5 17.4,146.1 C44.1,163.7 41.9,171.8 41.9,171.8 L40.1,175.5 L37.2,174.9 C37.2,174.9 32,182.2 37.3,185 C42.6,187.8 47.2,175 47.2,175 L74.2,190.7 C74.2,190.7 70.5,198.1 80,196.7 C89.5,195.2 88.4,202.7 88.4,202.7 C88.4,202.7 100.4,198.6 82.4,164.7 C82.4,164.7 76.8,159.7 71.7,165.3 C66.6,170.9 56.5,162.1 56.5,162.1 C56.5,162.1 48.5,168.4 40.2,160.7 C31.9,153 20.4,137.9 20.4,137.9 C20.4,137.9 -9.2,78.3 37.1,90.9 C83.4,103.5 59.5,112.4 81.3,110.1 C90.3,109.8 107,129.7 107,129.7 C107,129.7 121.2,105.9 90.5,71 C91.7,60.1 96,58.5 105,64.3 C110.6,66.3 123.1,71.1 125.2,57.9 C123.6,55.1 101.8,36.5 114.7,29.7 C127.6,22.9 131.6,25.2 139.4,11.8 C147.1,-1.6 167,-1.5 168,2.6 Z" id="Shape"></path>
                </g>
                <g id="Calque_13-Copy" transform="translate(1045.000000, 348.000000)" fill="url(#linearGradient-13)">
                    <path d="M123.69896,1.79261658 C123.69896,1.79261658 137.450474,16.6229918 156.894819,20.017008 C158.521343,20.4597058 166.062495,25.3293812 149.353667,35.2162981 C144.0305,38.1676165 123.477162,38.0200506 128.504597,47.8331844 C128.504597,47.8331844 158.299544,54.8425658 117.858264,65.6886611 C110.317111,67.2381033 98.783583,68.9351114 102.406294,89.5205576 C102.406294,91.7340464 94.8651408,112.983539 89.6898399,116.598904 C84.5145389,120.21427 85.9931963,129.142008 85.9931963,129.142008 C85.9931963,129.142008 88.5069139,132.904939 97.8963885,118.517261 C107.285863,104.129584 100.927636,103.465537 116.305673,97.3415515 C123.107497,94.6115819 123.551095,86.7168051 123.551095,86.7168051 C123.551095,86.7168051 137.006877,75.0590972 141.147118,81.035517 C142.403977,84.0606185 141.664648,86.0527584 144.0305,87.2332858 C146.322419,88.3400302 154.750766,85.5362777 150.314794,95.8658923 C145.878822,106.195507 142.551842,105.679026 142.551842,105.679026 L131.609778,121.173448 C131.609778,121.173448 125.695148,142.275375 129.391791,149.358539 C131.018315,153.490385 117.414666,175.403925 117.414666,175.403925 C117.414666,175.403925 116.971069,182.044391 123.920759,176.732018 C125.769081,174.813661 125.843014,177.986328 125.843014,177.986328 L123.69896,184.110314 C123.69896,184.110314 118.597592,181.970608 113.570157,186.323803 C108.542722,190.676998 101.519099,190.750781 98.3399858,188.684858 C95.1608723,186.618935 89.0983769,165.443225 83.7752102,166.107271 C78.4520435,166.845101 67.5099786,175.846622 67.6578444,180.716298 C67.9535759,184.405446 60.0427587,182.856004 60.4863559,178.207677 C60.7081545,175.625273 50.6532841,172.157474 50.8750827,174.813661 C51.2447471,179.904685 41.4856081,174.223397 41.7074067,171.567211 C41.7074067,171.567211 41.7813396,161.606511 32.9093951,159.09789 C24.0374506,156.589269 10.9513325,155.187393 8.43761487,140.430801 C7.84615191,137.627048 2.44905234,135.41356 2.44905234,135.41356 C2.44905234,135.41356 -7.38401948,94.6853649 12.356057,107.671166 C32.0961335,120.656967 30.4696104,126.633387 30.4696104,126.633387 L29.1388187,129.363357 L26.9947654,128.920659 C26.9947654,128.920659 23.1502562,134.306815 27.0686983,136.372738 C30.9871405,138.438661 34.3880525,128.994442 34.3880525,128.994442 L54.3499276,140.578367 C54.3499276,140.578367 51.6144114,146.038306 58.6380341,145.005345 C65.6616569,143.8986 64.8483953,149.432322 64.8483953,149.432322 C64.8483953,149.432322 73.7203398,146.407221 60.412423,121.394797 C60.412423,121.394797 56.2721823,117.705649 52.5016059,121.837495 C48.7310295,125.96934 41.2638095,119.47644 41.2638095,119.47644 C41.2638095,119.47644 35.3491798,124.124766 29.2127516,118.443478 C23.0763233,112.76219 14.5740431,101.620963 14.5740431,101.620963 C14.5740431,101.620963 -7.31008661,57.6463183 26.9208326,66.9429714 C61.1517517,76.2396246 43.4817956,82.8063081 59.5991615,81.1093 C66.2531198,80.8879511 78.5999093,95.5707604 78.5999093,95.5707604 C78.5999093,95.5707604 89.0983769,78.0104156 66.4009856,52.2601621 C67.28818,44.2178193 70.4672935,43.037292 77.1212518,47.3167037 C81.2614926,48.7923629 90.5031015,52.3339451 92.0556917,42.5945942 C90.8727658,40.5286713 74.7554,26.8050405 84.2927403,21.7877991 C93.8300806,16.7705577 96.7873955,18.4675658 102.554159,8.58064902 C108.24699,-1.3062678 122.959632,-1.23248484 123.69896,1.79261658 Z" id="Shape"></path>
                </g>
                <g id="Calque_13_1_" transform="translate(855.948936, 817.715956) rotate(9.000000) translate(-855.948936, -817.715956) translate(727.448936, 665.215956)" fill="url(#linearGradient-14)">
                    <path d="M198.215251,3.77552858 C198.215251,3.77552858 220.16051,27.4905675 251.190636,32.9178898 C253.786312,33.6258014 265.820809,41.4128291 239.156139,57.2228551 C230.661199,61.9422658 197.861295,61.7062953 205.884293,77.3983359 C205.884293,77.3983359 253.432356,88.6069364 188.894414,105.950771 C176.859917,108.428461 158.454215,111.142123 164.235493,144.060012 C164.235493,147.599571 152.200996,181.579328 143.942027,187.360606 C135.683058,193.141884 138.042764,207.418102 138.042764,207.418102 C138.042764,207.418102 142.054263,213.43535 157.038392,190.428223 C172.022521,167.421096 161.875788,166.359228 186.416724,156.566451 C197.271368,152.200996 197.97928,139.576572 197.97928,139.576572 C197.97928,139.576572 219.452599,120.9349 226.059774,130.491707 C228.065523,135.329103 226.885671,138.514705 230.661199,140.402469 C234.436728,142.290233 247.769063,137.688808 240.689947,154.206746 C233.610831,170.724683 228.301494,169.898786 228.301494,169.898786 L210.839674,194.675693 C210.839674,194.675693 201.400853,228.419479 207.300116,239.746065 C209.895792,246.35324 188.186503,281.394865 188.186503,281.394865 C188.186503,281.394865 187.478591,292.013539 198.569206,283.518599 C201.518838,280.450983 201.636823,285.524349 201.636823,285.524349 L198.215251,295.317126 C198.215251,295.317126 190.074267,291.895554 182.051269,298.856684 C174.028271,305.817815 162.81967,305.9358 157.746304,302.632213 C152.672937,299.328625 142.998145,265.466853 134.503206,266.528721 C126.008266,267.708574 108.546447,282.102776 108.782417,289.889804 C109.254358,295.789067 96.6299347,293.311377 97.3378463,285.878305 C97.6918021,281.74882 81.6458056,276.203513 81.9997614,280.450983 C82.5896877,288.591966 67.0156323,279.5071 67.3695881,275.259631 C67.3695881,275.259631 67.4875734,259.33162 53.3293412,255.32012 C39.171109,251.308621 18.2877166,249.066901 14.2762175,225.469848 C13.3323353,220.986407 4.71941073,217.446849 4.71941073,217.446849 C4.71941073,217.446849 -10.9726299,152.318981 20.5294367,173.084388 C52.0315033,193.73181 49.4358274,203.406602 49.4358274,203.406602 L47.3120925,207.772057 L43.8905198,207.064146 C43.8905198,207.064146 37.7552858,215.67707 44.008505,218.980658 C50.2617243,222.284245 55.6890466,207.182131 55.6890466,207.182131 L87.545069,225.705818 C87.545069,225.705818 83.1796141,234.436728 94.3882146,232.784934 C105.596815,231.015155 104.298977,239.86405 104.298977,239.86405 C104.298977,239.86405 118.457209,235.026654 97.219861,195.029648 C97.219861,195.029648 90.612686,189.130385 84.5954373,195.73756 C78.5781886,202.344735 66.6616765,191.962031 66.6616765,191.962031 C66.6616765,191.962031 57.2228551,199.395103 47.4300778,190.310238 C37.6373006,181.225372 24.0689947,163.409596 24.0689947,163.409596 C24.0689947,163.409596 -10.8546447,93.0903766 43.7725345,107.95652 C98.3997137,122.822664 70.2012346,133.323353 95.922023,130.609692 C106.540697,130.255736 126.244237,153.734804 126.244237,153.734804 C126.244237,153.734804 142.998145,125.654311 106.776668,84.477452 C108.192491,71.6170578 113.265857,69.7292935 123.884532,76.5724391 C130.491707,78.9321444 145.239865,84.5954373 147.717556,69.0213819 C145.829791,65.7177944 120.109003,43.7725345 135.329103,35.7495363 C150.549202,27.726538 155.268613,30.4401992 164.471464,14.6301733 C173.55633,-1.17985268 197.035398,-1.06186741 198.215251,3.77552858 Z" id="Shape"></path>
                </g>
                <g id="Calque_13_1_-Copy" transform="translate(1576.916292, 313.043003) rotate(9.000000) translate(-1576.916292, -313.043003) translate(1467.916292, 183.543003)" fill="url(#linearGradient-14)">
                    <path d="M168,3.2 C168,3.2 186.6,23.3 212.9,27.9 C215.1,28.5 225.3,35.1 202.7,48.5 C195.5,52.5 167.7,52.3 174.5,65.6 C174.5,65.6 214.8,75.1 160.1,89.8 C149.9,91.9 134.3,94.2 139.2,122.1 C139.2,125.1 129,153.9 122,158.8 C115,163.7 117,175.8 117,175.8 C117,175.8 120.4,180.9 133.1,161.4 C145.8,141.9 137.2,141 158,132.7 C167.2,129 167.8,118.3 167.8,118.3 C167.8,118.3 186,102.5 191.6,110.6 C193.3,114.7 192.3,117.4 195.5,119 C198.7,120.6 210,116.7 204,130.7 C198,144.7 193.5,144 193.5,144 L178.7,165 C178.7,165 170.7,193.6 175.7,203.2 C177.9,208.8 159.5,238.5 159.5,238.5 C159.5,238.5 158.9,247.5 168.3,240.3 C170.8,237.7 170.9,242 170.9,242 L168,250.3 C168,250.3 161.1,247.4 154.3,253.3 C147.5,259.2 138,259.3 133.7,256.5 C129.4,253.7 121.2,225 114,225.9 C106.8,226.9 92,239.1 92.2,245.7 C92.6,250.7 81.9,248.6 82.5,242.3 C82.8,238.8 69.2,234.1 69.5,237.7 C70,244.6 56.8,236.9 57.1,233.3 C57.1,233.3 57.2,219.8 45.2,216.4 C33.2,213 15.5,211.1 12.1,191.1 C11.3,187.3 4,184.3 4,184.3 C4,184.3 -9.3,129.1 17.4,146.7 C44.1,164.2 41.9,172.4 41.9,172.4 L40.1,176.1 L37.2,175.5 C37.2,175.5 32,182.8 37.3,185.6 C42.6,188.4 47.2,175.6 47.2,175.6 L74.2,191.3 C74.2,191.3 70.5,198.7 80,197.3 C89.5,195.8 88.4,203.3 88.4,203.3 C88.4,203.3 100.4,199.2 82.4,165.3 C82.4,165.3 76.8,160.3 71.7,165.9 C66.6,171.5 56.5,162.7 56.5,162.7 C56.5,162.7 48.5,169 40.2,161.3 C31.9,153.6 20.4,138.5 20.4,138.5 C20.4,138.5 -9.2,78.9 37.1,91.5 C83.4,104.1 59.5,113 81.3,110.7 C90.3,110.4 107,130.3 107,130.3 C107,130.3 121.2,106.5 90.5,71.6 C91.7,60.7 96,59.1 105,64.9 C110.6,66.9 123.1,71.7 125.2,58.5 C123.6,55.7 101.8,37.1 114.7,30.3 C127.6,23.5 131.6,25.8 139.4,12.4 C147.1,-1 167,-0.9 168,3.2 Z" id="Shape"></path>
                </g>
                <g id="Calque_4_1_" transform="translate(1293.000000, 895.000000)" fill="url(#linearGradient-15)">
                    <path d="M3.4,28 C3.4,28 3.4,7 23.4,1 C28.9,-1.5 46.9,32.5 72.9,32.5 C80,32.5 87,30.4 92.9,26.5 C92.9,26.5 105.9,24.5 101.9,47.5 C97.9,70.5 100.9,76.5 100.9,76.5 C100.9,76.5 113.9,91.5 132.9,89.5 C132.9,89.5 140.9,125.5 150.9,129.5 C160.9,133.5 178.9,118.5 170.9,148.5 C169.9,153.5 141.9,141.5 141.9,141.5 L126.9,141.5 C126.9,141.5 100.9,102.5 70.9,96.5 C40.9,90.5 16.9,120.5 16.9,120.5 C16.9,120.5 1.9,114.5 0.9,109.5 C-0.1,104.5 -5.1,69.5 33.9,67.5 C43.9,65.5 36.9,37.5 3.4,28 Z" id="Shape"></path>
                </g>
                <g id="Calque_3_1_" transform="translate(817.000000, 199.000000)" fill="url(#linearGradient-16)">
                    <path d="M31.6,10.1 C31.6,10.1 28.3,24.8 31.9,28.3 C35.5,31.8 48.2,57.8 41,74.8 C36.8,81.3 15,105.3 15.6,117.8 L15.6,124.3 C15.6,124.3 -11,170.3 7.1,178.3 C17.4,183.8 32.5,168.8 32.5,168.8 C32.5,168.8 44,164.8 44.6,184.8 C45.2,204.8 40.4,198.8 40.4,198.8 C40.4,198.8 36.8,216.8 45.8,222.3 C54.9,227.8 45.8,249.8 45.8,249.8 C45.8,249.8 -3.2,295.8 28.3,308.3 C41.6,313.3 65.8,250.3 76.7,252.8 C87.6,255.3 100.3,266.3 115.4,252.8 C125.1,243.8 143.2,259.8 143.2,259.8 C143.2,259.8 171.6,240.3 130.5,227.8 C127.5,227.8 109.9,232.8 110.5,211.3 C111.1,189.8 137.1,142.3 137.1,142.3 C137.1,142.3 141.3,123.3 115.9,127.8 C113.5,127.3 108,141.3 90.5,130.3 C83.8,120.8 80.8,112.3 76.6,112.3 C72.4,112.3 86.9,105.8 87.5,103.3 C88.1,100.8 86.3,99.8 86.3,99.8 C86.3,99.8 79,106.8 74.8,108.8 C70.6,110.8 59.1,112.3 59.1,98.3 C59.1,84.3 63.3,64.3 69.4,54.3 C69.4,54.3 73.6,36.8 65.2,28.8 C56.7,20.8 72.2,30 57.3,9.8 C42.5,-10.4 31.6,10.1 31.6,10.1 Z" id="Shape"></path>
                </g>
                <g id="Calque_7_1_" transform="translate(886.000000, 519.000000)" fill="url(#linearGradient-17)">
                    <path d="M33.3,126.7 C33.3,126.7 34.3,33.7 17.3,0.7 C14.8,-4.8 -10.2,34.2 6.8,68.2 C23.8,102.2 7.8,126.2 7.8,126.2 C13.2,133.8 16.2,133.4 17.1,126.4 L22.5,126.5 C16.8,139.7 20.3,139.9 33.3,126.7 Z" id="Shape"></path>
                </g>
                <g id="Calque_6_1_" transform="translate(180.000000, 553.000000)" fill="url(#linearGradient-18)">
                    <path d="M289.4,26 L285.5,0.5 C285.5,0.5 256.1,18.5 240.2,48.7 C224.3,78.9 172.3,125.3 118,143 C112.8,145.3 98.3,204.6 98.3,204.6 C98.3,204.6 62.1,231.5 59.9,241.1 C57.7,250.8 48.6,287.4 33.2,302.1 C23.4,311.3 13.2,319.3 2.6,325.9 C-2.1,331.3 3.7,333.2 12.8,331 C20.6,329.1 20.1,334.7 20.1,334.7 C23.8,342.8 27.9,344.5 32.5,340.9 C32.5,340.9 93.7,259 116.4,212.6 C139.1,166.2 183.9,140.7 190.6,146.1 C197.3,151.5 232.2,141.6 239.2,126.5 C246.2,111.4 289.4,26 289.4,26 Z" id="Shape"></path>
                </g>
                <g id="Calque_2_2_" transform="translate(1244.000000, 122.000000)" fill="url(#linearGradient-19)">
                    <path d="M175.8,221.7 C169,217.1 155.5,197.9 150.2,188.3 C145,178.7 150,167.1 150,167.1 C150,167.1 167.6,145.5 173.6,146.1 C179.6,146.7 187,129.7 187,129.7 C187,129.7 215.7,125.6 218.2,125.8 C247,128.8 247.9,116.5 246.6,115.3 C245.3,114.1 223.7,118.9 223.7,118.9 L205.2,101 C206.1,95.1 207.7,89.5 210,84.2 C213.9,75.2 201.9,68.3 201.9,68.3 L207.1,64.9 C207.1,64.9 214.6,66.5 214.9,62.9 C215.2,59.4 205.9,57.6 205.9,57.6 C205.9,57.6 211.9,52.3 206.3,51 C200.6,49.7 203.1,59.8 192.8,71.9 C182.5,84 179.4,82.4 176.2,82.7 C165.5,75.5 174.6,62 175.8,59.1 C175,45.2 169,40.1 166,34 C166,28.3 162.4,22 159.2,18.1 C156.1,8 134.9,1.9 134.9,1.9 C134.9,1.9 122.3,3.5 119.5,2.8 C112.7,1.2 98,0.5 90.5,1 C83.6,15.5 60.5,5.1 60.5,5.1 C58.1,7 68.1,18.7 75.3,23.5 C81.9,27 87.3,31.8 86.1,36.1 C84.9,40.4 82.6,61.4 82.6,61.4 C82.6,61.4 80,68.7 77.9,76.5 C76.7,81.2 79.4,87.3 85.6,93.4 C96.1,106.7 85.9,125.9 85.9,125.9 C85.9,125.9 67.5,137.9 74.3,146.8 C81.1,155.7 82.7,162 76,161.6 C69.3,161.2 54.1,148.7 45.6,145 C37.1,141.3 19.5,146 12.8,147 C6.1,148 2.3,142.4 2.3,142.4 C2.3,142.4 1.1,145.2 0.5,148.1 C10.6,153.6 0.1,162 0.1,162 C0.1,162 3.8,162 6.8,165 C9.7,168 31.5,173.4 30.2,175.4 C28.8,177.4 43.4,181.1 43.4,180.8 C43.2,179.9 55.5,181.8 55.5,181.8 L57.1,186.7 C57.1,186.7 60,185 62.9,189.2 C65.7,193.4 67.9,191.4 70.3,192.4 C74.2,189.3 67,181.4 58.4,170.9 C49.8,160.4 57.8,159.4 67.4,164.7 C77,170 86.9,168.9 86.9,168.9 C86.9,168.9 92.9,155.2 98.1,157.5 C103.4,159.8 97.1,171.4 97.1,171.4 C97.1,171.4 91.1,183.7 90,187.7 C96.3,193.3 88.3,200.2 88.3,200.2 C88.3,200.2 107.5,203.1 111.5,210.3 C113.4,213.7 137.8,220 146.8,227.8 C152.3,232.6 172,235.6 175.8,240.1 C179.6,244.6 187.4,243.3 188.4,243.8 C192.6,238 182.6,226.3 175.8,221.7 Z M200.1,78.1 C205.5,80.2 196.8,104.3 199.9,107.3 C210.4,113.3 207.5,115.7 208.5,116.4 C209.5,117.1 195.9,118 195.9,118 C195.9,118 185,124.3 174.6,122.3 C131.8,107 200.1,78.1 200.1,78.1 Z M128.1,119.7 C117.8,110.2 108.8,99.2 123.2,95 C123.2,95 131,93 134.7,94.4 C138.4,95.8 143.2,87.9 145.8,89.1 L148.4,90.2 C148.4,90.2 157.8,94.6 150.9,106 C150.9,106 154.2,111.4 151.8,116.8 C151.8,116.8 166.8,118.3 146.4,129.1 C145,128.5 138.3,129.3 128.1,119.7 Z M143.7,151.6 L144.1,150.7 C144.1,150.7 148.8,128.5 155.9,130.8 C160.5,131.7 159.1,123.5 159.1,123.5 L178.6,126.1 C178.6,126.1 179.9,131.7 176.3,131.3 C172.7,130.9 163.8,144.2 163.8,144.2 C163.8,144.2 156.2,154.5 143.7,151.6 Z" id="Shape"></path>
                </g>
                <g id="Calque_4_2_" transform="translate(312.000000, 131.000000)" fill="url(#linearGradient-20)">
                    <path d="M3.9,27.7 C3.9,27.7 3.9,6.7 23.9,0.7 C29.4,-1.8 47.4,32.2 73.4,32.2 C80.5,32.2 87.5,30.1 93.4,26.2 C93.4,26.2 106.4,24.2 102.4,47.2 C98.4,70.2 101.4,76.2 101.4,76.2 C101.4,76.2 114.4,91.2 133.4,89.2 C133.4,89.2 141.4,125.2 151.4,129.2 C161.4,133.2 179.4,118.2 171.4,148.2 C170.4,153.2 142.4,141.2 142.4,141.2 L127.4,141.2 C127.4,141.2 101.4,102.2 71.4,96.2 C41.4,90.2 17.4,120.2 17.4,120.2 C17.4,120.2 2.4,114.2 1.4,109.2 C0.4,104.2 -4.6,69.2 34.4,67.2 C44.4,65.2 37.4,37.2 3.9,27.7 Z" id="Shape"></path>
                </g>
                <g id="Calque_4_2_-Copy-2" transform="translate(248.000000, 608.000000) rotate(180.000000) translate(-248.000000, -608.000000) translate(186.000000, 533.000000)" fill="url(#linearGradient-20)">
                    <path d="M2.77931034,27.7 C2.77931034,27.7 2.77931034,6.7 17.0321839,0.7 C20.9517241,-1.8 33.7793103,32.2 52.308046,32.2 C57.3678161,32.2 62.3563218,30.1 66.5609195,26.2 C66.5609195,26.2 75.8252874,24.2 72.9747126,47.2 C70.1241379,70.2 72.262069,76.2 72.262069,76.2 C72.262069,76.2 81.5264368,91.2 95.0666667,89.2 C95.0666667,89.2 100.767816,125.2 107.894253,129.2 C115.02069,133.2 127.848276,118.2 122.147126,148.2 C121.434483,153.2 101.48046,141.2 101.48046,141.2 L90.7908046,141.2 C90.7908046,141.2 72.262069,102.2 50.8827586,96.2 C29.5034483,90.2 12.4,120.2 12.4,120.2 C12.4,120.2 1.71034483,114.2 0.997701149,109.2 C0.285057471,104.2 -3.27816092,69.2 24.5149425,67.2 C31.6413793,65.2 26.6528736,37.2 2.77931034,27.7 Z" id="Shape"></path>
                </g>
                <g id="Calque_4_2_-Copy" transform="translate(837.009596, 625.883072) rotate(-22.000000) translate(-837.009596, -625.883072) translate(723.509596, 527.883072)" fill="url(#linearGradient-20)">
                    <path d="M5.09220382,36.1677041 C5.09220382,36.1677041 5.09220382,8.74814503 31.2060696,0.913985302 C38.3873827,-2.35024792 61.8898618,42.0433239 95.8378873,42.0433239 C105.10831,42.0433239 114.248163,39.301368 121.951753,34.2091641 C121.951753,34.2091641 138.925766,31.5977776 133.702993,61.6287232 C128.48022,91.6596688 132.397299,99.4938285 132.397299,99.4938285 C132.397299,99.4938285 149.371312,119.079228 174.179485,116.467841 C174.179485,116.467841 184.625031,163.4728 197.681964,168.695573 C210.738897,173.918346 234.241376,154.332947 223.79583,193.503745 C222.490136,200.032212 185.930724,184.363892 185.930724,184.363892 L166.345325,184.363892 C166.345325,184.363892 132.397299,133.441854 93.2265008,125.607694 C54.0557021,117.773535 22.7190632,156.944333 22.7190632,156.944333 C22.7190632,156.944333 3.13366389,149.110173 1.8279706,142.581707 C0.522277315,136.053241 -6.00618912,90.3539755 44.9158491,87.7425889 C57.972782,85.1312024 48.832929,48.5717903 5.09220382,36.1677041 Z" id="Shape"></path>
                </g>
                <g id="Calque_5_1_" transform="translate(964.000000, 226.000000)" fill="url(#linearGradient-21)">
                    <path d="M144.042986,127.821536 C159.52903,122.135525 184.80772,116.904394 184.80772,116.904394 C184.80772,116.904394 190.387251,68.800738 177.406302,57.5424354 C164.539221,46.2841328 148.939309,66.7537739 137.780248,38.3237169 C135.502888,33.7749077 132.086849,32.6377055 127.076658,35.9355921 C125.027035,32.1828246 122.180335,31.386783 118.308824,34.0023482 C118.308824,34.0023482 103.847592,45.9429722 104.644667,28.430057 C101.342496,12.8503858 94.8520216,13.3052667 86.6535276,22.9714861 C75.7222022,8.64273734 67.4098401,7.61925528 60.6916297,15.2385106 C60.8054977,11.0308621 53.8595513,9.77993962 42.9282259,9.89365985 C45.8887932,7.05065414 42.586622,5.79973163 31.6552965,6.482053 C31.6552965,6.482053 33.5910521,19.9010399 22.4319907,18.9912781 C17.080196,16.944314 13.5502888,1.02348205 13.5502888,1.02348205 L11.1590614,0 C11.1590614,0 -6.49047447,1.13720228 16.6247241,37.6413955 C16.2831202,37.7551157 28.6947292,39.4609192 27.2144456,64.2519289 C25.7341619,88.9292184 16.7385921,89.2703791 30.9720887,152.157665 C30.9720887,152.157665 40.1953945,155.910433 40.9924703,127.025495 C41.7895461,98.1405569 49.5325683,59.0207984 64.7908767,57.6561557 C80.0491851,56.2915129 82.0988086,85.5176115 77.2024858,105.304931 C72.306163,124.978531 76.291542,124.75109 76.291542,124.75109 C76.291542,124.75109 67.1821042,160.004361 57.3894585,162.961087 C55.4537029,164.32573 42.472754,209.24522 42.472754,209.24522 L24.7093502,235.514592 L13.7780248,284.982892 C13.7780248,284.982892 8.99556988,295.900034 7.74302217,303.405569 C6.49047447,310.911104 4.89632285,327.741697 0,330.698423 C1.02481176,333.99631 2.9605673,339 2.9605673,339 L13.6641568,327.855418 C13.6641568,327.855418 18.5604796,308.181818 22.0903868,288.394498 C27.8976534,280.775243 36.4377514,262.125126 36.4377514,262.125126 C36.4377514,262.125126 46.1165291,237.902717 60.6916297,237.334116 C61.1471016,235.969473 69.9149355,226.303254 76.6331459,205.606172 C83.3513564,184.909091 104.075327,173.423348 109.882594,177.062395 C115.689861,180.815163 131.631377,163.870849 131.631377,163.870849 C131.631377,163.870849 128.556942,133.507548 144.042986,127.821536 Z M112.38769,138.056357 C111.704482,136.919155 107.377499,126.684334 111.476746,104.73633 C111.021274,99.6189198 111.135142,94.2740691 108.174575,92.9094264 C108.174575,92.9094264 106.352687,69.2556189 118.308824,73.804428 C129.695621,75.282791 124.002223,94.2740691 124.002223,94.2740691 C124.002223,94.2740691 131.859113,115.880912 123.205147,134.985911 C123.205147,136.350554 112.957029,139.193559 112.38769,138.056357 Z" id="Shape"></path>
                </g>
                <g id="Calque_5_1_-Copy" transform="translate(162.295435, 932.602243) rotate(137.000000) translate(-162.295435, -932.602243) translate(79.795435, 783.102243)" fill="url(#linearGradient-21)">
                    <path d="M127.4,113.3 C141,108.3 163.2,103.7 163.2,103.7 C163.2,103.7 168.1,61.4 156.7,51.5 C145.4,41.6 131.7,59.6 121.9,34.6 C119.9,30.6 116.9,29.6 112.5,32.5 C110.7,29.2 108.2,28.5 104.8,30.8 C104.8,30.8 92.1,41.3 92.8,25.9 C89.9,12.2 84.2,12.6 77,21.1 C67.4,8.5 60.1,7.6 54.2,14.3 C54.3,10.6 48.2,9.5 38.6,9.6 C41.2,7.1 38.3,6 28.7,6.6 C28.7,6.6 30.4,18.4 20.6,17.6 C15.9,15.8 12.8,1.8 12.8,1.8 L10.7,0.9 C10.7,0.9 -4.8,1.9 15.5,34 C15.2,34.1 26.1,35.6 24.8,57.4 C23.5,79.1 15.6,79.4 28.1,134.7 C28.1,134.7 36.2,138 36.9,112.6 C37.6,87.2 44.4,52.8 57.8,51.6 C71.2,50.4 73,76.1 68.7,93.5 C64.4,110.8 67.9,110.6 67.9,110.6 C67.9,110.6 59.9,141.6 51.3,144.2 C49.6,145.4 38.2,184.9 38.2,184.9 L22.6,208 L13,251.5 C13,251.5 8.8,261.1 7.7,267.7 C6.6,274.3 5.2,289.1 0.9,291.7 C1.8,294.6 3.5,299 3.5,299 L12.9,289.2 C12.9,289.2 17.2,271.9 20.3,254.5 C25.4,247.8 32.9,231.4 32.9,231.4 C32.9,231.4 41.4,210.1 54.2,209.6 C54.6,208.4 62.3,199.9 68.2,181.7 C74.1,163.5 92.3,153.4 97.4,156.6 C102.5,159.9 116.5,145 116.5,145 C116.5,145 113.8,118.3 127.4,113.3 Z M99.6,122.3 C99,121.3 95.2,112.3 98.8,93 C98.4,88.5 98.5,83.8 95.9,82.6 C95.9,82.6 94.3,61.8 104.8,65.8 C114.8,67.1 109.8,83.8 109.8,83.8 C109.8,83.8 116.7,102.8 109.1,119.6 C109.1,120.8 100.1,123.3 99.6,122.3 Z" id="Shape"></path>
                </g>
                <g id="Calque_9_1_" transform="translate(1179.000000, 291.000000)" fill="url(#linearGradient-22)">
                    <path d="M41.7,87.5 C41.7,87.5 35.7,58.5 27.7,53.5 C19.7,48.5 0.2,0 0.2,0 C0.2,0 53.2,42 74.2,41 C95.2,40 130.2,88 130.2,88 C130.2,88 95.2,73.2 99,87.8 C102.8,102.4 65.2,87.6 65.2,87.6 C59.1,108.3 50.1,93.7 41.7,87.5 Z" id="Shape"></path>
                </g>
                <g id="Calque_9_1_-Copy" transform="translate(781.500000, 340.500000) rotate(34.000000) translate(-781.500000, -340.500000) translate(716.000000, 291.000000)" fill="url(#linearGradient-22)">
                    <path d="M41.7,87.5 C41.7,87.5 35.7,58.5 27.7,53.5 C19.7,48.5 0.2,0 0.2,0 C0.2,0 53.2,42 74.2,41 C95.2,40 130.2,88 130.2,88 C130.2,88 95.2,73.2 99,87.8 C102.8,102.4 65.2,87.6 65.2,87.6 C59.1,108.3 50.1,93.7 41.7,87.5 Z" id="Shape"></path>
                </g>
                <g id="Calque_9_2_" transform="translate(575.000000, 228.000000)" fill="url(#linearGradient-23)">
                    <path d="M62.2,0.3 C62.2,0.3 87.3,15.9 96.5,13.6 C105.6,11.3 154.2,30.6 154.2,30.6 C154.2,30.6 87.2,40 73.5,55.9 C59.8,71.8 0.8,64.1 0.8,64.1 C0.8,64.1 35.7,49 22.5,41.6 C9.3,34.2 45.9,17.3 45.9,17.3 C35.1,-1.5 52,2 62.2,0.3 Z" id="Shape"></path>
                </g>
                <g id="Calque_11_1_" transform="translate(817.000000, 523.000000)" fill="url(#linearGradient-11)">
                    <path d="M13,0 L32,49 C32,49 -24,43 13,0 Z" id="Shape"></path>
                </g>
                <g id="Calque_4_3_" transform="translate(930.000000, 82.000000)" fill="url(#linearGradient-24)">
                    <path d="M3.3,27.7 C3.3,27.7 3.3,6.7 23.3,0.7 C28.8,-1.8 46.8,32.2 72.8,32.2 C79.9,32.2 86.9,30.1 92.8,26.2 C92.8,26.2 105.8,24.2 101.8,47.2 C97.8,70.2 100.8,76.2 100.8,76.2 C100.8,76.2 113.8,91.2 132.8,89.2 C132.8,89.2 140.8,125.2 150.8,129.2 C160.8,133.2 178.8,118.2 170.8,148.2 C169.8,153.2 141.8,141.2 141.8,141.2 L126.8,141.2 C126.8,141.2 100.8,102.2 70.8,96.2 C40.8,90.2 16.8,120.2 16.8,120.2 C16.8,120.2 1.8,114.2 0.8,109.2 C-0.2,104.2 -5.2,69.2 33.8,67.2 C43.8,65.2 36.8,37.2 3.3,27.7 Z" id="Shape"></path>
                </g>
                <g id="Calque_3_2_" transform="translate(469.000000, 754.000000)" fill="url(#linearGradient-25)">
                    <path d="M30.9,8.4 C30.9,8.4 27.6,22 31.2,25.2 C34.8,28.4 47.4,52.4 40.2,68.1 C36,74.1 14.4,96.2 15,107.8 L15,113.8 C15,113.8 -11.4,156.2 6.6,163.6 C16.8,168.7 31.8,154.8 31.8,154.8 C31.8,154.8 43.2,151.1 43.8,169.6 C44.4,188 39.6,182.5 39.6,182.5 C39.6,182.5 36,199.1 45,204.2 C54,209.3 45,229.6 45,229.6 C45,229.6 -3.5,272 27.6,283.5 C40.8,288.1 64.7,230 75.5,232.3 C86.3,234.6 98.9,244.7 113.8,232.3 C123.4,224 141.4,238.8 141.4,238.8 C141.4,238.8 169.5,220.8 128.8,209.3 C125.8,209.3 108.4,213.9 109,194.1 C109.6,174.3 135.4,130.5 135.4,130.5 C135.4,130.5 139.6,113 114.4,117.1 C112,116.6 106.6,129.5 89.2,119.4 C82.6,110.6 79.6,102.8 75.4,102.8 C71.2,102.8 85.6,96.8 86.2,94.5 C86.8,92.2 85,91.3 85,91.3 C85,91.3 77.8,97.8 73.6,99.6 C69.4,101.4 58,102.8 58,89.9 C58,77 62.2,58.5 68.2,49.3 C68.2,49.3 72.4,33.2 64,25.8 C55.6,18.4 70.9,27 56.2,8.3 C41.5,-10.4 30.9,8.4 30.9,8.4 Z" id="Shape"></path>
                </g>
                <g id="Calque_3_2_-Copy" transform="translate(1517.000000, 454.000000)" fill="url(#linearGradient-25)">
                    <path d="M46.3205078,12.7074171 C46.3205078,12.7074171 41.3223295,33.3174861 46.7748877,38.1669141 C52.2274458,43.0163421 71.3113995,79.3870521 60.4062831,103.179558 C54.0449652,112.272236 21.3296161,145.763598 22.2383758,163.342774 L22.2383758,172.435452 C22.2383758,172.435452 -17.7470509,236.690373 9.51574002,247.904675 C24.9646549,255.633451 47.6836474,234.568748 47.6836474,234.568748 C47.6836474,234.568748 64.9500816,228.961597 65.8588413,256.997353 C66.767601,284.881564 59.4975234,276.546609 59.4975234,276.546609 C59.4975234,276.546609 54.0449652,301.703017 67.6763607,309.431793 C81.3077562,317.160569 67.6763607,347.924128 67.6763607,347.924128 C67.6763607,347.924128 -5.7817149,412.179049 41.3223295,429.606681 C61.3150428,436.577733 97.5139708,348.530306 113.871645,352.015833 C130.22932,355.501359 149.313274,370.807366 171.880806,352.015833 C186.420961,339.437629 213.683752,361.866233 213.683752,361.866233 C213.683752,361.866233 256.243998,334.588201 194.599799,317.160569 C190.056,317.160569 163.701969,324.131622 164.610729,294.125786 C165.519488,264.11995 204.596155,197.743404 204.596155,197.743404 C204.596155,197.743404 210.957473,171.223095 172.789566,177.436425 C169.154527,176.678701 160.97569,196.227958 134.621658,180.921951 C124.625302,167.586024 120.081503,155.765543 113.720185,155.765543 C107.358868,155.765543 129.1691,146.672866 130.07786,143.187339 C130.98662,139.701813 128.260341,138.337911 128.260341,138.337911 C128.260341,138.337911 117.355224,148.188312 110.993906,150.916115 C104.632588,153.643918 87.3661542,155.765543 87.3661542,136.216287 C87.3661542,116.66703 93.7274721,88.6312743 102.815069,74.6891688 C102.815069,74.6891688 109.176387,50.2904841 96.4537512,39.0761819 C83.7311154,27.8618796 106.904488,40.8947174 84.6398751,12.5558725 C62.3752625,-15.7829724 46.3205078,12.7074171 46.3205078,12.7074171 Z" id="Shape"></path>
                </g>
                <g id="Calque_4_4_" transform="translate(639.000000, 983.000000)" fill="url(#linearGradient-26)">
                    <path d="M4.64706079,38.6419265 C4.64706079,38.6419265 4.64706079,8.73266081 33.244358,0.187156334 C41.1086147,-3.37347053 66.8461821,45.0510549 104.022668,45.0510549 C114.174709,45.0510549 124.183763,42.0601283 132.619966,36.5055504 C132.619966,36.5055504 151.208209,33.6570489 145.488749,66.4148161 C139.76929,99.1725832 144.058885,107.718088 144.058885,107.718088 C144.058885,107.718088 162.647128,129.081849 189.81456,126.233347 C189.81456,126.233347 201.253479,177.506374 215.552127,183.203377 C229.850776,188.90038 255.588343,167.536619 244.149425,210.264141 C242.71956,217.385395 202.683344,200.294386 202.683344,200.294386 L181.235371,200.294386 C181.235371,200.294386 144.058885,144.748607 101.162939,136.203103 C58.266993,127.657598 23.9502364,170.385121 23.9502364,170.385121 C23.9502364,170.385121 2.5022635,161.839616 1.07239864,154.718362 C-0.357466215,147.597109 -7.50679051,97.7483325 48.257939,94.899831 C62.5565876,92.0513295 52.5475336,52.1723086 4.64706079,38.6419265 Z" id="Shape"></path>
                </g>
                <g id="Calque_4_4_-Copy" transform="translate(631.134221, 846.630854) rotate(184.000000) translate(-631.134221, -846.630854) translate(544.634221, 771.630854)" fill="url(#linearGradient-26)">
                    <path d="M3.3,28 C3.3,28 3.3,7 23.3,1 C28.8,-1.5 46.8,32.5 72.8,32.5 C79.9,32.5 86.9,30.4 92.8,26.5 C92.8,26.5 105.8,24.5 101.8,47.5 C97.8,70.5 100.8,76.5 100.8,76.5 C100.8,76.5 113.8,91.5 132.8,89.5 C132.8,89.5 140.8,125.5 150.8,129.5 C160.8,133.5 178.8,118.5 170.8,148.5 C169.8,153.5 141.8,141.5 141.8,141.5 L126.8,141.5 C126.8,141.5 100.8,102.5 70.8,96.5 C40.8,90.5 16.8,120.5 16.8,120.5 C16.8,120.5 1.8,114.5 0.8,109.5 C-0.2,104.5 -5.2,69.5 33.8,67.5 C43.8,65.5 36.8,37.5 3.3,28 Z" id="Shape"></path>
                </g>
                <g id="Calque_9_3_" transform="translate(1426.000000, 749.000000)" fill="url(#linearGradient-27)">
                    <path d="M41.5,87.5 C41.5,87.5 35.5,58.5 27.5,53.5 C19.5,48.5 0,0 0,0 C0,0 53,42 74,41 C95,40 130,88 130,88 C130,88 95,73.2 98.8,87.8 C102.6,102.4 65,87.6 65,87.6 C58.8,108.3 49.8,93.7 41.5,87.5 Z" id="Shape"></path>
                </g>
                <g id="Calque_11_2_" transform="translate(1663.000000, 642.000000)" fill="url(#linearGradient-28)">
                    <path d="M26.3,20.7 L0.1,5.5 C0.1,5.4 27.5,-12 26.3,20.7 Z" id="Shape"></path>
                </g>
                <g id="Calque_12_1_" transform="translate(145.000000, 518.000000)" fill="url(#linearGradient-29)">
                    <path d="M0.6,2.5 C0.6,2.5 12.2,-19.3 50.4,68.2 C50.8,68.3 0.6,2.5 0.6,2.5 Z" id="Shape"></path>
                </g>
                <g id="Calque_13_2_" transform="translate(299.000000, 832.000000)" fill="url(#linearGradient-30)">
                    <path d="M4.8,20.4 C4.8,20.4 19.5,14.7 27.5,1.5 C28.3,0.5 34,-3.6 36.4,11.3 C37,16 31,30.9 39.6,30 C39.6,30 53.2,10.4 49.5,42.8 C48.4,48.7 46.4,57.5 62.4,60.9 C64,61.6 77.3,73.1 78.4,77.9 C79.6,82.7 86.5,84.2 86.5,84.2 C86.5,84.2 90,83.4 82.2,72.5 C74.4,61.6 72.1,66 72.1,53.1 C72.1,47.4 66.5,44.8 66.5,44.8 C66.5,44.8 61.9,31.7 67.4,30.4 C70,30.4 71.2,31.4 72.7,30.1 C74.2,28.8 74.5,21.8 80.8,28 C87,34.2 85.7,36.4 85.7,36.4 L93.8,48.8 C93.8,48.8 107.4,59.2 113.7,58.5 C117.2,58.5 129.2,74.7 129.2,74.7 C129.2,74.7 133.9,76.9 132,70.4 C131.1,68.5 133.4,69.4 133.4,69.4 L137.2,72.7 C137.2,72.7 134.2,75.8 135.9,80.7 C137.6,85.6 135.7,90.7 133.3,92.4 C130.9,94.1 113.8,92.4 112.8,96.5 C111.8,100.6 115.2,111.1 118.8,112.4 C121.6,113.2 118.2,118.5 114.9,116.9 C113.1,116 107.7,122.3 109.7,122.9 C113.5,124.1 106.6,129.6 104.7,128.6 C104.7,128.6 97.5,125.7 93.1,131.4 C88.8,137.1 84,146.2 72.5,143.8 C70.3,143.4 67.1,146.7 67.1,146.7 C67.1,146.7 34.7,142.2 49.7,131.6 C64.7,121 68.7,123.9 68.7,123.9 L70.3,125.7 L69.4,127.1 C69.4,127.1 72.2,131.5 74.8,129.2 C77.4,126.9 71.5,121.8 71.5,121.8 L85.6,110.6 C85.6,110.6 88.8,114.1 90,108.8 C91.2,103.4 95,105.6 95,105.6 C95,105.6 95.4,98.3 73.4,100.8 C73.4,100.8 69.5,102.7 71.4,106.7 C73.3,110.6 66.5,114.2 66.5,114.2 C66.5,114.2 68.2,119.8 62.3,122.7 C56.4,125.5 45.9,128.5 45.9,128.5 C45.9,128.5 7.7,131.8 24.2,109.6 C40.8,87.5 40.4,102.2 43.8,90 C45.6,85.1 59.7,80.4 59.7,80.4 C59.7,80.4 50,67.7 24.7,76.8 C19.1,73.8 19.2,71.2 24.2,67.6 C26.5,65 31.7,59.4 25,55.4 C23.2,55.7 8.6,63.4 7.7,55.1 C6.8,46.7 8.8,45.1 3.4,38.1 C-2,31.1 2.4,20.1 4.8,20.4 Z" id="Shape"></path>
                </g>
                <g id="Calque_13_2_-Copy" transform="translate(570.000000, 59.000000)" fill="url(#linearGradient-30)">
                    <path d="M4.8,20.4 C4.8,20.4 19.5,14.7 27.5,1.5 C28.3,0.5 34,-3.6 36.4,11.3 C37,16 31,30.9 39.6,30 C39.6,30 53.2,10.4 49.5,42.8 C48.4,48.7 46.4,57.5 62.4,60.9 C64,61.6 77.3,73.1 78.4,77.9 C79.6,82.7 86.5,84.2 86.5,84.2 C86.5,84.2 90,83.4 82.2,72.5 C74.4,61.6 72.1,66 72.1,53.1 C72.1,47.4 66.5,44.8 66.5,44.8 C66.5,44.8 61.9,31.7 67.4,30.4 C70,30.4 71.2,31.4 72.7,30.1 C74.2,28.8 74.5,21.8 80.8,28 C87,34.2 85.7,36.4 85.7,36.4 L93.8,48.8 C93.8,48.8 107.4,59.2 113.7,58.5 C117.2,58.5 129.2,74.7 129.2,74.7 C129.2,74.7 133.9,76.9 132,70.4 C131.1,68.5 133.4,69.4 133.4,69.4 L137.2,72.7 C137.2,72.7 134.2,75.8 135.9,80.7 C137.6,85.6 135.7,90.7 133.3,92.4 C130.9,94.1 113.8,92.4 112.8,96.5 C111.8,100.6 115.2,111.1 118.8,112.4 C121.6,113.2 118.2,118.5 114.9,116.9 C113.1,116 107.7,122.3 109.7,122.9 C113.5,124.1 106.6,129.6 104.7,128.6 C104.7,128.6 97.5,125.7 93.1,131.4 C88.8,137.1 84,146.2 72.5,143.8 C70.3,143.4 67.1,146.7 67.1,146.7 C67.1,146.7 34.7,142.2 49.7,131.6 C64.7,121 68.7,123.9 68.7,123.9 L70.3,125.7 L69.4,127.1 C69.4,127.1 72.2,131.5 74.8,129.2 C77.4,126.9 71.5,121.8 71.5,121.8 L85.6,110.6 C85.6,110.6 88.8,114.1 90,108.8 C91.2,103.4 95,105.6 95,105.6 C95,105.6 95.4,98.3 73.4,100.8 C73.4,100.8 69.5,102.7 71.4,106.7 C73.3,110.6 66.5,114.2 66.5,114.2 C66.5,114.2 68.2,119.8 62.3,122.7 C56.4,125.5 45.9,128.5 45.9,128.5 C45.9,128.5 7.7,131.8 24.2,109.6 C40.8,87.5 40.4,102.2 43.8,90 C45.6,85.1 59.7,80.4 59.7,80.4 C59.7,80.4 50,67.7 24.7,76.8 C19.1,73.8 19.2,71.2 24.2,67.6 C26.5,65 31.7,59.4 25,55.4 C23.2,55.7 8.6,63.4 7.7,55.1 C6.8,46.7 8.8,45.1 3.4,38.1 C-2,31.1 2.4,20.1 4.8,20.4 Z" id="Shape"></path>
                </g>
                <g id="Calque_6_2_" transform="translate(1552.000000, 187.000000)" fill="url(#linearGradient-31)">
                    <path d="M14,241.5 L24.9,251.6 C24.9,251.6 31.7,232.9 27.9,213.6 C24.1,194.3 30.9,154.7 49,127.2 C50.5,124.3 35.7,92.4 35.7,92.4 C35.7,92.4 42.3,67.3 39.8,62.1 C37.3,57 28.2,37.2 29.9,25 C31,17.3 32.7,10 35.1,3.3 C35.3,-0.8 32,0.4 28.7,4.7 C25.9,8.4 24.1,5.7 24.1,5.7 C19.5,3.4 17,4.1 16.3,7.3 C16.3,7.3 18.2,66.2 24.7,95.2 C31.2,124.2 20.1,151.8 15.2,151.8 C10.3,151.8 -1.9,168.8 0.4,178.1 C2.7,187.4 14,241.5 14,241.5 Z" id="Shape"></path>
                </g>
                <g id="Calque_4_5_" transform="translate(59.000000, 425.000000)" fill="url(#linearGradient-32)">
                    <path d="M10.7,68.5 C10.7,68.5 -0.6,64.1 0.5,52.1 C0.3,48.6 22.4,46.2 27.9,32.2 C29.4,28.4 29.8,24.2 28.9,20.2 C28.9,20.2 30.6,12.8 42.1,19.8 C53.6,26.8 57.4,26.5 57.4,26.5 C57.4,26.5 68.2,22.7 71.1,12.1 C71.1,12.1 92.1,15.4 96.4,10.9 C100.7,6.4 96.4,-6.4 110.8,4.2 C113.3,5.8 100.9,18.3 100.9,18.3 L97.7,26.3 C97.7,26.3 71.3,32 61.7,46.8 C52.1,61.6 63.1,80.8 63.1,80.8 C63.1,80.8 56.7,87.6 53.8,87.1 C50.9,86.6 31.1,81.9 38.3,60.5 C39.4,54.7 22.9,52.5 10.7,68.5 Z" id="Shape"></path>
                </g>
                <g id="Calque_12_2_" transform="translate(1560.000000, 892.000000)" fill="url(#linearGradient-33)">
                    <path d="M0,2 C0,2 16.4,-16.6 33.3,77.4 C33.7,77.5 0,2 0,2 Z" id="Shape"></path>
                </g>
                <g id="Calque_13_3_" transform="translate(1664.000000, 732.000000)" fill="url(#linearGradient-34)">
                    <path d="M9.1,14.7 C9.1,14.7 24.8,12.5 35.6,1.6 C36.6,0.8 43.1,-1.9 42,13.2 C41.5,17.9 32.2,31 40.8,32.1 C40.8,32.1 58.6,16.2 47.5,46.9 C45.1,52.4 41.1,60.5 55.9,67.5 C57.3,68.5 67.6,82.8 67.6,87.7 C67.6,92.6 74,95.7 74,95.7 C74,95.7 77.6,95.8 72.5,83.3 C67.5,70.9 64.2,74.6 67.1,62 C68.4,56.4 63.5,52.6 63.5,52.6 C63.5,52.6 62,38.8 67.7,38.8 C70.2,39.3 71.2,40.7 72.9,39.7 C74.6,38.7 76.6,32.1 81.2,39.6 C85.8,47.1 84,49 84,49 L89,62.9 C89,62.9 99.9,76.1 106.1,76.9 C109.5,77.7 117.5,96.2 117.5,96.2 C117.5,96.2 121.6,99.4 121.3,92.6 C120.9,90.6 122.9,91.9 122.9,91.9 L125.8,96 C125.8,96 122.2,98.3 122.7,103.5 C123.2,108.7 120.2,113.2 117.4,114.3 C114.7,115.4 98.4,109.8 96.5,113.5 C94.6,117.2 95.5,128.2 98.7,130.3 C101.2,131.8 96.7,136.1 93.9,133.8 C92.3,132.5 85.7,137.4 87.4,138.4 C90.8,140.4 82.8,144.2 81.3,142.8 C81.3,142.8 74.9,138.3 69.4,142.9 C63.9,147.4 57.1,155.2 46.5,150.2 C44.5,149.3 40.6,151.8 40.6,151.8 C40.6,151.8 10.1,139.9 27.2,133.1 C44.3,126.3 47.5,130 47.5,130 L48.6,132.1 L47.3,133.3 C47.3,133.3 49,138.2 52.1,136.6 C55.2,135 50.6,128.6 50.6,128.6 L66.9,121 C66.9,121 69.2,125.2 71.6,120.2 C74,115.2 77.2,118.2 77.2,118.2 C77.2,118.2 79.2,111.2 57.3,108.5 C57.3,108.5 53.1,109.5 54,113.8 C55,118.1 47.5,119.9 47.5,119.9 C47.5,119.9 47.8,125.8 41.4,127.2 C35,128.6 24.1,129.1 24.1,129.1 C24.1,129.1 -13.9,123.4 7.4,105.8 C28.6,88.1 24.9,102.3 31,91.2 C33.8,86.8 48.7,85.5 48.7,85.5 C48.7,85.5 42.1,70.9 15.5,74 C10.7,69.8 11.4,67.3 17.1,65 C19.9,63 26.3,58.7 20.7,53.4 C18.8,53.3 2.9,57.4 3.9,49.1 C5,40.8 7.3,39.6 3.6,31.5 C0.2,23.2 6.9,13.8 9.1,14.7 Z" id="Shape"></path>
                </g>
                <g id="Calque_4_6_" transform="translate(1560.000000, 693.000000)" fill="url(#linearGradient-35)">
                    <path d="M7.8,45.7 C7.8,45.7 -2.1,38.8 1.6,27.3 C2.2,23.9 24.2,26.6 32.8,14.3 C35.2,10.9 36.5,7 36.6,2.9 C36.6,2.9 39.9,-3.9 49.5,5.6 C59.1,15.1 62.9,15.6 62.9,15.6 C62.9,15.6 74.3,14.4 79.6,4.8 C79.6,4.8 99.3,12.9 104.4,9.5 C109.6,6.1 108.4,-7.4 120,6.3 C122,8.4 107.1,17.7 107.1,17.7 L102.2,24.8 C102.2,24.8 75.2,24.2 62.5,36.4 C49.8,48.6 56.1,69.8 56.1,69.8 C56.1,69.8 48.3,74.9 45.6,73.7 C42.9,72.5 24.7,63.4 36.6,44.3 C38.9,38.9 23.3,33 7.8,45.7 Z" id="Shape"></path>
                </g>
                <g id="Calque_12_3_" transform="translate(682.000000, 920.000000)" fill="url(#linearGradient-36)">
                    <path d="M0,2.3 C0,2.3 16.4,-16.3 33.3,77.7 C33.7,77.8 0,2.3 0,2.3 Z" id="Shape"></path>
                </g>
                <g id="Calque_12_4_" transform="translate(1058.000000, 555.000000)" fill="url(#linearGradient-37)">
                    <path d="M0,2 C0,2 16.4,-16.6 33.3,77.4 C33.7,77.5 0,2 0,2 Z" id="Shape"></path>
                </g>
                <g id="Calque_7_2_" transform="translate(1436.000000, 390.000000)" fill="url(#linearGradient-38)">
                    <path d="M32.7,126.7 C32.7,126.7 33.7,33.7 16.7,0.7 C14.2,-4.8 -10.8,34.2 6.2,68.2 C23.2,102.2 7.2,126.2 7.2,126.2 C12.6,133.8 15.6,133.4 16.5,126.4 L21.9,126.5 C16.3,139.7 19.8,139.9 32.7,126.7 Z" id="Shape"></path>
                </g>
                <g id="Calque_8_1_" transform="translate(478.000000, 436.000000)" fill="url(#linearGradient-39)">
                    <path d="M46.6987751,139 C46.6987751,139 -5.655561,117.377778 0.50377266,63.837037 C6.66310632,10.2962963 74.4157766,30.8888889 74.4157766,30.8888889 L97,0 L86.7344439,37.0666667 C86.7344439,37.0666667 76.4688878,111.2 46.6987751,139 Z" id="Shape"></path>
                </g>
                <g id="Calque_8_1_-Copy" transform="translate(582.500000, 1067.500000) rotate(180.000000) translate(-582.500000, -1067.500000) translate(534.000000, 998.000000)" fill="url(#linearGradient-39)">
                    <path d="M46.6987751,139 C46.6987751,139 -5.655561,117.377778 0.50377266,63.837037 C6.66310632,10.2962963 74.4157766,30.8888889 74.4157766,30.8888889 L97,0 L86.7344439,37.0666667 C86.7344439,37.0666667 76.4688878,111.2 46.6987751,139 Z" id="Shape"></path>
                </g>
                <g id="Calque_8_1_-Copy-2" transform="translate(1387.500000, 818.500000) rotate(180.000000) translate(-1387.500000, -818.500000) translate(1339.000000, 749.000000)" fill="url(#linearGradient-39)">
                    <path d="M46.6987751,139 C46.6987751,139 -5.655561,117.377778 0.50377266,63.837037 C6.66310632,10.2962963 74.4157766,30.8888889 74.4157766,30.8888889 L97,0 L86.7344439,37.0666667 C86.7344439,37.0666667 76.4688878,111.2 46.6987751,139 Z" id="Shape"></path>
                </g>
                <g id="Calque_8_2_" transform="translate(1336.000000, 530.000000)" fill="url(#linearGradient-40)">
                    <path d="M22.8,67.6 C22.8,67.6 -2.7,57.1 0.3,31.1 C3.3,5.1 36.3,15.1 36.3,15.1 L47.3,0.1 L42.3,18.1 C42.3,18.1 37.3,54.1 22.8,67.6 Z" id="Shape"></path>
                </g>
                <g id="Calque_11_3_" transform="translate(772.000000, 656.000000)" fill="url(#linearGradient-41)">
                    <path d="M26.3,20.7 L0.1,5.5 C0.1,5.4 27.5,-12 26.3,20.7 Z" id="Shape"></path>
                </g>
                <g id="Calque_11_4_" transform="translate(740.000000, 706.000000)" fill="url(#linearGradient-41)">
                    <path d="M26.3,20.7 L0.1,5.5 C0.1,5.4 27.5,-12 26.3,20.7 Z" id="Shape"></path>
                </g>
                <g id="Calque_9_5_" transform="translate(1030.000000, 901.000000)" fill="url(#linearGradient-42)">
                    <path d="M28.8,61.2 C28.8,61.2 24.6,41 19.1,37.6 C13.5,34.1 0,0.4 0,0.4 C0,0.4 36.9,29.6 51.5,28.9 C66.1,28.2 90.4,61.6 90.4,61.6 C90.4,61.6 66.1,51.3 68.7,61.5 C71.3,71.7 45.2,61.4 45.2,61.4 C40.9,75.7 34.6,65.5 28.8,61.2 Z" id="Shape"></path>
                </g>
                <g id="Calque_12_5_" transform="translate(1129.000000, 905.000000)" fill="url(#linearGradient-33)">
                    <path d="M0,1.49734359 C0,1.49734359 16.2505282,-17.1279556 32.9964993,76.9999006 C33.3928537,77.1000366 0,1.49734359 0,1.49734359 Z" id="Shape"></path>
                </g>
            </g>
            <path d="M467.040994,762 C467.040994,762 409.510994,826.56 413.040994,838 C416.570994,849.44 384.190994,837.84 381.840994,846.9 C379.490994,855.96 388.840994,866.22 385.410994,873.44 C381.980994,880.66 349.560994,878.66 343.570994,869.54 C337.580994,860.42 327.350994,843.54 350.000994,811.07 C372.650994,778.6 372.420994,765.14 383.000994,767.29 C393.580994,769.44 467.040994,762 467.040994,762 Z" id="Shape" fill="url(#linearGradient-2)"></path>
            <path d="M1291.04099,148 C1291.04099,148 1233.51099,212.56 1237.04099,224 C1240.57099,235.44 1208.19099,223.84 1205.84099,232.9 C1203.49099,241.96 1212.84099,252.22 1209.41099,259.44 C1205.98099,266.66 1173.56099,264.66 1167.57099,255.54 C1161.58099,246.42 1151.35099,229.54 1174.00099,197.07 C1196.65099,164.6 1196.42099,151.14 1207.00099,153.29 C1217.58099,155.44 1291.04099,148 1291.04099,148 Z" id="Shape-Copy-3" fill="url(#linearGradient-2)" transform="translate(1225.520497, 205.907851) rotate(-40.000000) translate(-1225.520497, -205.907851) "></path>
            <path d="M1031.94042,582.265122 C1031.94042,582.265122 991.927259,627.167776 994.382438,635.124504 C996.837617,643.081233 974.316738,635.013222 972.68227,641.314616 C971.047803,647.616011 977.550898,654.752028 975.16527,659.773669 C972.779643,664.79531 950.230943,663.404274 946.064789,657.061148 C941.898635,650.718022 934.783484,638.977675 950.536971,616.3942 C966.290458,593.810724 966.130489,584.449049 973.489072,585.944413 C980.847654,587.439778 1031.94042,582.265122 1031.94042,582.265122 Z" id="Shape-Copy-5" fill="url(#linearGradient-2)" transform="translate(986.369723, 622.541086) rotate(-54.000000) translate(-986.369723, -622.541086) "></path>
            <path d="M949.443795,513.02589 C949.443795,513.02589 909.430633,557.928544 911.885813,565.885272 C914.340992,573.842 891.820113,565.773989 890.185645,572.075384 C888.551177,578.376778 895.054273,585.512795 892.668645,590.534436 C890.283018,595.556078 867.734318,594.165041 863.568164,587.821915 C859.40201,581.47879 852.286859,569.738443 868.040346,547.154967 C883.793833,524.571491 883.633864,515.209817 890.992446,516.705181 C898.351029,518.200545 949.443795,513.02589 949.443795,513.02589 Z" id="Shape-Copy-8" fill="url(#linearGradient-2)" transform="translate(903.873098, 553.301853) rotate(124.000000) translate(-903.873098, -553.301853) "></path>
            <path d="M1134.92611,819.672835 C1134.92611,819.672835 1077.39611,884.232835 1080.92611,895.672835 C1084.45611,907.112835 1052.07611,895.512835 1049.72611,904.572835 C1047.37611,913.632835 1056.72611,923.892835 1053.29611,931.112835 C1049.86611,938.332835 1017.44611,936.332835 1011.45611,927.212835 C1005.46611,918.092835 995.236112,901.212835 1017.88611,868.742835 C1040.53611,836.272835 1040.30611,822.812835 1050.88611,824.962835 C1061.46611,827.112835 1134.92611,819.672835 1134.92611,819.672835 Z" id="Shape-Copy-4" fill="url(#linearGradient-2)" transform="translate(1069.405616, 877.580686) rotate(-100.000000) translate(-1069.405616, -877.580686) "></path>
            <path d="M1389.53953,1130.61247 C1384.02953,1119.61247 1353.70953,1088.48247 1352.53953,1076.67247 C1343.86953,1071.94247 1306.34953,1053.23247 1298.86953,1059.14247 C1291.38953,1065.05247 1301.73953,1096.35247 1292.28953,1091.62247 C1282.83953,1086.89247 1278.89953,1079.02247 1269.44953,1076.62247 C1259.99953,1074.22247 1239.12953,1074.62247 1254.44953,1086.86247 C1269.76953,1099.10247 1259.22953,1096.29247 1258.82953,1121.10247 C1258.42953,1145.91247 1266.25953,1157.73247 1268.22953,1163.64247 C1270.19953,1169.55247 1274.91953,1167.58247 1303.22953,1154.98247 C1331.53953,1142.38247 1285.02953,1244.96247 1294.86953,1246.14247 C1304.70953,1247.32247 1339.86953,1290.05247 1352.86953,1297.14247 C1355.62953,1302.26247 1382.44953,1213.29247 1389.53953,1206.21247 C1396.62953,1199.13247 1395.04953,1141.63247 1389.53953,1130.61247 Z" id="Shape" fill="url(#linearGradient-2)"></path>
            <path d="M1090.16914,591.620972 C1086.55556,584.406912 1066.67098,563.991122 1065.90367,556.245845 C1060.21768,553.143799 1035.61118,540.873339 1030.70562,544.749256 C1025.80005,548.625174 1032.58783,569.152454 1026.3903,566.050408 C1020.19276,562.948363 1017.60882,557.78703 1011.41128,556.213054 C1005.21375,554.639077 991.526711,554.901406 1001.57393,562.928688 C1011.62115,570.955969 1004.70877,569.113105 1004.44644,585.384089 C1004.18411,601.655074 1009.31921,609.406909 1010.61118,613.282827 C1011.90315,617.158745 1014.99864,615.866772 1033.56501,607.603394 C1052.13137,599.340016 1021.62902,666.614405 1028.08232,667.388277 C1034.53563,668.162149 1057.59438,696.185493 1066.12009,700.835283 C1067.93016,704.1931 1085.51936,645.844471 1090.16914,641.201239 C1094.81893,636.558008 1093.78273,598.848149 1090.16914,591.620972 Z" id="Shape-Copy" fill="url(#linearGradient-2)"></path>
            <path d="M1624.00953,952.080703 C1617.36186,938.809498 1580.78159,901.251986 1579.37002,887.003538 C1568.90989,881.296919 1523.64302,858.723805 1514.6186,865.854062 C1505.59418,872.984319 1518.08118,910.746931 1506.68001,905.040312 C1495.27883,899.333694 1490.52533,889.83875 1479.12416,886.943214 C1467.72298,884.047678 1442.54389,884.530268 1461.02706,899.2975 C1479.51023,914.064732 1466.794,910.674542 1466.31141,940.607143 C1465.82882,970.539744 1475.27551,984.800257 1477.65226,991.930514 C1480.02901,999.06077 1485.72357,996.684018 1519.87882,981.482456 C1554.03408,966.280893 1497.92101,1090.04092 1509.79271,1091.46455 C1521.6644,1092.88819 1564.084,1144.44079 1579.76815,1152.99469 C1583.09802,1159.17183 1615.45563,1051.83191 1624.00953,1043.29008 C1632.56342,1034.74825 1630.65719,965.376038 1624.00953,952.080703 Z" id="Shape-Copy-2" fill="url(#linearGradient-2)" transform="translate(1542.092349, 1008.863473) rotate(150.000000) translate(-1542.092349, -1008.863473) "></path>
            <path d="M781.021311,145.330867 C780.501311,128.560867 789.681311,134.330867 788.501311,115.010867 C787.321311,95.6908667 780.621311,72.8808667 790.501311,70.1208667 C800.381311,67.3608667 823.971311,112.650867 831.501311,126.030867 C839.031311,139.410867 856.241311,147.030867 899.231311,136.660867 C910.651311,133.900867 909.491311,140.950867 910.231311,144.930867 C915.501311,172.560867 851.061311,212.650867 810.501311,205.560867 C803.811311,204.340867 783.501311,163.560867 781.021311,145.330867 Z" id="Shape" fill="url(#linearGradient-2)"></path>
            <path d="M1326.03428,161.174315 C1325.19783,134.198743 1339.96442,143.480141 1338.06632,112.402737 C1336.16822,81.3253334 1325.39085,44.6340506 1341.28344,40.1944215 C1357.17603,35.7547924 1395.12199,108.606533 1407.23445,130.129083 C1419.34692,151.651632 1447.03026,163.908869 1516.18231,147.228089 C1534.55208,142.78846 1532.68615,154.128817 1533.87648,160.530891 C1542.3536,204.975439 1438.69791,269.46266 1373.45467,258.057961 C1362.69339,256.095516 1330.02351,190.498387 1326.03428,161.174315 Z" id="Shape-Copy-6" fill="url(#linearGradient-2)" transform="translate(1430.182792, 149.693626) rotate(190.000000) translate(-1430.182792, -149.693626) "></path>
            <path d="M-23.0596503,686.552447 C-23.8961021,659.576874 -9.12950961,668.858273 -11.0276119,637.780869 C-12.9257142,606.703465 -23.7030748,570.012182 -7.81048937,565.572553 C8.08209606,561.132924 46.0280566,633.984664 58.140523,655.507214 C70.2529894,677.029764 97.936329,689.287001 167.088378,672.606221 C185.458148,668.166592 183.592217,679.506949 184.782552,685.909022 C193.25967,730.353571 89.6039816,794.840792 24.3607362,783.436093 C13.5994612,781.473648 -19.0704183,715.876519 -23.0596503,686.552447 Z" id="Shape-Copy-7" fill="url(#linearGradient-2)" transform="translate(81.088863, 675.071758) rotate(240.000000) translate(-81.088863, -675.071758) "></path>
        </g>
    </g>
</svg>