<?xml version="1.0" encoding="UTF-8"?>
<svg width="1303px" height="870px" viewBox="0 0 1303 870" version="1.1" xmlns="http://www.w3.org/2000/svg" xmlns:xlink="http://www.w3.org/1999/xlink">
    <!-- Generator: Sketch 47.1 (45422) - http://www.bohemiancoding.com/sketch -->
    <title>Artboard 4</title>
    <desc>Created with Sketch.</desc>
    <defs>
        <linearGradient x1="270.228069%" y1="546.593022%" x2="-75.6381012%" y2="-235.492606%" id="linearGradient-1">
            <stop stop-color="#78D3DE" offset="0%"></stop>
            <stop stop-color="#50A6C5" offset="31%"></stop>
            <stop stop-color="#1765A2" offset="78%"></stop>
            <stop stop-color="#004C94" offset="100%"></stop>
        </linearGradient>
        <linearGradient x1="16655.6585%" y1="94807%" x2="1142.42013%" y2="-25198%" id="linearGradient-2">
            <stop stop-color="#78D3DE" offset="0%"></stop>
            <stop stop-color="#50A6C5" offset="31%"></stop>
            <stop stop-color="#1765A2" offset="78%"></stop>
            <stop stop-color="#004C94" offset="100%"></stop>
        </linearGradient>
        <linearGradient x1="21891.3835%" y1="98467%" x2="819.249286%" y2="-21538%" id="linearGradient-3">
            <stop stop-color="#78D3DE" offset="0%"></stop>
            <stop stop-color="#50A6C5" offset="31%"></stop>
            <stop stop-color="#1765A2" offset="78%"></stop>
            <stop stop-color="#004C94" offset="100%"></stop>
        </linearGradient>
        <linearGradient x1="18885.897%" y1="79296%" x2="3372.65861%" y2="-40709%" id="linearGradient-4">
            <stop stop-color="#78D3DE" offset="0%"></stop>
            <stop stop-color="#50A6C5" offset="31%"></stop>
            <stop stop-color="#1765A2" offset="78%"></stop>
            <stop stop-color="#004C94" offset="100%"></stop>
        </linearGradient>
        <linearGradient x1="17197.3927%" y1="91236%" x2="1658.6221%" y2="-28769%" id="linearGradient-5">
            <stop stop-color="#78D3DE" offset="0%"></stop>
            <stop stop-color="#50A6C5" offset="31%"></stop>
            <stop stop-color="#1765A2" offset="78%"></stop>
            <stop stop-color="#004C94" offset="100%"></stop>
        </linearGradient>
        <linearGradient x1="18700.4869%" y1="80585%" x2="3187.24848%" y2="-39420%" id="linearGradient-6">
            <stop stop-color="#78D3DE" offset="0%"></stop>
            <stop stop-color="#50A6C5" offset="31%"></stop>
            <stop stop-color="#1765A2" offset="78%"></stop>
            <stop stop-color="#004C94" offset="100%"></stop>
        </linearGradient>
        <linearGradient x1="17718.4948%" y1="87415%" x2="2205.25644%" y2="-32590%" id="linearGradient-7">
            <stop stop-color="#78D3DE" offset="0%"></stop>
            <stop stop-color="#50A6C5" offset="31%"></stop>
            <stop stop-color="#1765A2" offset="78%"></stop>
            <stop stop-color="#004C94" offset="100%"></stop>
        </linearGradient>
        <linearGradient x1="55937.1495%" y1="91710%" x2="5089.98688%" y2="-28295%" id="linearGradient-8">
            <stop stop-color="#78D3DE" offset="0%"></stop>
            <stop stop-color="#50A6C5" offset="31%"></stop>
            <stop stop-color="#1765A2" offset="78%"></stop>
            <stop stop-color="#004C94" offset="100%"></stop>
        </linearGradient>
        <linearGradient x1="49753.2344%" y1="104833%" x2="-1093.92822%" y2="-15172%" id="linearGradient-9">
            <stop stop-color="#78D3DE" offset="0%"></stop>
            <stop stop-color="#50A6C5" offset="31%"></stop>
            <stop stop-color="#1765A2" offset="78%"></stop>
            <stop stop-color="#004C94" offset="100%"></stop>
        </linearGradient>
        <linearGradient x1="20551.1799%" y1="67713%" x2="5037.94151%" y2="-52292%" id="linearGradient-10">
            <stop stop-color="#78D3DE" offset="0%"></stop>
            <stop stop-color="#50A6C5" offset="31%"></stop>
            <stop stop-color="#1765A2" offset="78%"></stop>
            <stop stop-color="#004C94" offset="100%"></stop>
        </linearGradient>
        <linearGradient x1="14239.4646%" y1="111613%" x2="-1273.7738%" y2="-8392%" id="linearGradient-11">
            <stop stop-color="#78D3DE" offset="0%"></stop>
            <stop stop-color="#50A6C5" offset="31%"></stop>
            <stop stop-color="#1765A2" offset="78%"></stop>
            <stop stop-color="#004C94" offset="100%"></stop>
        </linearGradient>
        <linearGradient x1="8679.84585%" y1="126810%" x2="-2472.38788%" y2="6805%" id="linearGradient-12">
            <stop stop-color="#78D3DE" offset="0%"></stop>
            <stop stop-color="#50A6C5" offset="31%"></stop>
            <stop stop-color="#1765A2" offset="78%"></stop>
            <stop stop-color="#004C94" offset="100%"></stop>
        </linearGradient>
        <linearGradient x1="28053.0429%" y1="119677%" x2="-5286.50799%" y2="-328%" id="linearGradient-13">
            <stop stop-color="#78D3DE" offset="0%"></stop>
            <stop stop-color="#50A6C5" offset="31%"></stop>
            <stop stop-color="#1765A2" offset="78%"></stop>
            <stop stop-color="#004C94" offset="100%"></stop>
        </linearGradient>
        <linearGradient x1="43253.0959%" y1="117257%" x2="-6845.48338%" y2="-2748%" id="linearGradient-14">
            <stop stop-color="#78D3DE" offset="0%"></stop>
            <stop stop-color="#50A6C5" offset="31%"></stop>
            <stop stop-color="#1765A2" offset="78%"></stop>
            <stop stop-color="#004C94" offset="100%"></stop>
        </linearGradient>
        <linearGradient x1="22049.09%" y1="125009%" x2="-5779.87013%" y2="5004%" id="linearGradient-15">
            <stop stop-color="#78D3DE" offset="0%"></stop>
            <stop stop-color="#50A6C5" offset="31%"></stop>
            <stop stop-color="#1765A2" offset="78%"></stop>
            <stop stop-color="#004C94" offset="100%"></stop>
        </linearGradient>
        <linearGradient x1="26594.3132%" y1="104186%" x2="-395.437261%" y2="-15819%" id="linearGradient-16">
            <stop stop-color="#78D3DE" offset="0%"></stop>
            <stop stop-color="#50A6C5" offset="31%"></stop>
            <stop stop-color="#1765A2" offset="78%"></stop>
            <stop stop-color="#004C94" offset="100%"></stop>
        </linearGradient>
        <linearGradient x1="24990.7849%" y1="110744%" x2="-2038.9098%" y2="-9261%" id="linearGradient-17">
            <stop stop-color="#78D3DE" offset="0%"></stop>
            <stop stop-color="#50A6C5" offset="31%"></stop>
            <stop stop-color="#1765A2" offset="78%"></stop>
            <stop stop-color="#004C94" offset="100%"></stop>
        </linearGradient>
        <linearGradient x1="33007.1392%" y1="78549%" x2="6017.38874%" y2="-41456%" id="linearGradient-18">
            <stop stop-color="#78D3DE" offset="0%"></stop>
            <stop stop-color="#50A6C5" offset="31%"></stop>
            <stop stop-color="#1765A2" offset="78%"></stop>
            <stop stop-color="#004C94" offset="100%"></stop>
        </linearGradient>
        <linearGradient x1="27922.1325%" y1="98874%" x2="933.255939%" y2="-21131%" id="linearGradient-19">
            <stop stop-color="#78D3DE" offset="0%"></stop>
            <stop stop-color="#50A6C5" offset="31%"></stop>
            <stop stop-color="#1765A2" offset="78%"></stop>
            <stop stop-color="#004C94" offset="100%"></stop>
        </linearGradient>
        <linearGradient x1="37359.9737%" y1="61142%" x2="10371.0971%" y2="-58863%" id="linearGradient-20">
            <stop stop-color="#78D3DE" offset="0%"></stop>
            <stop stop-color="#50A6C5" offset="31%"></stop>
            <stop stop-color="#1765A2" offset="78%"></stop>
            <stop stop-color="#004C94" offset="100%"></stop>
        </linearGradient>
        <linearGradient x1="113254%" y1="84070.474%" x2="-537%" y2="-13905.243%" id="linearGradient-21">
            <stop stop-color="#78D3DE" offset="0%"></stop>
            <stop stop-color="#50A6C5" offset="31%"></stop>
            <stop stop-color="#1765A2" offset="78%"></stop>
            <stop stop-color="#004C94" offset="100%"></stop>
        </linearGradient>
        <linearGradient x1="116003%" y1="82060.9997%" x2="2212%" y2="-16056.0623%" id="linearGradient-22">
            <stop stop-color="#78D3DE" offset="0%"></stop>
            <stop stop-color="#50A6C5" offset="31%"></stop>
            <stop stop-color="#1765A2" offset="78%"></stop>
            <stop stop-color="#004C94" offset="100%"></stop>
        </linearGradient>
        <linearGradient x1="117260%" y1="81085.5932%" x2="3469%" y2="-17031.4688%" id="linearGradient-23">
            <stop stop-color="#78D3DE" offset="0%"></stop>
            <stop stop-color="#50A6C5" offset="31%"></stop>
            <stop stop-color="#1765A2" offset="78%"></stop>
            <stop stop-color="#004C94" offset="100%"></stop>
        </linearGradient>
        <linearGradient x1="118709%" y1="79962.1997%" x2="4918%" y2="-18154.8623%" id="linearGradient-24">
            <stop stop-color="#78D3DE" offset="0%"></stop>
            <stop stop-color="#50A6C5" offset="31%"></stop>
            <stop stop-color="#1765A2" offset="78%"></stop>
            <stop stop-color="#004C94" offset="100%"></stop>
        </linearGradient>
        <linearGradient x1="111194%" y1="85665.7788%" x2="-2597%" y2="-12309.9382%" id="linearGradient-25">
            <stop stop-color="#78D3DE" offset="0%"></stop>
            <stop stop-color="#50A6C5" offset="31%"></stop>
            <stop stop-color="#1765A2" offset="78%"></stop>
            <stop stop-color="#004C94" offset="100%"></stop>
        </linearGradient>
        <linearGradient x1="113943%" y1="83657.7883%" x2="152%" y2="-14459.2736%" id="linearGradient-26">
            <stop stop-color="#78D3DE" offset="0%"></stop>
            <stop stop-color="#50A6C5" offset="31%"></stop>
            <stop stop-color="#1765A2" offset="78%"></stop>
            <stop stop-color="#004C94" offset="100%"></stop>
        </linearGradient>
        <linearGradient x1="115200%" y1="82458.2968%" x2="1409%" y2="-15391.7201%" id="linearGradient-27">
            <stop stop-color="#78D3DE" offset="0%"></stop>
            <stop stop-color="#50A6C5" offset="31%"></stop>
            <stop stop-color="#1765A2" offset="78%"></stop>
            <stop stop-color="#004C94" offset="100%"></stop>
        </linearGradient>
        <linearGradient x1="116649%" y1="81337.9607%" x2="2858%" y2="-16512.0561%" id="linearGradient-28">
            <stop stop-color="#78D3DE" offset="0%"></stop>
            <stop stop-color="#50A6C5" offset="31%"></stop>
            <stop stop-color="#1765A2" offset="78%"></stop>
            <stop stop-color="#004C94" offset="100%"></stop>
        </linearGradient>
        <linearGradient x1="51566.1613%" y1="39556.6082%" x2="9185.49537%" y2="-31340%" id="linearGradient-29">
            <stop stop-color="#78D3DE" offset="0%"></stop>
            <stop stop-color="#50A6C5" offset="68.7141263%"></stop>
            <stop stop-color="#1765A2" offset="88.8970823%"></stop>
            <stop stop-color="#004C94" offset="100%"></stop>
        </linearGradient>
        <linearGradient x1="20358.7388%" y1="67318%" x2="5033.51568%" y2="-52687%" id="linearGradient-30">
            <stop stop-color="#78D3DE" offset="0%"></stop>
            <stop stop-color="#50A6C5" offset="31%"></stop>
            <stop stop-color="#1765A2" offset="78%"></stop>
            <stop stop-color="#004C94" offset="100%"></stop>
        </linearGradient>
        <linearGradient x1="14007.6558%" y1="75057%" x2="2872.3953%" y2="-44948%" id="linearGradient-31">
            <stop stop-color="#78D3DE" offset="0%"></stop>
            <stop stop-color="#50A6C5" offset="31%"></stop>
            <stop stop-color="#1765A2" offset="78%"></stop>
            <stop stop-color="#004C94" offset="100%"></stop>
        </linearGradient>
        <linearGradient x1="54708.5067%" y1="95527%" x2="3325.58187%" y2="-24478%" id="linearGradient-32">
            <stop stop-color="#78D3DE" offset="0%"></stop>
            <stop stop-color="#50A6C5" offset="31%"></stop>
            <stop stop-color="#1765A2" offset="78%"></stop>
            <stop stop-color="#004C94" offset="100%"></stop>
        </linearGradient>
        <linearGradient x1="22007.9633%" y1="71181%" x2="4978.12005%" y2="-48824%" id="linearGradient-33">
            <stop stop-color="#78D3DE" offset="0%"></stop>
            <stop stop-color="#50A6C5" offset="31%"></stop>
            <stop stop-color="#1765A2" offset="78%"></stop>
            <stop stop-color="#004C94" offset="100%"></stop>
        </linearGradient>
        <linearGradient x1="22099.6835%" y1="71297%" x2="4984.59038%" y2="-48708%" id="linearGradient-34">
            <stop stop-color="#78D3DE" offset="0%"></stop>
            <stop stop-color="#50A6C5" offset="31%"></stop>
            <stop stop-color="#1765A2" offset="78%"></stop>
            <stop stop-color="#004C94" offset="100%"></stop>
        </linearGradient>
        <linearGradient x1="39560.4926%" y1="82435%" x2="6220.64866%" y2="-37570%" id="linearGradient-35">
            <stop stop-color="#78D3DE" offset="0%"></stop>
            <stop stop-color="#50A6C5" offset="31%"></stop>
            <stop stop-color="#1765A2" offset="78%"></stop>
            <stop stop-color="#004C94" offset="100%"></stop>
        </linearGradient>
        <linearGradient x1="57426.6559%" y1="86731%" x2="7327.63633%" y2="-33274%" id="linearGradient-36">
            <stop stop-color="#78D3DE" offset="0%"></stop>
            <stop stop-color="#50A6C5" offset="31%"></stop>
            <stop stop-color="#1765A2" offset="78%"></stop>
            <stop stop-color="#004C94" offset="100%"></stop>
        </linearGradient>
        <linearGradient x1="55770.8065%" y1="90297%" x2="5672.22722%" y2="-29708%" id="linearGradient-37">
            <stop stop-color="#78D3DE" offset="0%"></stop>
            <stop stop-color="#50A6C5" offset="31%"></stop>
            <stop stop-color="#1765A2" offset="78%"></stop>
            <stop stop-color="#004C94" offset="100%"></stop>
        </linearGradient>
        <linearGradient x1="47917.2992%" y1="107211%" x2="-2181.28015%" y2="-12794%" id="linearGradient-38">
            <stop stop-color="#78D3DE" offset="0%"></stop>
            <stop stop-color="#50A6C5" offset="31%"></stop>
            <stop stop-color="#1765A2" offset="78%"></stop>
            <stop stop-color="#004C94" offset="100%"></stop>
        </linearGradient>
        <linearGradient x1="30548.3549%" y1="92056%" x2="2719.39477%" y2="-27949%" id="linearGradient-39">
            <stop stop-color="#78D3DE" offset="0%"></stop>
            <stop stop-color="#50A6C5" offset="31%"></stop>
            <stop stop-color="#1765A2" offset="78%"></stop>
            <stop stop-color="#004C94" offset="100%"></stop>
        </linearGradient>
        <linearGradient x1="38911.2061%" y1="59533%" x2="11100.4108%" y2="-60472%" id="linearGradient-40">
            <stop stop-color="#78D3DE" offset="0%"></stop>
            <stop stop-color="#50A6C5" offset="31%"></stop>
            <stop stop-color="#1765A2" offset="78%"></stop>
            <stop stop-color="#004C94" offset="100%"></stop>
        </linearGradient>
        <linearGradient x1="50916.2946%" y1="80359%" x2="8680.14415%" y2="-39646%" id="linearGradient-41">
            <stop stop-color="#78D3DE" offset="0%"></stop>
            <stop stop-color="#50A6C5" offset="31%"></stop>
            <stop stop-color="#1765A2" offset="78%"></stop>
            <stop stop-color="#004C94" offset="100%"></stop>
        </linearGradient>
        <linearGradient x1="63648.6765%" y1="83265%" x2="9632.26325%" y2="-36740%" id="linearGradient-42">
            <stop stop-color="#78D3DE" offset="0%"></stop>
            <stop stop-color="#50A6C5" offset="31%"></stop>
            <stop stop-color="#1765A2" offset="78%"></stop>
            <stop stop-color="#004C94" offset="100%"></stop>
        </linearGradient>
        <linearGradient x1="39939.9884%" y1="51135%" x2="12900.222%" y2="-68865%" id="linearGradient-43">
            <stop stop-color="#78D3DE" offset="0%"></stop>
            <stop stop-color="#50A6C5" offset="31%"></stop>
            <stop stop-color="#1765A2" offset="78%"></stop>
            <stop stop-color="#004C94" offset="100%"></stop>
        </linearGradient>
        <linearGradient x1="141409%" y1="62328.177%" x2="27618%" y2="-35732.4755%" id="linearGradient-44">
            <stop stop-color="#78D3DE" offset="0%"></stop>
            <stop stop-color="#50A6C5" offset="31%"></stop>
            <stop stop-color="#1765A2" offset="78%"></stop>
            <stop stop-color="#004C94" offset="100%"></stop>
        </linearGradient>
    </defs>
    <g id="Page-1" stroke="none" stroke-width="1" fill="none" fill-rule="evenodd">
        <g id="Artboard-4" fill-rule="nonzero">
            <g id="couche-bleu" transform="translate(22.000000, 12.000000)">
                <path d="M87.64,397 C91.64,401.68 106.02,423.4 106.02,433.09 C106.02,442.78 120.02,452.81 132.76,428.09 C145.5,403.37 146.76,393.67 152.14,397.01 C157.52,400.35 150.14,411.71 164.14,411.01 C178.14,410.31 179.14,380.26 185.53,380.26 C191.92,380.26 196.89,383.94 201.53,388.95 C206.17,393.96 218.91,382.95 222.25,382.95 C225.59,382.95 204.54,397.32 203.87,408.68 C203.2,420.04 213.87,427.06 219.87,427.06 C225.87,427.06 268.66,393.31 289.05,393.31 C309.44,393.31 330.16,393.98 339.18,387.63 C348.2,381.28 355,382.33 359.68,386 C364.36,389.67 368.37,389.68 364.36,395.36 C360.35,401.04 348.65,413.07 346.36,420.09 C344.07,427.11 337.67,426.09 352.71,442.15 C367.75,458.21 356,458.53 356,458.53 C356,458.53 330.6,450.84 314.89,460.2 C299.18,469.56 278.46,478.2 257.41,479.92 C236.36,481.64 224.32,469.23 206.95,475.24 C189.58,481.25 154.15,483.24 140.44,490.61 C126.73,497.98 121.06,487.61 118.05,484.61 C115.04,481.61 103.35,469.91 93.99,472.24 C84.63,474.57 89.31,489.95 87.64,492.29 C85.97,494.63 69.26,501.29 66.92,508.29 C64.58,515.29 62.92,527.01 59.92,530.01 C56.92,533.01 30.49,512.67 38.51,498.3 C46.53,483.93 56.22,482.93 55.89,469.89 C55.56,456.85 44.89,384.33 53.22,378.99 C61.55,373.65 79.96,379.66 79.96,382.99 C79.96,386.32 77.96,390.53 86.31,394.69 C87.1204145,395.180699 87.6225139,396.052766 87.64,397 Z" id="Shape" fill="url(#linearGradient-1)"></path>
                <path d="M543.42,370.65 C543.42,370.65 543.89,377.74 504.18,395.7 C464.47,413.66 494.73,426.43 529.23,422.65 C563.73,418.87 559.96,391.45 579.34,391.45 C598.72,391.45 586.9,411.3 604.39,414.61 C621.88,417.92 650.24,395.7 662.06,397.12 C673.88,398.54 680.5,399.48 673.88,381.05 C667.26,362.62 678.13,353.16 662.06,353.16 C645.99,353.16 611.48,352.21 591.62,353.16 C571.76,354.11 555.71,349.85 543.42,370.65 Z" id="Shape" fill="url(#linearGradient-2)"></path>
                <path d="M169.063213,328.912222 C169.063213,328.912222 169.533213,336.002222 129.823213,353.962222 C90.1132128,371.922222 120.373213,384.692222 154.873213,380.912222 C189.373213,377.132222 185.603213,349.712222 204.983213,349.712222 C224.363213,349.712222 212.543213,369.562222 230.033213,372.872222 C247.523213,376.182222 275.883213,353.962222 287.703213,355.382222 C299.523213,356.802222 306.143213,357.742222 299.523213,339.312222 C292.903213,320.882222 303.773213,311.422222 287.703213,311.422222 C271.633213,311.422222 237.123213,310.472222 217.263213,311.422222 C197.403213,312.372222 181.353213,308.112222 169.063213,328.912222 Z" id="Shape-Copy-10" fill="url(#linearGradient-2)"></path>
                <path d="M58.4149201,565.912222 C58.4149201,565.912222 58.8849201,573.002222 19.1749201,590.962222 C-20.5350799,608.922222 9.72492013,621.692222 44.2249201,617.912222 C78.7249201,614.132222 74.9549201,586.712222 94.3349201,586.712222 C113.71492,586.712222 101.89492,606.562222 119.38492,609.872222 C136.87492,613.182222 165.23492,590.962222 177.05492,592.382222 C188.87492,593.802222 195.49492,594.742222 188.87492,576.312222 C182.25492,557.882222 193.12492,548.422222 177.05492,548.422222 C160.98492,548.422222 126.47492,547.472222 106.61492,548.422222 C86.7549201,549.372222 70.7049201,545.112222 58.4149201,565.912222 Z" id="Shape-Copy" fill="url(#linearGradient-2)"></path>
                <path d="M440.39,332.2 C440.39,332.2 440.71,337.03 413.67,349.26 C386.63,361.49 407.23,370.18 430.73,367.61 C454.23,365.04 447.8,376 461,376 C474.2,376 470,359.88 481.91,362.13 C493.82,364.38 513.13,349.25 521.18,350.22 C529.23,351.19 533.73,351.83 529.18,339.28 C524.63,326.73 532.08,320.28 521.18,320.28 C510.28,320.28 486.74,319.64 473.18,320.28 C459.62,320.92 448.76,318 440.39,332.2 Z" id="Shape" fill="url(#linearGradient-3)"></path>
                <path d="M1111.06321,591.912222 C1111.06321,591.912222 1111.53321,599.002222 1071.82321,616.962222 C1032.11321,634.922222 1062.37321,647.692222 1096.87321,643.912222 C1131.37321,640.132222 1127.60321,612.712222 1146.98321,612.712222 C1166.36321,612.712222 1154.54321,632.562222 1172.03321,635.872222 C1189.52321,639.182222 1217.88321,616.962222 1229.70321,618.382222 C1241.52321,619.802222 1248.14321,620.742222 1241.52321,602.312222 C1234.90321,583.882222 1245.77321,574.422222 1229.70321,574.422222 C1213.63321,574.422222 1179.12321,573.472222 1159.26321,574.422222 C1139.40321,575.372222 1123.35321,571.112222 1111.06321,591.912222 Z" id="Shape" fill="url(#linearGradient-4)"></path>
                <path d="M976.270993,659.532114 C976.270993,659.532114 976.620993,664.782114 947.200993,678.092114 C917.780993,691.402114 940.200993,700.862114 965.760993,698.092114 C991.320993,695.322114 988.530993,674.972114 1002.89099,674.972114 C1017.25099,674.972114 1008.49099,689.682114 1021.45099,692.132114 C1034.41099,694.582114 1055.45099,678.132114 1064.18099,679.132114 C1072.91099,680.132114 1077.84099,680.882114 1072.94099,667.222114 C1068.04099,653.562114 1076.09099,646.552114 1064.18099,646.552114 C1052.27099,646.552114 1026.70099,645.852114 1011.99099,646.552114 C997.280993,647.252114 985.380993,644.122114 976.270993,659.532114 Z" id="Shape" fill="url(#linearGradient-5)" transform="translate(1004.067344, 672.408297) rotate(140.000000) translate(-1004.067344, -672.408297) "></path>
                <path d="M1094.06321,663.912222 C1094.06321,663.912222 1094.53321,671.002222 1054.82321,688.962222 C1015.11321,706.922222 1045.37321,719.692222 1079.87321,715.912222 C1114.37321,712.132222 1110.60321,684.712222 1129.98321,684.712222 C1149.36321,684.712222 1137.54321,704.562222 1155.03321,707.872222 C1172.52321,711.182222 1200.88321,688.962222 1212.70321,690.382222 C1224.52321,691.802222 1231.14321,692.742222 1224.52321,674.312222 C1217.90321,655.882222 1228.77321,646.422222 1212.70321,646.422222 C1196.63321,646.422222 1162.12321,645.472222 1142.26321,646.422222 C1122.40321,647.372222 1106.35321,643.112222 1094.06321,663.912222 Z" id="Shape" fill="url(#linearGradient-6)"></path>
                <path d="M875.42,564.65 C875.42,564.65 875.89,571.74 836.18,589.7 C796.47,607.66 826.73,620.43 861.23,616.65 C895.73,612.87 891.96,585.45 911.34,585.45 C930.72,585.45 918.9,605.3 936.39,608.61 C953.88,611.92 982.24,589.7 994.06,591.12 C1005.88,592.54 1012.5,593.48 1005.88,575.05 C999.26,556.62 1010.13,547.16 994.06,547.16 C977.99,547.16 943.48,546.21 923.62,547.16 C903.76,548.11 887.71,543.85 875.42,564.65 Z" id="Shape" fill="url(#linearGradient-7)"></path>
                <path d="M704.42,465.65 C704.42,465.65 704.89,472.74 665.18,490.7 C625.47,508.66 655.73,521.43 690.23,517.65 C724.73,513.87 722.62,566 742,566 C761.38,566 750.29,481.62 766,490 C811,514 811.25,490.71 823.07,492.12 C834.89,493.53 841.51,494.48 834.89,476.05 C828.27,457.62 815.07,467 799,467 C782.93,467 772.49,447.22 752.63,448.16 C732.77,449.1 733,416 704.42,465.65 Z" id="Shape" fill="url(#linearGradient-8)"></path>
                <path d="M626.234321,542.646988 C626.234321,542.646988 626.51953,546.949391 602.422432,557.848003 C578.325335,568.746614 596.687918,576.495794 617.623447,574.201989 C638.558976,571.908183 637.278571,603.542071 649.038877,603.542071 C660.799183,603.542071 654.069473,552.338014 663.602724,557.423224 C690.909935,571.98707 691.061642,557.854071 698.234337,558.709697 C705.407031,559.565323 709.424225,560.141809 705.407031,548.957988 C701.389837,537.774168 693.379721,543.466204 683.628012,543.466204 C673.876304,543.466204 667.54103,531.463168 655.489448,532.033585 C643.437865,532.604002 643.577435,512.518031 626.234321,542.646988 Z" id="Shape-Copy-6" fill="url(#linearGradient-8)"></path>
                <path d="M675.234321,306.646988 C675.234321,306.646988 675.51953,310.949391 651.422432,321.848003 C627.325335,332.746614 645.687918,340.495794 666.623447,338.201989 C687.558976,335.908183 686.278571,367.542071 698.038877,367.542071 C709.799183,367.542071 703.069473,316.338014 712.602724,321.423224 C739.909935,335.98707 740.061642,321.854071 747.234337,322.709697 C754.407031,323.565323 758.424225,324.141809 754.407031,312.957988 C750.389837,301.774168 742.379721,307.466204 732.628012,307.466204 C722.876304,307.466204 716.54103,295.463168 704.489448,296.033585 C692.437865,296.604002 692.577435,276.518031 675.234321,306.646988 Z" id="Shape-Copy-7" fill="url(#linearGradient-8)"></path>
                <path d="M838.234321,267.646988 C838.234321,267.646988 838.51953,271.949391 814.422432,282.848003 C790.325335,293.746614 808.687918,301.495794 829.623447,299.201989 C850.558976,296.908183 849.278571,328.542071 861.038877,328.542071 C872.799183,328.542071 866.069473,277.338014 875.602724,282.423224 C902.909935,296.98707 903.061642,282.854071 910.234337,283.709697 C917.407031,284.565323 921.424225,285.141809 917.407031,273.957988 C913.389837,262.774168 905.379721,268.466204 895.628012,268.466204 C885.876304,268.466204 879.54103,256.463168 867.489448,257.033585 C855.437865,257.604002 855.577435,237.518031 838.234321,267.646988 Z" id="Shape-Copy-8" fill="url(#linearGradient-8)"></path>
                <path d="M794.234321,531.646988 C794.234321,531.646988 794.51953,535.949391 770.422432,546.848003 C746.325335,557.746614 764.687918,565.495794 785.623447,563.201989 C806.558976,560.908183 805.278571,592.542071 817.038877,592.542071 C828.799183,592.542071 822.069473,541.338014 831.602724,546.423224 C858.909935,560.98707 859.061642,546.854071 866.234337,547.709697 C873.407031,548.565323 877.424225,549.141809 873.407031,537.957988 C869.389837,526.774168 861.379721,532.466204 851.628012,532.466204 C841.876304,532.466204 835.54103,520.463168 823.489448,521.033585 C811.437865,521.604002 811.577435,501.518031 794.234321,531.646988 Z" id="Shape-Copy-9" fill="url(#linearGradient-8)"></path>
                <path d="M591.42,623.65 C591.42,623.65 591.89,630.74 552.18,648.7 C512.47,666.66 542.73,679.43 577.23,675.65 C611.73,671.87 609.62,724 629,724 C648.38,724 637.29,639.62 653,648 C698,672 698.25,648.71 710.07,650.12 C721.89,651.53 728.51,652.48 721.89,634.05 C715.27,615.62 702.07,625 686,625 C669.93,625 659.49,605.22 639.63,606.16 C619.77,607.1 620,574 591.42,623.65 Z" id="Shape" fill="url(#linearGradient-9)"></path>
                <path d="M1006.42,286.65 C1006.42,286.65 1006.89,293.74 967.18,311.7 C927.47,329.66 957.73,342.43 992.23,338.65 C1026.73,334.87 1022.96,307.45 1042.34,307.45 C1061.72,307.45 1049.9,327.3 1067.39,330.61 C1084.88,333.92 1113.24,311.7 1125.06,313.12 C1136.88,314.54 1143.5,315.48 1136.88,297.05 C1130.26,278.62 1141.13,269.16 1125.06,269.16 C1108.99,269.16 1074.48,268.21 1054.62,269.16 C1034.76,270.11 1018.71,265.85 1006.42,286.65 Z" id="Shape" fill="url(#linearGradient-10)"></path>
                <path d="M104.42,262.65 C104.42,262.65 104.89,269.74 65.18,287.7 C25.47,305.66 55.73,318.43 90.23,314.65 C124.73,310.87 120.96,283.45 140.34,283.45 C159.72,283.45 147.9,303.3 165.39,306.61 C182.88,309.92 211.24,287.7 223.06,289.12 C234.88,290.54 241.5,291.48 234.88,273.05 C228.26,254.62 239.13,245.16 223.06,245.16 C206.99,245.16 172.48,244.21 152.62,245.16 C132.76,246.11 116.71,241.85 104.42,262.65 Z" id="Shape" fill="url(#linearGradient-11)"></path>
                <path d="M503.87,647.82 C503.87,647.82 476.27,626.07 423.67,661.13 C410.36,670 368.91,641.41 355.42,641 C344.16,640.66 313.42,622.57 276.25,657.38 C239.08,692.19 227.45,669.67 212.77,697.99 C198.09,726.31 158.17,764.54 168.41,739.62 C178.65,714.7 177.28,717.1 159.88,714.02 C142.48,710.94 141.45,720.16 131.21,721.53 C120.97,722.9 103.91,721.53 100.5,716.75 C97.09,711.97 96.75,726.31 89.58,727.67 C82.41,729.03 81.73,719.48 75.58,719.48 C69.43,719.48 105.27,711.29 117.21,701.39 C129.15,691.49 151,680.57 121.65,684.67 C92.3,688.77 73.87,697.3 45.55,686.67 C17.23,676.04 10.74,657.32 7.33,691.79 C3.92,726.26 5.96,734.11 21.33,734.11 C36.7,734.11 35.66,737.52 27.13,740.94 C18.6,744.36 17.92,751.86 40.78,747.77 C63.64,743.68 100.5,739.24 80.37,748.77 C60.24,758.3 40.78,751.16 27.13,763.77 C13.48,776.38 -10.76,797.3 22.68,797.3 C56.12,797.3 136.68,792.18 154.07,778.87 C171.46,765.56 179.84,749.69 199.97,751.74 C220.1,753.79 204.07,772.56 206.8,781.74 C209.53,790.92 274.71,782.42 284.95,766.38 C295.19,750.34 309.86,716.55 329.31,726.11 C348.76,735.67 322.83,727.11 320.44,753.11 C318.05,779.11 304.44,791.67 321.12,791.67 C337.8,791.67 445.34,782.8 437.83,770.51 C430.32,758.22 405.07,750.38 405.07,745.6 C405.07,740.82 425.55,746.6 447.07,752.43 C468.59,758.26 497.58,728.88 510.55,728.88 C523.52,728.88 524.2,681.79 513.96,664.72 C503.72,647.65 503.87,647.82 503.87,647.82 Z" id="Shape" fill="url(#linearGradient-12)"></path>
                <path d="M202.59,575.34 C209.127217,571.954125 214.791784,567.100738 219.14,561.16 C225.76,551.71 235.69,532.32 247.98,530.43 C260.27,528.54 288.16,531.85 290.98,543.67 C293.8,555.49 312.25,555.02 283.89,575.34 C255.53,595.66 265.45,567.34 257.89,567.78 C250.33,568.22 235.67,583.85 215.82,582.91 C195.97,581.97 202.59,575.34 202.59,575.34 Z" id="Shape" fill="url(#linearGradient-13)"></path>
                <path d="M278.69,587.63 C288.417725,583.428911 297.493287,577.855607 305.64,571.08 C319.35,559.73 329.75,561.15 336.84,561.15 C343.93,561.15 351.49,552.64 354.33,554.53 C357.17,556.42 358.58,555.95 345.82,566.82 C333.06,577.69 305.64,591.4 299.49,594.71 C293.34,598.02 285.78,606.53 278.69,608.89 C271.6,611.25 272.54,600.38 276.33,595.65 C280.12,590.92 278.69,587.63 278.69,587.63 Z" id="Shape" fill="url(#linearGradient-14)"></path>
                <path d="M105.789737,524.384796 C115.517462,520.183706 124.593023,514.610402 132.739737,507.834796 C146.449737,496.484796 156.849737,497.904796 163.939737,497.904796 C171.029737,497.904796 178.589737,489.394796 181.429737,491.284796 C184.269737,493.174796 185.679737,492.704796 172.919737,503.574796 C160.159737,514.444796 132.739737,528.154796 126.589737,531.464796 C120.439737,534.774796 112.879737,543.284796 105.789737,545.644796 C98.6997366,548.004796 99.6397366,537.134796 103.429737,532.404796 C107.219737,527.674796 105.789737,524.384796 105.789737,524.384796 Z" id="Shape-Copy-27" fill="url(#linearGradient-14)" transform="translate(141.930934, 518.493358) rotate(12.000000) translate(-141.930934, -518.493358) "></path>
                <path d="M198.086387,524.384796 C207.814112,520.183706 216.889674,514.610402 225.036387,507.834796 C238.746387,496.484796 249.146387,497.904796 256.236387,497.904796 C263.326387,497.904796 270.886387,489.394796 273.726387,491.284796 C276.566387,493.174796 277.976387,492.704796 265.216387,503.574796 C252.456387,514.444796 225.036387,528.154796 218.886387,531.464796 C212.736387,534.774796 205.176387,543.284796 198.086387,545.644796 C190.996387,548.004796 191.936387,537.134796 195.726387,532.404796 C199.516387,527.674796 198.086387,524.384796 198.086387,524.384796 Z" id="Shape-Copy-28" fill="url(#linearGradient-14)" transform="translate(234.227584, 518.493358) rotate(12.000000) translate(-234.227584, -518.493358) "></path>
                <path d="M150.11,642.94 C150.11,642.94 190.29,607.94 213.93,601.81 C237.57,595.68 260.26,589.99 264.51,601.81 C268.76,613.63 254.58,620.72 247.02,629.23 C239.46,637.74 226.69,647.23 225.27,651.92 C223.85,656.61 217.71,653.34 213,642 C208.29,630.66 183.22,642.47 171.4,647.2 C159.58,651.93 142.09,659.49 142.09,653.82 C142.09,648.15 150.11,642.94 150.11,642.94 Z" id="Shape" fill="url(#linearGradient-15)"></path>
                <path d="M444.15,452.9 C444.15,452.9 432.33,432.57 444.15,428.32 C455.97,424.07 458.33,430.21 478.66,436.32 C498.99,442.43 504.19,440.1 519.79,440.1 C535.39,440.1 529.24,456.65 516.48,458.54 C503.72,460.43 497.57,459.49 479.61,466.1 C461.65,472.71 455.5,479.34 447.94,481.23 C440.38,483.12 441.79,475.08 424.3,483.12 C406.81,491.16 402.55,487.37 403.97,484.54 C405.39,481.71 423.35,469 433.27,469 C443.19,469 444.15,452.9 444.15,452.9 Z" id="Shape" fill="url(#linearGradient-16)"></path>
                <path d="M403.44,550.41 C403.44,550.41 389.57,526.56 403.44,521.57 C417.31,516.58 420.08,523.79 443.93,531 C467.78,538.21 473.88,535.44 492.18,535.44 C510.48,535.44 503.27,554.85 488.3,557.07 C473.33,559.29 466.12,558.18 445.04,565.94 C423.96,573.7 416.75,581.47 407.88,583.69 C399.01,585.91 400.67,576.48 380.15,585.91 C359.63,595.34 354.64,590.91 356.3,587.57 C357.96,584.23 379.04,569.27 390.69,569.27 C402.34,569.27 403.44,550.41 403.44,550.41 Z" id="Shape" fill="url(#linearGradient-17)"></path>
                <path d="M1057.43309,560.990432 C1057.43309,560.990432 1045.61309,540.660432 1057.43309,536.410432 C1069.25309,532.160432 1071.61309,538.300432 1091.94309,544.410432 C1112.27309,550.520432 1117.47309,548.190432 1133.07309,548.190432 C1148.67309,548.190432 1142.52309,564.740432 1129.76309,566.630432 C1117.00309,568.520432 1110.85309,567.580432 1092.89309,574.190432 C1074.93309,580.800432 1068.78309,587.430432 1061.22309,589.320432 C1053.66309,591.210432 1055.07309,583.170432 1037.58309,591.210432 C1020.09309,599.250432 1015.83309,595.460432 1017.25309,592.630432 C1018.67309,589.800432 1036.63309,577.030432 1046.56309,577.030432 C1056.49309,577.030432 1057.43309,560.990432 1057.43309,560.990432 Z" id="Shape" fill="url(#linearGradient-18)"></path>
                <path d="M743.55,658.48 C743.55,658.48 729.55,634.48 743.55,629.4 C757.55,624.32 760.33,631.64 784.38,638.91 C808.43,646.18 814.58,643.38 833.04,643.38 C851.5,643.38 844.23,662.95 829.13,665.19 C814.03,667.43 806.76,666.31 785.51,674.14 C764.26,681.97 757,689.8 748,692 C739,694.2 740.73,684.73 720,694.24 C699.27,703.75 694.27,699.24 696,695.92 C697.73,692.6 718.93,677.46 730.68,677.46 C742.43,677.46 743.55,658.48 743.55,658.48 Z" id="Shape" fill="url(#linearGradient-19)"></path>
                <path d="M1072.55,208.48 C1072.55,208.48 1058.55,184.48 1072.55,179.4 C1086.55,174.32 1089.33,181.64 1113.38,188.91 C1137.43,196.18 1143.58,193.38 1162.04,193.38 C1180.5,193.38 1173.23,212.95 1158.13,215.19 C1143.03,217.43 1135.76,216.31 1114.51,224.14 C1093.26,231.97 1086,239.8 1077,242 C1068,244.2 1069.73,234.73 1049,244.24 C1028.27,253.75 1023.27,249.24 1025,245.92 C1026.73,242.6 1047.93,227.46 1059.68,227.46 C1071.43,227.46 1072.55,208.48 1072.55,208.48 Z" id="Shape" fill="url(#linearGradient-20)"></path>
                <path d="M545.78,487.89 C549.56,478.44 556.65,485.05 558.54,491.67 C560.43,498.29 566.1,501.12 567.99,509.67 C569.88,518.22 563.26,528.11 570.83,533.78 C578.4,539.45 578.39,534.73 578.39,530 C578.39,525.27 584.06,548.91 580.75,551.75 C577.44,554.59 563.75,539.46 563.75,532.84 C563.75,526.22 561.86,555.53 550.51,556.48 C539.16,557.43 515.51,544.66 515.51,535.68 C515.51,526.7 528.75,529.06 536.31,527.68 C543.87,526.3 543.4,511.61 540.09,504.99 C536.78,498.37 545.78,487.89 545.78,487.89 Z" id="Shape" fill="url(#linearGradient-21)"></path>
                <path d="M590.93,500.09 C592.61,495.9 595.75,498.83 596.59,501.77 C597.43,504.71 599.94,505.96 600.78,509.77 C601.62,513.58 598.69,517.94 602.04,520.45 C605.39,522.96 605.39,520.87 605.39,518.77 C605.39,516.67 607.9,527.15 606.39,528.4 C604.88,529.65 598.85,522.95 598.85,520.02 C598.85,517.09 598.05,530 593,530.46 C587.95,530.92 577.5,525.22 577.5,521.24 C577.5,517.26 583.36,518.31 586.72,517.68 C590.08,517.05 589.86,510.56 588.4,507.63 C586.94,504.7 590.93,500.09 590.93,500.09 Z" id="Shape" fill="url(#linearGradient-22)"></path>
                <path d="M575.93,459.09 C577.61,454.9 580.75,457.83 581.59,460.77 C582.43,463.71 584.94,464.96 585.78,468.77 C586.62,472.58 583.69,476.94 587.04,479.45 C590.39,481.96 590.39,479.87 590.39,477.77 C590.39,475.67 592.9,486.15 591.39,487.4 C589.88,488.65 583.85,481.95 583.85,479.02 C583.85,476.09 583.05,489 578,489.46 C572.95,489.92 562.5,484.22 562.5,480.24 C562.5,476.26 568.36,477.31 571.72,476.68 C575.08,476.05 574.86,469.56 573.4,466.63 C571.94,463.7 575.93,459.09 575.93,459.09 Z" id="Shape" fill="url(#linearGradient-23)"></path>
                <path d="M612.93,469.09 C614.61,464.9 617.75,467.83 618.59,470.77 C619.43,473.71 621.94,474.96 622.78,478.77 C623.62,482.58 620.69,486.94 624.04,489.45 C627.39,491.96 627.39,489.87 627.39,487.77 C627.39,485.67 629.9,496.15 628.39,497.4 C626.88,498.65 620.85,491.95 620.85,489.02 C620.85,486.09 620.05,499 615,499.46 C609.95,499.92 599.5,494.22 599.5,490.24 C599.5,486.26 605.36,487.31 608.72,486.68 C612.08,486.05 611.86,479.56 610.4,476.63 C608.94,473.7 612.93,469.09 612.93,469.09 Z" id="Shape" fill="url(#linearGradient-24)"></path>
                <path d="M528.43,606.088705 C530.11,601.898705 533.25,604.828705 534.09,607.768705 C534.93,610.708705 537.44,611.958705 538.28,615.768705 C539.12,619.578705 536.19,623.938705 539.54,626.448705 C542.89,628.958705 542.89,626.868705 542.89,624.768705 C542.89,622.668705 545.4,633.148705 543.89,634.398705 C542.38,635.648705 536.35,628.948705 536.35,626.018705 C536.35,623.088705 535.55,635.998705 530.5,636.458705 C525.45,636.918705 515,631.218705 515,627.238705 C515,623.258705 520.86,624.308705 524.22,623.678705 C527.58,623.048705 527.36,616.558705 525.9,613.628705 C524.44,610.698705 528.43,606.088705 528.43,606.088705 Z" id="Shape-Copy-5" fill="url(#linearGradient-22)"></path>
                <path d="M513.43,565.088705 C515.11,560.898705 518.25,563.828705 519.09,566.768705 C519.93,569.708705 522.44,570.958705 523.28,574.768705 C524.12,578.578705 521.19,582.938705 524.54,585.448705 C527.89,587.958705 527.89,585.868705 527.89,583.768705 C527.89,581.668705 530.4,592.148705 528.89,593.398705 C527.38,594.648705 521.35,587.948705 521.35,585.018705 C521.35,582.088705 520.55,594.998705 515.5,595.458705 C510.45,595.918705 500,590.218705 500,586.238705 C500,582.258705 505.86,583.308705 509.22,582.678705 C512.58,582.048705 512.36,575.558705 510.9,572.628705 C509.44,569.698705 513.43,565.088705 513.43,565.088705 Z" id="Shape-Copy-4" fill="url(#linearGradient-23)"></path>
                <path d="M550.43,575.088705 C552.11,570.898705 555.25,573.828705 556.09,576.768705 C556.93,579.708705 559.44,580.958705 560.28,584.768705 C561.12,588.578705 558.19,592.938705 561.54,595.448705 C564.89,597.958705 564.89,595.868705 564.89,593.768705 C564.89,591.668705 567.4,602.148705 565.89,603.398705 C564.38,604.648705 558.35,597.948705 558.35,595.018705 C558.35,592.088705 557.55,604.998705 552.5,605.458705 C547.45,605.918705 537,600.218705 537,596.238705 C537,592.258705 542.86,593.308705 546.22,592.678705 C549.58,592.048705 549.36,585.558705 547.9,582.628705 C546.44,579.698705 550.43,575.088705 550.43,575.088705 Z" id="Shape-Copy-3" fill="url(#linearGradient-24)"></path>
                <path d="M174.78,137.89 C178.56,128.44 185.65,135.05 187.54,141.67 C189.43,148.29 195.1,151.12 196.99,159.67 C198.88,168.22 192.26,178.11 199.83,183.78 C207.4,189.45 207.39,184.73 207.39,180 C207.39,175.27 213.06,198.91 209.75,201.75 C206.44,204.59 192.75,189.46 192.75,182.84 C192.75,176.22 190.86,205.53 179.51,206.48 C168.16,207.43 144.51,194.66 144.51,185.68 C144.51,176.7 157.75,179.06 165.31,177.68 C172.87,176.3 172.4,161.61 169.09,154.99 C165.78,148.37 174.78,137.89 174.78,137.89 Z" id="Shape" fill="url(#linearGradient-25)"></path>
                <path d="M219.93,150.09 C221.61,145.9 224.75,148.83 225.59,151.77 C226.43,154.71 228.94,155.96 229.78,159.77 C230.62,163.58 227.69,167.94 231.04,170.45 C234.39,172.96 234.39,170.87 234.39,168.77 C234.39,166.67 236.9,177.15 235.39,178.4 C233.88,179.65 227.85,172.95 227.85,170.02 C227.85,167.09 227.05,180 222,180.46 C216.95,180.92 206.5,175.22 206.5,171.24 C206.5,167.26 212.36,168.31 215.72,167.68 C219.08,167.05 218.86,160.56 217.4,157.63 C215.94,154.7 219.93,150.09 219.93,150.09 Z" id="Shape" fill="url(#linearGradient-26)"></path>
                <path d="M204.93,109.09 C206.61,104.9 209.75,107.83 210.59,110.77 C211.43,113.71 213.94,114.96 214.78,118.77 C215.62,122.58 212.68,126.89 216,129.4 C219.32,131.91 219.35,129.82 219.35,127.72 C219.35,125.62 221.86,136.1 220.35,137.35 C218.84,138.6 212.81,131.9 212.81,128.97 C212.81,126.04 212.05,139 207,139.46 C201.95,139.92 191.5,134.22 191.5,130.24 C191.5,126.26 197.36,127.31 200.72,126.68 C204.08,126.05 203.86,119.56 202.4,116.63 C200.94,113.7 204.93,109.09 204.93,109.09 Z" id="Shape" fill="url(#linearGradient-27)"></path>
                <path d="M241.93,119.09 C243.61,114.9 246.75,117.83 247.59,120.77 C248.43,123.71 250.94,124.96 251.78,128.77 C252.62,132.58 249.68,136.89 253,139.4 C256.32,141.91 256.35,139.82 256.35,137.72 C256.35,135.62 258.86,146.1 257.35,147.35 C255.84,148.6 249.81,141.9 249.81,138.97 C249.81,136.04 249.05,149 244,149.46 C238.95,149.92 228.5,144.22 228.5,140.24 C228.5,136.26 234.36,137.31 237.72,136.68 C241.08,136.05 240.86,129.56 239.4,126.63 C237.94,123.7 241.93,119.09 241.93,119.09 Z" id="Shape" fill="url(#linearGradient-28)"></path>
                <path d="M319.28,162.31 C327.05,166.31 357.57,186.9 362.8,199.57 C368.03,212.24 391.8,217.77 395.05,178.57 C398.3,139.37 394.82,125.99 403.61,127.47 C412.4,128.95 408.93,147.78 426.92,139.33 C444.91,130.88 430,91 438.28,87.6 C446.56,84.2 455.12,86.27 463.94,90.3 C472.76,94.33 483.41,73 487.78,71.24 C492.15,69.48 472.38,99.59 477.64,114.81 C482.9,130.03 500.64,133.43 508.54,130.18 C516.44,126.93 554.11,59.71 580.76,48.7 C607.41,37.69 634.86,27.38 643.23,14.21 C651.6,1.04 660.88,-1.26 669,1 C677.12,3.26 682.34,1.12 680.17,10.71 C678,20.3 669.17,42.35 669.93,52.79 C670.69,63.23 661.82,65.35 690.14,78.2 C718.46,91.05 703.35,97.81 703.35,97.81 C703.35,97.81 666,101.48 650.49,122.2 C634.98,142.92 612.61,165.46 586,179 C559.39,192.54 537,182.88 517.5,200.13 C498,217.38 452.8,239.13 438.85,256.13 C424.9,273.13 411.85,262.66 406.33,260.35 C400.81,258.04 379.17,249.06 368.2,257.17 C357.23,265.28 371.65,282.85 370.72,286.81 C369.79,290.77 351.54,308.56 352.27,319 C353,329.44 357.13,345.63 354.82,351.19 C352.51,356.75 306.99,344.35 309.72,321.19 C312.45,298.03 324.58,291.53 317.1,274.67 C309.62,257.81 256.5,168.8 264.53,157.3 C272.56,145.8 299.85,143.74 301.65,148.11 C303.45,152.48 303.16,159 316.27,160 C317.604739,160.198974 318.742529,161.072162 319.28,162.31 Z" id="Shape" fill="url(#linearGradient-29)"></path>
                <path d="M907,175.61 C907,175.61 907.52,183.39 864,203.1 C820.48,222.81 853.63,236.81 891.49,232.66 C929.35,228.51 925.2,198.43 946.49,198.43 C967.78,198.43 954.79,220.21 973.98,223.84 C993.17,227.47 1024.29,203.1 1037.25,204.65 C1050.21,206.2 1057.48,207.24 1050.25,187.02 C1043.02,166.8 1054.92,156.42 1037.25,156.42 C1019.58,156.42 1020.78,175 999,176 C977.22,177 920.47,152.79 907,175.61 Z" id="Shape" fill="url(#linearGradient-30)"></path>
                <path d="M1231,408.75 C1231,408.75 1210.58,392.66 1171.68,418.59 C1161.84,425.15 1131.18,404 1121.2,403.7 C1112.87,403.45 1090.2,390.07 1062.64,415.82 C1035.08,441.57 1026.55,424.91 1015.69,445.82 C1004.83,466.73 975.3,495.04 982.88,476.61 C990.46,458.18 989.44,459.95 976.57,457.68 C963.7,455.41 962.94,462.22 955.37,463.23 C947.8,464.24 935.18,463.23 932.65,459.7 C930.12,456.17 929.87,466.77 924.57,467.78 C919.27,468.79 918.76,461.72 914.22,461.72 C909.68,461.72 936.22,455.66 945.01,448.34 C953.8,441.02 970.01,432.94 948.29,435.97 C926.57,439 913,445.34 892,437.52 C871,429.7 866.25,415.81 863.73,441.31 C861.21,466.81 862.73,472.61 874.08,472.61 C885.43,472.61 884.68,475.13 878.37,477.61 C872.06,480.09 871.56,485.69 888.47,482.61 C905.38,479.53 932.64,476.3 917.75,483.37 C902.86,490.44 888.47,485.14 878.37,494.48 C868.27,503.82 850.37,519.22 875.09,519.22 C899.81,519.22 959.39,515.43 972.27,505.59 C985.15,495.75 991.33,484.01 1006.22,485.52 C1021.11,487.03 1009.22,500.92 1011.22,507.73 C1013.22,514.54 1061.45,508.23 1069.02,496.37 C1076.59,484.51 1087.45,459.52 1101.83,466.59 C1116.21,473.66 1097.03,467.35 1095.27,486.53 C1093.51,505.71 1083.41,515.05 1095.77,515.05 C1108.13,515.05 1187.65,508.49 1182.09,499.4 C1176.53,490.31 1158,484.59 1158,481.06 C1158,477.53 1173.14,481.82 1189,486.06 C1204.86,490.3 1226.36,468.64 1235.95,468.64 C1245.54,468.64 1246.05,433.81 1238.47,421.19 C1230.89,408.57 1231,408.75 1231,408.75 Z" id="Shape" fill="url(#linearGradient-31)"></path>
                <path d="M1148.39931,736.745635 C1148.39931,736.745635 1127.97931,720.655635 1089.07931,746.585635 C1079.23931,753.145635 1048.57931,731.995635 1038.59931,731.695635 C1030.26931,731.445635 1007.59931,718.065635 980.03931,743.815635 C952.47931,769.565635 943.94931,752.905635 933.08931,773.815635 C922.22931,794.725635 892.69931,823.035635 900.27931,804.605635 C907.85931,786.175635 906.83931,787.945635 893.96931,785.675635 C881.09931,783.405635 880.33931,790.215635 872.76931,791.225635 C865.19931,792.235635 852.57931,791.225635 850.04931,787.695635 C847.51931,784.165635 847.26931,794.765635 841.96931,795.775635 C836.66931,796.785635 836.15931,789.715635 831.61931,789.715635 C827.07931,789.715635 853.61931,783.655635 862.40931,776.335635 C871.19931,769.015635 887.40931,760.935635 865.68931,763.965635 C843.96931,766.995635 830.39931,773.335635 809.39931,765.515635 C788.39931,757.695635 783.64931,743.805635 781.12931,769.305635 C778.60931,794.805635 780.12931,800.605635 791.47931,800.605635 C802.82931,800.605635 802.07931,803.125635 795.76931,805.605635 C789.45931,808.085635 788.95931,813.685635 805.86931,810.605635 C822.77931,807.525635 850.03931,804.295635 835.14931,811.365635 C820.25931,818.435635 805.86931,813.135635 795.76931,822.475635 C785.66931,831.815635 767.76931,847.215635 792.48931,847.215635 C817.20931,847.215635 876.78931,843.425635 889.66931,833.585635 C902.54931,823.745635 908.72931,812.005635 923.61931,813.515635 C938.50931,815.025635 926.61931,828.915635 928.61931,835.725635 C930.61931,842.535635 978.84931,836.225635 986.41931,824.365635 C993.98931,812.505635 1004.84931,787.515635 1019.22931,794.585635 C1033.60931,801.655635 1014.42931,795.345635 1012.66931,814.525635 C1010.90931,833.705635 1000.80931,843.045635 1013.16931,843.045635 C1025.52931,843.045635 1105.04931,836.485635 1099.48931,827.395635 C1093.92931,818.305635 1075.39931,812.585635 1075.39931,809.055635 C1075.39931,805.525635 1090.53931,809.815635 1106.39931,814.055635 C1122.25931,818.295635 1143.75931,796.635635 1153.34931,796.635635 C1162.93931,796.635635 1163.44931,761.805635 1155.86931,749.185635 C1148.28931,736.565635 1148.39931,736.745635 1148.39931,736.745635 Z" id="Shape-Copy-11" fill="url(#linearGradient-31)" transform="translate(970.549137, 787.607817) rotate(180.000000) translate(-970.549137, -787.607817) "></path>
                <path d="M969.861368,615.119132 C969.861368,615.119132 955.651368,611.119132 940.911368,633.209132 C937.181368,638.799132 916.501368,634.389132 911.201368,636.409132 C906.781368,638.089132 891.951368,636.039132 883.141368,655.529132 C874.331368,675.019132 866.201368,668.159132 865.081368,681.529132 C863.961368,694.899132 854.641368,716.139132 854.591368,704.829132 C854.541368,693.519132 854.401368,694.669132 847.151368,696.279132 C839.901368,697.889132 841.001368,701.629132 837.251368,703.809132 C833.501368,705.989132 826.661368,708.209132 824.571368,706.909132 C822.481368,705.609132 824.661368,711.219132 822.101368,712.909132 C819.541368,714.599132 817.741368,710.999132 815.351368,711.989132 C812.961368,712.979132 825.541368,703.989132 828.581368,698.259132 C831.621368,692.529132 838.321368,684.739132 827.581368,691.059132 C816.841368,697.379132 811.091368,703.659132 798.401368,704.129132 C785.711368,704.599132 780.171368,698.369132 784.401368,712.279132 C788.631368,726.189132 790.701368,728.909132 796.651368,726.429132 C802.601368,723.949132 802.761368,725.429132 800.001368,728.139132 C797.241368,730.849132 798.191368,733.859132 806.391368,728.579132 C814.591368,723.299132 828.171368,715.639132 821.901368,722.579132 C815.631368,729.519132 806.901368,729.889132 803.681368,736.989132 C800.461368,744.089132 794.391368,756.069132 807.351368,750.669132 C820.311368,745.269132 850.721368,730.299132 855.351368,722.329132 C859.981368,714.359132 860.631368,706.859132 868.771368,704.409132 C876.911368,701.959132 873.721368,711.819132 876.261368,714.949132 C878.801368,718.079132 902.701368,704.259132 904.081368,696.389132 C905.461368,688.519132 905.701368,673.049132 914.791368,673.619132 C923.881368,674.189132 912.441368,675.059132 915.701368,685.499132 C918.961368,695.939132 915.701368,703.039132 922.181368,700.339132 C928.661368,697.639132 968.911368,676.859132 964.021368,673.339132 C959.131368,669.819132 948.071368,670.819132 947.301368,668.959132 C946.531368,667.099132 955.401368,666.049132 964.681368,664.839132 C973.961368,663.629132 980.461368,647.559132 985.491368,645.469132 C990.521368,643.379132 983.191368,625.009132 976.491368,620.039132 C969.791368,615.069132 969.861368,615.119132 969.861368,615.119132 Z" id="Shape" fill="url(#linearGradient-32)"></path>
                <path d="M1120.86137,19.5124877 C1120.86137,19.5124877 1106.65137,15.5124877 1091.91137,37.6024877 C1088.18137,43.1924877 1067.50137,38.7824877 1062.20137,40.8024877 C1057.78137,42.4824877 1042.95137,40.4324877 1034.14137,59.9224877 C1025.33137,79.4124877 1017.20137,72.5524877 1016.08137,85.9224877 C1014.96137,99.2924877 1005.64137,120.532488 1005.59137,109.222488 C1005.54137,97.9124877 1005.40137,99.0624877 998.151368,100.672488 C990.901368,102.282488 992.001368,106.022488 988.251368,108.202488 C984.501368,110.382488 977.661368,112.602488 975.571368,111.302488 C973.481368,110.002488 975.661368,115.612488 973.101368,117.302488 C970.541368,118.992488 968.741368,115.392488 966.351368,116.382488 C963.961368,117.372488 976.541368,108.382488 979.581368,102.652488 C982.621368,96.9224877 989.321368,89.1324877 978.581368,95.4524877 C967.841368,101.772488 962.091368,108.052488 949.401368,108.522488 C936.711368,108.992488 931.171368,102.762488 935.401368,116.672488 C939.631368,130.582488 941.701368,133.302488 947.651368,130.822488 C953.601368,128.342488 953.761368,129.822488 951.001368,132.532488 C948.241368,135.242488 949.191368,138.252488 957.391368,132.972488 C965.591368,127.692488 979.171368,120.032488 972.901368,126.972488 C966.631368,133.912488 957.901368,134.282488 954.681368,141.382488 C951.461368,148.482488 945.391368,160.462488 958.351368,155.062488 C971.311368,149.662488 1001.72137,134.692488 1006.35137,126.722488 C1010.98137,118.752488 1011.63137,111.252488 1019.77137,108.802488 C1027.91137,106.352488 1024.72137,116.212488 1027.26137,119.342488 C1029.80137,122.472488 1053.70137,108.652488 1055.08137,100.782488 C1056.46137,92.9124877 1056.70137,77.4424877 1065.79137,78.0124877 C1074.88137,78.5824877 1063.44137,79.4524877 1066.70137,89.8924877 C1069.96137,100.332488 1066.70137,107.432488 1073.18137,104.732488 C1079.66137,102.032488 1119.91137,81.2524877 1115.02137,77.7324877 C1110.13137,74.2124877 1099.07137,75.2124877 1098.30137,73.3524877 C1097.53137,71.4924877 1106.40137,70.4424877 1115.68137,69.2324877 C1124.96137,68.0224877 1131.46137,51.9524877 1136.49137,49.8624877 C1141.52137,47.7724877 1134.19137,29.4024877 1127.49137,24.4324877 C1120.79137,19.4624877 1120.86137,19.5124877 1120.86137,19.5124877 Z" id="Shape-Copy-12" fill="url(#linearGradient-32)"></path>
                <path d="M1095.5,354.34 C1095.5,354.34 1088.97,350.12 1078.11,358.92 C1075.36,361.15 1065.64,355.7 1062.66,355.92 C1060.17,356.08 1053.04,352.73 1045.56,361.16 C1038.08,369.59 1035.07,364.87 1032.42,371.41 C1029.77,377.95 1021.77,387.19 1023.51,381.49 C1025.25,375.79 1025,376.35 1021.1,376.03 C1017.2,375.71 1017.17,377.76 1014.94,378.27 C1012.71,378.78 1008.94,378.83 1008.08,377.85 C1007.22,376.87 1007.45,380.03 1005.9,380.48 C1004.35,380.93 1004,378.84 1002.65,378.96 C1001.3,379.08 1009.02,376.54 1011.45,374.12 C1013.88,371.7 1018.45,368.84 1012.08,370.35 C1005.71,371.86 1001.82,374.12 995.36,372.35 C988.9,370.58 987.09,366.6 987.05,374.27 C987.01,381.94 987.62,383.62 991.05,383.27 C994.48,382.92 994.28,383.73 992.47,384.65 C990.66,385.57 990.67,387.24 995.62,385.87 C1000.57,384.5 1008.62,382.76 1004.36,385.28 C1000.1,387.8 995.69,386.62 992.94,389.68 C990.19,392.74 985.29,397.83 992.65,397.14 C1000.01,396.45 1017.65,393.66 1021.21,390.37 C1024.77,387.08 1026.28,383.37 1030.76,383.45 C1035.24,383.53 1032.09,387.95 1032.88,389.92 C1033.67,391.89 1047.88,388.67 1049.77,384.92 C1051.66,381.17 1054.23,373.43 1058.71,375.14 C1063.19,376.85 1057.3,375.5 1057.31,381.26 C1057.32,387.02 1054.57,390.08 1058.26,389.74 C1061.95,389.4 1085.44,385.23 1083.53,382.67 C1081.62,380.11 1075.9,378.91 1075.8,377.86 C1075.7,376.81 1080.33,377.66 1085.19,378.5 C1090.05,379.34 1095.83,372.27 1098.68,372.01 C1101.53,371.75 1100.68,361.36 1098.11,357.81 C1095.54,354.26 1095.5,354.34 1095.5,354.34 Z" id="Shape" fill="url(#linearGradient-33)"></path>
                <path d="M894.68,123.11 C894.68,123.11 886.3,117.69 872.37,128.99 C868.84,131.85 856.37,124.86 852.55,125.11 C849.36,125.31 840.2,121.01 830.61,131.83 C821.02,142.65 817.15,136.59 813.75,145 C810.35,153.41 800.08,165.25 802.31,157.94 C804.54,150.63 804.22,151.34 799.22,150.94 C794.22,150.54 794.22,153.16 791.32,153.82 C788.42,154.48 783.61,154.54 782.51,153.28 C781.41,152.02 781.7,156.08 779.71,156.65 C777.72,157.22 777.28,154.54 775.54,154.71 C773.8,154.88 783.71,151.61 786.83,148.5 C789.95,145.39 795.83,141.72 787.64,143.66 C779.45,145.6 774.47,148.49 766.19,146.25 C757.91,144.01 755.58,138.88 755.52,148.71 C755.46,158.54 756.25,160.71 760.59,160.3 C764.93,159.89 764.73,160.89 762.41,162.08 C760.09,163.27 760.09,165.41 766.41,163.65 C772.73,161.89 783.06,159.65 777.62,162.89 C772.18,166.13 766.5,164.61 762.97,168.54 C759.44,172.47 753.15,178.99 762.6,178.11 C772.05,177.23 794.67,173.65 799.24,169.43 C803.81,165.21 805.75,160.5 811.49,160.55 C817.23,160.6 813.2,166.32 814.21,168.86 C815.22,171.4 833.42,167.26 835.89,162.45 C838.36,157.64 841.61,147.71 847.36,149.9 C853.11,152.09 845.55,150.36 845.57,157.75 C845.59,165.14 842.06,169.07 846.78,168.63 C851.5,168.19 881.65,162.84 879.2,159.56 C876.75,156.28 869.41,154.74 869.28,153.39 C869.15,152.04 875.09,153.14 881.28,154.21 C887.47,155.28 894.93,146.21 898.59,145.88 C902.25,145.55 901.2,132.21 897.86,127.66 C894.52,123.11 894.68,123.11 894.68,123.11 Z" id="Shape" fill="url(#linearGradient-34)"></path>
                <path d="M598.59,206.34 C605.127217,202.954125 610.791784,198.100738 615.14,192.16 C621.76,182.71 631.69,163.32 643.98,161.43 C656.27,159.54 684.16,162.85 686.98,174.67 C689.8,186.49 708.25,186.02 679.89,206.34 C651.53,226.66 661.45,198.34 653.89,198.78 C646.33,199.22 631.67,214.85 611.82,213.91 C591.97,212.97 598.59,206.34 598.59,206.34 Z" id="Shape" fill="url(#linearGradient-35)"></path>
                <path d="M629.05984,457.406888 C635.597057,454.021014 641.261624,449.167626 645.60984,443.226888 C652.22984,433.776888 662.15984,414.386888 674.44984,412.496888 C686.73984,410.606888 714.62984,413.916888 717.44984,425.736888 C720.26984,437.556888 738.71984,437.086888 710.35984,457.406888 C681.99984,477.726888 691.91984,449.406888 684.35984,449.846888 C676.79984,450.286888 662.13984,465.916888 642.28984,464.976888 C622.43984,464.036888 629.05984,457.406888 629.05984,457.406888 Z" id="Shape-Copy-13" fill="url(#linearGradient-35)" transform="translate(676.973875, 438.508819) rotate(-40.000000) translate(-676.973875, -438.508819) "></path>
                <path d="M279.641671,527.684803 C286.178888,524.298928 291.843455,519.445541 296.191671,513.504803 C302.811671,504.054803 312.741671,484.664803 325.031671,482.774803 C337.321671,480.884803 365.211671,484.194803 368.031671,496.014803 C370.851671,507.834803 389.301671,507.364803 360.941671,527.684803 C332.581671,548.004803 342.501671,519.684803 334.941671,520.124803 C327.381671,520.564803 312.721671,536.194803 292.871671,535.254803 C273.021671,534.314803 279.641671,527.684803 279.641671,527.684803 Z" id="Shape-Copy-14" fill="url(#linearGradient-35)" transform="translate(327.555705, 508.786733) rotate(-40.000000) translate(-327.555705, -508.786733) "></path>
                <path d="M351.641671,440.684803 C358.178888,437.298928 363.843455,432.445541 368.191671,426.504803 C374.811671,417.054803 384.741671,397.664803 397.031671,395.774803 C409.321671,393.884803 437.211671,397.194803 440.031671,409.014803 C442.851671,420.834803 461.301671,420.364803 432.941671,440.684803 C404.581671,461.004803 414.501671,432.684803 406.941671,433.124803 C399.381671,433.564803 384.721671,449.194803 364.871671,448.254803 C345.021671,447.314803 351.641671,440.684803 351.641671,440.684803 Z" id="Shape-Copy-15" fill="url(#linearGradient-35)" transform="translate(399.555705, 421.786733) rotate(-40.000000) translate(-399.555705, -421.786733) "></path>
                <path d="M388.753081,627.684803 C395.290298,624.298928 400.954865,619.445541 405.303081,613.504803 C411.923081,604.054803 421.853081,584.664803 434.143081,582.774803 C446.433081,580.884803 474.323081,584.194803 477.143081,596.014803 C479.963081,607.834803 498.413081,607.364803 470.053081,627.684803 C441.693081,648.004803 451.613081,619.684803 444.053081,620.124803 C436.493081,620.564803 421.833081,636.194803 401.983081,635.254803 C382.133081,634.314803 388.753081,627.684803 388.753081,627.684803 Z" id="Shape-Copy-16" fill="url(#linearGradient-35)" transform="translate(436.667115, 608.786733) rotate(-40.000000) translate(-436.667115, -608.786733) "></path>
                <path d="M351.641671,334.684803 C358.178888,331.298928 363.843455,326.445541 368.191671,320.504803 C374.811671,311.054803 384.741671,291.664803 397.031671,289.774803 C409.321671,287.884803 437.211671,291.194803 440.031671,303.014803 C442.851671,314.834803 461.301671,314.364803 432.941671,334.684803 C404.581671,355.004803 414.501671,326.684803 406.941671,327.124803 C399.381671,327.564803 384.721671,343.194803 364.871671,342.254803 C345.021671,341.314803 351.641671,334.684803 351.641671,334.684803 Z" id="Shape-Copy-17" fill="url(#linearGradient-35)" transform="translate(399.555705, 315.786733) rotate(-40.000000) translate(-399.555705, -315.786733) "></path>
                <path d="M677.05984,156.406888 C683.597057,153.021014 689.261624,148.167626 693.60984,142.226888 C700.22984,132.776888 710.15984,113.386888 722.44984,111.496888 C734.73984,109.606888 762.62984,112.916888 765.44984,124.736888 C768.26984,136.556888 786.71984,136.086888 758.35984,156.406888 C729.99984,176.726888 739.91984,148.406888 732.35984,148.846888 C724.79984,149.286888 710.13984,164.916888 690.28984,163.976888 C670.43984,163.036888 677.05984,156.406888 677.05984,156.406888 Z" id="Shape-Copy-18" fill="url(#linearGradient-35)" transform="translate(724.973875, 137.508819) rotate(180.000000) translate(-724.973875, -137.508819) "></path>
                <path d="M837.05984,100.701934 C843.597057,97.3160595 849.261624,92.4626723 853.60984,86.521934 C860.22984,77.071934 870.15984,57.681934 882.44984,55.791934 C894.73984,53.901934 922.62984,57.211934 925.44984,69.031934 C928.26984,80.851934 946.71984,80.381934 918.35984,100.701934 C889.99984,121.021934 899.91984,92.701934 892.35984,93.141934 C884.79984,93.581934 870.13984,109.211934 850.28984,108.271934 C830.43984,107.331934 837.05984,100.701934 837.05984,100.701934 Z" id="Shape-Copy-19" fill="url(#linearGradient-35)" transform="translate(884.973875, 81.803865) rotate(180.000000) translate(-884.973875, -81.803865) "></path>
                <path d="M1062.05984,166.899364 C1068.59706,163.51349 1074.26162,158.660102 1078.60984,152.719364 C1085.22984,143.269364 1095.15984,123.879364 1107.44984,121.989364 C1119.73984,120.099364 1147.62984,123.409364 1150.44984,135.229364 C1153.26984,147.049364 1171.71984,146.579364 1143.35984,166.899364 C1114.99984,187.219364 1124.91984,158.899364 1117.35984,159.339364 C1109.79984,159.779364 1095.13984,175.409364 1075.28984,174.469364 C1055.43984,173.529364 1062.05984,166.899364 1062.05984,166.899364 Z" id="Shape-Copy-20" fill="url(#linearGradient-35)" transform="translate(1109.973875, 148.001295) rotate(180.000000) translate(-1109.973875, -148.001295) "></path>
                <path d="M920.05984,283.144666 C926.597057,279.758791 932.261624,274.905404 936.60984,268.964666 C943.22984,259.514666 953.15984,240.124666 965.44984,238.234666 C977.73984,236.344666 1005.62984,239.654666 1008.44984,251.474666 C1011.26984,263.294666 1029.71984,262.824666 1001.35984,283.144666 C972.99984,303.464666 982.91984,275.144666 975.35984,275.584666 C967.79984,276.024666 953.13984,291.654666 933.28984,290.714666 C913.43984,289.774666 920.05984,283.144666 920.05984,283.144666 Z" id="Shape-Copy-21" fill="url(#linearGradient-35)" transform="translate(967.973875, 264.246597) rotate(180.000000) translate(-967.973875, -264.246597) "></path>
                <path d="M447.384055,517.135221 C453.295674,514.073367 458.418154,509.684438 462.350255,504.312216 C468.336736,495.766561 477.316456,478.232142 488.43033,476.523011 C499.544203,474.81388 524.76519,477.80712 527.315322,488.495971 C529.865454,499.184823 546.549829,498.759801 520.90382,517.135221 C495.257811,535.51064 504.228488,509.900803 497.391964,510.298696 C490.55544,510.696589 477.29837,524.830832 459.347972,523.980788 C441.397574,523.130744 447.384055,517.135221 447.384055,517.135221 Z" id="Shape-Copy-22" fill="url(#linearGradient-35)" transform="translate(490.712819, 500.045656) rotate(180.000000) translate(-490.712819, -500.045656) "></path>
                <path d="M699.619779,585.990432 C699.619779,585.990432 687.799779,565.660432 699.619779,561.410432 C711.439779,557.160432 713.799779,563.300432 734.129779,569.410432 C754.459779,575.520432 759.659779,573.190432 775.259779,573.190432 C790.859779,573.190432 784.709779,589.740432 771.949779,591.630432 C759.189779,593.520432 753.039779,592.580432 735.079779,599.190432 C717.119779,605.800432 710.969779,612.430432 703.409779,614.320432 C695.849779,616.210432 697.259779,608.170432 679.769779,616.210432 C662.279779,624.250432 658.019779,620.460432 659.439779,617.630432 C660.859779,614.800432 678.819779,602.090432 688.739779,602.090432 C698.659779,602.090432 699.619779,585.990432 699.619779,585.990432 Z" id="Shape-Copy-26" fill="url(#linearGradient-16)"></path>
                <path d="M863.958416,424.061547 C869.870035,420.999693 874.992515,416.610765 878.924617,411.238542 C884.911097,402.692887 893.890817,385.158468 905.004691,383.449337 C916.118564,381.740206 941.339552,384.733446 943.889684,395.422298 C946.439816,406.111149 963.124191,405.686127 937.478181,424.061547 C911.832172,442.436967 920.80285,416.82713 913.966325,417.225023 C907.129801,417.622916 893.872731,431.757158 875.922333,430.907114 C857.971936,430.05707 863.958416,424.061547 863.958416,424.061547 Z" id="Shape-Copy-25" fill="url(#linearGradient-35)" transform="translate(907.287181, 406.971982) rotate(180.000000) translate(-907.287181, -406.971982) "></path>
                <path d="M538.865813,454.040314 C543.046739,451.874852 546.669555,448.770832 549.450489,444.971389 C553.684359,438.927571 560.035164,426.526552 567.895325,425.317789 C575.755487,424.109025 593.592744,426.22596 595.396296,433.785529 C597.199848,441.345098 608.999683,441.044506 590.861833,454.040314 C572.723984,467.036121 579.068394,448.923854 574.23334,449.205259 C569.398285,449.486665 560.022373,459.482948 547.327158,458.881764 C534.631943,458.28058 538.865813,454.040314 538.865813,454.040314 Z" id="Shape-Copy-23" fill="url(#linearGradient-35)" transform="translate(569.509590, 441.953913) rotate(180.000000) translate(-569.509590, -441.953913) "></path>
                <path d="M585.69,266.63 C595.417725,262.428911 604.493287,256.855607 612.64,250.08 C626.35,238.73 636.75,240.15 643.84,240.15 C650.93,240.15 658.49,231.64 661.33,233.53 C664.17,235.42 665.58,234.95 652.82,245.82 C640.06,256.69 612.64,270.4 606.49,273.71 C600.34,277.02 592.78,285.53 585.69,287.89 C578.6,290.25 579.54,279.38 583.33,274.65 C587.12,269.92 585.69,266.63 585.69,266.63 Z" id="Shape" fill="url(#linearGradient-36)"></path>
                <path d="M561.69,316.63 C571.417725,312.428911 580.493287,306.855607 588.64,300.08 C602.35,288.73 612.75,290.15 619.84,290.15 C626.93,290.15 634.49,281.64 637.33,283.53 C640.17,285.42 641.58,284.95 628.82,295.82 C616.06,306.69 588.64,320.4 582.49,323.71 C576.34,327.02 568.78,335.53 561.69,337.89 C554.6,340.25 555.54,329.38 559.33,324.65 C563.12,319.92 561.69,316.63 561.69,316.63 Z" id="Shape" fill="url(#linearGradient-37)"></path>
                <path d="M604.222512,436.965579 C612.005548,432.685039 619.266796,427.006332 625.784884,420.102585 C636.75409,408.537933 645.075006,409.984788 650.74763,409.984788 C656.420254,409.984788 662.468919,401.313847 664.741169,403.23959 C667.013419,405.165334 668.141543,404.686445 657.93242,415.762019 C647.723297,426.837594 625.784884,440.806878 620.864342,444.179477 C615.943801,447.552076 609.895136,456.223017 604.222512,458.62765 C598.549888,461.032282 599.30197,449.956708 602.334304,445.137254 C605.366638,440.3178 604.222512,436.965579 604.222512,436.965579 Z" id="Shape-Copy-24" fill="url(#linearGradient-37)"></path>
                <path d="M80.69,166.63 C90.417725,162.428911 99.4932866,156.855607 107.64,150.08 C121.35,138.73 131.75,140.15 138.84,140.15 C145.93,140.15 153.49,131.64 156.33,133.53 C159.17,135.42 160.58,134.95 147.82,145.82 C135.06,156.69 107.64,170.4 101.49,173.71 C95.34,177.02 87.78,185.53 80.69,187.89 C73.6,190.25 74.54,179.38 78.33,174.65 C82.12,169.92 80.69,166.63 80.69,166.63 Z" id="Shape" fill="url(#linearGradient-38)"></path>
                <path d="M462.11,275.94 C462.11,275.94 502.29,240.94 525.93,234.81 C549.57,228.68 572.26,222.99 576.51,234.81 C580.76,246.63 566.58,253.72 559.02,262.23 C551.46,270.74 538.69,280.23 537.27,284.92 C535.85,289.61 529.71,286.34 525,275 C520.29,263.66 495.22,275.47 483.4,280.2 C471.58,284.93 454.09,292.49 454.09,286.82 C454.09,281.15 462.11,275.94 462.11,275.94 Z" id="Shape" fill="url(#linearGradient-39)"></path>
                <path d="M1157.11,321.94 C1157.11,321.94 1197.29,286.94 1220.93,280.81 C1244.57,274.68 1267.26,268.99 1271.51,280.81 C1275.76,292.63 1261.58,299.72 1254.02,308.23 C1246.46,316.74 1233.69,326.23 1232.27,330.92 C1230.85,335.61 1224.71,332.34 1219.98,320.99 C1215.25,309.64 1190.2,321.46 1178.38,326.19 C1166.56,330.92 1149.07,338.48 1149.07,332.81 C1149.07,327.14 1157.11,321.94 1157.11,321.94 Z" id="Shape" fill="url(#linearGradient-40)"></path>
                <path d="M723.07,244.85 C723.07,244.85 710.07,222.55 723.07,217.85 C736.07,213.15 738.63,219.92 760.93,226.67 C783.23,233.42 788.93,230.82 806.05,230.82 C823.17,230.82 816.42,248.97 802.42,251.05 C788.42,253.13 801.71,291.74 782,299 C762.29,306.26 735.52,273.89 727.22,276 C718.92,278.11 720.48,269.26 701.29,278.07 C682.1,286.88 677.43,282.74 678.99,279.63 C680.55,276.52 700.25,262.52 711.14,262.52 C722.03,262.52 723.07,244.85 723.07,244.85 Z" id="Shape" fill="url(#linearGradient-41)"></path>
                <path d="M734,362 C734,362 758.11,334.55 771.07,329.88 C784.03,325.21 786.63,331.95 808.93,338.7 C831.23,345.45 836.93,342.85 854.05,342.85 C871.17,342.85 864.42,361 850.42,363.08 C836.42,365.16 866.71,371.74 847,379 C827.29,386.26 834.3,420.93 826,423 C817.7,425.07 768.48,381.22 749.29,390 C730.1,398.78 725.43,394.67 726.99,391.56 C728.55,388.45 748.25,374.45 759.14,374.45 C770.03,374.45 734,362 734,362 Z" id="Shape" fill="url(#linearGradient-42)"></path>
                <path d="M714.288449,55.9301395 C714.288449,55.9301395 738.398449,28.4801395 751.358449,23.8101395 C764.318449,19.1401395 766.918449,25.8801395 789.218449,32.6301395 C811.518449,39.3801395 817.218449,36.7801395 834.338449,36.7801395 C851.458449,36.7801395 844.708449,54.9301395 830.708449,57.0101395 C816.708449,59.0901395 846.998449,65.6701395 827.288449,72.9301395 C807.578449,80.1901395 814.588449,114.860139 806.288449,116.930139 C797.988449,119.000139 748.768449,75.1501395 729.578449,83.9301395 C710.388449,92.7101395 705.718449,88.6001395 707.278449,85.4901395 C708.838449,82.3801395 728.538449,68.3801395 739.428449,68.3801395 C750.318449,68.3801395 714.288449,55.9301395 714.288449,55.9301395 Z" id="Shape-Copy-2" fill="url(#linearGradient-42)"></path>
                <path d="M1149.07,76.85 C1149.07,76.85 1136.07,54.55 1149.07,49.85 C1162.07,45.15 1164.63,51.92 1186.93,58.67 C1209.23,65.42 1214.93,62.82 1232.05,62.82 C1249.17,62.82 1242.42,80.97 1228.42,83.05 C1214.42,85.13 1207.68,84.05 1187.97,91.35 C1168.26,98.65 1161.52,105.87 1153.22,107.95 C1144.92,110.03 1146.48,101.21 1127.29,110.02 C1108.1,118.83 1103.43,114.69 1104.99,111.58 C1106.55,108.47 1126.25,94.47 1137.14,94.47 C1148.03,94.47 1149.07,76.85 1149.07,76.85 Z" id="Shape" fill="url(#linearGradient-43)"></path>
                <path d="M909.58,304.23 C913.73,293.86 921.51,301.12 923.58,308.38 C925.65,315.64 931.88,318.75 933.95,328.09 C936.02,337.43 928.76,348.32 937.06,354.54 C945.36,360.76 945.36,355.54 945.36,350.39 C945.36,345.24 951.58,371.13 947.95,374.25 C944.32,377.37 929.28,360.77 929.28,353.51 C929.28,346.25 927.21,378.4 914.76,379.44 C902.31,380.48 876.38,366.44 876.38,356.62 C876.38,346.8 890.9,349.36 899.2,347.8 C907.5,346.24 906.98,330.17 903.35,322.91 C899.72,315.65 909.58,304.23 909.58,304.23 Z" id="Shape" fill="url(#linearGradient-44)"></path>
            </g>
        </g>
    </g>
</svg>